<svg xmlns="http://www.w3.org/2000/svg" xmlns:xlink="http://www.w3.org/1999/xlink" width="500" zoomAndPan="magnify" viewBox="0 0 375 374.999991" height="500" preserveAspectRatio="xMidYMid meet" version="1.0"><defs><filter x="0%" y="0%" width="100%" height="100%" id="9007702690"><feColorMatrix values="0 0 0 0 1 0 0 0 0 1 0 0 0 0 1 0 0 0 1 0" color-interpolation-filters="sRGB"/></filter><g/><clipPath id="144b0ba169"><path d="M 141.828125 55.683594 L 169.578125 55.683594 L 169.578125 83.433594 L 141.828125 83.433594 Z M 141.828125 55.683594 " clip-rule="nonzero"/></clipPath><clipPath id="2d6c80f71f"><path d="M 0 0 L 375 0 L 375 185.839844 L 0 185.839844 Z M 0 0 " clip-rule="nonzero"/></clipPath><clipPath id="d877a486e7"><path d="M 0 0 L 375 0 L 375 185.839844 L 0 185.839844 Z M 0 0 " clip-rule="nonzero"/></clipPath><clipPath id="471afd8d6a"><path d="M 0 0 L 375 0 L 375 184.902344 L 0 184.902344 Z M 0 0 " clip-rule="nonzero"/></clipPath><linearGradient x1="0.365041" gradientTransform="matrix(0.937254, 0, 0, 0.937667, -0.342132, 32.999196)" y1="33.5" x2="400.470193" gradientUnits="userSpaceOnUse" y2="33.5" id="774b1eb8fc"><stop stop-opacity="1" stop-color="rgb(54.899597%, 32.159424%, 100%)" offset="0"/><stop stop-opacity="1" stop-color="rgb(54.859924%, 32.189941%, 99.95575%)" offset="0.03125"/><stop stop-opacity="1" stop-color="rgb(54.59137%, 32.398987%, 99.656677%)" offset="0.0351562"/><stop stop-opacity="1" stop-color="rgb(54.362488%, 32.577515%, 99.401855%)" offset="0.0390625"/><stop stop-opacity="1" stop-color="rgb(54.133606%, 32.754517%, 99.147034%)" offset="0.0429688"/><stop stop-opacity="1" stop-color="rgb(53.90625%, 32.933044%, 98.892212%)" offset="0.046875"/><stop stop-opacity="1" stop-color="rgb(53.677368%, 33.110046%, 98.63739%)" offset="0.0507812"/><stop stop-opacity="1" stop-color="rgb(53.448486%, 33.288574%, 98.382568%)" offset="0.0546875"/><stop stop-opacity="1" stop-color="rgb(53.219604%, 33.467102%, 98.127747%)" offset="0.0585938"/><stop stop-opacity="1" stop-color="rgb(52.990723%, 33.64563%, 97.872925%)" offset="0.0625"/><stop stop-opacity="1" stop-color="rgb(52.761841%, 33.822632%, 97.618103%)" offset="0.0664062"/><stop stop-opacity="1" stop-color="rgb(52.532959%, 34.00116%, 97.363281%)" offset="0.0703125"/><stop stop-opacity="1" stop-color="rgb(52.304077%, 34.178162%, 97.108459%)" offset="0.0742188"/><stop stop-opacity="1" stop-color="rgb(52.076721%, 34.356689%, 96.853638%)" offset="0.078125"/><stop stop-opacity="1" stop-color="rgb(51.847839%, 34.533691%, 96.598816%)" offset="0.0820313"/><stop stop-opacity="1" stop-color="rgb(51.618958%, 34.712219%, 96.343994%)" offset="0.0859375"/><stop stop-opacity="1" stop-color="rgb(51.390076%, 34.890747%, 96.089172%)" offset="0.0898438"/><stop stop-opacity="1" stop-color="rgb(51.161194%, 35.069275%, 95.834351%)" offset="0.09375"/><stop stop-opacity="1" stop-color="rgb(50.932312%, 35.246277%, 95.579529%)" offset="0.0976563"/><stop stop-opacity="1" stop-color="rgb(50.704956%, 35.424805%, 95.324707%)" offset="0.101563"/><stop stop-opacity="1" stop-color="rgb(50.476074%, 35.601807%, 95.069885%)" offset="0.105469"/><stop stop-opacity="1" stop-color="rgb(50.247192%, 35.780334%, 94.815063%)" offset="0.109375"/><stop stop-opacity="1" stop-color="rgb(50.018311%, 35.958862%, 94.560242%)" offset="0.113281"/><stop stop-opacity="1" stop-color="rgb(49.789429%, 36.13739%, 94.30542%)" offset="0.117188"/><stop stop-opacity="1" stop-color="rgb(49.560547%, 36.314392%, 94.050598%)" offset="0.121094"/><stop stop-opacity="1" stop-color="rgb(49.331665%, 36.49292%, 93.795776%)" offset="0.125"/><stop stop-opacity="1" stop-color="rgb(49.102783%, 36.669922%, 93.540955%)" offset="0.128906"/><stop stop-opacity="1" stop-color="rgb(48.875427%, 36.84845%, 93.286133%)" offset="0.132813"/><stop stop-opacity="1" stop-color="rgb(48.646545%, 37.026978%, 93.031311%)" offset="0.136719"/><stop stop-opacity="1" stop-color="rgb(48.417664%, 37.205505%, 92.776489%)" offset="0.140625"/><stop stop-opacity="1" stop-color="rgb(48.188782%, 37.382507%, 92.521667%)" offset="0.144531"/><stop stop-opacity="1" stop-color="rgb(47.9599%, 37.561035%, 92.266846%)" offset="0.148438"/><stop stop-opacity="1" stop-color="rgb(47.731018%, 37.738037%, 92.012024%)" offset="0.152344"/><stop stop-opacity="1" stop-color="rgb(47.503662%, 37.916565%, 91.757202%)" offset="0.15625"/><stop stop-opacity="1" stop-color="rgb(47.27478%, 38.095093%, 91.50238%)" offset="0.160156"/><stop stop-opacity="1" stop-color="rgb(47.045898%, 38.273621%, 91.247559%)" offset="0.164063"/><stop stop-opacity="1" stop-color="rgb(46.817017%, 38.450623%, 90.992737%)" offset="0.167969"/><stop stop-opacity="1" stop-color="rgb(46.588135%, 38.62915%, 90.737915%)" offset="0.171875"/><stop stop-opacity="1" stop-color="rgb(46.359253%, 38.806152%, 90.483093%)" offset="0.175781"/><stop stop-opacity="1" stop-color="rgb(46.131897%, 38.98468%, 90.228271%)" offset="0.179688"/><stop stop-opacity="1" stop-color="rgb(45.903015%, 39.163208%, 89.97345%)" offset="0.183594"/><stop stop-opacity="1" stop-color="rgb(45.674133%, 39.341736%, 89.718628%)" offset="0.1875"/><stop stop-opacity="1" stop-color="rgb(45.445251%, 39.518738%, 89.463806%)" offset="0.191406"/><stop stop-opacity="1" stop-color="rgb(45.21637%, 39.697266%, 89.208984%)" offset="0.195313"/><stop stop-opacity="1" stop-color="rgb(44.987488%, 39.874268%, 88.954163%)" offset="0.199219"/><stop stop-opacity="1" stop-color="rgb(44.758606%, 40.052795%, 88.699341%)" offset="0.203125"/><stop stop-opacity="1" stop-color="rgb(44.529724%, 40.231323%, 88.444519%)" offset="0.207031"/><stop stop-opacity="1" stop-color="rgb(44.302368%, 40.409851%, 88.189697%)" offset="0.210938"/><stop stop-opacity="1" stop-color="rgb(44.073486%, 40.586853%, 87.934875%)" offset="0.214844"/><stop stop-opacity="1" stop-color="rgb(43.844604%, 40.765381%, 87.680054%)" offset="0.21875"/><stop stop-opacity="1" stop-color="rgb(43.615723%, 40.942383%, 87.425232%)" offset="0.222656"/><stop stop-opacity="1" stop-color="rgb(43.386841%, 41.120911%, 87.17041%)" offset="0.226563"/><stop stop-opacity="1" stop-color="rgb(43.157959%, 41.299438%, 86.915588%)" offset="0.230469"/><stop stop-opacity="1" stop-color="rgb(42.930603%, 41.477966%, 86.660767%)" offset="0.234375"/><stop stop-opacity="1" stop-color="rgb(42.701721%, 41.654968%, 86.405945%)" offset="0.238281"/><stop stop-opacity="1" stop-color="rgb(42.472839%, 41.833496%, 86.151123%)" offset="0.242188"/><stop stop-opacity="1" stop-color="rgb(42.243958%, 42.010498%, 85.896301%)" offset="0.246094"/><stop stop-opacity="1" stop-color="rgb(42.015076%, 42.189026%, 85.641479%)" offset="0.25"/><stop stop-opacity="1" stop-color="rgb(41.786194%, 42.367554%, 85.386658%)" offset="0.253906"/><stop stop-opacity="1" stop-color="rgb(41.557312%, 42.546082%, 85.131836%)" offset="0.257812"/><stop stop-opacity="1" stop-color="rgb(41.32843%, 42.723083%, 84.877014%)" offset="0.261719"/><stop stop-opacity="1" stop-color="rgb(41.101074%, 42.901611%, 84.622192%)" offset="0.265625"/><stop stop-opacity="1" stop-color="rgb(40.872192%, 43.078613%, 84.367371%)" offset="0.269531"/><stop stop-opacity="1" stop-color="rgb(40.643311%, 43.257141%, 84.112549%)" offset="0.273438"/><stop stop-opacity="1" stop-color="rgb(40.414429%, 43.435669%, 83.857727%)" offset="0.277344"/><stop stop-opacity="1" stop-color="rgb(40.185547%, 43.614197%, 83.602905%)" offset="0.28125"/><stop stop-opacity="1" stop-color="rgb(39.956665%, 43.791199%, 83.348083%)" offset="0.285156"/><stop stop-opacity="1" stop-color="rgb(39.729309%, 43.969727%, 83.093262%)" offset="0.289063"/><stop stop-opacity="1" stop-color="rgb(39.500427%, 44.146729%, 82.83844%)" offset="0.292969"/><stop stop-opacity="1" stop-color="rgb(39.271545%, 44.325256%, 82.583618%)" offset="0.296875"/><stop stop-opacity="1" stop-color="rgb(39.042664%, 44.503784%, 82.328796%)" offset="0.300781"/><stop stop-opacity="1" stop-color="rgb(38.813782%, 44.682312%, 82.073975%)" offset="0.304688"/><stop stop-opacity="1" stop-color="rgb(38.5849%, 44.859314%, 81.819153%)" offset="0.308594"/><stop stop-opacity="1" stop-color="rgb(38.357544%, 45.037842%, 81.564331%)" offset="0.3125"/><stop stop-opacity="1" stop-color="rgb(38.128662%, 45.214844%, 81.309509%)" offset="0.316406"/><stop stop-opacity="1" stop-color="rgb(37.89978%, 45.393372%, 81.054688%)" offset="0.320313"/><stop stop-opacity="1" stop-color="rgb(37.670898%, 45.570374%, 80.799866%)" offset="0.324219"/><stop stop-opacity="1" stop-color="rgb(37.442017%, 45.748901%, 80.545044%)" offset="0.328125"/><stop stop-opacity="1" stop-color="rgb(37.213135%, 45.927429%, 80.290222%)" offset="0.332031"/><stop stop-opacity="1" stop-color="rgb(36.984253%, 46.105957%, 80.0354%)" offset="0.335938"/><stop stop-opacity="1" stop-color="rgb(36.755371%, 46.282959%, 79.780579%)" offset="0.339844"/><stop stop-opacity="1" stop-color="rgb(36.528015%, 46.461487%, 79.525757%)" offset="0.34375"/><stop stop-opacity="1" stop-color="rgb(36.299133%, 46.638489%, 79.270935%)" offset="0.347656"/><stop stop-opacity="1" stop-color="rgb(36.070251%, 46.817017%, 79.016113%)" offset="0.351563"/><stop stop-opacity="1" stop-color="rgb(35.84137%, 46.995544%, 78.761292%)" offset="0.355469"/><stop stop-opacity="1" stop-color="rgb(35.612488%, 47.174072%, 78.50647%)" offset="0.359375"/><stop stop-opacity="1" stop-color="rgb(35.383606%, 47.351074%, 78.251648%)" offset="0.363281"/><stop stop-opacity="1" stop-color="rgb(35.15625%, 47.529602%, 77.996826%)" offset="0.367188"/><stop stop-opacity="1" stop-color="rgb(34.927368%, 47.706604%, 77.742004%)" offset="0.371094"/><stop stop-opacity="1" stop-color="rgb(34.698486%, 47.885132%, 77.487183%)" offset="0.375"/><stop stop-opacity="1" stop-color="rgb(34.469604%, 48.06366%, 77.232361%)" offset="0.378906"/><stop stop-opacity="1" stop-color="rgb(34.240723%, 48.242188%, 76.977539%)" offset="0.382813"/><stop stop-opacity="1" stop-color="rgb(34.011841%, 48.419189%, 76.722717%)" offset="0.386719"/><stop stop-opacity="1" stop-color="rgb(33.782959%, 48.597717%, 76.467896%)" offset="0.390625"/><stop stop-opacity="1" stop-color="rgb(33.554077%, 48.774719%, 76.213074%)" offset="0.394531"/><stop stop-opacity="1" stop-color="rgb(33.326721%, 48.953247%, 75.958252%)" offset="0.398438"/><stop stop-opacity="1" stop-color="rgb(33.097839%, 49.131775%, 75.70343%)" offset="0.402344"/><stop stop-opacity="1" stop-color="rgb(32.868958%, 49.310303%, 75.448608%)" offset="0.40625"/><stop stop-opacity="1" stop-color="rgb(32.640076%, 49.487305%, 75.193787%)" offset="0.410156"/><stop stop-opacity="1" stop-color="rgb(32.411194%, 49.665833%, 74.938965%)" offset="0.414063"/><stop stop-opacity="1" stop-color="rgb(32.182312%, 49.842834%, 74.684143%)" offset="0.417969"/><stop stop-opacity="1" stop-color="rgb(31.954956%, 50.021362%, 74.429321%)" offset="0.421875"/><stop stop-opacity="1" stop-color="rgb(31.726074%, 50.19989%, 74.1745%)" offset="0.425781"/><stop stop-opacity="1" stop-color="rgb(31.497192%, 50.378418%, 73.919678%)" offset="0.429688"/><stop stop-opacity="1" stop-color="rgb(31.268311%, 50.55542%, 73.664856%)" offset="0.433594"/><stop stop-opacity="1" stop-color="rgb(31.039429%, 50.733948%, 73.410034%)" offset="0.4375"/><stop stop-opacity="1" stop-color="rgb(30.810547%, 50.91095%, 73.155212%)" offset="0.441406"/><stop stop-opacity="1" stop-color="rgb(30.583191%, 51.089478%, 72.900391%)" offset="0.445313"/><stop stop-opacity="1" stop-color="rgb(30.354309%, 51.268005%, 72.645569%)" offset="0.449219"/><stop stop-opacity="1" stop-color="rgb(30.125427%, 51.446533%, 72.390747%)" offset="0.453125"/><stop stop-opacity="1" stop-color="rgb(29.896545%, 51.623535%, 72.135925%)" offset="0.457031"/><stop stop-opacity="1" stop-color="rgb(29.667664%, 51.802063%, 71.881104%)" offset="0.460938"/><stop stop-opacity="1" stop-color="rgb(29.438782%, 51.979065%, 71.626282%)" offset="0.464844"/><stop stop-opacity="1" stop-color="rgb(29.2099%, 52.157593%, 71.37146%)" offset="0.46875"/><stop stop-opacity="1" stop-color="rgb(28.981018%, 52.336121%, 71.116638%)" offset="0.472656"/><stop stop-opacity="1" stop-color="rgb(28.753662%, 52.514648%, 70.861816%)" offset="0.476563"/><stop stop-opacity="1" stop-color="rgb(28.52478%, 52.69165%, 70.606995%)" offset="0.480469"/><stop stop-opacity="1" stop-color="rgb(28.295898%, 52.870178%, 70.352173%)" offset="0.484375"/><stop stop-opacity="1" stop-color="rgb(28.067017%, 53.04718%, 70.097351%)" offset="0.488281"/><stop stop-opacity="1" stop-color="rgb(27.838135%, 53.225708%, 69.842529%)" offset="0.492188"/><stop stop-opacity="1" stop-color="rgb(27.609253%, 53.404236%, 69.587708%)" offset="0.496094"/><stop stop-opacity="1" stop-color="rgb(27.381897%, 53.582764%, 69.332886%)" offset="0.5"/><stop stop-opacity="1" stop-color="rgb(27.153015%, 53.759766%, 69.078064%)" offset="0.503906"/><stop stop-opacity="1" stop-color="rgb(26.924133%, 53.938293%, 68.823242%)" offset="0.507813"/><stop stop-opacity="1" stop-color="rgb(26.695251%, 54.115295%, 68.56842%)" offset="0.511719"/><stop stop-opacity="1" stop-color="rgb(26.46637%, 54.293823%, 68.313599%)" offset="0.515625"/><stop stop-opacity="1" stop-color="rgb(26.237488%, 54.472351%, 68.058777%)" offset="0.519531"/><stop stop-opacity="1" stop-color="rgb(26.008606%, 54.650879%, 67.803955%)" offset="0.523438"/><stop stop-opacity="1" stop-color="rgb(25.779724%, 54.827881%, 67.549133%)" offset="0.527344"/><stop stop-opacity="1" stop-color="rgb(25.552368%, 55.006409%, 67.294312%)" offset="0.53125"/><stop stop-opacity="1" stop-color="rgb(25.323486%, 55.183411%, 67.03949%)" offset="0.535156"/><stop stop-opacity="1" stop-color="rgb(25.094604%, 55.361938%, 66.784668%)" offset="0.539063"/><stop stop-opacity="1" stop-color="rgb(24.865723%, 55.540466%, 66.529846%)" offset="0.542969"/><stop stop-opacity="1" stop-color="rgb(24.636841%, 55.718994%, 66.275024%)" offset="0.546875"/><stop stop-opacity="1" stop-color="rgb(24.407959%, 55.895996%, 66.020203%)" offset="0.550781"/><stop stop-opacity="1" stop-color="rgb(24.180603%, 56.074524%, 65.765381%)" offset="0.554688"/><stop stop-opacity="1" stop-color="rgb(23.951721%, 56.251526%, 65.510559%)" offset="0.558594"/><stop stop-opacity="1" stop-color="rgb(23.722839%, 56.430054%, 65.255737%)" offset="0.5625"/><stop stop-opacity="1" stop-color="rgb(23.493958%, 56.608582%, 65.000916%)" offset="0.566406"/><stop stop-opacity="1" stop-color="rgb(23.265076%, 56.787109%, 64.746094%)" offset="0.570313"/><stop stop-opacity="1" stop-color="rgb(23.036194%, 56.964111%, 64.491272%)" offset="0.574219"/><stop stop-opacity="1" stop-color="rgb(22.808838%, 57.142639%, 64.23645%)" offset="0.578125"/><stop stop-opacity="1" stop-color="rgb(22.579956%, 57.319641%, 63.981628%)" offset="0.582031"/><stop stop-opacity="1" stop-color="rgb(22.351074%, 57.498169%, 63.728333%)" offset="0.585938"/><stop stop-opacity="1" stop-color="rgb(22.122192%, 57.675171%, 63.473511%)" offset="0.589844"/><stop stop-opacity="1" stop-color="rgb(21.893311%, 57.853699%, 63.218689%)" offset="0.59375"/><stop stop-opacity="1" stop-color="rgb(21.664429%, 58.032227%, 62.963867%)" offset="0.597656"/><stop stop-opacity="1" stop-color="rgb(21.435547%, 58.210754%, 62.709045%)" offset="0.601563"/><stop stop-opacity="1" stop-color="rgb(21.206665%, 58.387756%, 62.454224%)" offset="0.605469"/><stop stop-opacity="1" stop-color="rgb(20.979309%, 58.566284%, 62.199402%)" offset="0.609375"/><stop stop-opacity="1" stop-color="rgb(20.750427%, 58.743286%, 61.94458%)" offset="0.613281"/><stop stop-opacity="1" stop-color="rgb(20.521545%, 58.921814%, 61.689758%)" offset="0.617188"/><stop stop-opacity="1" stop-color="rgb(20.292664%, 59.100342%, 61.434937%)" offset="0.621094"/><stop stop-opacity="1" stop-color="rgb(20.063782%, 59.27887%, 61.180115%)" offset="0.625"/><stop stop-opacity="1" stop-color="rgb(19.8349%, 59.455872%, 60.925293%)" offset="0.628906"/><stop stop-opacity="1" stop-color="rgb(19.607544%, 59.634399%, 60.670471%)" offset="0.632813"/><stop stop-opacity="1" stop-color="rgb(19.378662%, 59.811401%, 60.415649%)" offset="0.636719"/><stop stop-opacity="1" stop-color="rgb(19.14978%, 59.989929%, 60.160828%)" offset="0.640625"/><stop stop-opacity="1" stop-color="rgb(18.920898%, 60.168457%, 59.906006%)" offset="0.644531"/><stop stop-opacity="1" stop-color="rgb(18.692017%, 60.346985%, 59.651184%)" offset="0.648438"/><stop stop-opacity="1" stop-color="rgb(18.463135%, 60.523987%, 59.396362%)" offset="0.652344"/><stop stop-opacity="1" stop-color="rgb(18.234253%, 60.702515%, 59.141541%)" offset="0.65625"/><stop stop-opacity="1" stop-color="rgb(18.005371%, 60.879517%, 58.886719%)" offset="0.660156"/><stop stop-opacity="1" stop-color="rgb(17.778015%, 61.058044%, 58.631897%)" offset="0.664063"/><stop stop-opacity="1" stop-color="rgb(17.549133%, 61.236572%, 58.377075%)" offset="0.667969"/><stop stop-opacity="1" stop-color="rgb(17.320251%, 61.4151%, 58.122253%)" offset="0.671875"/><stop stop-opacity="1" stop-color="rgb(17.09137%, 61.592102%, 57.867432%)" offset="0.675781"/><stop stop-opacity="1" stop-color="rgb(16.862488%, 61.77063%, 57.61261%)" offset="0.679688"/><stop stop-opacity="1" stop-color="rgb(16.633606%, 61.947632%, 57.357788%)" offset="0.683594"/><stop stop-opacity="1" stop-color="rgb(16.40625%, 62.12616%, 57.102966%)" offset="0.6875"/><stop stop-opacity="1" stop-color="rgb(16.177368%, 62.304688%, 56.848145%)" offset="0.691406"/><stop stop-opacity="1" stop-color="rgb(15.948486%, 62.483215%, 56.593323%)" offset="0.695313"/><stop stop-opacity="1" stop-color="rgb(15.719604%, 62.660217%, 56.338501%)" offset="0.699219"/><stop stop-opacity="1" stop-color="rgb(15.490723%, 62.838745%, 56.083679%)" offset="0.703125"/><stop stop-opacity="1" stop-color="rgb(15.261841%, 63.015747%, 55.828857%)" offset="0.707031"/><stop stop-opacity="1" stop-color="rgb(15.034485%, 63.194275%, 55.574036%)" offset="0.710938"/><stop stop-opacity="1" stop-color="rgb(14.805603%, 63.372803%, 55.319214%)" offset="0.714844"/><stop stop-opacity="1" stop-color="rgb(14.576721%, 63.551331%, 55.064392%)" offset="0.71875"/><stop stop-opacity="1" stop-color="rgb(14.347839%, 63.728333%, 54.80957%)" offset="0.722656"/><stop stop-opacity="1" stop-color="rgb(14.118958%, 63.90686%, 54.554749%)" offset="0.726563"/><stop stop-opacity="1" stop-color="rgb(13.890076%, 64.083862%, 54.299927%)" offset="0.730469"/><stop stop-opacity="1" stop-color="rgb(13.661194%, 64.26239%, 54.045105%)" offset="0.734375"/><stop stop-opacity="1" stop-color="rgb(13.432312%, 64.440918%, 53.790283%)" offset="0.738281"/><stop stop-opacity="1" stop-color="rgb(13.204956%, 64.619446%, 53.535461%)" offset="0.742188"/><stop stop-opacity="1" stop-color="rgb(12.976074%, 64.796448%, 53.28064%)" offset="0.746094"/><stop stop-opacity="1" stop-color="rgb(12.747192%, 64.974976%, 53.025818%)" offset="0.75"/><stop stop-opacity="1" stop-color="rgb(12.518311%, 65.151978%, 52.770996%)" offset="0.753906"/><stop stop-opacity="1" stop-color="rgb(12.289429%, 65.330505%, 52.516174%)" offset="0.757813"/><stop stop-opacity="1" stop-color="rgb(12.060547%, 65.509033%, 52.261353%)" offset="0.761719"/><stop stop-opacity="1" stop-color="rgb(11.833191%, 65.687561%, 52.006531%)" offset="0.765625"/><stop stop-opacity="1" stop-color="rgb(11.604309%, 65.864563%, 51.751709%)" offset="0.769531"/><stop stop-opacity="1" stop-color="rgb(11.375427%, 66.043091%, 51.496887%)" offset="0.773438"/><stop stop-opacity="1" stop-color="rgb(11.146545%, 66.220093%, 51.242065%)" offset="0.777344"/><stop stop-opacity="1" stop-color="rgb(10.917664%, 66.398621%, 50.987244%)" offset="0.78125"/><stop stop-opacity="1" stop-color="rgb(10.688782%, 66.577148%, 50.732422%)" offset="0.785156"/><stop stop-opacity="1" stop-color="rgb(10.4599%, 66.755676%, 50.4776%)" offset="0.789063"/><stop stop-opacity="1" stop-color="rgb(10.231018%, 66.932678%, 50.222778%)" offset="0.792969"/><stop stop-opacity="1" stop-color="rgb(10.003662%, 67.111206%, 49.967957%)" offset="0.796875"/><stop stop-opacity="1" stop-color="rgb(9.77478%, 67.288208%, 49.713135%)" offset="0.800781"/><stop stop-opacity="1" stop-color="rgb(9.545898%, 67.466736%, 49.458313%)" offset="0.804688"/><stop stop-opacity="1" stop-color="rgb(9.317017%, 67.645264%, 49.203491%)" offset="0.808594"/><stop stop-opacity="1" stop-color="rgb(9.088135%, 67.823792%, 48.948669%)" offset="0.8125"/><stop stop-opacity="1" stop-color="rgb(8.859253%, 68.000793%, 48.693848%)" offset="0.816406"/><stop stop-opacity="1" stop-color="rgb(8.631897%, 68.179321%, 48.439026%)" offset="0.820313"/><stop stop-opacity="1" stop-color="rgb(8.403015%, 68.356323%, 48.184204%)" offset="0.824219"/><stop stop-opacity="1" stop-color="rgb(8.174133%, 68.534851%, 47.929382%)" offset="0.828125"/><stop stop-opacity="1" stop-color="rgb(7.945251%, 68.711853%, 47.674561%)" offset="0.832031"/><stop stop-opacity="1" stop-color="rgb(7.71637%, 68.890381%, 47.419739%)" offset="0.835938"/><stop stop-opacity="1" stop-color="rgb(7.487488%, 69.068909%, 47.164917%)" offset="0.839844"/><stop stop-opacity="1" stop-color="rgb(7.260132%, 69.247437%, 46.910095%)" offset="0.84375"/><stop stop-opacity="1" stop-color="rgb(7.03125%, 69.424438%, 46.655273%)" offset="0.847656"/><stop stop-opacity="1" stop-color="rgb(6.802368%, 69.602966%, 46.400452%)" offset="0.851563"/><stop stop-opacity="1" stop-color="rgb(6.573486%, 69.779968%, 46.14563%)" offset="0.855469"/><stop stop-opacity="1" stop-color="rgb(6.344604%, 69.958496%, 45.890808%)" offset="0.859375"/><stop stop-opacity="1" stop-color="rgb(6.115723%, 70.137024%, 45.635986%)" offset="0.863281"/><stop stop-opacity="1" stop-color="rgb(5.886841%, 70.315552%, 45.381165%)" offset="0.867188"/><stop stop-opacity="1" stop-color="rgb(5.657959%, 70.492554%, 45.126343%)" offset="0.871094"/><stop stop-opacity="1" stop-color="rgb(5.430603%, 70.671082%, 44.871521%)" offset="0.875"/><stop stop-opacity="1" stop-color="rgb(5.201721%, 70.848083%, 44.616699%)" offset="0.878906"/><stop stop-opacity="1" stop-color="rgb(4.972839%, 71.026611%, 44.361877%)" offset="0.882813"/><stop stop-opacity="1" stop-color="rgb(4.743958%, 71.205139%, 44.107056%)" offset="0.886719"/><stop stop-opacity="1" stop-color="rgb(4.515076%, 71.383667%, 43.852234%)" offset="0.890625"/><stop stop-opacity="1" stop-color="rgb(4.286194%, 71.560669%, 43.597412%)" offset="0.894531"/><stop stop-opacity="1" stop-color="rgb(4.058838%, 71.739197%, 43.34259%)" offset="0.898438"/><stop stop-opacity="1" stop-color="rgb(3.829956%, 71.916199%, 43.087769%)" offset="0.902344"/><stop stop-opacity="1" stop-color="rgb(3.601074%, 72.094727%, 42.832947%)" offset="0.90625"/><stop stop-opacity="1" stop-color="rgb(3.372192%, 72.273254%, 42.578125%)" offset="0.910156"/><stop stop-opacity="1" stop-color="rgb(3.143311%, 72.451782%, 42.323303%)" offset="0.914063"/><stop stop-opacity="1" stop-color="rgb(2.914429%, 72.628784%, 42.068481%)" offset="0.917969"/><stop stop-opacity="1" stop-color="rgb(2.685547%, 72.807312%, 41.81366%)" offset="0.921875"/><stop stop-opacity="1" stop-color="rgb(2.456665%, 72.984314%, 41.558838%)" offset="0.925781"/><stop stop-opacity="1" stop-color="rgb(2.229309%, 73.162842%, 41.304016%)" offset="0.929688"/><stop stop-opacity="1" stop-color="rgb(2.000427%, 73.34137%, 41.049194%)" offset="0.933594"/><stop stop-opacity="1" stop-color="rgb(1.771545%, 73.519897%, 40.794373%)" offset="0.9375"/><stop stop-opacity="1" stop-color="rgb(1.542664%, 73.696899%, 40.539551%)" offset="0.941406"/><stop stop-opacity="1" stop-color="rgb(1.313782%, 73.875427%, 40.284729%)" offset="0.945312"/><stop stop-opacity="1" stop-color="rgb(1.0849%, 74.052429%, 40.029907%)" offset="0.949219"/><stop stop-opacity="1" stop-color="rgb(0.857544%, 74.230957%, 39.775085%)" offset="0.953125"/><stop stop-opacity="1" stop-color="rgb(0.628662%, 74.409485%, 39.520264%)" offset="0.957031"/><stop stop-opacity="1" stop-color="rgb(0.39978%, 74.588013%, 39.265442%)" offset="0.960937"/><stop stop-opacity="1" stop-color="rgb(0.19989%, 74.743652%, 39.042664%)" offset="0.964844"/><stop stop-opacity="1" stop-color="rgb(0%, 74.899292%, 38.819885%)" offset="0.96875"/><stop stop-opacity="1" stop-color="rgb(0%, 74.899292%, 38.819885%)" offset="1"/></linearGradient><clipPath id="b23fd1df05"><rect x="0" width="375" y="0" height="186"/></clipPath><clipPath id="ecf42452db"><path d="M 0 0 L 375 0 L 375 185.839844 L 0 185.839844 Z M 0 0 " clip-rule="nonzero"/></clipPath><clipPath id="1d4ffd62f6"><rect x="0" width="375" y="0" height="186"/></clipPath><clipPath id="b1eed1c953"><rect x="0" width="375" y="0" height="186"/></clipPath><mask id="f237635db3"><g filter="url(#9007702690)"><g transform="matrix(1, 0, 0, 1, 0, 0)"><g clip-path="url(#b1eed1c953)"><g clip-path="url(#ecf42452db)"><g transform="matrix(1, 0, 0, 1, 0, 0)"><g clip-path="url(#1d4ffd62f6)"><g fill="#000000" fill-opacity="1"><g transform="translate(11.559678, 80.820202)"><g><path d="M 4.25 0 L 4.25 -19.4375 L 0.8125 -19.4375 L 0.8125 -24.265625 L 4.25 -24.265625 C 4 -25.296875 3.875 -26.253906 3.875 -27.140625 C 3.875 -28.679688 4.222656 -30 4.921875 -31.09375 C 5.628906 -32.1875 6.640625 -33.015625 7.953125 -33.578125 C 9.273438 -34.148438 10.84375 -34.4375 12.65625 -34.4375 C 15.34375 -34.4375 17.34375 -33.976562 18.65625 -33.0625 L 17.234375 -28.578125 L 16.765625 -28.484375 C 15.859375 -29.128906 14.695312 -29.453125 13.28125 -29.453125 C 12.175781 -29.453125 11.347656 -29.179688 10.796875 -28.640625 C 10.253906 -28.109375 9.984375 -27.382812 9.984375 -26.46875 C 9.984375 -26.070312 10.007812 -25.707031 10.0625 -25.375 C 10.113281 -25.039062 10.203125 -24.671875 10.328125 -24.265625 L 17.25 -24.265625 L 17.25 -19.4375 L 10.328125 -19.4375 L 10.328125 0 Z M 4.25 0 "/></g></g><g transform="translate(29.053024, 80.820202)"><g><path d="M 6.53125 -27.140625 C 5.425781 -27.140625 4.53125 -27.472656 3.84375 -28.140625 C 3.15625 -28.804688 2.8125 -29.671875 2.8125 -30.734375 C 2.8125 -31.765625 3.15625 -32.613281 3.84375 -33.28125 C 4.53125 -33.957031 5.425781 -34.296875 6.53125 -34.296875 C 7.257812 -34.296875 7.910156 -34.140625 8.484375 -33.828125 C 9.054688 -33.515625 9.5 -33.09375 9.8125 -32.5625 C 10.125 -32.03125 10.28125 -31.421875 10.28125 -30.734375 C 10.28125 -30.046875 10.125 -29.425781 9.8125 -28.875 C 9.5 -28.332031 9.054688 -27.90625 8.484375 -27.59375 C 7.910156 -27.289062 7.257812 -27.140625 6.53125 -27.140625 Z M 3.5 0 L 3.5 -24.25 L 9.578125 -24.25 L 9.578125 0 Z M 3.5 0 "/></g></g><g transform="translate(42.107104, 80.820202)"><g><path d="M 3.5 0 L 3.5 -24.25 L 9.34375 -24.25 L 9.34375 -20.6875 L 9.796875 -20.578125 C 11.304688 -23.328125 13.753906 -24.703125 17.140625 -24.703125 C 19.941406 -24.703125 22 -23.941406 23.3125 -22.421875 C 24.625 -20.898438 25.28125 -18.679688 25.28125 -15.765625 L 25.28125 0 L 19.1875 0 L 19.1875 -15.015625 C 19.1875 -16.628906 18.863281 -17.789062 18.21875 -18.5 C 17.570312 -19.207031 16.539062 -19.5625 15.125 -19.5625 C 13.375 -19.5625 12.007812 -18.992188 11.03125 -17.859375 C 10.0625 -16.734375 9.578125 -14.960938 9.578125 -12.546875 L 9.578125 0 Z M 3.5 0 "/></g></g><g transform="translate(70.500826, 80.820202)"><g><path d="M 11.984375 0.46875 C 10.054688 0.46875 8.359375 0.00390625 6.890625 -0.921875 C 5.421875 -1.859375 4.265625 -3.269531 3.421875 -5.15625 C 2.585938 -7.039062 2.171875 -9.359375 2.171875 -12.109375 C 2.171875 -14.878906 2.597656 -17.207031 3.453125 -19.09375 C 4.316406 -20.976562 5.503906 -22.382812 7.015625 -23.3125 C 8.535156 -24.238281 10.289062 -24.703125 12.28125 -24.703125 C 13.789062 -24.703125 15.097656 -24.441406 16.203125 -23.921875 C 17.316406 -23.398438 18.253906 -22.59375 19.015625 -21.5 L 19.46875 -21.609375 L 19.46875 -33.984375 L 25.5625 -33.984375 L 25.5625 0 L 19.46875 0 L 19.46875 -3.140625 L 19.015625 -3.234375 C 18.335938 -2.085938 17.410156 -1.179688 16.234375 -0.515625 C 15.066406 0.140625 13.648438 0.46875 11.984375 0.46875 Z M 13.953125 -4.703125 C 15.671875 -4.703125 17.023438 -5.3125 18.015625 -6.53125 C 19.015625 -7.757812 19.515625 -9.617188 19.515625 -12.109375 C 19.515625 -14.597656 19.015625 -16.457031 18.015625 -17.6875 C 17.023438 -18.925781 15.671875 -19.546875 13.953125 -19.546875 C 12.171875 -19.546875 10.804688 -18.945312 9.859375 -17.75 C 8.910156 -16.550781 8.4375 -14.671875 8.4375 -12.109375 C 8.4375 -9.554688 8.910156 -7.679688 9.859375 -6.484375 C 10.804688 -5.296875 12.171875 -4.703125 13.953125 -4.703125 Z M 13.953125 -4.703125 "/></g></g><g transform="translate(99.553846, 80.820202)"><g><path d="M 9.453125 0.46875 C 7.898438 0.46875 6.550781 0.179688 5.40625 -0.390625 C 4.257812 -0.960938 3.378906 -1.800781 2.765625 -2.90625 C 2.148438 -4.019531 1.84375 -5.351562 1.84375 -6.90625 C 1.84375 -8.34375 2.148438 -9.546875 2.765625 -10.515625 C 3.378906 -11.492188 4.332031 -12.289062 5.625 -12.90625 C 6.914062 -13.53125 8.601562 -14.015625 10.6875 -14.359375 C 12.132812 -14.585938 13.234375 -14.84375 13.984375 -15.125 C 14.742188 -15.40625 15.253906 -15.71875 15.515625 -16.0625 C 15.773438 -16.414062 15.90625 -16.863281 15.90625 -17.40625 C 15.90625 -18.1875 15.632812 -18.78125 15.09375 -19.1875 C 14.550781 -19.59375 13.648438 -19.796875 12.390625 -19.796875 C 11.046875 -19.796875 9.765625 -19.492188 8.546875 -18.890625 C 7.328125 -18.296875 6.273438 -17.507812 5.390625 -16.53125 L 4.953125 -16.53125 L 2.390625 -20.375 C 3.628906 -21.738281 5.132812 -22.800781 6.90625 -23.5625 C 8.675781 -24.320312 10.609375 -24.703125 12.703125 -24.703125 C 15.910156 -24.703125 18.234375 -24.019531 19.671875 -22.65625 C 21.109375 -21.300781 21.828125 -19.367188 21.828125 -16.859375 L 21.828125 -6.328125 C 21.828125 -5.242188 22.300781 -4.703125 23.25 -4.703125 C 23.613281 -4.703125 23.972656 -4.769531 24.328125 -4.90625 L 24.640625 -4.8125 L 25.078125 -0.578125 C 24.742188 -0.347656 24.273438 -0.164062 23.671875 -0.03125 C 23.066406 0.101562 22.40625 0.171875 21.6875 0.171875 C 20.238281 0.171875 19.109375 -0.101562 18.296875 -0.65625 C 17.484375 -1.21875 16.898438 -2.09375 16.546875 -3.28125 L 16.09375 -3.3125 C 14.90625 -0.789062 12.691406 0.46875 9.453125 0.46875 Z M 11.390625 -4.09375 C 12.796875 -4.09375 13.921875 -4.5625 14.765625 -5.5 C 15.609375 -6.445312 16.03125 -7.765625 16.03125 -9.453125 L 16.03125 -11.90625 L 15.609375 -12 C 15.242188 -11.707031 14.765625 -11.460938 14.171875 -11.265625 C 13.578125 -11.066406 12.722656 -10.875 11.609375 -10.6875 C 10.285156 -10.46875 9.332031 -10.085938 8.75 -9.546875 C 8.175781 -9.015625 7.890625 -8.257812 7.890625 -7.28125 C 7.890625 -6.238281 8.195312 -5.445312 8.8125 -4.90625 C 9.425781 -4.363281 10.285156 -4.09375 11.390625 -4.09375 Z M 11.390625 -4.09375 "/></g></g><g transform="translate(125.112591, 80.820202)"><g><path d="M 10.0625 0.46875 C 7.882812 0.46875 6.21875 -0.117188 5.0625 -1.296875 C 3.914062 -2.484375 3.34375 -4.28125 3.34375 -6.6875 L 3.34375 -33.984375 L 9.421875 -33.984375 L 9.421875 -6.921875 C 9.421875 -5.441406 10.039062 -4.703125 11.28125 -4.703125 C 11.625 -4.703125 11.992188 -4.757812 12.390625 -4.875 L 12.703125 -4.796875 L 13.25 -0.109375 C 12.914062 0.0664062 12.46875 0.207031 11.90625 0.3125 C 11.351562 0.414062 10.738281 0.46875 10.0625 0.46875 Z M 10.0625 0.46875 "/></g></g></g><g fill="#000000" fill-opacity="1"><g transform="translate(139.053059, 80.820202)"><g/></g><g transform="translate(149.66774, 80.820202)"><g/></g><g transform="translate(160.28242, 80.820202)"><g/></g></g><g fill="#000000" fill-opacity="1"><g transform="translate(170.904432, 80.820202)"><g><path d="M 16.734375 -5.78125 L 18.3125 -1.28125 C 17.65625 -0.738281 16.828125 -0.3125 15.828125 0 C 14.828125 0.3125 13.695312 0.46875 12.4375 0.46875 C 9.8125 0.46875 7.816406 -0.242188 6.453125 -1.671875 C 5.097656 -3.109375 4.421875 -5.1875 4.421875 -7.90625 L 4.421875 -19.4375 L 0.71875 -19.4375 L 0.71875 -24.265625 L 4.421875 -24.265625 L 4.421875 -28.984375 L 10.5 -29.984375 L 10.5 -24.265625 L 17.390625 -24.265625 L 17.390625 -19.4375 L 10.5 -19.4375 L 10.5 -8.359375 C 10.5 -7.148438 10.75 -6.269531 11.25 -5.71875 C 11.75 -5.175781 12.476562 -4.90625 13.4375 -4.90625 C 14.519531 -4.90625 15.460938 -5.195312 16.265625 -5.78125 Z M 16.734375 -5.78125 "/></g></g></g><g fill="#000000" fill-opacity="1"><g transform="translate(190.925084, 80.820202)"><g><path d="M 6.203125 0.203125 C 5.421875 0.203125 4.734375 0.046875 4.140625 -0.265625 C 3.546875 -0.585938 3.09375 -1.023438 2.78125 -1.578125 C 2.46875 -2.140625 2.3125 -2.769531 2.3125 -3.46875 C 2.3125 -4.175781 2.46875 -4.804688 2.78125 -5.359375 C 3.09375 -5.921875 3.546875 -6.363281 4.140625 -6.6875 C 4.734375 -7.007812 5.421875 -7.171875 6.203125 -7.171875 C 6.992188 -7.171875 7.6875 -7.007812 8.28125 -6.6875 C 8.875 -6.375 9.328125 -5.9375 9.640625 -5.375 C 9.953125 -4.820312 10.109375 -4.195312 10.109375 -3.5 C 10.109375 -2.425781 9.753906 -1.539062 9.046875 -0.84375 C 8.335938 -0.144531 7.390625 0.203125 6.203125 0.203125 Z M 6.203125 0.203125 "/></g></g></g><g fill="#000000" fill-opacity="1"><g transform="translate(202.308944, 80.820202)"><g><path d="M 14.140625 0.46875 C 11.785156 0.46875 9.707031 -0.0195312 7.90625 -1 C 6.101562 -1.976562 4.695312 -3.410156 3.6875 -5.296875 C 2.675781 -7.179688 2.171875 -9.453125 2.171875 -12.109375 C 2.171875 -14.773438 2.675781 -17.050781 3.6875 -18.9375 C 4.695312 -20.832031 6.097656 -22.265625 7.890625 -23.234375 C 9.679688 -24.210938 11.722656 -24.703125 14.015625 -24.703125 C 19.128906 -24.703125 22.40625 -22.847656 23.84375 -19.140625 L 19.671875 -16.15625 L 19.203125 -16.15625 C 18.710938 -17.300781 18.066406 -18.148438 17.265625 -18.703125 C 16.460938 -19.265625 15.378906 -19.546875 14.015625 -19.546875 C 12.265625 -19.546875 10.894531 -18.9375 9.90625 -17.71875 C 8.925781 -16.5 8.4375 -14.628906 8.4375 -12.109375 C 8.4375 -9.617188 8.9375 -7.757812 9.9375 -6.53125 C 10.9375 -5.3125 12.335938 -4.703125 14.140625 -4.703125 C 15.453125 -4.703125 16.566406 -5.054688 17.484375 -5.765625 C 18.398438 -6.472656 19.054688 -7.5 19.453125 -8.84375 L 19.921875 -8.875 L 24.25 -6.5 C 23.632812 -4.445312 22.492188 -2.769531 20.828125 -1.46875 C 19.160156 -0.175781 16.929688 0.46875 14.140625 0.46875 Z M 14.140625 0.46875 "/></g></g><g transform="translate(227.296299, 80.820202)"><g><path d="M 14.09375 0.46875 C 11.71875 0.46875 9.628906 -0.0195312 7.828125 -1 C 6.035156 -1.976562 4.644531 -3.40625 3.65625 -5.28125 C 2.664062 -7.164062 2.171875 -9.441406 2.171875 -12.109375 C 2.171875 -14.773438 2.664062 -17.050781 3.65625 -18.9375 C 4.644531 -20.832031 6.035156 -22.265625 7.828125 -23.234375 C 9.628906 -24.210938 11.71875 -24.703125 14.09375 -24.703125 C 16.46875 -24.703125 18.550781 -24.210938 20.34375 -23.234375 C 22.132812 -22.265625 23.53125 -20.832031 24.53125 -18.9375 C 25.53125 -17.050781 26.03125 -14.773438 26.03125 -12.109375 C 26.03125 -9.441406 25.53125 -7.164062 24.53125 -5.28125 C 23.53125 -3.40625 22.132812 -1.976562 20.34375 -1 C 18.550781 -0.0195312 16.46875 0.46875 14.09375 0.46875 Z M 14.09375 -4.703125 C 17.851562 -4.703125 19.734375 -7.171875 19.734375 -12.109375 C 19.734375 -14.671875 19.25 -16.550781 18.28125 -17.75 C 17.320312 -18.945312 15.925781 -19.546875 14.09375 -19.546875 C 10.320312 -19.546875 8.4375 -17.066406 8.4375 -12.109375 C 8.4375 -7.171875 10.320312 -4.703125 14.09375 -4.703125 Z M 14.09375 -4.703125 "/></g></g><g transform="translate(255.470256, 80.820202)"><g><path d="M 3.5 0 L 3.5 -24.25 L 9.34375 -24.25 L 9.34375 -20.984375 L 9.796875 -20.90625 C 10.585938 -22.207031 11.515625 -23.164062 12.578125 -23.78125 C 13.640625 -24.394531 15 -24.703125 16.65625 -24.703125 C 18.488281 -24.703125 19.960938 -24.335938 21.078125 -23.609375 C 22.191406 -22.890625 23.003906 -21.832031 23.515625 -20.4375 L 23.984375 -20.4375 C 24.722656 -21.894531 25.679688 -22.96875 26.859375 -23.65625 C 28.046875 -24.351562 29.519531 -24.703125 31.28125 -24.703125 C 36.300781 -24.703125 38.8125 -21.90625 38.8125 -16.3125 L 38.8125 0 L 32.734375 0 L 32.734375 -15.546875 C 32.734375 -16.960938 32.453125 -17.984375 31.890625 -18.609375 C 31.335938 -19.242188 30.445312 -19.5625 29.21875 -19.5625 C 25.875 -19.5625 24.203125 -17.328125 24.203125 -12.859375 L 24.203125 0 L 18.109375 0 L 18.109375 -15.546875 C 18.109375 -16.960938 17.828125 -17.984375 17.265625 -18.609375 C 16.703125 -19.242188 15.804688 -19.5625 14.578125 -19.5625 C 13.003906 -19.5625 11.773438 -19.035156 10.890625 -17.984375 C 10.015625 -16.941406 9.578125 -15.273438 9.578125 -12.984375 L 9.578125 0 Z M 3.5 0 "/></g></g><g transform="translate(297.401542, 80.820202)"><g><path d="M 6.203125 0.203125 C 5.421875 0.203125 4.734375 0.046875 4.140625 -0.265625 C 3.546875 -0.585938 3.09375 -1.023438 2.78125 -1.578125 C 2.46875 -2.140625 2.3125 -2.769531 2.3125 -3.46875 C 2.3125 -4.175781 2.46875 -4.804688 2.78125 -5.359375 C 3.09375 -5.921875 3.546875 -6.363281 4.140625 -6.6875 C 4.734375 -7.007812 5.421875 -7.171875 6.203125 -7.171875 C 6.992188 -7.171875 7.6875 -7.007812 8.28125 -6.6875 C 8.875 -6.375 9.328125 -5.9375 9.640625 -5.375 C 9.953125 -4.820312 10.109375 -4.195312 10.109375 -3.5 C 10.109375 -2.425781 9.753906 -1.539062 9.046875 -0.84375 C 8.335938 -0.144531 7.390625 0.203125 6.203125 0.203125 Z M 6.203125 0.203125 "/></g></g><g transform="translate(309.818302, 80.820202)"><g><path d="M 9.453125 0.46875 C 7.898438 0.46875 6.550781 0.179688 5.40625 -0.390625 C 4.257812 -0.960938 3.378906 -1.800781 2.765625 -2.90625 C 2.148438 -4.019531 1.84375 -5.351562 1.84375 -6.90625 C 1.84375 -8.34375 2.148438 -9.546875 2.765625 -10.515625 C 3.378906 -11.492188 4.332031 -12.289062 5.625 -12.90625 C 6.914062 -13.53125 8.601562 -14.015625 10.6875 -14.359375 C 12.132812 -14.585938 13.234375 -14.84375 13.984375 -15.125 C 14.742188 -15.40625 15.253906 -15.71875 15.515625 -16.0625 C 15.773438 -16.414062 15.90625 -16.863281 15.90625 -17.40625 C 15.90625 -18.1875 15.632812 -18.78125 15.09375 -19.1875 C 14.550781 -19.59375 13.648438 -19.796875 12.390625 -19.796875 C 11.046875 -19.796875 9.765625 -19.492188 8.546875 -18.890625 C 7.328125 -18.296875 6.273438 -17.507812 5.390625 -16.53125 L 4.953125 -16.53125 L 2.390625 -20.375 C 3.628906 -21.738281 5.132812 -22.800781 6.90625 -23.5625 C 8.675781 -24.320312 10.609375 -24.703125 12.703125 -24.703125 C 15.910156 -24.703125 18.234375 -24.019531 19.671875 -22.65625 C 21.109375 -21.300781 21.828125 -19.367188 21.828125 -16.859375 L 21.828125 -6.328125 C 21.828125 -5.242188 22.300781 -4.703125 23.25 -4.703125 C 23.613281 -4.703125 23.972656 -4.769531 24.328125 -4.90625 L 24.640625 -4.8125 L 25.078125 -0.578125 C 24.742188 -0.347656 24.273438 -0.164062 23.671875 -0.03125 C 23.066406 0.101562 22.40625 0.171875 21.6875 0.171875 C 20.238281 0.171875 19.109375 -0.101562 18.296875 -0.65625 C 17.484375 -1.21875 16.898438 -2.09375 16.546875 -3.28125 L 16.09375 -3.3125 C 14.90625 -0.789062 12.691406 0.46875 9.453125 0.46875 Z M 11.390625 -4.09375 C 12.796875 -4.09375 13.921875 -4.5625 14.765625 -5.5 C 15.609375 -6.445312 16.03125 -7.765625 16.03125 -9.453125 L 16.03125 -11.90625 L 15.609375 -12 C 15.242188 -11.707031 14.765625 -11.460938 14.171875 -11.265625 C 13.578125 -11.066406 12.722656 -10.875 11.609375 -10.6875 C 10.285156 -10.46875 9.332031 -10.085938 8.75 -9.546875 C 8.175781 -9.015625 7.890625 -8.257812 7.890625 -7.28125 C 7.890625 -6.238281 8.195312 -5.445312 8.8125 -4.90625 C 9.425781 -4.363281 10.285156 -4.09375 11.390625 -4.09375 Z M 11.390625 -4.09375 "/></g></g><g transform="translate(335.377047, 80.820202)"><g><path d="M 11.09375 0.46875 C 8.375 0.46875 6.363281 -0.273438 5.0625 -1.765625 C 3.769531 -3.253906 3.125 -5.390625 3.125 -8.171875 L 3.125 -24.25 L 9.203125 -24.25 L 9.203125 -8.953125 C 9.203125 -7.460938 9.519531 -6.378906 10.15625 -5.703125 C 10.800781 -5.023438 11.789062 -4.6875 13.125 -4.6875 C 14.8125 -4.6875 16.125 -5.238281 17.0625 -6.34375 C 18 -7.445312 18.46875 -9.1875 18.46875 -11.5625 L 18.46875 -24.25 L 24.546875 -24.25 L 24.546875 0 L 18.703125 0 L 18.703125 -3.5625 L 18.25 -3.671875 C 17.46875 -2.273438 16.515625 -1.234375 15.390625 -0.546875 C 14.273438 0.128906 12.84375 0.46875 11.09375 0.46875 Z M 11.09375 0.46875 "/></g></g></g></g></g></g></g></g></g></mask><clipPath id="f5e2a79692"><path d="M 0 0 L 375 0 L 375 184.902344 L 0 184.902344 Z M 0 0 " clip-rule="nonzero"/></clipPath><clipPath id="6aed89ab28"><rect x="0" width="375" y="0" height="186"/></clipPath><clipPath id="27ef75da80"><rect x="0" width="375" y="0" height="186"/></clipPath><clipPath id="c44c9bfdfa"><rect x="0" width="375" y="0" height="186"/></clipPath></defs><g clip-path="url(#144b0ba169)"><path fill="#667bc1" d="M 169.519531 69.527344 C 169.519531 70.4375 169.429688 71.335938 169.253906 72.230469 C 169.074219 73.121094 168.8125 73.984375 168.464844 74.828125 C 168.117188 75.667969 167.691406 76.464844 167.183594 77.21875 C 166.679688 77.976562 166.105469 78.675781 165.464844 79.316406 C 164.820312 79.960938 164.121094 80.535156 163.363281 81.039062 C 162.609375 81.546875 161.8125 81.972656 160.972656 82.320312 C 160.132812 82.667969 159.265625 82.929688 158.375 83.105469 C 157.480469 83.285156 156.582031 83.375 155.671875 83.375 C 154.761719 83.375 153.863281 83.285156 152.972656 83.105469 C 152.078125 82.929688 151.214844 82.667969 150.375 82.320312 C 149.535156 81.972656 148.734375 81.546875 147.980469 81.039062 C 147.222656 80.535156 146.523438 79.960938 145.882812 79.316406 C 145.238281 78.675781 144.664062 77.976562 144.160156 77.21875 C 143.65625 76.464844 143.230469 75.667969 142.878906 74.828125 C 142.53125 73.984375 142.269531 73.121094 142.09375 72.230469 C 141.914062 71.335938 141.828125 70.4375 141.828125 69.527344 C 141.828125 68.617188 141.914062 67.71875 142.09375 66.828125 C 142.269531 65.933594 142.53125 65.070312 142.878906 64.230469 C 143.230469 63.390625 143.65625 62.589844 144.160156 61.835938 C 144.664062 61.078125 145.238281 60.378906 145.882812 59.738281 C 146.523438 59.09375 147.222656 58.519531 147.980469 58.015625 C 148.734375 57.511719 149.535156 57.082031 150.375 56.734375 C 151.214844 56.386719 152.078125 56.125 152.972656 55.949219 C 153.863281 55.769531 154.761719 55.683594 155.671875 55.683594 C 156.582031 55.683594 157.480469 55.769531 158.375 55.949219 C 159.265625 56.125 160.132812 56.386719 160.972656 56.734375 C 161.8125 57.082031 162.609375 57.511719 163.363281 58.015625 C 164.121094 58.519531 164.820312 59.09375 165.464844 59.738281 C 166.105469 60.378906 166.679688 61.078125 167.183594 61.835938 C 167.691406 62.589844 168.117188 63.390625 168.464844 64.230469 C 168.8125 65.070312 169.074219 65.933594 169.253906 66.828125 C 169.429688 67.71875 169.519531 68.617188 169.519531 69.527344 Z M 169.519531 69.527344 " fill-opacity="1" fill-rule="nonzero"/></g><path fill="#ffffff" d="M 155.671875 64.671875 C 155.640625 64.671875 155.605469 64.671875 155.574219 64.640625 C 155.507812 64.609375 155.476562 64.542969 155.476562 64.476562 L 155.476562 62.6875 C 155.476562 62.621094 155.507812 62.554688 155.574219 62.523438 C 155.640625 62.492188 155.707031 62.492188 155.769531 62.523438 L 157.398438 63.402344 C 157.464844 63.4375 157.496094 63.535156 157.496094 63.597656 C 157.496094 63.664062 157.464844 63.730469 157.398438 63.761719 L 155.769531 64.671875 C 155.738281 64.671875 155.707031 64.671875 155.671875 64.671875 Z M 155.671875 64.671875 " fill-opacity="1" fill-rule="evenodd"/><path fill="#ffffff" d="M 155.671875 65.585938 C 155.574219 65.585938 155.476562 65.488281 155.476562 65.390625 L 155.476562 64.476562 C 155.476562 64.378906 155.574219 64.28125 155.671875 64.28125 C 155.769531 64.28125 155.867188 64.378906 155.867188 64.476562 L 155.867188 65.390625 C 155.867188 65.488281 155.769531 65.585938 155.671875 65.585938 Z M 155.671875 65.585938 " fill-opacity="1" fill-rule="evenodd"/><path fill="#ffffff" d="M 152.054688 76.566406 L 148.148438 76.566406 C 148.050781 76.566406 147.953125 76.46875 147.953125 76.367188 L 147.953125 71.742188 L 152.25 71.742188 L 152.25 76.367188 C 152.25 76.46875 152.1875 76.566406 152.054688 76.566406 Z M 151.015625 75.78125 L 149.222656 75.78125 C 149.089844 75.78125 149.027344 75.683594 149.027344 75.585938 L 149.027344 73.761719 C 149.027344 73.699219 149.027344 73.664062 149.058594 73.632812 L 149.972656 72.589844 C 150.003906 72.558594 150.070312 72.523438 150.101562 72.523438 C 150.167969 72.523438 150.230469 72.558594 150.265625 72.589844 L 151.144531 73.632812 C 151.175781 73.664062 151.210938 73.699219 151.210938 73.761719 L 151.210938 75.585938 C 151.210938 75.683594 151.113281 75.78125 151.015625 75.78125 Z M 149.417969 75.390625 L 150.820312 75.390625 L 150.820312 73.828125 L 150.101562 73.011719 L 149.417969 73.828125 Z M 149.417969 75.390625 " fill-opacity="1" fill-rule="evenodd"/><path fill="#ffffff" d="M 152.707031 71.351562 L 147.527344 71.351562 C 147.398438 71.351562 147.332031 71.285156 147.332031 71.15625 L 147.332031 69.105469 C 147.332031 69.007812 147.398438 68.910156 147.527344 68.910156 L 148.636719 68.910156 C 148.765625 68.910156 148.832031 69.007812 148.832031 69.105469 L 148.832031 69.917969 L 149.222656 69.917969 L 149.222656 69.105469 C 149.222656 69.007812 149.289062 68.910156 149.417969 68.910156 L 150.820312 68.910156 C 150.917969 68.910156 151.015625 69.007812 151.015625 69.105469 L 151.015625 69.917969 L 151.371094 69.917969 L 151.371094 69.105469 C 151.371094 69.007812 151.46875 68.910156 151.566406 68.910156 L 152.707031 68.910156 C 152.804688 68.910156 152.902344 69.007812 152.902344 69.105469 L 152.902344 71.15625 C 152.902344 71.285156 152.804688 71.351562 152.707031 71.351562 Z M 152.707031 71.351562 " fill-opacity="1" fill-rule="evenodd"/><path fill="#ffffff" d="M 163.199219 76.566406 L 159.289062 76.566406 C 159.160156 76.566406 159.09375 76.46875 159.09375 76.367188 L 159.09375 71.742188 L 163.394531 71.742188 L 163.394531 76.367188 C 163.394531 76.46875 163.296875 76.566406 163.199219 76.566406 Z M 162.121094 75.78125 L 160.332031 75.78125 C 160.234375 75.78125 160.136719 75.683594 160.136719 75.585938 L 160.136719 73.761719 C 160.136719 73.699219 160.167969 73.664062 160.199219 73.632812 L 161.082031 72.589844 C 161.113281 72.558594 161.179688 72.523438 161.242188 72.523438 C 161.277344 72.523438 161.339844 72.558594 161.375 72.589844 L 162.285156 73.632812 C 162.320312 73.664062 162.320312 73.699219 162.320312 73.761719 L 162.320312 75.585938 C 162.320312 75.683594 162.253906 75.78125 162.121094 75.78125 Z M 160.527344 75.390625 L 161.925781 75.390625 L 161.925781 73.828125 L 161.242188 73.011719 L 160.527344 73.828125 Z M 160.527344 75.390625 " fill-opacity="1" fill-rule="evenodd"/><path fill="#ffffff" d="M 163.816406 71.351562 L 158.636719 71.351562 C 158.539062 71.351562 158.441406 71.285156 158.441406 71.15625 L 158.441406 69.105469 C 158.441406 69.007812 158.539062 68.910156 158.636719 68.910156 L 159.777344 68.910156 C 159.875 68.910156 159.972656 69.007812 159.972656 69.105469 L 159.972656 69.917969 L 160.332031 69.917969 L 160.332031 69.105469 C 160.332031 69.007812 160.429688 68.910156 160.527344 68.910156 L 161.925781 68.910156 C 162.058594 68.910156 162.121094 69.007812 162.121094 69.105469 L 162.121094 69.917969 L 162.515625 69.917969 L 162.515625 69.105469 C 162.515625 69.007812 162.578125 68.910156 162.710938 68.910156 L 163.816406 68.910156 C 163.949219 68.910156 164.011719 69.007812 164.011719 69.105469 L 164.011719 71.15625 C 164.011719 71.285156 163.949219 71.351562 163.816406 71.351562 Z M 163.816406 71.351562 " fill-opacity="1" fill-rule="evenodd"/><path fill="#ffffff" d="M 158.703125 76.566406 L 157.824219 76.566406 L 157.824219 72.816406 C 157.824219 72.71875 157.726562 72.621094 157.59375 72.621094 L 153.71875 72.621094 C 153.621094 72.621094 153.523438 72.71875 153.523438 72.816406 L 153.523438 76.566406 L 152.644531 76.566406 L 152.644531 71.742188 L 152.707031 71.742188 C 153.035156 71.742188 153.292969 71.480469 153.292969 71.15625 L 153.292969 69.105469 C 153.292969 68.777344 153.035156 68.519531 152.707031 68.519531 L 151.859375 68.519531 L 151.859375 68.289062 L 159.484375 68.289062 L 159.484375 68.519531 L 158.636719 68.519531 C 158.3125 68.519531 158.050781 68.777344 158.050781 69.105469 L 158.050781 71.15625 C 158.050781 71.480469 158.3125 71.742188 158.636719 71.742188 L 158.703125 71.742188 Z M 156.941406 71.839844 L 154.402344 71.839844 C 154.273438 71.839844 154.207031 71.777344 154.207031 71.679688 L 154.207031 68.84375 C 154.207031 68.746094 154.273438 68.648438 154.402344 68.648438 L 156.941406 68.648438 C 157.074219 68.648438 157.136719 68.746094 157.136719 68.84375 L 157.136719 71.679688 C 157.136719 71.777344 157.074219 71.839844 156.941406 71.839844 Z M 155.476562 71.480469 L 155.476562 70.441406 L 154.566406 70.441406 L 154.566406 71.480469 Z M 155.476562 70.082031 L 155.476562 69.039062 L 154.566406 69.039062 L 154.566406 70.082031 Z M 155.867188 69.039062 L 155.867188 70.082031 L 156.78125 70.082031 L 156.78125 69.039062 Z M 155.867188 70.441406 L 155.867188 71.480469 L 156.78125 71.480469 L 156.78125 70.441406 Z M 157.398438 76.566406 L 155.867188 76.566406 L 155.867188 74.773438 L 156.128906 74.773438 C 156.226562 74.773438 156.324219 74.707031 156.324219 74.578125 C 156.324219 74.480469 156.226562 74.382812 156.128906 74.382812 L 155.867188 74.382812 L 155.867188 73.011719 L 157.398438 73.011719 Z M 155.476562 76.566406 L 153.945312 76.566406 L 153.945312 73.011719 L 155.476562 73.011719 L 155.476562 74.382812 L 155.214844 74.382812 C 155.117188 74.382812 155.019531 74.480469 155.019531 74.578125 C 155.019531 74.707031 155.117188 74.773438 155.214844 74.773438 L 155.476562 74.773438 Z M 155.476562 76.566406 " fill-opacity="1" fill-rule="evenodd"/><path fill="#ffffff" d="M 159.875 67.898438 L 151.46875 67.898438 C 151.339844 67.898438 151.273438 67.800781 151.273438 67.703125 L 151.273438 65.390625 C 151.273438 65.292969 151.339844 65.195312 151.46875 65.195312 L 153.292969 65.195312 C 153.390625 65.195312 153.488281 65.292969 153.488281 65.390625 L 153.488281 66.105469 L 154.335938 66.105469 L 154.335938 65.390625 C 154.335938 65.292969 154.433594 65.195312 154.53125 65.195312 L 156.8125 65.195312 C 156.910156 65.195312 157.007812 65.292969 157.007812 65.390625 L 157.007812 66.105469 L 157.855469 66.105469 L 157.855469 65.390625 C 157.855469 65.292969 157.953125 65.195312 158.050781 65.195312 L 159.875 65.195312 C 160.003906 65.195312 160.070312 65.292969 160.070312 65.390625 L 160.070312 67.703125 C 160.070312 67.800781 160.003906 67.898438 159.875 67.898438 Z M 159.875 67.898438 " fill-opacity="1" fill-rule="evenodd"/><g transform="matrix(1, 0, 0, 1, 0, 0)"><g clip-path="url(#c44c9bfdfa)"><g clip-path="url(#2d6c80f71f)"><g transform="matrix(1, 0, 0, 1, 0, 0)"><g clip-path="url(#27ef75da80)"><g clip-path="url(#d877a486e7)"><g mask="url(#f237635db3)"><g transform="matrix(1, 0, 0, 1, 0, 0)"><g clip-path="url(#6aed89ab28)"><g clip-path="url(#f5e2a79692)"><path fill="url(#774b1eb8fc)" d="M 0 0 L 0 184.902344 L 375 184.902344 L 375 0 Z M 0 0 " fill-rule="nonzero"/></g></g></g></g></g></g></g></g></g></g></svg>