<svg xmlns="http://www.w3.org/2000/svg" xmlns:xlink="http://www.w3.org/1999/xlink" width="500" zoomAndPan="magnify" viewBox="0 0 375 374.999991" height="500" preserveAspectRatio="xMidYMid meet" version="1.0"><path fill="#000000" d="M 187.5 0 C 291.058594 0 375 83.941406 375 187.5 C 375 291.058594 291.058594 375 187.5 375 C 83.941406 375 0 291.058594 0 187.5 C 0 83.941406 83.941406 0 187.5 0 Z M 186.585938 68.886719 C 224.910156 68.886719 255.929688 99.910156 255.929688 138.230469 C 255.929688 176.550781 224.910156 207.574219 186.585938 207.574219 C 148.265625 207.574219 117.246094 176.550781 117.246094 138.230469 C 117.246094 99.910156 148.265625 68.886719 186.585938 68.886719 Z M 129.5625 218.523438 C 168.339844 218.523438 207.117188 218.523438 245.894531 218.523438 C 272.355469 218.523438 294.25 239.964844 294.25 266.421875 L 294.25 293.796875 C 266.878906 321.167969 229.015625 338.046875 187.5 338.046875 C 145.984375 338.046875 108.578125 321.167969 81.203125 293.796875 L 81.203125 266.421875 C 81.203125 239.964844 103.101562 218.523438 129.5625 218.523438 Z M 187.5 25.546875 C 277.371094 25.546875 349.910156 98.082031 349.910156 187.5 C 349.910156 277.371094 277.371094 349.910156 187.5 349.910156 C 98.082031 349.910156 25.546875 277.371094 25.546875 187.5 C 25.546875 98.082031 98.082031 25.546875 187.5 25.546875 Z M 187.5 25.546875 " fill-opacity="1" fill-rule="evenodd"/></svg>