<svg xmlns="http://www.w3.org/2000/svg" xmlns:xlink="http://www.w3.org/1999/xlink" width="500" zoomAndPan="magnify" viewBox="0 0 375 374.999991" height="500" preserveAspectRatio="xMidYMid meet" version="1.0"><defs><clipPath id="4de235112d"><path d="M 18.097656 10.347656 L 357.097656 10.347656 L 357.097656 364.347656 L 18.097656 364.347656 Z M 18.097656 10.347656 " clip-rule="nonzero"/></clipPath></defs><g clip-path="url(#4de235112d)"><path fill="#1a1a1a" d="M 356.1875 98.867188 C 347.152344 85.191406 346.328125 67.722656 354.03125 53.28125 C 354.855469 51.742188 354.898438 49.898438 354.15625 48.316406 C 353.410156 46.734375 351.960938 45.597656 350.246094 45.246094 C 334.175781 41.949219 321.222656 30.183594 316.441406 14.535156 C 315.933594 12.859375 314.664062 11.527344 313.015625 10.933594 C 311.367188 10.34375 309.535156 10.558594 308.074219 11.523438 C 294.375 20.542969 276.882812 21.367188 262.425781 13.675781 C 260.878906 12.855469 259.035156 12.808594 257.449219 13.550781 C 255.867188 14.296875 254.726562 15.742188 254.375 17.457031 C 251.074219 33.503906 239.289062 46.4375 223.617188 51.207031 C 221.941406 51.714844 220.609375 52.984375 220.011719 54.628906 C 219.417969 56.273438 219.636719 58.105469 220.601562 59.5625 C 223.671875 64.214844 225.832031 69.402344 226.996094 74.808594 L 185.257812 35.699219 C 185.242188 35.683594 185.226562 35.671875 185.210938 35.660156 C 185.179688 35.628906 185.148438 35.605469 185.117188 35.578125 C 184.957031 35.4375 184.789062 35.308594 184.617188 35.1875 C 184.582031 35.164062 184.542969 35.136719 184.503906 35.109375 C 184.300781 34.976562 184.089844 34.855469 183.871094 34.75 C 183.84375 34.738281 183.816406 34.726562 183.792969 34.714844 C 183.582031 34.617188 183.371094 34.535156 183.15625 34.464844 C 183.121094 34.457031 183.089844 34.445312 183.058594 34.433594 C 182.824219 34.363281 182.589844 34.3125 182.347656 34.273438 C 182.304688 34.265625 182.257812 34.261719 182.210938 34.253906 C 181.710938 34.183594 181.207031 34.183594 180.707031 34.253906 C 180.664062 34.257812 180.617188 34.265625 180.570312 34.273438 C 180.332031 34.3125 180.09375 34.363281 179.859375 34.433594 C 179.828125 34.445312 179.796875 34.457031 179.765625 34.464844 C 179.550781 34.535156 179.335938 34.617188 179.128906 34.714844 C 179.101562 34.726562 179.074219 34.738281 179.046875 34.75 C 178.832031 34.855469 178.621094 34.976562 178.414062 35.109375 C 178.375 35.136719 178.339844 35.160156 178.300781 35.1875 C 178.128906 35.308594 177.964844 35.4375 177.804688 35.578125 C 177.773438 35.605469 177.738281 35.628906 177.707031 35.660156 C 177.691406 35.671875 177.675781 35.683594 177.660156 35.699219 L 57.460938 148.328125 C 53.359375 152.171875 52.09375 157.984375 54.230469 163.144531 C 56.371094 168.308594 61.222656 171.515625 66.894531 171.515625 L 129.445312 171.515625 C 129.460938 171.515625 129.476562 171.515625 129.488281 171.515625 L 175.90625 171.515625 L 175.90625 213.789062 L 100.148438 213.789062 C 93.261719 213.789062 87.65625 219.386719 87.65625 226.265625 L 87.65625 250.574219 C 87.65625 257.453125 93.261719 263.046875 100.148438 263.046875 L 112.425781 263.046875 L 155.828125 310.007812 L 112.824219 354.699219 C 111.285156 356.300781 110.847656 358.671875 111.722656 360.714844 C 112.59375 362.757812 114.605469 364.085938 116.832031 364.085938 L 158.125 364.085938 C 159.679688 364.085938 161.160156 363.4375 162.210938 362.292969 L 183.140625 339.554688 L 204.164062 362.300781 C 205.21875 363.4375 206.695312 364.085938 208.246094 364.085938 L 248.914062 364.085938 C 251.136719 364.085938 253.144531 362.761719 254.019531 360.722656 C 254.894531 358.679688 254.464844 356.316406 252.929688 354.710938 L 210.261719 310.09375 L 253.570312 263.046875 L 262.769531 263.046875 C 269.660156 263.046875 275.265625 257.449219 275.265625 250.570312 L 275.265625 226.261719 C 275.265625 219.382812 269.660156 213.785156 262.769531 213.785156 L 187.011719 213.785156 L 187.011719 171.515625 L 233.480469 171.515625 C 233.488281 171.515625 233.496094 171.515625 233.5 171.515625 C 233.511719 171.515625 233.519531 171.515625 233.527344 171.515625 L 296.023438 171.515625 C 301.695312 171.515625 306.550781 168.308594 308.691406 163.140625 C 310.828125 157.984375 309.558594 152.167969 305.460938 148.328125 L 296.164062 139.617188 C 302.484375 140.015625 308.707031 141.746094 314.363281 144.757812 C 315.179688 145.191406 316.078125 145.40625 316.976562 145.40625 C 317.78125 145.40625 318.589844 145.230469 319.335938 144.882812 C 320.921875 144.136719 322.0625 142.691406 322.414062 140.976562 C 325.714844 124.929688 337.5 111.996094 353.171875 107.222656 C 354.84375 106.710938 356.179688 105.445312 356.773438 103.800781 C 357.367188 102.15625 357.152344 100.328125 356.1875 98.867188 Z M 155.6875 352.996094 L 129.867188 352.996094 L 163.375 318.171875 L 175.585938 331.378906 Z M 210.675781 352.996094 L 127.539062 263.046875 L 149.917969 263.046875 L 235.933594 352.996094 Z M 165.269531 263.046875 L 201.011719 263.046875 L 183.085938 281.679688 Z M 202.578125 302.058594 L 190.765625 289.707031 L 216.414062 263.046875 L 238.488281 263.046875 Z M 264.15625 226.265625 L 264.15625 250.574219 C 264.15625 251.324219 263.523438 251.960938 262.769531 251.960938 L 100.148438 251.960938 C 99.398438 251.960938 98.761719 251.324219 98.761719 250.574219 L 98.761719 226.265625 C 98.761719 225.511719 99.398438 224.878906 100.148438 224.878906 L 262.769531 224.878906 C 263.523438 224.878906 264.160156 225.511719 264.160156 226.265625 Z M 64.492188 158.902344 C 64.007812 157.738281 64.535156 156.90625 65.058594 156.414062 L 166.570312 61.300781 L 125.703125 160.425781 L 66.894531 160.425781 C 65.753906 160.425781 64.898438 159.886719 64.492188 158.902344 Z M 137.710938 160.425781 L 175.90625 67.777344 L 175.90625 160.425781 Z M 187.011719 67.78125 L 225.207031 160.425781 L 187.011719 160.425781 Z M 298.429688 158.902344 C 298.023438 159.886719 297.167969 160.425781 296.023438 160.425781 L 237.21875 160.425781 L 196.351562 61.300781 L 297.863281 156.417969 C 298.386719 156.910156 298.910156 157.738281 298.429688 158.902344 Z M 313.328125 132.125 C 304.308594 128.675781 294.496094 127.617188 284.921875 129.082031 L 239.074219 86.125 C 239.386719 76.898438 237.386719 67.679688 233.296875 59.417969 C 247.535156 53.085938 258.476562 41.078125 263.460938 26.316406 C 278.011719 31.890625 294.25 31.125 308.226562 24.203125 C 314.566406 38.417969 326.589844 49.34375 341.375 54.320312 C 335.792969 68.847656 336.558594 85.0625 343.488281 99.019531 C 329.25 105.351562 318.308594 117.359375 313.328125 132.125 Z M 288.394531 42.3125 C 268.015625 42.3125 251.4375 58.867188 251.4375 79.21875 C 251.4375 99.566406 268.015625 116.121094 288.394531 116.121094 C 308.773438 116.121094 325.355469 99.566406 325.355469 79.21875 C 325.355469 58.867188 308.773438 42.3125 288.394531 42.3125 Z M 288.394531 105.03125 C 274.140625 105.03125 262.542969 93.453125 262.542969 79.21875 C 262.542969 64.980469 274.140625 53.398438 288.394531 53.398438 C 302.648438 53.398438 314.25 64.980469 314.25 79.21875 C 314.25 93.453125 302.652344 105.03125 288.394531 105.03125 Z M 122.558594 295.949219 C 122.558594 284.992188 113.632812 276.082031 102.664062 276.082031 L 58.558594 276.082031 L 57.882812 208.96875 C 57.773438 198.046875 48.847656 189.160156 37.988281 189.160156 C 32.640625 189.160156 27.613281 191.253906 23.832031 195.066406 C 20.085938 198.835938 18.046875 203.808594 18.089844 209.070312 L 18.824219 295.949219 C 18.824219 306.902344 27.746094 315.816406 38.71875 315.816406 L 39.375 315.816406 L 33.222656 357.738281 C 32.777344 360.769531 34.878906 363.585938 37.914062 364.027344 C 38.1875 364.066406 38.457031 364.085938 38.722656 364.085938 C 41.433594 364.085938 43.808594 362.101562 44.210938 359.347656 L 50.601562 315.8125 L 83.699219 315.8125 L 90.085938 359.347656 C 90.488281 362.105469 92.859375 364.085938 95.570312 364.085938 C 95.839844 364.085938 96.109375 364.066406 96.382812 364.027344 C 99.417969 363.585938 101.515625 360.769531 101.074219 357.738281 L 94.921875 315.816406 L 102.664062 315.816406 C 113.632812 315.816406 122.558594 306.902344 122.558594 295.949219 Z M 29.929688 295.902344 L 29.195312 208.980469 C 29.179688 206.695312 30.074219 204.527344 31.714844 202.875 C 33.398438 201.179688 35.625 200.246094 37.988281 200.246094 C 42.785156 200.246094 46.726562 204.210938 46.777344 209.082031 L 47.507812 281.679688 C 47.539062 284.722656 50.015625 287.171875 53.0625 287.171875 L 102.664062 287.171875 C 107.511719 287.171875 111.453125 291.109375 111.453125 295.949219 C 111.453125 300.789062 107.511719 304.726562 102.664062 304.726562 L 38.71875 304.726562 C 33.871094 304.726562 29.929688 300.789062 29.929688 295.902344 Z M 327.757812 189.160156 C 316.898438 189.160156 307.972656 198.046875 307.863281 208.96875 L 307.183594 276.082031 L 263.082031 276.082031 C 252.109375 276.082031 243.183594 284.992188 243.183594 295.949219 C 243.183594 306.902344 252.109375 315.816406 263.082031 315.816406 L 270.820312 315.816406 L 264.671875 357.738281 C 264.226562 360.769531 266.324219 363.585938 269.359375 364.027344 C 269.632812 364.066406 269.902344 364.085938 270.171875 364.085938 C 272.882812 364.085938 275.253906 362.101562 275.660156 359.347656 L 282.046875 315.8125 L 315.144531 315.8125 L 321.53125 359.347656 C 321.9375 362.105469 324.308594 364.085938 327.019531 364.085938 C 327.285156 364.085938 327.558594 364.066406 327.832031 364.027344 C 330.863281 363.582031 332.964844 360.769531 332.519531 357.738281 L 326.367188 315.816406 L 327.027344 315.816406 C 337.996094 315.816406 346.921875 306.902344 346.921875 295.996094 L 347.652344 209.070312 C 347.695312 203.808594 345.65625 198.835938 341.914062 195.066406 C 338.128906 191.253906 333.101562 189.160156 327.757812 189.160156 Z M 335.816406 295.949219 C 335.816406 300.789062 331.871094 304.726562 327.023438 304.726562 L 263.078125 304.726562 C 258.234375 304.726562 254.289062 300.789062 254.289062 295.949219 C 254.289062 291.109375 258.234375 287.171875 263.078125 287.171875 L 312.683594 287.171875 C 315.726562 287.171875 318.203125 284.722656 318.234375 281.679688 L 318.964844 209.082031 C 319.015625 204.210938 322.957031 200.246094 327.757812 200.246094 C 330.117188 200.246094 332.34375 201.179688 334.027344 202.875 C 335.671875 204.527344 336.566406 206.695312 336.546875 208.980469 Z M 335.816406 295.949219 " fill-opacity="1" fill-rule="nonzero"/></g></svg>