<svg xmlns="http://www.w3.org/2000/svg" xmlns:xlink="http://www.w3.org/1999/xlink" width="500" zoomAndPan="magnify" viewBox="0 0 375 374.999991" height="500" preserveAspectRatio="xMidYMid meet" version="1.0"><defs><clipPath id="8813d3625f"><path d="M 0 183.921875 L 186.324219 183.921875 L 186.324219 375 L 0 375 Z M 0 183.921875 " clip-rule="nonzero"/></clipPath><clipPath id="5341970e27"><path d="M 5.515625 247.648438 C 2.183594 257.445312 -0.00390625 268.582031 -0.00390625 279.515625 C -0.00390625 290.445312 1.871094 300.960938 5.203125 310.65625 C 5.304688 310.863281 5.304688 311.070312 5.410156 311.273438 C 18.734375 347.675781 53.921875 374.488281 93.960938 375.003906 L 186.324219 375.003906 L 186.324219 183.921875 L 94.027344 183.921875 C 53.714844 184.4375 18.527344 210.835938 5.515625 247.648438 Z M 5.515625 247.648438 " clip-rule="nonzero"/></clipPath><clipPath id="06c3ce0c26"><path d="M 0 0.921875 L 186.324219 0.921875 L 186.324219 192 L 0 192 Z M 0 0.921875 " clip-rule="nonzero"/></clipPath><clipPath id="405ee3a77b"><path d="M 5.515625 64.648438 C 2.183594 74.445312 -0.00390625 85.582031 -0.00390625 96.515625 C -0.00390625 107.445312 1.871094 117.960938 5.203125 127.65625 C 5.304688 127.863281 5.304688 128.070312 5.410156 128.273438 C 18.734375 164.675781 53.921875 191.488281 93.960938 192.003906 L 186.324219 192.003906 L 186.324219 0.921875 L 94.027344 0.921875 C 53.714844 1.4375 18.527344 27.835938 5.515625 64.648438 Z M 5.515625 64.648438 " clip-rule="nonzero"/></clipPath><clipPath id="8789e25e0e"><rect x="0" width="187" y="0" height="192"/></clipPath><clipPath id="0acbfccfb7"><path d="M 0.324219 183.921875 L 186.324219 183.921875 L 186.324219 374.996094 L 0.324219 374.996094 Z M 0.324219 183.921875 " clip-rule="nonzero"/></clipPath><clipPath id="8ce4d3126f"><path d="M 5.515625 247.648438 C 2.1875 257.445312 0 268.582031 0 279.511719 C 0 290.441406 1.875 300.960938 5.207031 310.652344 C 5.308594 310.859375 5.308594 311.0625 5.414062 311.269531 C 18.738281 347.671875 53.925781 374.480469 93.960938 374.996094 L 186.324219 374.996094 L 186.324219 183.921875 L 94.03125 183.921875 C 53.71875 184.4375 18.53125 210.835938 5.515625 247.648438 Z M 5.515625 247.648438 " clip-rule="nonzero"/></clipPath><clipPath id="3f5dbe129c"><path d="M 180.464844 183.914062 L 375 183.914062 L 375 374.996094 L 180.464844 374.996094 Z M 180.464844 183.914062 " clip-rule="nonzero"/></clipPath><clipPath id="0434ccdccb"><path d="M 369.480469 311.265625 C 372.8125 301.472656 375 290.335938 375 279.402344 C 375 268.472656 373.125 257.953125 369.792969 248.261719 C 369.6875 248.054688 369.6875 247.847656 369.585938 247.644531 C 356.257812 211.242188 321.070312 184.429688 280.851562 183.914062 L 180.464844 183.914062 L 180.464844 374.996094 L 280.777344 374.996094 C 321.28125 374.480469 356.46875 348.082031 369.480469 311.265625 Z M 369.480469 311.265625 " clip-rule="nonzero"/></clipPath><clipPath id="f1bc6ee803"><path d="M 0.464844 0.914062 L 195 0.914062 L 195 191.996094 L 0.464844 191.996094 Z M 0.464844 0.914062 " clip-rule="nonzero"/></clipPath><clipPath id="76d85c8251"><path d="M 189.480469 128.265625 C 192.8125 118.472656 195 107.335938 195 96.402344 C 195 85.472656 193.125 74.953125 189.792969 65.261719 C 189.6875 65.054688 189.6875 64.847656 189.585938 64.644531 C 176.257812 28.242188 141.070312 1.429688 100.851562 0.914062 L 0.464844 0.914062 L 0.464844 191.996094 L 100.777344 191.996094 C 141.28125 191.480469 176.46875 165.082031 189.480469 128.265625 Z M 189.480469 128.265625 " clip-rule="nonzero"/></clipPath><clipPath id="26f6dd93af"><rect x="0" width="195" y="0" height="192"/></clipPath><clipPath id="28e67ac90a"><path d="M 180.464844 183.921875 L 374.714844 183.921875 L 374.714844 374.996094 L 180.464844 374.996094 Z M 180.464844 183.921875 " clip-rule="nonzero"/></clipPath><clipPath id="bdf0fc4374"><path d="M 369.476562 311.269531 C 372.808594 301.472656 374.992188 290.335938 374.992188 279.40625 C 374.992188 268.476562 373.121094 257.957031 369.789062 248.265625 C 369.683594 248.058594 369.683594 247.851562 369.582031 247.648438 C 356.253906 211.246094 321.070312 184.4375 280.851562 183.921875 L 180.464844 183.921875 L 180.464844 374.996094 L 280.777344 374.996094 C 321.277344 374.480469 356.464844 348.082031 369.476562 311.269531 Z M 369.476562 311.269531 " clip-rule="nonzero"/></clipPath><clipPath id="1b56d56b5a"><path d="M 134.800781 191.359375 L 256.386719 191.359375 L 256.386719 367.683594 L 134.800781 367.683594 Z M 134.800781 191.359375 " clip-rule="nonzero"/></clipPath><clipPath id="f33ae3fd74"><path d="M 0.800781 0.359375 L 122.386719 0.359375 L 122.386719 176.683594 L 0.800781 176.683594 Z M 0.800781 0.359375 " clip-rule="nonzero"/></clipPath><clipPath id="08e50b89c5"><rect x="0" width="123" y="0" height="177"/></clipPath><clipPath id="25467af983"><path d="M 19.84375 201.765625 L 175.09375 201.765625 L 175.09375 357.015625 L 19.84375 357.015625 Z M 19.84375 201.765625 " clip-rule="nonzero"/></clipPath><clipPath id="43e001b24d"><path d="M 198.519531 201.765625 L 353.769531 201.765625 L 353.769531 357.015625 L 198.519531 357.015625 Z M 198.519531 201.765625 " clip-rule="nonzero"/></clipPath></defs><g clip-path="url(#8813d3625f)"><g clip-path="url(#5341970e27)"><g transform="matrix(1, 0, 0, 1, 0, 183)"><g clip-path="url(#8789e25e0e)"><g clip-path="url(#06c3ce0c26)"><g clip-path="url(#405ee3a77b)"><path fill="#ffffff" d="M 186.324219 0.921875 L 186.324219 192.347656 L -0.00390625 192.347656 L -0.00390625 0.921875 Z M 186.324219 0.921875 " fill-opacity="1" fill-rule="nonzero"/></g></g></g></g></g></g><g clip-path="url(#0acbfccfb7)"><g clip-path="url(#8ce4d3126f)"><path stroke-linecap="butt" transform="matrix(0, 0.75, -0.75, 0, 186.325687, 183.922078)" fill="none" stroke-linejoin="miter" d="M 84.968491 241.080113 C 98.030993 245.517614 112.879953 248.434281 127.452871 248.434281 C 142.02579 248.434281 156.051834 245.934281 168.97371 241.491572 C 169.249752 241.356155 169.520585 241.356155 169.796627 241.21553 C 218.333092 223.449903 254.077888 176.53323 254.765388 123.153015 L 254.765388 0.00195722 L -0.00027003 0.00195722 L -0.00027003 123.059265 C 0.68723 176.809272 35.885151 223.725945 84.968491 241.080113 Z M 84.968491 241.080113 " stroke="#000000" stroke-width="20" stroke-opacity="1" stroke-miterlimit="4"/></g></g><g clip-path="url(#3f5dbe129c)"><g clip-path="url(#0434ccdccb)"><g transform="matrix(1, 0, 0, 1, 180, 183)"><g clip-path="url(#26f6dd93af)"><g clip-path="url(#f1bc6ee803)"><g clip-path="url(#76d85c8251)"><path fill="#ffffff" d="M 0.464844 191.996094 L 0.464844 0.914062 L 195.277344 0.914062 L 195.277344 191.996094 Z M 0.464844 191.996094 " fill-opacity="1" fill-rule="nonzero"/></g></g></g></g></g></g><g clip-path="url(#28e67ac90a)"><g clip-path="url(#bdf0fc4374)"><path stroke-linecap="butt" transform="matrix(0, -0.75, 0.75, 0, 180.464172, 374.995406)" fill="none" stroke-linejoin="miter" d="M 84.967844 252.016554 C 98.030345 256.459262 112.879306 259.370721 127.452224 259.370721 C 142.025143 259.370721 156.051186 256.875929 168.973063 252.43322 C 169.249105 252.292595 169.525146 252.292595 169.79598 252.157179 C 218.332444 234.386343 254.077241 187.474879 254.764741 133.849872 L 254.764741 0.000895867 L -0.0009173 0.000895867 L -0.0009173 133.750913 C 0.686583 187.75092 35.884504 234.667593 84.967844 252.016554 Z M 84.967844 252.016554 " stroke="#000000" stroke-width="20" stroke-opacity="1" stroke-miterlimit="4"/></g></g><g clip-path="url(#1b56d56b5a)"><g transform="matrix(1, 0, 0, 1, 134, 191)"><g clip-path="url(#08e50b89c5)"><g clip-path="url(#f33ae3fd74)"><path fill="#ffffff" d="M 0.800781 0.359375 L 122.386719 0.359375 L 122.386719 176.5625 L 0.800781 176.5625 Z M 0.800781 0.359375 " fill-opacity="1" fill-rule="nonzero"/></g></g></g></g><g clip-path="url(#25467af983)"><path fill="#000000" d="M 97.464844 201.765625 C 54.597656 201.765625 19.84375 236.519531 19.84375 279.390625 C 19.84375 322.261719 54.597656 357.015625 97.464844 357.015625 C 140.335938 357.015625 175.089844 322.261719 175.089844 279.390625 C 175.089844 236.519531 140.335938 201.765625 97.464844 201.765625 Z M 140.566406 304.382812 C 139.265625 303.675781 138.007812 302.992188 136.707031 302.285156 C 136.171875 303.179688 135.679688 304.058594 135.136719 304.90625 C 129.085938 314.367188 120.59375 320.570312 109.863281 323.726562 C 104.910156 325.1875 101.046875 328.117188 97.921875 332.128906 C 97.785156 332.304688 97.648438 332.480469 97.457031 332.734375 C 97.222656 332.441406 97.011719 332.1875 96.808594 331.921875 C 94.273438 328.613281 91.132812 326.066406 87.261719 324.5 C 85.761719 323.894531 84.152344 323.566406 82.628906 323.015625 C 72.386719 319.332031 64.394531 312.90625 58.898438 303.457031 C 58.675781 303.074219 58.46875 302.6875 58.230469 302.253906 C 56.929688 302.964844 55.671875 303.65625 54.320312 304.394531 C 53.210938 297.503906 53.5 290.792969 55.796875 284.105469 C 59.773438 288.828125 64.21875 292.949219 69.335938 296.484375 C 67.890625 297.246094 66.539062 297.960938 65.105469 298.71875 C 65.476562 299.203125 65.789062 299.648438 66.140625 300.054688 C 70.304688 304.875 75.308594 308.464844 81.414062 310.410156 C 84.671875 311.445312 87.734375 311.125 90.355469 308.746094 C 92.050781 307.210938 92.921875 305.230469 92.925781 302.953125 C 92.949219 290.613281 92.9375 278.273438 92.9375 265.929688 C 92.9375 265.734375 92.9375 265.535156 92.9375 265.285156 C 92.675781 265.269531 92.476562 265.246094 92.28125 265.246094 C 88.804688 265.242188 85.328125 265.234375 81.851562 265.257812 C 81.539062 265.257812 81.175781 265.398438 80.925781 265.589844 C 79.164062 266.9375 76.871094 267.039062 75.144531 265.808594 C 73.300781 264.496094 72.578125 262.21875 73.324219 260.082031 C 74.03125 258.070312 75.972656 256.773438 78.152344 256.882812 C 79.191406 256.933594 80.128906 257.285156 80.949219 257.949219 C 81.140625 258.101562 81.40625 258.238281 81.640625 258.238281 C 85.277344 258.257812 88.917969 258.253906 92.558594 258.25 C 92.65625 258.25 92.753906 258.234375 92.894531 258.21875 C 92.894531 256.417969 92.894531 254.640625 92.894531 252.984375 C 91.554688 252.257812 90.160156 251.699219 88.984375 250.835938 C 84.785156 247.757812 82.921875 243.570312 83.363281 238.359375 C 83.804688 233.136719 87.820312 227.648438 94.253906 226.324219 C 101.121094 224.910156 107.960938 229 110.109375 235.699219 C 112.222656 242.289062 108.917969 249.503906 102.539062 252.191406 C 102.082031 252.382812 101.914062 252.628906 101.925781 253.132812 C 101.960938 254.636719 101.933594 256.140625 101.9375 257.648438 C 101.9375 257.824219 101.953125 258.003906 101.96875 258.21875 C 102.175781 258.230469 102.351562 258.253906 102.527344 258.253906 C 105.636719 258.257812 108.75 258.25 111.859375 258.265625 C 112.308594 258.269531 112.660156 258.160156 113.023438 257.875 C 114.648438 256.597656 116.851562 256.511719 118.613281 257.609375 C 120.320312 258.675781 121.175781 260.738281 120.765625 262.796875 C 120.382812 264.707031 118.742188 266.34375 116.808594 266.628906 C 115.4375 266.832031 114.128906 266.582031 113.027344 265.664062 C 112.660156 265.359375 112.277344 265.246094 111.804688 265.246094 C 108.734375 265.261719 105.664062 265.261719 102.59375 265.238281 C 102.105469 265.234375 101.925781 265.355469 101.925781 265.878906 C 101.941406 278.242188 101.859375 290.601562 101.976562 302.960938 C 102.023438 307.878906 105.773438 310.839844 110.066406 310.933594 C 112.066406 310.980469 113.90625 310.335938 115.714844 309.601562 C 121.203125 307.375 125.730469 303.875 129.394531 299.238281 C 129.519531 299.082031 129.625 298.910156 129.773438 298.695312 C 128.378906 297.964844 127.019531 297.253906 125.578125 296.5 C 130.632812 292.976562 135.035156 288.855469 139.0625 284.160156 C 141.433594 290.800781 141.757812 297.492188 140.566406 304.382812 Z M 140.566406 304.382812 " fill-opacity="1" fill-rule="nonzero"/></g><path fill="#000000" d="M 104.011719 239.953125 C 104.039062 236.003906 100.878906 232.796875 96.945312 232.777344 C 93.144531 232.753906 89.980469 235.914062 89.960938 239.75 C 89.9375 243.636719 93.070312 246.738281 97.03125 246.75 C 100.753906 246.761719 103.988281 243.609375 104.011719 239.953125 Z M 104.011719 239.953125 " fill-opacity="1" fill-rule="nonzero"/><g clip-path="url(#43e001b24d)"><path fill="#000000" d="M 276.144531 201.765625 C 233.273438 201.765625 198.519531 236.523438 198.519531 279.390625 C 198.519531 322.261719 233.273438 357.015625 276.144531 357.015625 C 319.011719 357.015625 353.769531 322.261719 353.769531 279.390625 C 353.769531 236.523438 319.011719 201.765625 276.144531 201.765625 Z M 285.886719 311.296875 L 272.535156 311.296875 L 272.535156 260.492188 L 271.738281 260.492188 L 256.085938 271.28125 L 256.085938 258.855469 L 272.578125 247.488281 L 285.890625 247.488281 L 285.890625 311.296875 Z M 285.886719 311.296875 " fill-opacity="1" fill-rule="nonzero"/></g></svg>