<svg xmlns="http://www.w3.org/2000/svg" xmlns:xlink="http://www.w3.org/1999/xlink" width="500" zoomAndPan="magnify" viewBox="0 0 375 374.999991" height="500" preserveAspectRatio="xMidYMid meet" version="1.0"><path fill="#000000" d="M 13.328125 226.160156 L 363.847656 226.828125 C 363.546875 246.28125 359.855469 299.972656 318.925781 330.644531 C 314.371094 333.96875 309.523438 336.789062 304.378906 339.097656 C 299.234375 341.40625 293.90625 343.160156 288.394531 344.351562 C 288.609375 344.832031 288.738281 345.335938 288.78125 345.863281 L 288.78125 362.238281 C 288.726562 362.660156 288.632812 363.074219 288.5 363.476562 C 288.367188 363.878906 288.195312 364.265625 287.988281 364.632812 C 287.777344 365.003906 287.535156 365.347656 287.261719 365.671875 C 286.988281 365.996094 286.683594 366.289062 286.351562 366.554688 C 286.019531 366.816406 285.667969 367.046875 285.289062 367.242188 C 284.914062 367.441406 284.523438 367.597656 284.117188 367.71875 C 283.710938 367.839844 283.296875 367.917969 282.871094 367.960938 C 282.449219 368 282.027344 368 281.605469 367.957031 L 275.9375 367.957031 C 275.515625 368 275.09375 368 274.671875 367.960938 C 274.246094 367.917969 273.832031 367.839844 273.425781 367.71875 C 273.019531 367.597656 272.628906 367.441406 272.253906 367.242188 C 271.875 367.046875 271.523438 366.816406 271.191406 366.554688 C 270.859375 366.289062 270.554688 365.996094 270.28125 365.671875 C 270.007812 365.347656 269.765625 365.003906 269.558594 364.632812 C 269.347656 364.265625 269.175781 363.878906 269.042969 363.476562 C 268.910156 363.074219 268.816406 362.660156 268.761719 362.238281 L 268.761719 347.660156 C 242.871094 349.734375 216.941406 350.476562 190.972656 349.882812 C 163.410156 350.457031 135.890625 349.601562 108.414062 347.320312 L 108.414062 362.238281 C 108.359375 362.660156 108.265625 363.074219 108.132812 363.476562 C 108 363.878906 107.828125 364.265625 107.621094 364.632812 C 107.410156 365.003906 107.167969 365.347656 106.894531 365.671875 C 106.621094 365.996094 106.316406 366.289062 105.984375 366.554688 C 105.652344 366.816406 105.300781 367.046875 104.921875 367.242188 C 104.546875 367.441406 104.15625 367.597656 103.75 367.71875 C 103.34375 367.839844 102.929688 367.917969 102.507812 367.960938 C 102.082031 368 101.660156 368 101.238281 367.957031 L 95.578125 367.957031 C 95.152344 368 94.730469 368 94.308594 367.960938 C 93.886719 367.917969 93.472656 367.839844 93.066406 367.71875 C 92.660156 367.597656 92.265625 367.441406 91.890625 367.246094 C 91.515625 367.046875 91.160156 366.816406 90.828125 366.554688 C 90.496094 366.289062 90.191406 365.996094 89.917969 365.671875 C 89.640625 365.351562 89.402344 365.003906 89.191406 364.632812 C 88.984375 364.265625 88.8125 363.878906 88.679688 363.476562 C 88.542969 363.074219 88.449219 362.660156 88.394531 362.238281 L 88.394531 345.863281 C 88.417969 345.1875 88.582031 344.546875 88.886719 343.945312 C 82.863281 342.628906 77.054688 340.667969 71.464844 338.058594 C 65.875 335.453125 60.636719 332.265625 55.753906 328.5 C 17.320312 298.136719 13.476562 247.519531 13.328125 226.160156 Z M 358.378906 183.800781 L 350.671875 183.800781 C 350.59375 161.125 350.628906 138.445312 350.777344 115.765625 C 351.730469 94.457031 351.015625 73.199219 348.628906 52.003906 C 348.359375 48.800781 347.765625 45.65625 346.835938 42.582031 C 345.910156 39.503906 344.671875 36.554688 343.125 33.738281 C 341.574219 30.921875 339.75 28.296875 337.652344 25.863281 C 335.550781 23.429688 333.21875 21.242188 330.660156 19.300781 C 311.914062 6.664062 286.804688 9.148438 274.152344 28.121094 C 259 26.4375 242.816406 34.53125 241.542969 42.101562 C 240.332031 49.144531 251.738281 56.644531 264.355469 64.929688 C 277.128906 73.320312 289.773438 81.628906 296.300781 77.320312 C 302.828125 73.011719 303.78125 55.597656 296.46875 42.734375 C 296.898438 42.132812 297.382812 41.574219 297.917969 41.0625 C 298.453125 40.550781 299.03125 40.09375 299.652344 39.691406 C 300.273438 39.285156 300.925781 38.945312 301.613281 38.664062 C 302.296875 38.382812 303.003906 38.167969 303.730469 38.019531 C 304.453125 37.871094 305.1875 37.792969 305.929688 37.78125 C 306.667969 37.769531 307.40625 37.828125 308.132812 37.957031 C 308.863281 38.082031 309.574219 38.277344 310.269531 38.539062 C 310.960938 38.796875 311.625 39.121094 312.257812 39.507812 C 314.007812 40.273438 315.660156 41.207031 317.222656 42.300781 C 314.476562 40.453125 317.507812 43.375 318.433594 44.011719 C 318.867188 45.109375 319.4375 46.128906 320.144531 47.070312 C 320.8125 48.898438 321.371094 50.761719 321.820312 52.65625 C 323.070312 58.292969 323.734375 64.003906 323.816406 69.777344 C 325.753906 107.664062 324.222656 145.832031 324.105469 183.808594 L 16.496094 183.808594 C 15.59375 183.734375 14.695312 183.753906 13.796875 183.855469 C 12.898438 183.960938 12.019531 184.148438 11.15625 184.421875 C 10.296875 184.699219 9.46875 185.054688 8.675781 185.488281 C 7.882812 185.921875 7.140625 186.429688 6.445312 187.011719 C 5.75 187.589844 5.121094 188.230469 4.550781 188.933594 C 3.980469 189.636719 3.484375 190.386719 3.058594 191.183594 C 2.632812 191.984375 2.289062 192.816406 2.027344 193.679688 C 1.765625 194.546875 1.589844 195.429688 1.496094 196.328125 C 1.585938 197.230469 1.765625 198.113281 2.027344 198.976562 C 2.289062 199.84375 2.632812 200.675781 3.054688 201.476562 C 3.480469 202.273438 3.976562 203.027344 4.546875 203.730469 C 5.117188 204.429688 5.75 205.074219 6.445312 205.652344 C 7.136719 206.234375 7.882812 206.742188 8.675781 207.175781 C 9.46875 207.613281 10.292969 207.964844 11.15625 208.242188 C 12.019531 208.515625 12.898438 208.707031 13.796875 208.808594 C 14.695312 208.914062 15.59375 208.929688 16.496094 208.859375 L 358.378906 208.859375 C 359.277344 208.929688 360.179688 208.914062 361.078125 208.808594 C 361.976562 208.707031 362.855469 208.515625 363.71875 208.242188 C 364.578125 207.964844 365.40625 207.613281 366.199219 207.175781 C 366.992188 206.742188 367.734375 206.234375 368.429688 205.652344 C 369.125 205.074219 369.757812 204.429688 370.324219 203.730469 C 370.894531 203.027344 371.394531 202.273438 371.816406 201.476562 C 372.242188 200.675781 372.585938 199.84375 372.847656 198.980469 C 373.109375 198.113281 373.285156 197.230469 373.378906 196.328125 C 373.285156 195.429688 373.109375 194.546875 372.847656 193.679688 C 372.585938 192.8125 372.242188 191.980469 371.816406 191.183594 C 371.394531 190.382812 370.894531 189.632812 370.324219 188.929688 C 369.757812 188.226562 369.125 187.585938 368.429688 187.007812 C 367.734375 186.425781 366.992188 185.917969 366.199219 185.484375 C 365.40625 185.046875 364.578125 184.691406 363.71875 184.417969 C 362.855469 184.144531 361.976562 183.953125 361.078125 183.847656 C 360.179688 183.746094 359.277344 183.730469 358.378906 183.800781 Z M 267.40625 115.734375 C 268.378906 116.628906 269.511719 117.226562 270.800781 117.523438 L 273.460938 117.878906 C 275.265625 117.882812 276.945312 117.425781 278.5 116.511719 C 279.609375 115.835938 280.5625 114.980469 281.355469 113.949219 C 282.144531 112.914062 282.722656 111.773438 283.082031 110.519531 L 285.839844 100.457031 C 286.257812 99.140625 286.320312 97.808594 286.019531 96.460938 C 285.902344 95.152344 285.515625 93.925781 284.859375 92.789062 C 284.203125 91.652344 283.335938 90.703125 282.257812 89.949219 C 281.285156 89.050781 280.15625 88.457031 278.863281 88.160156 L 276.203125 87.800781 C 274.398438 87.800781 272.722656 88.253906 271.164062 89.164062 C 270.054688 89.839844 269.101562 90.695312 268.3125 91.730469 C 267.519531 92.765625 266.941406 93.90625 266.578125 95.15625 L 263.824219 105.222656 C 263.402344 106.539062 263.34375 107.871094 263.652344 109.214844 C 263.710938 110.558594 264.105469 111.796875 264.835938 112.925781 C 265.449219 114.085938 266.304688 115.019531 267.40625 115.734375 Z M 255.226562 136.691406 L 252.472656 146.757812 C 252.050781 148.074219 251.992188 149.40625 252.296875 150.753906 C 252.355469 152.097656 252.75 153.332031 253.484375 154.460938 C 254.183594 155.550781 255.050781 156.488281 256.078125 157.277344 C 257.105469 158.066406 258.238281 158.660156 259.472656 159.054688 L 262.132812 159.40625 C 263.933594 159.417969 265.613281 158.972656 267.171875 158.074219 C 268.285156 157.398438 269.234375 156.542969 270.027344 155.511719 C 270.816406 154.476562 271.394531 153.335938 271.757812 152.082031 L 274.511719 142.019531 C 274.933594 140.703125 274.992188 139.371094 274.691406 138.023438 C 274.574219 136.714844 274.1875 135.492188 273.53125 134.351562 C 272.871094 133.214844 272.007812 132.269531 270.933594 131.511719 C 269.960938 130.613281 268.828125 130.019531 267.539062 129.722656 L 264.875 129.367188 C 263.078125 129.355469 261.398438 129.800781 259.839844 130.699219 C 258.722656 131.375 257.765625 132.226562 256.96875 133.261719 C 256.171875 134.296875 255.59375 135.4375 255.226562 136.691406 Z M 255.132812 75.191406 L 253.136719 73.625 C 251.582031 72.714844 249.902344 72.261719 248.097656 72.261719 L 245.4375 72.621094 C 243.742188 73.085938 242.277344 73.945312 241.039062 75.191406 L 234.382812 83.234375 C 233.414062 84.121094 232.726562 85.195312 232.320312 86.449219 C 231.746094 87.667969 231.460938 88.949219 231.460938 90.296875 C 231.460938 91.644531 231.746094 92.925781 232.320312 94.144531 C 232.726562 95.394531 233.414062 96.464844 234.382812 97.351562 L 236.378906 98.917969 C 237.9375 99.820312 239.617188 100.265625 241.417969 100.25 L 244.078125 99.894531 C 245.777344 99.429688 247.246094 98.574219 248.484375 97.328125 L 255.140625 89.285156 C 256.109375 88.394531 256.796875 87.320312 257.203125 86.070312 C 257.777344 84.851562 258.0625 83.570312 258.0625 82.222656 C 258.0625 80.878906 257.777344 79.597656 257.203125 78.378906 C 256.792969 77.132812 256.101562 76.070312 255.132812 75.191406 Z M 206.957031 130.535156 L 208.957031 132.089844 C 210.515625 132.992188 212.191406 133.4375 213.992188 133.421875 L 216.65625 133.070312 C 218.363281 132.617188 219.847656 131.769531 221.105469 130.535156 C 223.324219 127.871094 225.542969 125.191406 227.761719 122.492188 C 228.734375 121.601562 229.421875 120.53125 229.824219 119.277344 C 230.398438 118.058594 230.683594 116.773438 230.683594 115.429688 C 230.683594 114.082031 230.398438 112.796875 229.824219 111.578125 C 229.421875 110.328125 228.734375 109.253906 227.761719 108.363281 L 225.765625 106.804688 C 224.210938 105.894531 222.53125 105.4375 220.726562 105.441406 L 218.066406 105.800781 C 216.371094 106.269531 214.902344 107.121094 213.660156 108.363281 L 207.003906 116.414062 C 206.035156 117.300781 205.347656 118.371094 204.941406 119.621094 C 204.371094 120.839844 204.082031 122.125 204.082031 123.46875 C 204.082031 124.816406 204.371094 126.097656 204.941406 127.316406 C 205.335938 128.566406 206.007812 129.636719 206.957031 130.535156 Z M 208.996094 70.917969 L 210.550781 72.914062 C 211.796875 74.15625 213.265625 75.011719 214.957031 75.476562 L 217.621094 75.835938 C 219.421875 75.839844 221.101562 75.382812 222.65625 74.472656 L 231.601562 69.105469 C 232.761719 68.5 233.699219 67.652344 234.417969 66.554688 C 235.3125 65.582031 235.90625 64.449219 236.199219 63.160156 C 236.628906 61.84375 236.6875 60.515625 236.378906 59.164062 C 236.324219 57.820312 235.929688 56.585938 235.195312 55.457031 L 233.636719 53.460938 C 232.394531 52.214844 230.925781 51.359375 229.234375 50.890625 L 226.570312 50.53125 C 224.769531 50.53125 223.089844 50.984375 221.53125 51.894531 L 212.589844 57.269531 C 211.429688 57.878906 210.496094 58.738281 209.789062 59.839844 C 208.894531 60.8125 208.296875 61.945312 207.996094 63.234375 C 207.574219 64.550781 207.515625 65.878906 207.824219 67.226562 C 207.882812 68.5625 208.273438 69.792969 208.996094 70.917969 Z M 172.09375 93.058594 L 173.65625 95.054688 C 174.898438 96.300781 176.367188 97.15625 178.0625 97.625 L 180.726562 97.980469 C 182.523438 97.992188 184.203125 97.546875 185.761719 96.648438 L 194.707031 91.273438 C 195.863281 90.660156 196.796875 89.804688 197.507812 88.703125 C 198.375 87.683594 198.980469 86.53125 199.328125 85.238281 C 199.679688 83.949219 199.738281 82.644531 199.503906 81.328125 C 199.445312 79.984375 199.050781 78.746094 198.320312 77.613281 L 196.757812 75.617188 C 195.515625 74.375 194.046875 73.519531 192.351562 73.054688 L 189.6875 72.695312 C 187.886719 72.691406 186.207031 73.144531 184.652344 74.058594 L 175.699219 79.425781 C 174.546875 80.039062 173.617188 80.898438 172.90625 81.996094 C 172.039062 83.015625 171.433594 84.171875 171.082031 85.460938 C 170.734375 86.753906 170.675781 88.058594 170.910156 89.378906 C 170.976562 90.710938 171.371094 91.9375 172.09375 93.058594 Z M 172.09375 93.058594 " fill-opacity="1" fill-rule="nonzero"/></svg>