<svg xmlns="http://www.w3.org/2000/svg" xmlns:xlink="http://www.w3.org/1999/xlink" width="500" zoomAndPan="magnify" viewBox="0 0 375 374.999991" height="500" preserveAspectRatio="xMidYMid meet" version="1.0"><defs><clipPath id="d741e46a85"><path d="M 0 233 L 375 233 L 375 320.34375 L 0 320.34375 Z M 0 233 " clip-rule="nonzero"/></clipPath><clipPath id="81f2ec7b79"><path d="M 38 54.84375 L 338 54.84375 L 338 148 L 38 148 Z M 38 54.84375 " clip-rule="nonzero"/></clipPath></defs><path fill="#000000" d="M 374.914062 221.808594 L 0.0625 221.808594 L 0.0625 199.867188 C 0.0625 183.164062 18.105469 164.023438 34.257812 160.960938 C 134.285156 158.414062 234.738281 160.5625 334.921875 159.875 C 352.605469 160.054688 374.914062 181.484375 374.914062 199.007812 Z M 374.914062 221.808594 " fill-opacity="1" fill-rule="nonzero"/><g clip-path="url(#d741e46a85)"><path fill="#000000" d="M 374.914062 233.851562 L 374.914062 269.558594 C 374.914062 269.894531 373.160156 273.613281 372.722656 274.253906 C 369.519531 278.984375 363.894531 279.371094 358.570312 279.449219 C 357.28125 280.683594 359.394531 309.796875 358.527344 315.109375 C 357.390625 322.070312 344.460938 321.257812 342.351562 317.632812 L 332.214844 279.417969 L 42.710938 279.398438 C 40.871094 279.910156 35.222656 311.667969 33.15625 316.445312 C 31.828125 319.535156 31.195312 319.617188 28.050781 319.9375 C 23.863281 320.367188 17.625 320.925781 16.574219 315.832031 L 16.398438 279.449219 C 10.96875 281.007812 0.0585938 275.386719 0.0585938 269.558594 L 0.0585938 233.851562 Z M 374.914062 233.851562 " fill-opacity="1" fill-rule="nonzero"/></g><g clip-path="url(#81f2ec7b79)"><path fill="#000000" d="M 42.617188 146.953125 C 42.019531 147.015625 40.871094 148.304688 39.613281 147.808594 C 39.46875 124.441406 39.777344 101.039062 39.644531 77.660156 C 39.632812 75.375 38.652344 73.367188 38.722656 70.863281 C 38.960938 62.445312 44.773438 54.605469 53.761719 54.859375 L 325.75 55.484375 C 332.164062 57.503906 335.5625 63.476562 336.214844 69.964844 C 338.011719 87.84375 337.339844 119.585938 336.261719 137.957031 C 336.070312 141.195312 334.785156 144.386719 335.363281 147.808594 C 334.15625 148.320312 332.796875 146.953125 332.359375 146.953125 L 314.730469 146.953125 L 314.730469 130.175781 C 314.730469 121.222656 302.09375 109.789062 293.460938 108.445312 C 271.59375 105.035156 242.347656 110.59375 219.695312 108.203125 C 210.058594 108.171875 196.085938 121.84375 196.085938 131.039062 L 196.085938 146.953125 L 178.890625 146.953125 L 178.890625 131.039062 C 178.890625 121.296875 164.507812 107.726562 154.417969 108.207031 C 132.027344 110.558594 103.128906 105.074219 81.515625 108.445312 C 73.515625 109.691406 60.246094 121.089844 60.246094 129.316406 L 60.246094 146.953125 C 54.574219 147.375 48.195312 146.378906 42.617188 146.953125 Z M 42.617188 146.953125 " fill-opacity="1" fill-rule="nonzero"/></g><path fill="#000000" d="M 165.996094 146.953125 L 72.28125 146.953125 L 72.28125 132.761719 C 72.28125 128.507812 78.59375 121.886719 82.988281 121.101562 C 104.457031 121.410156 131.46875 117.84375 152.574219 120.378906 C 155.621094 120.746094 159.980469 122.375 162.132812 124.582031 C 162.835938 125.308594 165.996094 130.660156 165.996094 131.039062 Z M 165.996094 146.953125 " fill-opacity="1" fill-rule="nonzero"/><path fill="#000000" d="M 302.691406 146.953125 L 208.980469 146.953125 L 208.980469 131.039062 C 208.980469 125.582031 217.570312 120.964844 222.402344 120.378906 C 237.136719 118.582031 272.566406 118.894531 287.683594 120.246094 C 292.996094 120.722656 298.042969 123.121094 300.601562 127.96875 C 301.023438 128.773438 302.695312 133.148438 302.695312 133.617188 L 302.695312 146.953125 Z M 302.691406 146.953125 " fill-opacity="1" fill-rule="nonzero"/></svg>