<svg xmlns="http://www.w3.org/2000/svg" xmlns:xlink="http://www.w3.org/1999/xlink" width="500" zoomAndPan="magnify" viewBox="0 0 375 374.999991" height="500" preserveAspectRatio="xMidYMid meet" version="1.0"><path fill="#000000" d="M 373.007812 175.097656 L 368.628906 162.761719 C 366.242188 155.996094 358.679688 150.425781 351.910156 150.425781 L 336.386719 150.425781 C 324.839844 118.195312 310.90625 79.199219 306.527344 70.046875 C 300.160156 55.722656 279.855469 49.355469 268.710938 46.171875 C 268.710938 46.171875 250 39.007812 187.5 39.007812 C 125 39.007812 106.6875 46.171875 106.6875 46.171875 C 93.550781 50.546875 75.238281 56.914062 68.074219 70.445312 C 64.492188 77.207031 50.160156 117 38.613281 150.425781 L 23.488281 150.425781 C 16.71875 150.425781 9.15625 155.996094 6.765625 162.761719 L 2.386719 175.097656 C 0 181.859375 3.582031 187.433594 10.351562 187.433594 L 25.875 187.433594 C 23.886719 193.003906 22.691406 196.1875 22.691406 196.1875 C 21.496094 198.175781 20.699219 207.328125 20.699219 210.113281 L 20.699219 322.722656 C 20.699219 329.886719 26.671875 335.855469 33.835938 335.855469 L 81.609375 335.855469 C 88.773438 335.855469 94.746094 329.886719 94.746094 322.722656 L 94.746094 298.847656 L 280.652344 298.847656 L 280.652344 322.722656 C 280.652344 329.886719 286.625 335.855469 293.789062 335.855469 L 341.957031 335.855469 C 349.125 335.855469 355.09375 329.886719 355.09375 322.722656 L 355.09375 210.113281 C 355.09375 207.726562 354.300781 198.175781 353.105469 196.1875 C 353.105469 196.1875 351.910156 193.003906 349.921875 187.433594 L 365.046875 187.433594 C 371.417969 187.433594 375 181.859375 373.007812 175.097656 Z M 94.746094 244.335938 L 78.820312 233.589844 C 49.363281 231.203125 45.78125 241.546875 39.410156 230.40625 L 39.410156 216.878906 C 39.410156 203.746094 46.972656 203.347656 55.335938 203.347656 C 63.296875 203.347656 79.21875 210.113281 89.96875 214.886719 C 101.511719 220.0625 109.871094 215.683594 114.25 232.792969 C 113.851562 240.753906 109.472656 244.335938 94.746094 244.335938 Z M 66.878906 155.597656 C 76.832031 115.011719 93.550781 86.757812 95.941406 79.992188 C 97.53125 75.21875 93.550781 66.464844 187.898438 66.464844 C 282.246094 66.464844 277.070312 79.199219 277.46875 79.597656 C 281.847656 88.75 299.363281 118.59375 308.519531 155.597656 C 308.519531 155.597656 273.089844 160.375 192.277344 160.375 C 111.464844 160.375 66.878906 155.597656 66.878906 155.597656 Z M 261.542969 232.792969 C 280.253906 209.714844 274.285156 220.0625 285.828125 214.886719 C 296.179688 210.113281 312.5 203.347656 320.460938 203.347656 C 328.820312 203.347656 336.386719 203.746094 336.386719 216.878906 L 336.386719 230.40625 C 330.414062 241.152344 325.238281 231.601562 295.382812 234.386719 L 280.652344 243.9375 C 265.921875 244.335938 256.371094 238.761719 261.542969 232.792969 Z M 261.542969 232.792969 " fill-opacity="1" fill-rule="nonzero"/></svg>