<svg xmlns="http://www.w3.org/2000/svg" xmlns:xlink="http://www.w3.org/1999/xlink" width="500" zoomAndPan="magnify" viewBox="0 0 375 374.999991" height="500" preserveAspectRatio="xMidYMid meet" version="1.0"><defs><clipPath id="2889b2a416"><path d="M 22 43 L 351 43 L 351 364.734375 L 22 364.734375 Z M 22 43 " clip-rule="nonzero"/></clipPath><clipPath id="5dfac90aee"><path d="M 4.730469 10 L 369.980469 10 L 369.980469 38 L 4.730469 38 Z M 4.730469 10 " clip-rule="nonzero"/></clipPath></defs><g clip-path="url(#2889b2a416)"><path fill="#232320" d="M 22.761719 43.609375 L 350.96875 43.621094 L 350.953125 364.644531 L 22.746094 364.628906 Z M 180.507812 56.628906 L 35.546875 56.710938 L 35.722656 351.527344 L 180.683594 351.441406 Z M 338.570312 56.640625 L 193.082031 56.664062 L 193.125 351.476562 L 338.613281 351.457031 Z M 338.570312 56.640625 " fill-opacity="1" fill-rule="nonzero"/></g><g clip-path="url(#5dfac90aee)"><path fill="#232320" d="M 4.722656 10.121094 L 369.988281 10.121094 L 369.988281 37.90625 L 4.722656 37.90625 Z M 4.722656 10.121094 " fill-opacity="1" fill-rule="nonzero"/></g><path fill="#232320" d="M 325.105469 204.414062 C 325.105469 205.195312 325.027344 205.972656 324.875 206.742188 C 324.722656 207.511719 324.496094 208.257812 324.195312 208.984375 C 323.894531 209.707031 323.527344 210.398438 323.089844 211.050781 C 322.652344 211.703125 322.160156 212.304688 321.605469 212.859375 C 321.050781 213.414062 320.445312 213.910156 319.792969 214.34375 C 319.140625 214.78125 318.453125 215.148438 317.726562 215.449219 C 317.003906 215.75 316.253906 215.976562 315.484375 216.128906 C 314.714844 216.28125 313.9375 216.359375 313.152344 216.359375 C 312.371094 216.359375 311.59375 216.28125 310.824219 216.128906 C 310.054688 215.976562 309.304688 215.75 308.582031 215.449219 C 307.855469 215.148438 307.167969 214.78125 306.515625 214.34375 C 305.863281 213.910156 305.257812 213.414062 304.703125 212.859375 C 304.148438 212.304688 303.652344 211.703125 303.21875 211.050781 C 302.78125 210.398438 302.414062 209.707031 302.113281 208.984375 C 301.8125 208.257812 301.585938 207.511719 301.433594 206.742188 C 301.28125 205.972656 301.203125 205.195312 301.203125 204.414062 C 301.203125 203.628906 301.28125 202.851562 301.433594 202.082031 C 301.585938 201.3125 301.8125 200.566406 302.113281 199.839844 C 302.414062 199.117188 302.78125 198.429688 303.21875 197.777344 C 303.652344 197.125 304.148438 196.519531 304.703125 195.964844 C 305.257812 195.410156 305.863281 194.914062 306.515625 194.480469 C 307.167969 194.042969 307.855469 193.675781 308.582031 193.375 C 309.304688 193.074219 310.054688 192.847656 310.824219 192.695312 C 311.59375 192.542969 312.371094 192.464844 313.152344 192.464844 C 313.9375 192.464844 314.714844 192.542969 315.484375 192.695312 C 316.253906 192.847656 317.003906 193.074219 317.726562 193.375 C 318.453125 193.675781 319.140625 194.042969 319.792969 194.480469 C 320.445312 194.914062 321.050781 195.410156 321.605469 195.964844 C 322.160156 196.519531 322.652344 197.125 323.089844 197.777344 C 323.527344 198.429688 323.894531 199.117188 324.195312 199.839844 C 324.496094 200.566406 324.722656 201.3125 324.875 202.082031 C 325.027344 202.851562 325.105469 203.628906 325.105469 204.414062 Z M 325.105469 204.414062 " fill-opacity="1" fill-rule="nonzero"/><path fill="#232320" d="M 72.785156 204.339844 C 72.785156 205.125 72.710938 205.902344 72.558594 206.675781 C 72.402344 207.445312 72.175781 208.195312 71.875 208.921875 C 71.574219 209.648438 71.203125 210.335938 70.769531 210.992188 C 70.332031 211.644531 69.835938 212.25 69.277344 212.804688 C 68.722656 213.363281 68.117188 213.859375 67.460938 214.296875 C 66.808594 214.734375 66.117188 215.101562 65.390625 215.402344 C 64.664062 215.703125 63.914062 215.929688 63.144531 216.085938 C 62.371094 216.238281 61.59375 216.3125 60.804688 216.3125 C 60.019531 216.3125 59.242188 216.238281 58.46875 216.085938 C 57.699219 215.929688 56.949219 215.703125 56.222656 215.402344 C 55.496094 215.101562 54.804688 214.734375 54.148438 214.296875 C 53.496094 213.859375 52.890625 213.363281 52.335938 212.804688 C 51.777344 212.25 51.28125 211.644531 50.84375 210.992188 C 50.40625 210.335938 50.039062 209.648438 49.738281 208.921875 C 49.4375 208.195312 49.210938 207.445312 49.054688 206.675781 C 48.902344 205.902344 48.824219 205.125 48.824219 204.339844 C 48.824219 203.550781 48.902344 202.773438 49.054688 202 C 49.210938 201.230469 49.4375 200.480469 49.738281 199.753906 C 50.039062 199.027344 50.40625 198.339844 50.84375 197.683594 C 51.28125 197.03125 51.777344 196.425781 52.335938 195.871094 C 52.890625 195.3125 53.496094 194.816406 54.148438 194.378906 C 54.804688 193.941406 55.496094 193.574219 56.222656 193.273438 C 56.949219 192.972656 57.699219 192.746094 58.46875 192.589844 C 59.242188 192.4375 60.019531 192.363281 60.804688 192.363281 C 61.59375 192.363281 62.371094 192.4375 63.144531 192.589844 C 63.914062 192.746094 64.664062 192.972656 65.390625 193.273438 C 66.117188 193.574219 66.808594 193.941406 67.460938 194.378906 C 68.117188 194.816406 68.722656 195.3125 69.277344 195.871094 C 69.835938 196.425781 70.332031 197.03125 70.769531 197.683594 C 71.203125 198.339844 71.574219 199.027344 71.875 199.753906 C 72.175781 200.480469 72.402344 201.230469 72.558594 202 C 72.710938 202.773438 72.785156 203.550781 72.785156 204.339844 Z M 72.785156 204.339844 " fill-opacity="1" fill-rule="nonzero"/></svg>