<svg xmlns="http://www.w3.org/2000/svg" xmlns:xlink="http://www.w3.org/1999/xlink" width="500" zoomAndPan="magnify" viewBox="0 0 375 374.999991" height="500" preserveAspectRatio="xMidYMid meet" version="1.0"><defs><clipPath id="79ed0d1588"><path d="M 4 122 L 171 122 L 171 365.90625 L 4 365.90625 Z M 4 122 " clip-rule="nonzero"/></clipPath></defs><path fill="#000000" d="M 287.230469 141.300781 L 375 141.300781 L 375 182.339844 L 287.230469 182.339844 Z M 287.230469 141.300781 " fill-opacity="1" fill-rule="nonzero"/><path fill="#000000" d="M 122.667969 253.25 L 155.578125 253.25 L 155.578125 294.292969 L 122.667969 294.292969 Z M 122.667969 253.25 " fill-opacity="1" fill-rule="nonzero"/><path fill="#000000" d="M 341.984375 309.121094 L 374.894531 309.121094 L 374.894531 350.160156 L 341.984375 350.160156 Z M 341.984375 309.121094 " fill-opacity="1" fill-rule="nonzero"/><path fill="#000000" d="M 341.984375 197.273438 L 374.894531 197.273438 L 374.894531 238.316406 L 341.984375 238.316406 Z M 341.984375 197.273438 " fill-opacity="1" fill-rule="nonzero"/><path fill="#000000" d="M 122.667969 309.121094 L 210.433594 309.121094 L 210.433594 350.160156 L 122.667969 350.160156 Z M 122.667969 309.121094 " fill-opacity="1" fill-rule="nonzero"/><path fill="#000000" d="M 232.375 309.121094 L 320.144531 309.121094 L 320.144531 350.160156 L 232.375 350.160156 Z M 232.375 309.121094 " fill-opacity="1" fill-rule="nonzero"/><path fill="#000000" d="M 122.667969 197.273438 L 210.433594 197.273438 L 210.433594 238.316406 L 122.667969 238.316406 Z M 122.667969 197.273438 " fill-opacity="1" fill-rule="nonzero"/><path fill="#000000" d="M 232.375 197.273438 L 320.144531 197.273438 L 320.144531 238.316406 L 232.375 238.316406 Z M 232.375 197.273438 " fill-opacity="1" fill-rule="nonzero"/><path fill="#000000" d="M 177.523438 253.25 L 265.289062 253.25 L 265.289062 294.292969 L 177.523438 294.292969 Z M 177.523438 253.25 " fill-opacity="1" fill-rule="nonzero"/><path fill="#000000" d="M 287.230469 253.25 L 375 253.25 L 375 294.292969 L 287.230469 294.292969 Z M 287.230469 253.25 " fill-opacity="1" fill-rule="nonzero"/><g clip-path="url(#79ed0d1588)"><path fill="#000000" d="M 170.625 159.261719 C 169.164062 150.175781 160.699219 143.910156 151.503906 145.371094 L 119.21875 150.488281 L 88.5 127.621094 C 85.363281 125.320312 81.707031 124.277344 78.050781 124.382812 C 76.066406 122.921875 73.664062 122.085938 70.945312 122.085938 L 36.675781 122.085938 C 18.597656 122.085938 4.074219 136.703125 4.074219 154.667969 L 4.074219 238.628906 C 4.074219 243.328125 6.792969 247.296875 10.65625 249.386719 L 18.390625 286.460938 L 6.894531 341.910156 C 4.703125 352.5625 11.597656 363.007812 22.253906 365.304688 C 23.613281 365.617188 24.972656 365.722656 26.332031 365.722656 C 35.523438 365.722656 43.78125 359.351562 45.660156 349.953125 L 57.988281 290.425781 C 58.511719 287.816406 58.511719 285.101562 57.988281 282.386719 L 53.496094 260.769531 L 65.929688 291.785156 L 65.929688 345.984375 C 65.929688 356.84375 74.8125 365.722656 85.679688 365.722656 C 96.546875 365.722656 105.425781 356.84375 105.425781 345.984375 L 105.425781 288.027344 C 105.425781 285.519531 104.902344 283.011719 103.964844 280.714844 L 83.273438 229.023438 L 83.273438 165.320312 L 105.007812 181.503906 C 107.933594 183.699219 111.382812 184.847656 115.039062 184.847656 C 115.875 184.847656 116.816406 184.742188 117.652344 184.640625 L 156.832031 178.476562 C 165.820312 176.910156 171.984375 168.347656 170.625 159.261719 Z M 170.625 159.261719 " fill-opacity="1" fill-rule="nonzero"/></g><path fill="#000000" d="M 171.148438 138.375 C 177.417969 142.972656 181.492188 149.65625 182.746094 157.382812 C 183.058594 159.679688 183.058594 161.871094 182.953125 164.171875 L 246.585938 159.574219 L 243.558594 118.636719 L 155.996094 125.007812 L 156.625 133.15625 C 161.847656 133.46875 166.863281 135.242188 171.148438 138.375 Z M 171.148438 138.375 " fill-opacity="1" fill-rule="nonzero"/><path fill="#000000" d="M 96.230469 39.0625 C 95.5 35.511719 92.050781 33.214844 88.5 33.945312 L 85.050781 34.675781 C 84.945312 34.46875 84.945312 34.257812 84.84375 34.050781 C 79.828125 20.785156 68.019531 11.386719 54.4375 9.089844 L 26.433594 14.9375 C 14.835938 22.457031 7.730469 35.824219 8.464844 49.921875 C 8.464844 50.132812 8.464844 50.339844 8.566406 50.652344 L 5.222656 51.382812 C 1.671875 52.117188 -0.625 55.5625 0.105469 59.113281 C 0.835938 62.664062 4.285156 64.960938 7.835938 64.230469 L 91.214844 46.894531 C 94.769531 46.058594 96.964844 42.613281 96.230469 39.0625 Z M 96.230469 39.0625 " fill-opacity="1" fill-rule="nonzero"/><path fill="#000000" d="M 12.015625 72.6875 C 14.523438 92.425781 31.347656 107.777344 51.71875 107.777344 C 73.871094 107.777344 91.84375 89.816406 91.84375 67.675781 C 91.84375 63.8125 91.214844 60.050781 90.171875 56.5 Z M 12.015625 72.6875 " fill-opacity="1" fill-rule="nonzero"/></svg>