<svg xmlns="http://www.w3.org/2000/svg" xmlns:xlink="http://www.w3.org/1999/xlink" width="500" zoomAndPan="magnify" viewBox="0 0 375 374.999991" height="500" preserveAspectRatio="xMidYMid meet" version="1.0"><defs><clipPath id="1408bff619"><path d="M 46 152 L 105 152 L 105 261 L 46 261 Z M 46 152 " clip-rule="nonzero"/></clipPath><clipPath id="9d67b19f86"><path d="M 87.308594 -48.457031 L 374.898438 28.65625 L 269.035156 423.460938 L -18.554688 346.347656 Z M 87.308594 -48.457031 " clip-rule="nonzero"/></clipPath><clipPath id="c8cc40cdf6"><path d="M 87.308594 -48.457031 L 374.898438 28.65625 L 269.035156 423.460938 L -18.554688 346.347656 Z M 87.308594 -48.457031 " clip-rule="nonzero"/></clipPath><clipPath id="752d8fabc2"><path d="M 143 217 L 158 217 L 158 247 L 143 247 Z M 143 217 " clip-rule="nonzero"/></clipPath><clipPath id="4e0e743bb9"><path d="M 87.308594 -48.457031 L 374.898438 28.65625 L 269.035156 423.460938 L -18.554688 346.347656 Z M 87.308594 -48.457031 " clip-rule="nonzero"/></clipPath><clipPath id="aa0534e10f"><path d="M 87.308594 -48.457031 L 374.898438 28.65625 L 269.035156 423.460938 L -18.554688 346.347656 Z M 87.308594 -48.457031 " clip-rule="nonzero"/></clipPath><clipPath id="00f10f9ef8"><path d="M 118 60 L 270 60 L 270 136 L 118 136 Z M 118 60 " clip-rule="nonzero"/></clipPath><clipPath id="31b0fc5554"><path d="M 87.308594 -48.457031 L 374.898438 28.65625 L 269.035156 423.460938 L -18.554688 346.347656 Z M 87.308594 -48.457031 " clip-rule="nonzero"/></clipPath><clipPath id="6637ca638b"><path d="M 87.308594 -48.457031 L 374.898438 28.65625 L 269.035156 423.460938 L -18.554688 346.347656 Z M 87.308594 -48.457031 " clip-rule="nonzero"/></clipPath><clipPath id="a8c240a140"><path d="M 165 156 L 263 156 L 263 208 L 165 208 Z M 165 156 " clip-rule="nonzero"/></clipPath><clipPath id="f77537b2a0"><path d="M 87.308594 -48.457031 L 374.898438 28.65625 L 269.035156 423.460938 L -18.554688 346.347656 Z M 87.308594 -48.457031 " clip-rule="nonzero"/></clipPath><clipPath id="26ed8dfe82"><path d="M 87.308594 -48.457031 L 374.898438 28.65625 L 269.035156 423.460938 L -18.554688 346.347656 Z M 87.308594 -48.457031 " clip-rule="nonzero"/></clipPath><clipPath id="ca2ce83888"><path d="M 49 108 L 70 108 L 70 128 L 49 128 Z M 49 108 " clip-rule="nonzero"/></clipPath><clipPath id="9c292a77cd"><path d="M 87.308594 -48.457031 L 374.898438 28.65625 L 269.035156 423.460938 L -18.554688 346.347656 Z M 87.308594 -48.457031 " clip-rule="nonzero"/></clipPath><clipPath id="8433ea8a69"><path d="M 87.308594 -48.457031 L 374.898438 28.65625 L 269.035156 423.460938 L -18.554688 346.347656 Z M 87.308594 -48.457031 " clip-rule="nonzero"/></clipPath><clipPath id="c26e62ae5f"><path d="M 133 154 L 148 154 L 148 169 L 133 169 Z M 133 154 " clip-rule="nonzero"/></clipPath><clipPath id="2c9253c4cc"><path d="M 87.308594 -48.457031 L 374.898438 28.65625 L 269.035156 423.460938 L -18.554688 346.347656 Z M 87.308594 -48.457031 " clip-rule="nonzero"/></clipPath><clipPath id="ad1d601cb5"><path d="M 87.308594 -48.457031 L 374.898438 28.65625 L 269.035156 423.460938 L -18.554688 346.347656 Z M 87.308594 -48.457031 " clip-rule="nonzero"/></clipPath><clipPath id="e0db087811"><path d="M 82 75 L 98 75 L 98 90 L 82 90 Z M 82 75 " clip-rule="nonzero"/></clipPath><clipPath id="b1c23c8f7e"><path d="M 87.308594 -48.457031 L 374.898438 28.65625 L 269.035156 423.460938 L -18.554688 346.347656 Z M 87.308594 -48.457031 " clip-rule="nonzero"/></clipPath><clipPath id="ccff890f5e"><path d="M 87.308594 -48.457031 L 374.898438 28.65625 L 269.035156 423.460938 L -18.554688 346.347656 Z M 87.308594 -48.457031 " clip-rule="nonzero"/></clipPath><clipPath id="3c331ffac5"><path d="M 76 109 L 88 109 L 88 122 L 76 122 Z M 76 109 " clip-rule="nonzero"/></clipPath><clipPath id="bda62c91e2"><path d="M 87.308594 -48.457031 L 374.898438 28.65625 L 269.035156 423.460938 L -18.554688 346.347656 Z M 87.308594 -48.457031 " clip-rule="nonzero"/></clipPath><clipPath id="83f81d335a"><path d="M 87.308594 -48.457031 L 374.898438 28.65625 L 269.035156 423.460938 L -18.554688 346.347656 Z M 87.308594 -48.457031 " clip-rule="nonzero"/></clipPath><clipPath id="81c064d2a1"><path d="M 104 137 L 114 137 L 114 146 L 104 146 Z M 104 137 " clip-rule="nonzero"/></clipPath><clipPath id="6433c3b682"><path d="M 87.308594 -48.457031 L 374.898438 28.65625 L 269.035156 423.460938 L -18.554688 346.347656 Z M 87.308594 -48.457031 " clip-rule="nonzero"/></clipPath><clipPath id="1045292fac"><path d="M 87.308594 -48.457031 L 374.898438 28.65625 L 269.035156 423.460938 L -18.554688 346.347656 Z M 87.308594 -48.457031 " clip-rule="nonzero"/></clipPath><clipPath id="be878a6547"><path d="M 104 121 L 109 121 L 109 126 L 104 126 Z M 104 121 " clip-rule="nonzero"/></clipPath><clipPath id="2f23620cb6"><path d="M 87.308594 -48.457031 L 374.898438 28.65625 L 269.035156 423.460938 L -18.554688 346.347656 Z M 87.308594 -48.457031 " clip-rule="nonzero"/></clipPath><clipPath id="68b444e544"><path d="M 87.308594 -48.457031 L 374.898438 28.65625 L 269.035156 423.460938 L -18.554688 346.347656 Z M 87.308594 -48.457031 " clip-rule="nonzero"/></clipPath><clipPath id="e356c7121e"><path d="M 121 154 L 126 154 L 126 159 L 121 159 Z M 121 154 " clip-rule="nonzero"/></clipPath><clipPath id="4fbd29a68b"><path d="M 87.308594 -48.457031 L 374.898438 28.65625 L 269.035156 423.460938 L -18.554688 346.347656 Z M 87.308594 -48.457031 " clip-rule="nonzero"/></clipPath><clipPath id="825a779417"><path d="M 87.308594 -48.457031 L 374.898438 28.65625 L 269.035156 423.460938 L -18.554688 346.347656 Z M 87.308594 -48.457031 " clip-rule="nonzero"/></clipPath><clipPath id="3c67de4c3c"><path d="M 99 100 L 104 100 L 104 104 L 99 104 Z M 99 100 " clip-rule="nonzero"/></clipPath><clipPath id="af6b63ea50"><path d="M 87.308594 -48.457031 L 374.898438 28.65625 L 269.035156 423.460938 L -18.554688 346.347656 Z M 87.308594 -48.457031 " clip-rule="nonzero"/></clipPath><clipPath id="94c8e8d738"><path d="M 87.308594 -48.457031 L 374.898438 28.65625 L 269.035156 423.460938 L -18.554688 346.347656 Z M 87.308594 -48.457031 " clip-rule="nonzero"/></clipPath><clipPath id="2048b0643f"><path d="M 81 132 L 84 132 L 84 136 L 81 136 Z M 81 132 " clip-rule="nonzero"/></clipPath><clipPath id="a0db1b5eb3"><path d="M 87.308594 -48.457031 L 374.898438 28.65625 L 269.035156 423.460938 L -18.554688 346.347656 Z M 87.308594 -48.457031 " clip-rule="nonzero"/></clipPath><clipPath id="82486b3c8a"><path d="M 87.308594 -48.457031 L 374.898438 28.65625 L 269.035156 423.460938 L -18.554688 346.347656 Z M 87.308594 -48.457031 " clip-rule="nonzero"/></clipPath><clipPath id="48821e111a"><path d="M 50 87 L 53 87 L 53 90 L 50 90 Z M 50 87 " clip-rule="nonzero"/></clipPath><clipPath id="fd1b87a9a0"><path d="M 87.308594 -48.457031 L 374.898438 28.65625 L 269.035156 423.460938 L -18.554688 346.347656 Z M 87.308594 -48.457031 " clip-rule="nonzero"/></clipPath><clipPath id="7c8e1d0034"><path d="M 87.308594 -48.457031 L 374.898438 28.65625 L 269.035156 423.460938 L -18.554688 346.347656 Z M 87.308594 -48.457031 " clip-rule="nonzero"/></clipPath><clipPath id="2fd9e5a170"><path d="M 110 164 L 113 164 L 113 167 L 110 167 Z M 110 164 " clip-rule="nonzero"/></clipPath><clipPath id="2bc0aaf9b4"><path d="M 87.308594 -48.457031 L 374.898438 28.65625 L 269.035156 423.460938 L -18.554688 346.347656 Z M 87.308594 -48.457031 " clip-rule="nonzero"/></clipPath><clipPath id="9aec30aceb"><path d="M 87.308594 -48.457031 L 374.898438 28.65625 L 269.035156 423.460938 L -18.554688 346.347656 Z M 87.308594 -48.457031 " clip-rule="nonzero"/></clipPath><clipPath id="9f82925664"><path d="M 186 13 L 364 13 L 364 159 L 186 159 Z M 186 13 " clip-rule="nonzero"/></clipPath><clipPath id="f6c5a9df1b"><path d="M 87.308594 -48.457031 L 374.898438 28.65625 L 269.035156 423.460938 L -18.554688 346.347656 Z M 87.308594 -48.457031 " clip-rule="nonzero"/></clipPath><clipPath id="4f413b0fed"><path d="M 87.308594 -48.457031 L 374.898438 28.65625 L 269.035156 423.460938 L -18.554688 346.347656 Z M 87.308594 -48.457031 " clip-rule="nonzero"/></clipPath><clipPath id="127d013797"><path d="M 220.023438 -12.867188 L 374.933594 28.671875 L 332.71875 186.109375 L 177.808594 144.570312 Z M 220.023438 -12.867188 " clip-rule="nonzero"/></clipPath><clipPath id="7d616f56c9"><path d="M 17 184 L 141 184 L 141 364 L 17 364 Z M 17 184 " clip-rule="nonzero"/></clipPath><clipPath id="d07cb554fc"><path d="M 87.308594 -48.457031 L 374.898438 28.65625 L 269.035156 423.460938 L -18.554688 346.347656 Z M 87.308594 -48.457031 " clip-rule="nonzero"/></clipPath><clipPath id="3dfa2c8d79"><path d="M 87.308594 -48.457031 L 374.898438 28.65625 L 269.035156 423.460938 L -18.554688 346.347656 Z M 87.308594 -48.457031 " clip-rule="nonzero"/></clipPath></defs><g clip-path="url(#1408bff619)"><g clip-path="url(#9d67b19f86)"><g clip-path="url(#c8cc40cdf6)"><path fill="#040405" d="M 79.199219 253.488281 C 83.34375 255.816406 90.09375 260.429688 94.960938 259.542969 C 95.726562 259.398438 96.34375 259.742188 96.722656 260.253906 C 96.75 260.144531 96.777344 260.039062 96.785156 259.925781 C 96.898438 258.273438 97.132812 256.667969 97.445312 255.085938 C 97.496094 255.121094 97.542969 255.152344 97.59375 255.191406 C 97.707031 254.578125 97.785156 254.152344 97.875 253.671875 C 97.839844 253.660156 97.800781 253.644531 97.765625 253.636719 C 98.421875 250.882812 99.335938 248.199219 100.421875 245.515625 C 101.710938 242.316406 103.398438 239.125 103.386719 235.578125 C 103.386719 235.421875 103.363281 235.261719 103.355469 235.109375 C 104.878906 233.03125 103.601562 231.347656 102.769531 229.574219 C 102.65625 229.570312 102.546875 229.566406 102.433594 229.566406 C 101.996094 228.515625 101.402344 227.539062 100.703125 226.621094 C 100.878906 226.6875 101.0625 226.75 101.269531 226.835938 C 101.121094 226.386719 101.097656 226.222656 101.019531 226.082031 C 100.800781 225.710938 100.566406 225.367188 100.320312 225.027344 C 100.066406 225.023438 99.796875 224.953125 99.519531 224.769531 C 96.707031 222.9375 93.304688 222.773438 90.476562 220.878906 C 87.691406 219.003906 85.464844 216.28125 84.121094 213.207031 C 81.847656 208 81.933594 201.960938 83.574219 196.515625 C 84.753906 192.609375 86.6875 188.976562 88.976562 185.621094 C 89.714844 184.527344 95.640625 176.046875 96.878906 176.628906 C 96.046875 176.238281 95.371094 175.621094 94.910156 174.722656 C 94.292969 173.515625 93.808594 172.246094 93.234375 171.011719 C 93.140625 170.816406 93.046875 170.613281 92.945312 170.414062 C 92.972656 169.847656 92.996094 169.28125 93 168.714844 C 93.035156 168.75 93.066406 168.777344 93.101562 168.808594 C 93.183594 166.710938 93.8125 164.710938 93.621094 162.398438 C 91.878906 162.902344 90.332031 163.347656 88.621094 163.847656 C 88.085938 163.820312 87.554688 163.832031 87.027344 163.875 C 86.382812 163.230469 85.546875 162.832031 84.675781 162.441406 C 83.382812 161.859375 82.117188 161.210938 80.828125 160.613281 C 79.933594 160.199219 79.007812 159.832031 77.75 159.292969 C 77.824219 159.433594 77.894531 159.558594 77.964844 159.699219 C 76.804688 158.820312 76.097656 157.65625 75.878906 156.160156 C 75.964844 156.242188 76.042969 156.335938 76.160156 156.414062 C 76.347656 155.15625 76.402344 154.105469 76.128906 152.761719 C 75.496094 153.425781 75.085938 153.859375 74.582031 154.394531 C 74.609375 154.433594 74.632812 154.472656 74.664062 154.515625 C 74.507812 154.640625 74.355469 154.769531 74.207031 154.898438 C 74.183594 154.863281 74.167969 154.835938 74.152344 154.800781 C 73.914062 155.050781 73.6875 155.289062 73.453125 155.53125 C 73.253906 155.707031 73.054688 155.882812 72.855469 156.050781 C 72.800781 156.117188 72.746094 156.179688 72.675781 156.242188 C 58.097656 168.972656 46.121094 185.464844 46.78125 205.71875 C 47.480469 227.121094 61.257812 243.398438 79.199219 253.488281 " fill-opacity="1" fill-rule="nonzero"/></g></g></g><g clip-path="url(#752d8fabc2)"><g clip-path="url(#4e0e743bb9)"><g clip-path="url(#aa0534e10f)"><path fill="#040405" d="M 149.554688 225.425781 C 149.871094 224.226562 150.199219 223.023438 150.597656 221.546875 C 149.070312 220.386719 147.378906 219.09375 145.472656 217.652344 C 145.433594 218.269531 145.375 218.632812 145.398438 218.992188 C 145.46875 220.011719 145.5625 221.03125 145.667969 222.046875 C 145.914062 224.5 145.648438 226.917969 145.171875 229.328125 C 144.984375 230.269531 144.871094 231.230469 144.773438 232.191406 C 144.742188 232.507812 144.742188 232.921875 144.90625 233.15625 C 145.617188 234.128906 145.550781 235.238281 145.40625 236.277344 C 145.003906 239.03125 144.480469 241.761719 143.992188 244.496094 C 143.894531 245.050781 143.726562 245.601562 143.636719 246.160156 C 143.597656 246.394531 143.59375 246.609375 143.640625 246.820312 C 145.035156 245.367188 146.769531 243.742188 147.128906 243.292969 C 148.886719 241.144531 150.757812 239.085938 152.679688 237.078125 C 153.734375 235.972656 154.980469 235.046875 156.132812 234.039062 C 156.460938 233.753906 156.777344 233.460938 157.214844 233.070312 C 154.007812 232.394531 152.097656 230.1875 150.085938 228.148438 C 149.335938 227.386719 149.296875 226.417969 149.554688 225.425781 " fill-opacity="1" fill-rule="nonzero"/></g></g></g><g clip-path="url(#00f10f9ef8)"><g clip-path="url(#31b0fc5554)"><g clip-path="url(#6637ca638b)"><path fill="#040405" d="M 125.359375 113.425781 C 125.269531 113.75 125.1875 114.070312 125.113281 114.347656 C 127.429688 117.015625 129.382812 120.519531 129.242188 122.265625 C 128.429688 120.726562 127.878906 119.464844 127.132812 118.335938 C 126.417969 117.257812 126.007812 115.925781 124.816406 115.023438 C 124.304688 116.386719 123.855469 117.59375 123.414062 118.773438 C 125.148438 121.015625 126.449219 123.574219 126.390625 124.714844 C 124.957031 123.300781 124.484375 121.242188 122.886719 119.800781 C 122.359375 120.855469 121.90625 121.746094 121.589844 122.378906 C 121.976562 123.171875 122.269531 123.722656 122.523438 124.292969 C 122.910156 125.175781 123.558594 125.773438 124.457031 126.089844 C 126.214844 126.714844 127.527344 127.855469 128.441406 129.464844 C 128.539062 130.902344 128.644531 132.339844 128.757812 133.914062 C 129.738281 133.800781 130.742188 133.683594 131.738281 133.566406 C 132.496094 133.667969 133.246094 133.886719 134.011719 134.0625 C 134.679688 134.214844 135.277344 134.417969 135.910156 134.484375 C 136.261719 134.710938 136.609375 134.933594 136.972656 135.167969 C 137.101562 135.054688 137.214844 134.953125 137.328125 134.855469 C 137.425781 134.835938 137.523438 134.824219 137.617188 134.785156 C 144.9375 131.734375 151.621094 127.257812 158.421875 123.234375 C 169.324219 116.792969 180.066406 109.46875 191.488281 103.976562 C 201.796875 99.015625 213.234375 96.957031 223.566406 103.050781 C 229.410156 106.492188 233.363281 110.449219 235.964844 115.867188 C 238.402344 118.230469 241.101562 120.554688 244.375 121.195312 C 248.015625 121.902344 252.011719 120.550781 255.359375 119.210938 C 259.960938 117.371094 264.128906 114.847656 267.9375 111.816406 C 268.585938 110.988281 269.066406 110.097656 269.386719 109.160156 C 271.621094 102.738281 266.992188 94.125 263.722656 88.964844 C 261.40625 85.304688 258.359375 81.976562 255.238281 78.992188 C 248.640625 72.671875 240.710938 67.742188 232.101562 64.683594 C 223.464844 61.609375 214.164062 60.421875 205.023438 61.167969 C 195.472656 61.953125 188.527344 66.066406 180.15625 70.332031 C 174.28125 73.324219 168.464844 76.425781 162.707031 79.628906 C 154.976562 83.929688 147.351562 88.421875 139.84375 93.09375 C 136.160156 95.386719 132.515625 97.730469 128.894531 100.117188 C 127.769531 100.867188 119.140625 107.363281 118.316406 106.839844 C 120.417969 108.164062 122.378906 109.398438 124.335938 110.628906 C 125.390625 111.300781 125.691406 112.25 125.359375 113.425781 " fill-opacity="1" fill-rule="nonzero"/></g></g></g><g clip-path="url(#a8c240a140)"><g clip-path="url(#f77537b2a0)"><g clip-path="url(#26ed8dfe82)"><path fill="#040405" d="M 227.863281 161.9375 C 221.769531 160.933594 216.125 157.285156 210.09375 156.648438 C 209.972656 156.636719 209.863281 156.644531 209.738281 156.640625 C 209.71875 156.65625 209.699219 156.679688 209.679688 156.695312 C 201.527344 163.101562 191.351562 167.285156 182.429688 172.554688 C 176.894531 175.824219 171.40625 179.175781 165.898438 182.5 C 165.957031 182.621094 166.042969 182.738281 166.148438 182.816406 C 166.59375 185.433594 168.054688 186.65625 169.914062 187.3125 C 169.980469 187.40625 170.046875 187.507812 170.113281 187.605469 C 170.253906 187.570312 170.394531 187.539062 170.527344 187.503906 C 172.207031 187.976562 174.128906 188.09375 175.910156 188.402344 C 178.058594 187.746094 179.417969 188.777344 179.992188 191.488281 C 182.285156 192.902344 182.878906 194.601562 181.753906 196.597656 C 181.632812 197.269531 180.855469 198.875 181.101562 199.800781 C 181.515625 201.367188 182.984375 202.246094 184.414062 203.027344 C 183.453125 202.503906 185.292969 207.839844 185.28125 207.820312 C 197.964844 201.011719 210.648438 194.203125 223.339844 187.390625 C 237.464844 179.808594 253.679688 172.144531 262.761719 158.511719 C 257.210938 158.308594 251.460938 160.789062 246.042969 161.789062 C 240.054688 162.890625 233.875 162.925781 227.863281 161.9375 " fill-opacity="1" fill-rule="nonzero"/></g></g></g><g clip-path="url(#ca2ce83888)"><g clip-path="url(#9c292a77cd)"><g clip-path="url(#8433ea8a69)"><path fill="#040405" d="M 69.03125 113.894531 C 68.8125 113.148438 68.585938 112.40625 68.355469 111.667969 C 66.960938 111.359375 65.613281 110.945312 64.53125 110.6875 C 61.335938 109.929688 58.101562 109.382812 54.882812 108.757812 C 54.625 109.292969 54.382812 109.835938 54.144531 110.386719 C 54.160156 110.394531 54.179688 110.40625 54.191406 110.414062 C 54.027344 110.753906 53.910156 110.988281 53.792969 111.21875 C 52.167969 115.199219 50.941406 119.453125 49.214844 123.203125 C 49.847656 124.40625 50.492188 125.605469 51.132812 126.804688 C 51.832031 126.976562 52.535156 127.144531 53.230469 127.335938 C 55.636719 128.011719 57.730469 127.011719 59.582031 125.785156 C 60.96875 124.871094 62.089844 123.484375 63.117188 122.140625 C 65.167969 119.449219 67.078125 116.65625 69.03125 113.894531 " fill-opacity="1" fill-rule="nonzero"/></g></g></g><g clip-path="url(#c26e62ae5f)"><g clip-path="url(#2c9253c4cc)"><g clip-path="url(#ad1d601cb5)"><path fill="#040405" d="M 144.429688 154.945312 C 140.699219 155.730469 136.996094 156.675781 133.289062 157.609375 C 133.445312 158.53125 133.574219 159.453125 133.835938 160.382812 C 134.277344 161.941406 135.417969 162.808594 136.148438 164.148438 C 136.777344 165.296875 136.9375 166.625 136.960938 168.003906 C 137.089844 168.078125 137.226562 168.140625 137.367188 168.199219 C 140.613281 167.46875 143.851562 166.710938 147.078125 165.917969 C 146.851562 162.183594 146.117188 158.511719 145.617188 154.800781 C 145.222656 154.851562 144.824219 154.890625 144.429688 154.945312 " fill-opacity="1" fill-rule="nonzero"/></g></g></g><g clip-path="url(#e0db087811)"><g clip-path="url(#b1c23c8f7e)"><g clip-path="url(#ccff890f5e)"><path fill="#040405" d="M 84.042969 85.488281 C 85.238281 86.609375 86.417969 87.753906 87.625 88.859375 C 88.050781 89.253906 88.53125 89.582031 89.039062 89.96875 C 91.921875 88.546875 94.742188 86.972656 97.617188 85.535156 C 97.039062 83.867188 96.460938 82.203125 95.925781 80.527344 C 95.535156 79.316406 95.222656 78.007812 94.890625 76.707031 C 93.886719 75.101562 92.046875 74.671875 90.539062 75.808594 C 88.195312 77.578125 85.9375 79.488281 83.820312 81.519531 C 82.410156 82.875 82.621094 84.15625 84.042969 85.488281 " fill-opacity="1" fill-rule="nonzero"/></g></g></g><g clip-path="url(#3c331ffac5)"><g clip-path="url(#bda62c91e2)"><g clip-path="url(#83f81d335a)"><path fill="#040405" d="M 86.828125 119.914062 C 86.890625 118.953125 86.957031 117.992188 87.019531 117.023438 C 87.179688 114.664062 87.199219 112.316406 87.203125 109.960938 C 86.828125 110.042969 86.449219 110.113281 86.085938 110.195312 C 83.050781 110.917969 80.023438 111.726562 76.96875 112.371094 C 76.855469 114.488281 76.730469 116.601562 76.527344 118.710938 C 76.710938 118.921875 76.917969 119.121094 77.1875 119.277344 C 78.441406 120.027344 79.742188 120.699219 81.03125 121.402344 C 81.0625 121.34375 81.097656 121.28125 81.132812 121.21875 C 81.292969 121.277344 81.449219 121.347656 81.609375 121.394531 C 83.863281 122.09375 85.765625 121.480469 86.828125 119.914062 " fill-opacity="1" fill-rule="nonzero"/></g></g></g><g clip-path="url(#81c064d2a1)"><g clip-path="url(#6433c3b682)"><g clip-path="url(#1045292fac)"><path fill="#040405" d="M 107.589844 145.355469 C 109.191406 145.707031 110.761719 145.5 112.300781 145.0625 C 112.675781 144.957031 112.984375 144.785156 113.238281 144.566406 C 112.964844 142.171875 112.742188 139.773438 112.601562 137.367188 C 109.980469 138.210938 107.355469 139.074219 104.726562 139.894531 C 105.339844 141.613281 105.988281 143.316406 106.640625 145.023438 C 106.9375 145.164062 107.25 145.28125 107.589844 145.355469 " fill-opacity="1" fill-rule="nonzero"/></g></g></g><g clip-path="url(#be878a6547)"><g clip-path="url(#2f23620cb6)"><g clip-path="url(#68b444e544)"><path fill="#040405" d="M 106.039062 125.515625 C 107.195312 125.804688 108.445312 125.082031 108.671875 123.984375 C 108.90625 122.894531 108.109375 121.675781 106.996094 121.402344 C 105.824219 121.117188 104.664062 121.8125 104.394531 122.960938 C 104.121094 124.097656 104.839844 125.210938 106.039062 125.515625 " fill-opacity="1" fill-rule="nonzero"/></g></g></g><g clip-path="url(#e356c7121e)"><g clip-path="url(#4fbd29a68b)"><g clip-path="url(#825a779417)"><path fill="#040405" d="M 121.875 155.921875 C 121.667969 156.847656 122.363281 157.933594 123.289062 158.128906 C 124.183594 158.320312 125.175781 157.695312 125.382812 156.820312 C 125.601562 155.882812 124.929688 154.84375 123.96875 154.632812 C 123.0625 154.4375 122.066406 155.046875 121.875 155.921875 " fill-opacity="1" fill-rule="nonzero"/></g></g></g><g clip-path="url(#3c67de4c3c)"><g clip-path="url(#af6b63ea50)"><g clip-path="url(#94c8e8d738)"><path fill="#040405" d="M 101.238281 103.335938 C 101.5625 103.285156 101.875 103.15625 102.195312 103.085938 C 102.851562 102.941406 103.21875 102.476562 103.078125 101.882812 C 102.960938 101.402344 102.535156 100.996094 102.359375 100.738281 C 101.246094 100.441406 100.265625 101.09375 99.992188 102.167969 C 99.898438 102.546875 99.992188 103.0625 100.207031 103.382812 C 100.304688 103.53125 100.886719 103.394531 101.238281 103.335938 " fill-opacity="1" fill-rule="nonzero"/></g></g></g><g clip-path="url(#2048b0643f)"><g clip-path="url(#a0db1b5eb3)"><g clip-path="url(#82486b3c8a)"><path fill="#040405" d="M 82.433594 135.074219 C 82.902344 135.050781 83.351562 134.6875 83.65625 134.550781 C 83.847656 133.59375 83.246094 132.863281 82.46875 132.738281 C 81.878906 132.648438 81.480469 132.890625 81.328125 133.453125 C 81.15625 134.097656 81.785156 135.105469 82.433594 135.074219 " fill-opacity="1" fill-rule="nonzero"/></g></g></g><g clip-path="url(#48821e111a)"><g clip-path="url(#fd1b87a9a0)"><g clip-path="url(#7c8e1d0034)"><path fill="#040405" d="M 50.695312 88.121094 C 50.632812 88.648438 50.875 89.046875 51.421875 89.050781 C 51.808594 89.058594 52.195312 88.871094 52.984375 88.664062 C 52.351562 88.070312 52.066406 87.628906 51.667969 87.46875 C 51.199219 87.28125 50.769531 87.558594 50.695312 88.121094 " fill-opacity="1" fill-rule="nonzero"/></g></g></g><g clip-path="url(#2fd9e5a170)"><g clip-path="url(#2bc0aaf9b4)"><g clip-path="url(#9aec30aceb)"><path fill="#040405" d="M 110.207031 165.21875 C 110.113281 165.382812 110.433594 166.007812 110.667969 166.074219 C 110.980469 166.171875 111.394531 165.917969 112.082031 165.726562 C 111.644531 165.15625 111.433594 164.628906 111.164062 164.601562 C 110.855469 164.5625 110.382812 164.910156 110.207031 165.21875 " fill-opacity="1" fill-rule="nonzero"/></g></g></g><g clip-path="url(#9f82925664)"><g clip-path="url(#f6c5a9df1b)"><g clip-path="url(#4f413b0fed)"><g clip-path="url(#127d013797)"><path fill="#040405" d="M 355.460938 37.132812 C 346.292969 24.816406 332.632812 15.480469 317.28125 13.75 C 294.832031 11.222656 275.652344 21.753906 256.578125 32.050781 C 241.667969 40.105469 227.15625 48.875 211.710938 55.863281 C 219.054688 55.070312 227.378906 57.144531 234.148438 59.339844 C 242.089844 61.910156 248.941406 66.390625 255.277344 71.632812 C 255.652344 71.394531 255.941406 71.003906 256.078125 70.554688 C 256.289062 70.414062 256.503906 70.269531 256.722656 70.128906 C 272.972656 62.265625 290.402344 45.742188 309.640625 47.488281 C 322.449219 48.65625 331.570312 57.597656 329.167969 70.945312 C 326.773438 84.257812 311.074219 91.898438 300.730469 98.355469 C 293.082031 103.125 285.34375 107.738281 277.515625 112.199219 C 269.914062 116.535156 262.011719 121.941406 253.757812 124.886719 C 249.71875 126.328125 245.261719 126.917969 241.144531 125.757812 C 231.132812 122.945312 227.328125 111.910156 219.09375 106.375 C 218.710938 106.539062 218.253906 106.546875 217.78125 106.308594 C 207.007812 100.90625 196.066406 105.554688 186.769531 112.0625 C 186.988281 113.214844 187.578125 114.515625 187.785156 115.511719 C 188.261719 117.808594 188.6875 120.089844 189.332031 122.355469 C 190.910156 127.871094 193.121094 133.136719 196.515625 137.769531 C 202.019531 145.269531 209.667969 151.226562 218.328125 154.65625 C 237.953125 162.429688 258.515625 157.136719 276.175781 147.09375 C 288.316406 140.191406 300.3125 133.042969 312.273438 125.863281 C 315.734375 123.78125 319.1875 121.699219 322.640625 119.625 C 335.410156 111.941406 349.285156 104.011719 356.722656 90.519531 C 356.867188 90.253906 357.011719 89.988281 357.152344 89.71875 C 365.589844 73.617188 366.585938 52.085938 355.460938 37.132812 " fill-opacity="1" fill-rule="nonzero"/></g></g></g></g><g clip-path="url(#7d616f56c9)"><g clip-path="url(#d07cb554fc)"><g clip-path="url(#3dfa2c8d79)"><path fill="#040405" d="M 135.960938 248.964844 C 138.132812 240.53125 140.820312 233.042969 140.496094 224.125 C 140.164062 214.964844 137.257812 205.773438 131.527344 198.613281 C 127.785156 193.949219 122.824219 190.230469 117.242188 188.070312 C 112.375 186.195312 106.132812 184.371094 100.90625 184.8125 C 100.433594 184.851562 100.066406 184.714844 99.792969 184.476562 C 99.417969 184.910156 99.035156 185.347656 98.636719 185.792969 C 98.542969 185.761719 98.453125 185.730469 98.363281 185.703125 C 97.6875 186.59375 97.128906 187.34375 96.472656 188.214844 C 95.523438 189.285156 94.558594 190.40625 93.625 191.5625 C 93.386719 191.726562 93.179688 192.007812 92.914062 192.46875 C 92.046875 193.597656 91.226562 194.765625 90.496094 195.964844 C 90.03125 196.09375 89.742188 196.53125 89.410156 197.390625 C 89.246094 197.792969 89.125 198.210938 88.9375 198.738281 C 88.976562 198.742188 89.007812 198.746094 89.042969 198.75 C 87.839844 201.480469 87.265625 204.347656 87.855469 207.328125 C 87.863281 207.363281 87.875 207.394531 87.882812 207.429688 C 87.769531 207.414062 87.65625 207.40625 87.535156 207.386719 C 88.019531 208.59375 88.367188 209.464844 88.703125 210.300781 C 88.785156 210.300781 88.847656 210.296875 88.925781 210.289062 C 89.675781 211.675781 90.738281 212.832031 92.085938 213.738281 C 91.980469 213.714844 91.867188 213.683594 91.757812 213.660156 C 91.488281 213.597656 91.1875 213.632812 90.683594 213.613281 C 91.574219 214.324219 91.578125 214.359375 92.140625 214.347656 C 94.875 214.289062 99.085938 217.664062 100.898438 219.609375 C 103.582031 222.492188 105.304688 226.265625 105.96875 230.132812 C 106.90625 235.554688 105.503906 240.445312 104.410156 245.824219 C 103.097656 252.292969 101.722656 258.75 100.277344 265.195312 C 97.046875 279.597656 93.75 294.132812 89.933594 308.363281 C 89.210938 311.695312 88.246094 314.78125 86.03125 317.289062 C 79.425781 326.765625 67.804688 333.640625 56.597656 326.914062 C 47.089844 321.207031 46.484375 310.027344 48.117188 300.148438 C 49.496094 291.746094 51.652344 283.503906 53.90625 275.308594 C 55.011719 271.289062 56.148438 267.285156 57.238281 263.265625 C 58.101562 260.085938 58.605469 255.894531 59.878906 252.929688 C 60.066406 252.496094 60.25 252.070312 60.457031 251.585938 C 60.210938 251.46875 59.972656 251.359375 59.726562 251.246094 C 59.3125 249.3125 58.027344 247.640625 56.589844 246.039062 C 56.1875 245.179688 55.597656 244.550781 54.847656 244.121094 C 53.804688 242.957031 52.84375 241.796875 52.253906 240.542969 C 52.214844 240.453125 52.183594 240.355469 52.148438 240.265625 C 52.535156 240.46875 52.925781 240.648438 53.308594 240.859375 C 52.867188 239.765625 52.40625 239.027344 51.746094 238.472656 C 51.625 237.375 51.609375 236.246094 51.210938 235.257812 C 51.097656 234.984375 50.972656 234.71875 50.832031 234.457031 C 50.867188 234.175781 50.90625 233.890625 50.945312 233.597656 C 50.660156 233.433594 50.332031 233.269531 49.996094 233.105469 C 49.210938 231.992188 48.292969 230.941406 47.542969 229.855469 C 44.519531 225.484375 42.617188 220.738281 40.210938 216.074219 C 40.175781 215.90625 40.140625 215.746094 40.109375 215.578125 C 35.929688 220.171875 34.78125 225.71875 33.65625 231.824219 C 31.195312 245.226562 27.121094 258.390625 24.25 271.726562 C 22.34375 280.558594 20.597656 289.429688 19.019531 298.320312 C 15.863281 316.042969 16.785156 336.992188 29.527344 351.164062 C 39.136719 361.84375 54.925781 365.691406 69.023438 362.917969 C 91.207031 358.558594 107.132812 341.644531 115.988281 321.703125 C 122.964844 305.980469 126.449219 288.78125 130.308594 272.128906 C 132.105469 264.417969 134.003906 256.570312 135.960938 248.964844 " fill-opacity="1" fill-rule="nonzero"/></g></g></g></svg>