<svg xmlns="http://www.w3.org/2000/svg" xmlns:xlink="http://www.w3.org/1999/xlink" width="500" zoomAndPan="magnify" viewBox="0 0 375 374.999991" height="500" preserveAspectRatio="xMidYMid meet" version="1.0"><path fill="#000000" d="M 335.449219 352.691406 L 39.785156 352.691406 C 17.90625 352.691406 0.0976562 334.882812 0.0976562 312.996094 C 0.0976562 310.734375 1.929688 308.898438 4.191406 308.898438 C 6.453125 308.898438 8.285156 310.734375 8.285156 312.996094 C 8.285156 330.367188 22.417969 344.503906 39.785156 344.503906 L 335.449219 344.5 C 352.824219 344.5 366.949219 330.367188 366.949219 312.996094 C 366.949219 310.734375 368.78125 308.898438 371.042969 308.898438 C 373.3125 308.898438 375.136719 310.734375 375.136719 312.996094 C 375.136719 334.882812 357.335938 352.691406 335.449219 352.691406 Z M 335.449219 352.691406 " fill-opacity="1" fill-rule="evenodd"/><path fill="#000000" d="M 335.449219 273.296875 C 348.269531 273.296875 359.691406 279.40625 366.949219 288.871094 L 366.949219 62.089844 C 366.949219 44.71875 352.824219 30.585938 335.449219 30.585938 C 318.082031 30.582031 303.949219 44.71875 303.949219 62.09375 L 303.949219 288.867188 C 311.21875 279.40625 322.628906 273.296875 335.449219 273.296875 Z M 371.042969 317.085938 C 368.78125 317.085938 366.949219 315.257812 366.949219 312.996094 C 366.949219 295.621094 352.824219 281.488281 335.449219 281.488281 C 318.082031 281.484375 303.949219 295.621094 303.949219 312.996094 C 303.949219 315.257812 302.117188 317.089844 299.855469 317.089844 C 297.59375 317.085938 295.761719 315.257812 295.761719 312.996094 L 295.761719 62.089844 C 295.761719 40.203125 313.570312 22.394531 335.449219 22.394531 C 357.335938 22.390625 375.136719 40.203125 375.136719 62.09375 L 375.136719 312.996094 C 375.136719 315.253906 373.304688 317.089844 371.042969 317.085938 Z M 371.042969 317.085938 " fill-opacity="1" fill-rule="evenodd"/><path fill="#000000" d="M 39.785156 30.582031 C 22.417969 30.582031 8.285156 44.71875 8.285156 62.09375 L 8.285156 288.867188 C 15.554688 279.402344 26.964844 273.296875 39.785156 273.296875 C 52.605469 273.296875 64.027344 279.40625 71.285156 288.871094 L 71.285156 62.089844 C 71.285156 44.71875 57.160156 30.585938 39.785156 30.585938 Z M 75.378906 317.085938 C 73.117188 317.085938 71.285156 315.257812 71.285156 312.996094 C 71.285156 295.621094 57.160156 281.488281 39.785156 281.488281 C 22.417969 281.484375 8.285156 295.621094 8.285156 312.996094 C 8.285156 315.257812 6.453125 317.089844 4.191406 317.089844 C 1.933594 317.085938 0.0976562 315.257812 0.0976562 312.996094 L 0.0976562 62.089844 C 0.0976562 40.203125 17.90625 22.394531 39.785156 22.394531 C 61.671875 22.390625 79.472656 40.203125 79.472656 62.09375 L 79.472656 312.996094 C 79.472656 315.257812 77.640625 317.089844 75.378906 317.085938 Z M 75.378906 317.085938 " fill-opacity="1" fill-rule="evenodd"/><path fill="#000000" d="M 299.855469 66.1875 L 75.378906 66.1875 C 73.117188 66.1875 71.285156 64.355469 71.285156 62.09375 C 71.285156 59.828125 73.117188 57.996094 75.378906 57.996094 L 299.855469 57.992188 C 302.117188 57.992188 303.949219 59.832031 303.949219 62.09375 C 303.953125 64.351562 302.117188 66.1875 299.855469 66.1875 Z M 299.855469 66.1875 " fill-opacity="1" fill-rule="evenodd"/><path fill="#000000" d="M 105.480469 311.671875 L 119.5625 311.671875 L 119.5625 270.078125 C 119.5625 269.019531 118.675781 268.128906 117.617188 268.128906 L 107.433594 268.125 C 106.375 268.125 105.480469 269.023438 105.480469 270.082031 Z M 123.65625 319.859375 L 101.386719 319.859375 C 99.125 319.859375 97.289062 318.03125 97.289062 315.769531 L 97.292969 270.078125 C 97.292969 264.484375 101.835938 259.9375 107.433594 259.9375 L 117.617188 259.933594 C 123.203125 259.933594 127.75 264.488281 127.75 270.082031 L 127.75 315.765625 C 127.75 318.027344 125.914062 319.863281 123.65625 319.859375 Z M 123.65625 319.859375 " fill-opacity="1" fill-rule="evenodd"/><path fill="#000000" d="M 112.523438 330.8125 C 110.265625 330.8125 108.429688 328.980469 108.429688 326.71875 L 108.429688 315.765625 C 108.429688 313.503906 110.265625 311.671875 112.523438 311.671875 C 114.785156 311.671875 116.617188 313.507812 116.617188 315.769531 L 116.617188 326.714844 C 116.617188 328.976562 114.785156 330.8125 112.523438 330.8125 Z M 112.523438 330.8125 " fill-opacity="1" fill-rule="evenodd"/><path fill="#000000" d="M 180.980469 311.671875 L 195.0625 311.671875 L 195.0625 270.078125 C 195.0625 269.019531 194.175781 268.128906 193.117188 268.128906 L 182.933594 268.125 C 181.878906 268.125 180.980469 269.023438 180.980469 270.082031 Z M 199.160156 319.859375 L 176.886719 319.859375 C 174.628906 319.859375 172.792969 318.03125 172.792969 315.769531 L 172.792969 270.078125 C 172.792969 264.484375 177.339844 259.9375 182.933594 259.9375 L 193.121094 259.933594 C 198.707031 259.933594 203.25 264.488281 203.25 270.082031 L 203.253906 315.765625 C 203.253906 318.027344 201.425781 319.863281 199.160156 319.859375 Z M 199.160156 319.859375 " fill-opacity="1" fill-rule="evenodd"/><path fill="#000000" d="M 188.027344 330.8125 C 185.765625 330.8125 183.933594 328.980469 183.933594 326.71875 L 183.933594 315.765625 C 183.933594 313.503906 185.765625 311.671875 188.027344 311.671875 C 190.289062 311.671875 192.121094 313.507812 192.121094 315.769531 L 192.121094 326.714844 C 192.121094 328.976562 190.289062 330.8125 188.027344 330.8125 Z M 188.027344 330.8125 " fill-opacity="1" fill-rule="evenodd"/><path fill="#000000" d="M 188.027344 268.128906 C 185.765625 268.128906 183.933594 266.292969 183.933594 264.03125 L 183.933594 226.335938 C 183.933594 220.855469 179.472656 216.394531 173.988281 216.394531 L 126.5625 216.394531 C 121.078125 216.394531 116.617188 220.855469 116.617188 226.339844 L 116.617188 264.03125 C 116.617188 266.292969 114.785156 268.128906 112.523438 268.128906 C 110.265625 268.128906 108.429688 266.292969 108.429688 264.03125 L 108.429688 226.335938 C 108.429688 216.339844 116.558594 208.203125 126.5625 208.203125 L 173.988281 208.199219 C 183.984375 208.199219 192.121094 216.339844 192.121094 226.339844 L 192.121094 264.03125 C 192.121094 266.292969 190.289062 268.128906 188.027344 268.128906 Z M 188.027344 268.128906 " fill-opacity="1" fill-rule="evenodd"/><path fill="#000000" d="M 176.886719 310.796875 L 123.65625 310.796875 C 121.394531 310.796875 119.5625 308.964844 119.5625 306.703125 C 119.5625 304.441406 121.394531 302.609375 123.65625 302.609375 L 176.886719 302.605469 C 179.148438 302.605469 180.980469 304.441406 180.980469 306.703125 C 180.980469 308.964844 179.148438 310.796875 176.886719 310.796875 L 176.886719 310.792969 Z M 176.886719 310.796875 " fill-opacity="1" fill-rule="evenodd"/><path fill="#000000" d="M 176.886719 274.175781 L 123.65625 274.175781 C 121.394531 274.175781 119.5625 272.339844 119.5625 270.078125 C 119.5625 267.816406 121.394531 265.984375 123.65625 265.984375 L 176.886719 265.980469 C 179.148438 265.980469 180.980469 267.816406 180.980469 270.078125 C 180.980469 272.339844 179.148438 274.175781 176.886719 274.175781 Z M 176.886719 274.175781 " fill-opacity="1" fill-rule="evenodd"/><path fill="#000000" d="M 131.398438 257.933594 C 129.140625 257.933594 127.304688 256.097656 127.304688 253.835938 L 127.304688 247.980469 C 127.304688 245.71875 129.140625 243.890625 131.398438 243.890625 C 133.660156 243.886719 135.496094 245.722656 135.496094 247.984375 L 135.496094 253.835938 C 135.496094 256.097656 133.660156 257.933594 131.398438 257.933594 Z M 131.398438 257.933594 " fill-opacity="1" fill-rule="evenodd"/><path fill="#000000" d="M 150.277344 257.933594 C 148.015625 257.933594 146.179688 256.097656 146.179688 253.835938 L 146.183594 247.980469 C 146.183594 245.71875 148.015625 243.890625 150.277344 243.890625 C 152.535156 243.886719 154.371094 245.722656 154.371094 247.984375 L 154.371094 253.835938 C 154.371094 256.097656 152.535156 257.933594 150.277344 257.933594 Z M 150.277344 257.933594 " fill-opacity="1" fill-rule="evenodd"/><path fill="#000000" d="M 169.152344 257.933594 C 166.890625 257.933594 165.058594 256.097656 165.058594 253.835938 L 165.058594 247.980469 C 165.058594 245.71875 166.890625 243.890625 169.152344 243.890625 C 171.410156 243.886719 173.246094 245.722656 173.246094 247.984375 L 173.246094 253.835938 C 173.246094 256.097656 171.410156 257.933594 169.152344 257.933594 Z M 169.152344 257.933594 " fill-opacity="1" fill-rule="evenodd"/><path fill="#000000" d="M 140.832031 237.257812 C 138.574219 237.257812 136.738281 235.421875 136.738281 233.160156 L 136.738281 227.304688 C 136.738281 225.042969 138.574219 223.214844 140.832031 223.214844 C 143.09375 223.210938 144.925781 225.046875 144.925781 227.308594 L 144.929688 233.160156 C 144.929688 235.421875 143.09375 237.257812 140.832031 237.257812 Z M 140.832031 237.257812 " fill-opacity="1" fill-rule="evenodd"/><path fill="#000000" d="M 159.710938 237.257812 C 157.449219 237.257812 155.613281 235.421875 155.613281 233.160156 L 155.617188 227.304688 C 155.617188 225.042969 157.449219 223.214844 159.710938 223.214844 C 161.96875 223.210938 163.804688 225.046875 163.804688 227.308594 L 163.804688 233.160156 C 163.804688 235.421875 161.96875 237.257812 159.710938 237.257812 Z M 159.710938 237.257812 " fill-opacity="1" fill-rule="evenodd"/><path fill="#000000" d="M 176.101562 114.058594 L 269.765625 114.058594 L 269.765625 96.085938 L 176.101562 96.085938 Z M 273.859375 122.253906 L 172.007812 122.253906 C 169.75 122.253906 167.914062 120.417969 167.914062 118.15625 L 167.914062 91.992188 C 167.914062 89.730469 169.75 87.898438 172.007812 87.898438 L 273.859375 87.898438 C 276.121094 87.898438 277.953125 89.730469 277.953125 91.992188 L 277.953125 118.15625 C 277.953125 120.417969 276.117188 122.253906 273.859375 122.253906 Z M 273.859375 122.253906 " fill-opacity="1" fill-rule="evenodd"/><path fill="#000000" d="M 264.132812 174.578125 L 181.730469 174.578125 C 179.472656 174.578125 177.636719 172.746094 177.636719 170.484375 L 177.636719 118.15625 C 177.636719 115.894531 179.472656 114.0625 181.730469 114.0625 C 183.992188 114.058594 185.824219 115.898438 185.824219 118.15625 L 185.824219 166.390625 L 260.039062 166.390625 L 260.039062 118.15625 C 260.039062 115.894531 261.875 114.0625 264.132812 114.0625 C 266.394531 114.058594 268.226562 115.898438 268.226562 118.15625 L 268.230469 170.480469 C 268.230469 172.746094 266.394531 174.582031 264.132812 174.578125 Z M 264.132812 174.578125 " fill-opacity="1" fill-rule="evenodd"/><path fill="#000000" d="M 222.929688 174.578125 C 220.667969 174.578125 218.835938 172.746094 218.835938 170.484375 L 218.835938 118.15625 C 218.835938 115.894531 220.667969 114.0625 222.929688 114.0625 C 225.191406 114.058594 227.023438 115.898438 227.023438 118.15625 L 227.023438 170.480469 C 227.023438 172.746094 225.191406 174.582031 222.929688 174.578125 Z M 222.929688 174.578125 " fill-opacity="1" fill-rule="evenodd"/><path fill="#000000" d="M 204.898438 152.316406 C 202.636719 152.316406 200.804688 150.480469 200.804688 148.21875 L 200.804688 140.421875 C 200.804688 138.164062 202.636719 136.328125 204.898438 136.328125 C 207.160156 136.328125 208.992188 138.164062 208.992188 140.425781 L 208.992188 148.21875 C 208.992188 150.480469 207.160156 152.316406 204.898438 152.316406 Z M 204.898438 152.316406 " fill-opacity="1" fill-rule="evenodd"/><path fill="#000000" d="M 240.96875 152.316406 C 238.707031 152.316406 236.875 150.480469 236.875 148.21875 L 236.875 140.421875 C 236.875 138.164062 238.707031 136.328125 240.96875 136.328125 C 243.230469 136.328125 245.0625 138.164062 245.0625 140.425781 L 245.0625 148.21875 C 245.0625 150.480469 243.230469 152.316406 240.96875 152.316406 Z M 240.96875 152.316406 " fill-opacity="1" fill-rule="evenodd"/><path fill="#000000" d="M 223.03125 245.316406 L 270.191406 245.316406 L 261.039062 211.144531 L 232.183594 211.144531 Z M 275.53125 253.503906 L 217.691406 253.503906 C 216.421875 253.503906 215.21875 252.914062 214.441406 251.90625 C 213.675781 250.894531 213.410156 249.582031 213.742188 248.351562 L 225.085938 205.988281 C 225.566406 204.199219 227.183594 202.953125 229.042969 202.953125 L 264.179688 202.949219 C 266.027344 202.949219 267.65625 204.199219 268.132812 205.988281 L 279.480469 248.351562 C 279.8125 249.582031 279.546875 250.894531 278.769531 251.90625 C 278.003906 252.914062 276.800781 253.507812 275.53125 253.507812 Z M 275.53125 253.503906 " fill-opacity="1" fill-rule="evenodd"/><path fill="#000000" d="M 246.609375 314.554688 C 244.347656 314.554688 242.515625 312.722656 242.515625 310.460938 L 242.515625 249.410156 C 242.515625 247.148438 244.347656 245.316406 246.609375 245.316406 C 248.878906 245.316406 250.703125 247.148438 250.703125 249.410156 L 250.703125 310.460938 C 250.703125 312.722656 248.875 314.554688 246.609375 314.554688 Z M 246.609375 314.554688 " fill-opacity="1" fill-rule="evenodd"/><path fill="#000000" d="M 263.238281 330.8125 C 261.40625 330.8125 259.742188 329.578125 259.273438 327.71875 L 255.957031 314.558594 L 237.257812 314.558594 L 233.949219 327.71875 C 233.394531 329.910156 231.167969 331.242188 228.976562 330.691406 C 226.785156 330.136719 225.453125 327.910156 226.007812 325.71875 L 230.101562 309.457031 C 230.5625 307.636719 232.191406 306.367188 234.070312 306.367188 L 259.144531 306.363281 C 261.023438 306.363281 262.660156 307.640625 263.121094 309.460938 L 267.214844 325.71875 C 267.769531 327.910156 266.4375 330.136719 264.246094 330.691406 C 263.90625 330.773438 263.570312 330.816406 263.238281 330.8125 Z M 263.238281 330.8125 " fill-opacity="1" fill-rule="evenodd"/><path fill="#000000" d="M 140.417969 115.796875 L 75.378906 115.796875 C 73.117188 115.796875 71.285156 113.960938 71.285156 111.699219 C 71.285156 109.4375 73.117188 107.605469 75.378906 107.605469 L 136.320312 107.605469 L 136.320312 85.082031 C 136.320312 82.820312 138.15625 80.984375 140.414062 80.984375 C 142.675781 80.984375 144.507812 82.820312 144.507812 85.082031 L 144.507812 111.699219 C 144.507812 113.960938 142.675781 115.796875 140.417969 115.796875 Z M 140.417969 115.796875 " fill-opacity="1" fill-rule="evenodd"/><path fill="#000000" d="M 131.203125 147.535156 L 103.054688 147.535156 C 100.789062 147.535156 98.960938 145.703125 98.960938 143.441406 L 98.964844 111.699219 C 98.964844 109.4375 100.789062 107.605469 103.054688 107.605469 C 105.316406 107.605469 107.152344 109.4375 107.152344 111.699219 L 107.152344 139.34375 L 131.203125 139.34375 C 133.464844 139.34375 135.296875 141.179688 135.296875 143.441406 C 135.300781 145.703125 133.464844 147.535156 131.203125 147.535156 Z M 131.203125 147.535156 " fill-opacity="1" fill-rule="evenodd"/><path fill="#000000" d="M 138.878906 182.382812 L 75.378906 182.382812 C 73.117188 182.382812 71.285156 180.550781 71.285156 178.289062 C 71.285156 176.027344 73.117188 174.195312 75.378906 174.195312 L 138.878906 174.195312 C 141.140625 174.195312 142.972656 176.027344 142.972656 178.289062 C 142.976562 180.550781 141.140625 182.386719 138.878906 182.382812 Z M 138.878906 182.382812 " fill-opacity="1" fill-rule="evenodd"/><path fill="#000000" d="M 138.878906 196.757812 C 136.621094 196.757812 134.785156 194.925781 134.785156 192.664062 L 134.785156 163.917969 C 134.785156 161.65625 136.621094 159.824219 138.878906 159.824219 C 141.140625 159.820312 142.972656 161.65625 142.972656 163.917969 L 142.976562 192.660156 C 142.976562 194.921875 141.140625 196.757812 138.878906 196.757812 Z M 138.878906 196.757812 " fill-opacity="1" fill-rule="evenodd"/></svg>