<svg xmlns="http://www.w3.org/2000/svg" xmlns:xlink="http://www.w3.org/1999/xlink" width="500" zoomAndPan="magnify" viewBox="0 0 375 374.999991" height="500" preserveAspectRatio="xMidYMid meet" version="1.0"><defs><clipPath id="2f86c1bc9c"><path d="M 168 68.90625 L 209 68.90625 L 209 165 L 168 165 Z M 168 68.90625 " clip-rule="nonzero"/></clipPath><clipPath id="6b69c26e90"><path d="M 70 166 L 305 166 L 305 305.90625 L 70 305.90625 Z M 70 166 " clip-rule="nonzero"/></clipPath></defs><g clip-path="url(#2f86c1bc9c)"><path fill="#222222" d="M 195.867188 93.550781 C 195.710938 93.421875 195.480469 93.445312 195.355469 93.601562 C 195.289062 93.683594 195.257812 93.789062 195.277344 93.894531 C 196.222656 99.179688 194.546875 102.214844 190.25 103.003906 C 189.832031 103.074219 189.527344 103.4375 189.53125 103.863281 L 189.53125 109.507812 C 189.527344 109.847656 189.800781 110.125 190.140625 110.125 C 190.238281 110.125 190.335938 110.101562 190.421875 110.058594 L 197.613281 106.402344 C 197.84375 106.289062 198.097656 106.230469 198.355469 106.230469 L 201.992188 106.230469 C 202.386719 106.230469 202.703125 106.546875 202.703125 106.933594 C 202.703125 107.023438 202.683594 107.113281 202.648438 107.195312 C 200.605469 112.222656 198.816406 116.460938 197.289062 119.910156 C 194.621094 125.972656 198.816406 131.234375 202.035156 135.75 C 212.023438 149.730469 202.414062 165.722656 185.535156 164.28125 C 179.703125 163.777344 175.253906 161.335938 172.191406 156.945312 C 165.667969 147.589844 170.1875 138.835938 176.085938 130.976562 C 178.710938 127.46875 179.3125 123.46875 177.882812 118.972656 C 176.277344 113.898438 174.769531 109.9375 173.363281 107.101562 C 173.214844 106.789062 173.339844 106.417969 173.644531 106.269531 C 173.730469 106.226562 173.820312 106.207031 173.914062 106.207031 L 177.59375 106.207031 C 177.933594 106.207031 178.265625 106.289062 178.5625 106.445312 L 185.761719 110.078125 C 186.101562 110.25 186.515625 110.117188 186.691406 109.777344 C 186.734375 109.695312 186.757812 109.601562 186.761719 109.507812 L 187.109375 104.378906 C 187.140625 103.898438 186.90625 103.441406 186.496094 103.195312 C 182.082031 100.550781 182.136719 97.035156 184.039062 92.753906 C 184.121094 92.574219 184.042969 92.363281 183.863281 92.285156 C 183.773438 92.242188 183.667969 92.242188 183.578125 92.28125 C 179.714844 93.882812 175.03125 94.152344 172.566406 90.367188 C 170.984375 87.945312 171.523438 84.894531 173.601562 82.871094 C 175.484375 81.042969 178.765625 81.171875 181.308594 81.515625 C 181.460938 81.527344 181.59375 81.410156 181.605469 81.253906 C 181.609375 81.160156 181.566406 81.066406 181.488281 81.011719 C 178.507812 79.105469 177.042969 75.117188 179.121094 72.074219 C 182.609375 66.964844 189.722656 68.417969 190.628906 74.878906 C 190.652344 75.074219 190.832031 75.210938 191.023438 75.1875 C 191.140625 75.171875 191.242188 75.101562 191.292969 75 C 193.230469 71.4375 197.613281 68.695312 201.140625 71.449219 C 205.511719 74.871094 204.089844 80.441406 199.171875 82.34375 C 198.96875 82.425781 198.867188 82.65625 198.945312 82.855469 C 198.980469 82.949219 199.050781 83.023438 199.140625 83.0625 C 199.882812 83.429688 202.507812 82.988281 204.113281 83.753906 C 214.027344 88.496094 204.640625 100.832031 195.867188 93.550781 Z M 195.867188 93.550781 " fill-opacity="1" fill-rule="nonzero"/></g><path fill="#222222" d="M 32.8125 206.457031 L 87.808594 206.457031 C 89.445312 206.457031 90.769531 207.777344 90.769531 209.40625 L 90.769531 298.375 C 90.769531 299.140625 90.152344 299.761719 89.394531 299.761719 L 84.28125 299.761719 C 83.054688 299.765625 82.035156 298.808594 81.957031 297.578125 L 77.875 235.128906 C 77.847656 234.695312 77.484375 234.355469 77.046875 234.355469 L 31.929688 234.355469 C 31.296875 234.355469 30.761719 234.832031 30.691406 235.464844 C 27.929688 258.800781 25.417969 279.058594 23.160156 296.234375 C 22.914062 298.09375 21.800781 299.035156 19.8125 299.0625 C 15.328125 299.113281 11.5 299.078125 8.328125 298.957031 C 7.324219 298.917969 6.542969 298.074219 6.582031 297.070312 C 6.582031 297.050781 6.582031 297.03125 6.585938 297.011719 C 7.660156 282.054688 8.773438 267.78125 9.921875 254.1875 C 10.96875 241.761719 11.613281 232.105469 11.859375 225.214844 C 12.148438 217.214844 11.460938 207.027344 10.40625 197.898438 C 7.398438 171.964844 3.960938 146.003906 0.09375 120.015625 C -0.394531 116.746094 1.015625 115.070312 4.324219 114.984375 C 10.453125 114.832031 15.011719 114.75 18.003906 114.734375 C 20.53125 114.726562 21.46875 116.660156 21.78125 118.972656 C 23.0625 128.4375 23.964844 139.675781 24.933594 147.375 C 27.4375 167.441406 29.746094 186.855469 31.855469 205.609375 C 31.910156 206.089844 32.320312 206.457031 32.8125 206.457031 Z M 32.8125 206.457031 " fill-opacity="1" fill-rule="nonzero"/><path fill="#222222" d="M 343.941406 234.773438 C 343.898438 234.453125 343.628906 234.214844 343.308594 234.214844 L 298.210938 234.214844 C 297.78125 234.214844 297.425781 234.546875 297.40625 234.96875 L 293.183594 297.3125 C 293.101562 298.605469 292.027344 299.613281 290.730469 299.613281 L 286.027344 299.613281 C 285.128906 299.613281 284.402344 298.886719 284.402344 297.988281 L 284.402344 208.769531 C 284.402344 208.46875 284.519531 208.171875 284.726562 207.941406 C 285.585938 206.976562 286.574219 206.484375 287.6875 206.46875 C 306.988281 206.296875 325.222656 206.191406 342.394531 206.148438 C 342.914062 206.140625 343.34375 205.746094 343.394531 205.234375 C 346.03125 177.582031 350.488281 144.171875 353.242188 118.46875 C 353.53125 115.746094 355.589844 114.875 358.214844 114.875 C 364.878906 114.859375 368.519531 114.828125 369.128906 114.777344 C 373.421875 114.445312 375.53125 115.84375 374.886719 120.359375 C 370.285156 152.628906 366.894531 180.0625 364.714844 202.664062 C 363.539062 214.871094 363.535156 228.027344 364.703125 242.128906 C 366.03125 258.0625 367.40625 275.632812 368.828125 294.847656 C 368.976562 296.933594 368.765625 298.207031 368.191406 298.664062 C 367.832031 298.992188 367.363281 299.167969 366.878906 299.160156 L 354.824219 299.0625 C 353.292969 299.050781 352.007812 297.910156 351.808594 296.398438 Z M 343.941406 234.773438 " fill-opacity="1" fill-rule="nonzero"/><g clip-path="url(#6b69c26e90)"><path fill="#222222" d="M 187.539062 166.292969 C 224.316406 166.300781 261.960938 166.164062 300.515625 166.214844 C 303.335938 166.214844 304.746094 167.597656 304.746094 170.355469 C 304.75 181.097656 304.730469 187.097656 304.679688 188.359375 C 304.644531 189.382812 303.835938 190.246094 302.257812 190.941406 C 302.179688 190.976562 302.097656 190.992188 302.011719 190.992188 L 278.785156 191.167969 C 278.488281 191.167969 278.246094 191.410156 278.246094 191.714844 L 278.246094 303.730469 C 278.246094 304.894531 277.300781 305.839844 276.136719 305.839844 L 260.273438 305.839844 C 259.035156 305.839844 258.035156 304.835938 258.035156 303.601562 L 258.035156 191.585938 C 258.035156 191.332031 257.828125 191.125 257.570312 191.125 C 256.710938 191.117188 233.363281 191.105469 187.527344 191.089844 C 141.691406 191.078125 118.34375 191.078125 117.484375 191.089844 C 117.230469 191.089844 117.027344 191.292969 117.019531 191.542969 L 116.957031 303.558594 C 116.957031 304.792969 115.953125 305.796875 114.71875 305.796875 L 98.851562 305.785156 C 97.6875 305.785156 96.742188 304.839844 96.742188 303.675781 L 96.808594 191.660156 C 96.808594 191.359375 96.566406 191.113281 96.269531 191.113281 L 73.042969 190.929688 C 72.960938 190.929688 72.875 190.910156 72.796875 190.875 C 71.21875 190.179688 70.410156 189.320312 70.375 188.292969 C 70.324219 187.03125 70.308594 181.03125 70.320312 170.292969 C 70.320312 167.53125 71.730469 166.152344 74.550781 166.152344 C 113.101562 166.121094 150.761719 166.28125 187.539062 166.292969 Z M 187.539062 166.292969 " fill-opacity="1" fill-rule="nonzero"/></g></svg>