<svg xmlns="http://www.w3.org/2000/svg" xmlns:xlink="http://www.w3.org/1999/xlink" width="500" zoomAndPan="magnify" viewBox="0 0 375 374.999991" height="500" preserveAspectRatio="xMidYMid meet" version="1.0"><defs><clipPath id="c616dce91b"><path d="M 187.5 0 C 83.945312 0 0 83.945312 0 187.5 C 0 291.054688 83.945312 375 187.5 375 C 291.054688 375 375 291.054688 375 187.5 C 375 83.945312 291.054688 0 187.5 0 Z M 187.5 0 " clip-rule="nonzero"/></clipPath><clipPath id="4c9b5af570"><path d="M 48.390625 97.773438 L 326.640625 97.773438 L 326.640625 264 L 48.390625 264 Z M 48.390625 97.773438 " clip-rule="nonzero"/></clipPath><clipPath id="6671466b5c"><path d="M 48.390625 226 L 241 226 L 241 277.023438 L 48.390625 277.023438 Z M 48.390625 226 " clip-rule="nonzero"/></clipPath></defs><g clip-path="url(#c616dce91b)"><path stroke-linecap="butt" transform="matrix(0.75, 0, 0, 0.75, 0.0000045, 0)" fill="none" stroke-linejoin="miter" d="M 249.999994 0 C 111.927078 0 -0.000006 111.927084 -0.000006 250 C -0.000006 388.072917 111.927078 500.000001 249.999994 500.000001 C 388.072911 500.000001 499.999995 388.072917 499.999995 250 C 499.999995 111.927084 388.072911 0 249.999994 0 Z M 249.999994 0 " stroke="#000000" stroke-width="60" stroke-opacity="1" stroke-miterlimit="4"/></g><g clip-path="url(#4c9b5af570)"><path fill="#000000" d="M 312.332031 213.625 C 314.441406 207.808594 315.003906 201.699219 317.496094 196.007812 C 318.480469 193.953125 317.511719 191.234375 317.078125 189.097656 C 310.078125 162.347656 303.351562 135.503906 297.429688 108.515625 C 296.847656 106.136719 296.398438 103.46875 295.222656 101.3125 C 289.507812 97.648438 282.265625 96.1875 276.230469 100.078125 C 272.160156 102.261719 270.921875 104.578125 270.179688 109.078125 C 247.230469 124.109375 223.859375 138.640625 200.636719 153.265625 C 198.078125 146.835938 195.984375 140.214844 193.25 133.882812 C 191.269531 129.394531 186.585938 126.90625 181.773438 127.113281 C 168.851562 127.210938 155.941406 127.179688 143.019531 127.195312 C 138.125 126.710938 132.925781 130.632812 132.847656 135.679688 C 132.574219 143.894531 132.78125 152.15625 132.847656 160.371094 C 118.34375 160.453125 103.859375 160.308594 89.359375 160.371094 C 89.261719 151.417969 89.296875 142.464844 89.328125 133.496094 C 85.625 133.542969 81.925781 133.574219 78.222656 133.589844 C 78.207031 142.496094 78.109375 151.417969 78.125 160.324219 C 68.742188 160.726562 59.683594 158.21875 52.792969 166.253906 C 46.613281 172.925781 49.238281 180.546875 48.65625 188.886719 C 49.074219 196.089844 46.933594 205.15625 51.730469 211.023438 C 55.5625 216.632812 62.402344 219.058594 69 218.964844 C 118.523438 218.835938 168.09375 219.460938 217.597656 218.820312 C 218.050781 208.175781 220.207031 198.855469 214.878906 189.066406 C 234.902344 170.371094 255.597656 152.382812 275.652344 133.753906 C 283.761719 155.757812 291.246094 178.039062 300.050781 199.769531 C 301.578125 199.800781 303.09375 199.835938 304.605469 199.867188 C 304.507812 201.972656 304.398438 204.078125 304.300781 206.183594 C 302.914062 205.285156 301.53125 204.367188 300.132812 203.46875 C 289.75 219.960938 278.308594 235.746094 268.3125 252.511719 C 262.824219 252.992188 257.691406 253.730469 252.828125 256.480469 C 253.136719 257.636719 253.441406 258.796875 253.746094 259.953125 C 265.140625 261.222656 276.570312 262.15625 287.996094 263.167969 C 296.574219 263.8125 305.105469 261.929688 311.140625 255.4375 C 318.011719 247.738281 322.390625 237 326.492188 227.644531 C 321.730469 222.949219 316.804688 218.59375 312.332031 213.625 Z M 112.761719 188.179688 C 96.875 187.777344 80.941406 187.957031 65.039062 188.035156 C 65.152344 183.324219 65.1875 178.632812 65.152344 173.921875 C 81.054688 173.679688 96.972656 173.859375 112.875 173.679688 C 112.761719 178.519531 112.710938 183.34375 112.761719 188.179688 Z M 181.097656 196.042969 C 176.027344 189.59375 170.8125 182.378906 164.457031 177.203125 C 159.675781 172.554688 151.339844 172.007812 145.09375 170.128906 C 145.175781 160.113281 145.09375 150.117188 145.238281 140.101562 C 157.421875 140.132812 169.605469 140.132812 181.773438 140.132812 C 189.675781 158.667969 196.839844 177.441406 204.386719 196.105469 C 196.628906 195.929688 188.855469 195.960938 181.097656 196.039062 Z M 181.097656 196.042969 " fill-opacity="1" fill-rule="nonzero"/></g><g clip-path="url(#6671466b5c)"><path fill="#000000" d="M 215.539062 226.902344 C 168.832031 227.339844 122.113281 226.96875 75.40625 227.257812 C 65.1875 227.304688 55.5625 232.242188 51.121094 241.691406 C 46.082031 251.59375 48.898438 264.214844 57.285156 271.367188 C 61.484375 274.855469 66.746094 276.929688 72.21875 277.007812 C 116.65625 276.960938 161.460938 276.847656 205.867188 276.929688 C 211.273438 276.832031 217.050781 277.472656 222.347656 276.332031 C 234.660156 272.910156 242.769531 259.246094 239.792969 246.789062 C 237.300781 235.632812 227.222656 226.628906 215.539062 226.902344 Z M 75.566406 263.328125 C 71.125 264.019531 66.714844 261.5625 64.542969 257.71875 C 61.675781 252.800781 63.753906 246.175781 68.339844 243.074219 C 75.050781 238.21875 84.53125 243.765625 85.046875 251.546875 C 85.835938 257.398438 81.101562 262.414062 75.566406 263.328125 Z M 123.320312 252.878906 C 122.417969 258.683594 115.578125 261.625 110.847656 257.976562 C 106.644531 254.921875 106.886719 248.25 111.457031 245.664062 C 116.527344 242.207031 123.929688 246.902344 123.320312 252.878906 Z M 148.972656 258.972656 C 142.855469 261.722656 139.21875 256.914062 137.53125 251.644531 C 139.910156 246.867188 143.308594 242.527344 149.214844 245.453125 C 155.21875 248.394531 154.816406 256.144531 148.972656 258.972656 Z M 182.753906 253.296875 C 181.839844 259.34375 173.96875 261.578125 169.863281 257.09375 C 166.226562 253.296875 167.660156 247.558594 172.230469 245.277344 C 177.332031 242.496094 183.816406 247.738281 182.753906 253.296875 Z M 218.613281 262.667969 C 213.671875 264.792969 207.894531 261.464844 205.382812 257.140625 C 202.984375 251.128906 205.03125 245.035156 210.886719 242.160156 C 216.890625 239.199219 224.550781 243.523438 225.96875 249.84375 C 227.160156 255.324219 223.746094 260.742188 218.613281 262.671875 Z M 218.613281 262.667969 " fill-opacity="1" fill-rule="nonzero"/></g></svg>