<svg xmlns="http://www.w3.org/2000/svg" xmlns:xlink="http://www.w3.org/1999/xlink" width="500" zoomAndPan="magnify" viewBox="0 0 375 374.999991" height="500" preserveAspectRatio="xMidYMid meet" version="1.0"><defs><clipPath id="c78013a048"><path d="M 7.613281 7.613281 L 367.378906 7.613281 L 367.378906 367.378906 L 7.613281 367.378906 Z M 7.613281 7.613281 " clip-rule="nonzero"/></clipPath><clipPath id="174be1e1d0"><path d="M 187.496094 7.613281 C 88.152344 7.613281 7.613281 88.152344 7.613281 187.496094 C 7.613281 286.84375 88.152344 367.378906 187.496094 367.378906 C 286.84375 367.378906 367.378906 286.84375 367.378906 187.496094 C 367.378906 88.152344 286.84375 7.613281 187.496094 7.613281 Z M 187.496094 7.613281 " clip-rule="nonzero"/></clipPath><clipPath id="42723434c2"><path d="M 135 56.003906 L 240 56.003906 L 240 263 L 135 263 Z M 135 56.003906 " clip-rule="nonzero"/></clipPath><clipPath id="75f841d981"><path d="M 67.058594 210 L 307.808594 210 L 307.808594 296.753906 L 67.058594 296.753906 Z M 67.058594 210 " clip-rule="nonzero"/></clipPath></defs><g clip-path="url(#c78013a048)"><g clip-path="url(#174be1e1d0)"><path stroke-linecap="butt" transform="matrix(0.75, 0, 0, 0.75, 7.614633, 7.614609)" fill="none" stroke-linejoin="miter" d="M 239.841963 -0.00177015 C 107.383621 -0.00177015 -0.00180239 107.383654 -0.00180239 239.841996 C -0.00180239 372.305546 107.383621 479.685761 239.841963 479.685761 C 372.305514 479.685761 479.685729 372.305546 479.685729 239.841996 C 479.685729 107.383654 372.305514 -0.00177015 239.841963 -0.00177015 Z M 239.841963 -0.00177015 " stroke="#222222" stroke-width="28" stroke-opacity="1" stroke-miterlimit="4"/></g></g><g clip-path="url(#42723434c2)"><path fill="#000000" d="M 180.828125 259.269531 C 180.90625 259.367188 181.03125 259.402344 181.117188 259.492188 C 181.703125 260.101562 182.363281 260.609375 183.101562 261.023438 C 183.367188 261.226562 183.644531 261.414062 183.933594 261.582031 C 185.042969 262.101562 186.207031 262.363281 187.433594 262.363281 C 188.65625 262.363281 189.824219 262.101562 190.933594 261.582031 C 191.222656 261.414062 191.5 261.226562 191.765625 261.023438 C 192.503906 260.609375 193.164062 260.101562 193.75 259.492188 C 193.835938 259.402344 193.957031 259.367188 194.039062 259.269531 L 237.027344 207.683594 C 237.390625 207.25 237.707031 206.785156 237.976562 206.289062 C 238.25 205.792969 238.46875 205.273438 238.636719 204.734375 C 238.804688 204.195312 238.917969 203.644531 238.980469 203.082031 C 239.039062 202.523438 239.042969 201.960938 238.992188 201.398438 C 238.941406 200.835938 238.835938 200.28125 238.679688 199.738281 C 238.519531 199.199219 238.308594 198.675781 238.046875 198.175781 C 237.785156 197.675781 237.476562 197.207031 237.121094 196.765625 C 236.765625 196.328125 236.371094 195.925781 235.9375 195.5625 C 235.503906 195.203125 235.039062 194.886719 234.542969 194.617188 C 234.046875 194.347656 233.527344 194.125 232.988281 193.957031 C 232.449219 193.789062 231.898438 193.675781 231.335938 193.617188 C 230.773438 193.558594 230.210938 193.554688 229.648438 193.605469 C 229.085938 193.65625 228.535156 193.761719 227.992188 193.921875 C 227.453125 194.082031 226.929688 194.292969 226.429688 194.554688 C 225.929688 194.816406 225.460938 195.125 225.019531 195.480469 C 224.582031 195.835938 224.179688 196.230469 223.820312 196.664062 L 196.03125 230.011719 L 196.03125 64.601562 C 196.03125 64.039062 195.976562 63.480469 195.867188 62.925781 C 195.753906 62.371094 195.59375 61.832031 195.375 61.3125 C 195.160156 60.789062 194.894531 60.296875 194.582031 59.824219 C 194.269531 59.355469 193.910156 58.921875 193.511719 58.523438 C 193.113281 58.125 192.679688 57.765625 192.210938 57.453125 C 191.742188 57.140625 191.246094 56.875 190.722656 56.660156 C 190.203125 56.441406 189.664062 56.28125 189.109375 56.167969 C 188.554688 56.058594 187.996094 56.003906 187.433594 56.003906 C 186.867188 56.003906 186.308594 56.058594 185.753906 56.167969 C 185.203125 56.28125 184.664062 56.441406 184.140625 56.660156 C 183.621094 56.875 183.125 57.140625 182.65625 57.453125 C 182.1875 57.765625 181.753906 58.125 181.351562 58.523438 C 180.953125 58.921875 180.597656 59.355469 180.285156 59.824219 C 179.96875 60.296875 179.707031 60.789062 179.488281 61.3125 C 179.273438 61.832031 179.109375 62.371094 179 62.925781 C 178.890625 63.480469 178.835938 64.039062 178.835938 64.601562 L 178.835938 230.011719 L 151.046875 196.664062 C 150.683594 196.230469 150.285156 195.835938 149.84375 195.480469 C 149.40625 195.125 148.9375 194.816406 148.4375 194.554688 C 147.9375 194.289062 147.414062 194.078125 146.871094 193.917969 C 146.332031 193.757812 145.777344 193.652344 145.214844 193.601562 C 144.652344 193.550781 144.089844 193.554688 143.527344 193.613281 C 142.964844 193.675781 142.414062 193.789062 141.875 193.957031 C 141.335938 194.125 140.820312 194.34375 140.324219 194.613281 C 139.828125 194.882812 139.359375 195.199219 138.925781 195.5625 C 138.492188 195.921875 138.097656 196.324219 137.742188 196.765625 C 137.390625 197.203125 137.082031 197.675781 136.816406 198.175781 C 136.554688 198.675781 136.34375 199.195312 136.183594 199.738281 C 136.027344 200.28125 135.921875 200.832031 135.871094 201.394531 C 135.820312 201.957031 135.824219 202.519531 135.882812 203.082031 C 135.945312 203.644531 136.058594 204.195312 136.226562 204.734375 C 136.398438 205.273438 136.617188 205.792969 136.886719 206.289062 C 137.160156 206.785156 137.476562 207.25 137.835938 207.683594 Z M 180.828125 259.269531 " fill-opacity="1" fill-rule="nonzero"/></g><g clip-path="url(#75f841d981)"><path fill="#000000" d="M 299.210938 210.773438 C 298.644531 210.773438 298.085938 210.828125 297.53125 210.9375 C 296.976562 211.046875 296.441406 211.210938 295.917969 211.425781 C 295.398438 211.644531 294.902344 211.90625 294.433594 212.222656 C 293.964844 212.535156 293.527344 212.890625 293.128906 213.289062 C 292.730469 213.691406 292.375 214.125 292.058594 214.59375 C 291.746094 215.0625 291.480469 215.558594 291.265625 216.078125 C 291.050781 216.601562 290.886719 217.140625 290.777344 217.691406 C 290.667969 218.246094 290.613281 218.804688 290.613281 219.371094 L 290.613281 270.960938 C 290.609375 271.523438 290.554688 272.082031 290.445312 272.636719 C 290.335938 273.191406 290.171875 273.726562 289.953125 274.25 C 289.738281 274.769531 289.472656 275.265625 289.160156 275.734375 C 288.847656 276.203125 288.488281 276.636719 288.089844 277.039062 C 287.691406 277.4375 287.257812 277.792969 286.789062 278.105469 C 286.320312 278.421875 285.824219 278.683594 285.300781 278.902344 C 284.78125 279.117188 284.242188 279.28125 283.691406 279.390625 C 283.136719 279.5 282.578125 279.558594 282.011719 279.558594 L 92.851562 279.558594 C 92.289062 279.558594 91.730469 279.5 91.175781 279.390625 C 90.621094 279.28125 90.085938 279.117188 89.5625 278.902344 C 89.042969 278.683594 88.546875 278.421875 88.078125 278.105469 C 87.609375 277.792969 87.175781 277.4375 86.773438 277.039062 C 86.375 276.636719 86.019531 276.203125 85.707031 275.734375 C 85.390625 275.265625 85.128906 274.769531 84.910156 274.25 C 84.695312 273.726562 84.53125 273.191406 84.421875 272.636719 C 84.308594 272.082031 84.253906 271.523438 84.253906 270.960938 L 84.253906 219.371094 C 84.253906 218.804688 84.199219 218.246094 84.089844 217.691406 C 83.980469 217.140625 83.816406 216.601562 83.601562 216.078125 C 83.382812 215.558594 83.117188 215.0625 82.804688 214.59375 C 82.492188 214.125 82.136719 213.691406 81.734375 213.289062 C 81.335938 212.890625 80.902344 212.535156 80.433594 212.222656 C 79.964844 211.90625 79.46875 211.644531 78.945312 211.425781 C 78.425781 211.210938 77.886719 211.046875 77.332031 210.9375 C 76.78125 210.828125 76.21875 210.773438 75.65625 210.773438 C 75.089844 210.773438 74.53125 210.828125 73.980469 210.9375 C 73.425781 211.046875 72.886719 211.210938 72.367188 211.425781 C 71.84375 211.644531 71.347656 211.90625 70.878906 212.222656 C 70.410156 212.535156 69.976562 212.890625 69.578125 213.289062 C 69.175781 213.691406 68.820312 214.125 68.507812 214.59375 C 68.191406 215.0625 67.929688 215.558594 67.710938 216.078125 C 67.496094 216.601562 67.332031 217.140625 67.222656 217.691406 C 67.113281 218.246094 67.058594 218.804688 67.058594 219.371094 L 67.058594 270.960938 C 67.058594 271.804688 67.101562 272.648438 67.183594 273.488281 C 67.269531 274.328125 67.394531 275.160156 67.558594 275.988281 C 67.722656 276.816406 67.929688 277.636719 68.175781 278.445312 C 68.421875 279.253906 68.707031 280.046875 69.027344 280.828125 C 69.351562 281.605469 69.714844 282.367188 70.113281 283.113281 C 70.511719 283.859375 70.945312 284.582031 71.414062 285.285156 C 71.882812 285.984375 72.386719 286.664062 72.921875 287.316406 C 73.457031 287.96875 74.023438 288.59375 74.621094 289.191406 C 75.21875 289.789062 75.84375 290.355469 76.496094 290.890625 C 77.148438 291.425781 77.828125 291.929688 78.527344 292.398438 C 79.230469 292.867188 79.953125 293.300781 80.699219 293.699219 C 81.441406 294.097656 82.207031 294.460938 82.984375 294.785156 C 83.765625 295.105469 84.558594 295.390625 85.367188 295.636719 C 86.175781 295.882812 86.992188 296.089844 87.820312 296.253906 C 88.648438 296.417969 89.484375 296.542969 90.324219 296.628906 C 91.164062 296.710938 92.007812 296.753906 92.851562 296.753906 L 282.011719 296.753906 C 282.859375 296.753906 283.699219 296.710938 284.539062 296.628906 C 285.382812 296.542969 286.214844 296.417969 287.042969 296.253906 C 287.871094 296.089844 288.691406 295.882812 289.496094 295.636719 C 290.304688 295.390625 291.101562 295.105469 291.878906 294.785156 C 292.660156 294.460938 293.421875 294.097656 294.167969 293.699219 C 294.910156 293.300781 295.636719 292.867188 296.335938 292.398438 C 297.039062 291.929688 297.714844 291.425781 298.371094 290.890625 C 299.023438 290.355469 299.648438 289.789062 300.246094 289.191406 C 300.839844 288.59375 301.40625 287.96875 301.945312 287.316406 C 302.480469 286.664062 302.984375 285.984375 303.453125 285.285156 C 303.921875 284.582031 304.355469 283.859375 304.753906 283.113281 C 305.152344 282.367188 305.511719 281.605469 305.835938 280.828125 C 306.160156 280.046875 306.445312 279.253906 306.691406 278.445312 C 306.9375 277.636719 307.140625 276.816406 307.308594 275.988281 C 307.472656 275.160156 307.597656 274.328125 307.679688 273.488281 C 307.765625 272.648438 307.808594 271.804688 307.808594 270.960938 L 307.808594 219.371094 C 307.808594 218.804688 307.753906 218.246094 307.644531 217.691406 C 307.53125 217.140625 307.371094 216.601562 307.152344 216.078125 C 306.9375 215.558594 306.671875 215.0625 306.359375 214.59375 C 306.046875 214.125 305.6875 213.691406 305.289062 213.289062 C 304.890625 212.890625 304.457031 212.535156 303.988281 212.222656 C 303.515625 211.90625 303.023438 211.644531 302.5 211.425781 C 301.976562 211.210938 301.441406 211.046875 300.886719 210.9375 C 300.332031 210.828125 299.773438 210.773438 299.210938 210.773438 Z M 299.210938 210.773438 " fill-opacity="1" fill-rule="nonzero"/></g></svg>