<svg xmlns="http://www.w3.org/2000/svg" xmlns:xlink="http://www.w3.org/1999/xlink" width="500" zoomAndPan="magnify" viewBox="0 0 375 374.999991" height="500" preserveAspectRatio="xMidYMid meet" version="1.0"><path fill="#231f20" d="M 338.671875 375.085938 C 336.53125 375.078125 334.464844 374.679688 332.476562 373.890625 C 330.488281 373.101562 328.710938 371.976562 327.148438 370.511719 L 184.621094 236.511719 L 48.445312 368.652344 C 47.851562 369.210938 47.222656 369.722656 46.550781 370.191406 C 45.882812 370.65625 45.183594 371.074219 44.457031 371.441406 C 43.726562 371.808594 42.976562 372.121094 42.203125 372.378906 C 41.429688 372.636719 40.640625 372.835938 39.835938 372.980469 C 39.03125 373.125 38.222656 373.210938 37.40625 373.238281 C 36.59375 373.269531 35.777344 373.238281 34.96875 373.148438 C 34.15625 373.058594 33.355469 372.910156 32.566406 372.703125 C 31.777344 372.5 31.007812 372.238281 30.253906 371.921875 C 29.503906 371.605469 28.777344 371.234375 28.078125 370.816406 C 27.378906 370.394531 26.714844 369.925781 26.085938 369.40625 C 25.453125 368.890625 24.863281 368.332031 24.3125 367.726562 C 23.761719 367.125 23.257812 366.488281 22.800781 365.8125 C 22.34375 365.136719 21.9375 364.433594 21.582031 363.699219 C 21.226562 362.964844 20.925781 362.210938 20.679688 361.433594 C 20.433594 360.65625 20.242188 359.863281 20.109375 359.058594 C 19.980469 358.253906 19.90625 357.445312 19.890625 356.632812 L 19.890625 16.929688 C 19.890625 16.375 19.917969 15.824219 19.972656 15.269531 C 20.027344 14.71875 20.109375 14.171875 20.214844 13.628906 C 20.324219 13.082031 20.460938 12.546875 20.621094 12.015625 C 20.78125 11.484375 20.96875 10.964844 21.179688 10.453125 C 21.394531 9.9375 21.628906 9.4375 21.890625 8.949219 C 22.152344 8.460938 22.4375 7.984375 22.746094 7.523438 C 23.054688 7.0625 23.386719 6.617188 23.738281 6.191406 C 24.089844 5.761719 24.460938 5.351562 24.855469 4.957031 C 25.246094 4.566406 25.65625 4.195312 26.085938 3.84375 C 26.515625 3.492188 26.960938 3.160156 27.421875 2.851562 C 27.882812 2.546875 28.359375 2.261719 28.847656 2 C 29.339844 1.738281 29.839844 1.5 30.351562 1.289062 C 30.863281 1.078125 31.386719 0.890625 31.917969 0.730469 C 32.449219 0.566406 32.988281 0.433594 33.53125 0.324219 C 34.074219 0.21875 34.625 0.136719 35.175781 0.0820312 C 35.730469 0.0273438 36.28125 0 36.835938 0 L 338.671875 0 C 339.226562 0 339.78125 0.0273438 340.332031 0.0820312 C 340.886719 0.136719 341.433594 0.21875 341.980469 0.324219 C 342.523438 0.433594 343.0625 0.566406 343.59375 0.730469 C 344.125 0.890625 344.644531 1.078125 345.15625 1.289062 C 345.671875 1.5 346.171875 1.738281 346.660156 2 C 347.152344 2.261719 347.625 2.546875 348.089844 2.851562 C 348.550781 3.160156 348.996094 3.492188 349.425781 3.84375 C 349.851562 4.195312 350.265625 4.566406 350.65625 4.957031 C 351.046875 5.351562 351.421875 5.761719 351.773438 6.191406 C 352.125 6.617188 352.457031 7.0625 352.765625 7.523438 C 353.070312 7.984375 353.355469 8.460938 353.617188 8.949219 C 353.878906 9.4375 354.117188 9.9375 354.328125 10.453125 C 354.542969 10.964844 354.730469 11.484375 354.890625 12.015625 C 355.050781 12.546875 355.1875 13.082031 355.292969 13.628906 C 355.402344 14.171875 355.484375 14.71875 355.539062 15.269531 C 355.59375 15.824219 355.621094 16.375 355.621094 16.929688 L 355.621094 358.238281 C 355.617188 359.058594 355.558594 359.871094 355.4375 360.679688 C 355.320312 361.488281 355.144531 362.285156 354.90625 363.070312 C 354.671875 363.855469 354.382812 364.617188 354.035156 365.359375 C 353.691406 366.101562 353.292969 366.8125 352.84375 367.496094 C 352.394531 368.179688 351.898438 368.828125 351.355469 369.441406 C 350.8125 370.054688 350.230469 370.625 349.601562 371.152344 C 348.976562 371.679688 348.316406 372.160156 347.621094 372.589844 C 346.925781 373.023438 346.203125 373.402344 345.453125 373.730469 C 343.285156 374.652344 341.027344 375.101562 338.671875 375.085938 Z M 184.449219 196.386719 C 186.589844 196.394531 188.65625 196.792969 190.644531 197.582031 C 192.636719 198.371094 194.410156 199.496094 195.976562 200.960938 L 321.894531 319.46875 L 321.894531 33.859375 L 53.785156 33.859375 L 53.785156 316.84375 L 172.417969 201.128906 C 174.03125 199.574219 175.878906 198.386719 177.964844 197.566406 C 180.046875 196.746094 182.210938 196.351562 184.449219 196.386719 Z M 184.449219 196.386719 " fill-opacity="1" fill-rule="nonzero"/></svg>