<svg xmlns="http://www.w3.org/2000/svg" xmlns:xlink="http://www.w3.org/1999/xlink" width="500" zoomAndPan="magnify" viewBox="0 0 375 374.999991" height="500" preserveAspectRatio="xMidYMid meet" version="1.0"><defs><clipPath id="eb3ba58c49"><path d="M 0 25 L 375 25 L 375 350.34375 L 0 350.34375 Z M 0 25 " clip-rule="nonzero"/></clipPath></defs><g clip-path="url(#eb3ba58c49)"><path fill="#000000" d="M 37.324219 99.878906 C 31.609375 99.878906 26.070312 99.878906 20.527344 99.878906 C 7.671875 99.878906 -0.0429688 92.152344 0.00390625 79.234375 C -0.183594 74.722656 -0.0273438 70.222656 0.464844 65.730469 C 1.949219 56.246094 9.414062 50.171875 19.027344 50.074219 C 25.542969 50.003906 32.054688 49.992188 38.566406 50.101562 C 39.386719 50.144531 40.171875 50 40.917969 49.664062 C 41.667969 49.324219 42.296875 48.835938 42.808594 48.191406 C 48.359375 41.972656 53.980469 35.8125 59.605469 29.660156 C 65.179688 23.570312 72.074219 23.535156 77.632812 29.59375 C 83.191406 35.648438 88.785156 41.753906 94.246094 47.933594 C 94.84375 48.671875 95.578125 49.230469 96.441406 49.613281 C 97.308594 49.996094 98.214844 50.15625 99.160156 50.105469 C 184.34375 50.050781 269.523438 50.03125 354.707031 50.050781 C 363.113281 50.050781 369.480469 53.410156 373.167969 61.148438 C 373.976562 62.714844 374.429688 64.375 374.523438 66.132812 C 374.582031 72.621094 375.03125 79.207031 374.109375 85.578125 C 372.902344 93.925781 364.925781 99.742188 356.015625 99.859375 C 349.945312 99.941406 343.875 99.875 337.597656 99.875 L 337.597656 112.304688 C 341.71875 112.636719 345.820312 112.628906 349.785156 113.347656 C 350.671875 113.519531 351.546875 113.726562 352.414062 113.972656 C 353.28125 114.222656 354.132812 114.503906 354.976562 114.828125 C 355.816406 115.148438 356.644531 115.507812 357.453125 115.898438 C 358.265625 116.292969 359.058594 116.722656 359.832031 117.183594 C 360.605469 117.648438 361.355469 118.144531 362.085938 118.671875 C 362.816406 119.199219 363.519531 119.761719 364.203125 120.351562 C 364.882812 120.941406 365.539062 121.558594 366.164062 122.207031 C 366.792969 122.855469 367.390625 123.527344 367.957031 124.226562 C 368.527344 124.925781 369.0625 125.648438 369.566406 126.394531 C 370.074219 127.144531 370.542969 127.910156 370.984375 128.699219 C 371.421875 129.484375 371.824219 130.292969 372.191406 131.113281 C 372.558594 131.9375 372.890625 132.773438 373.1875 133.625 C 373.480469 134.480469 373.738281 135.34375 373.957031 136.214844 C 374.175781 137.089844 374.359375 137.972656 374.5 138.863281 C 374.644531 139.753906 374.746094 140.648438 374.8125 141.546875 C 374.875 142.445312 374.902344 143.347656 374.886719 144.25 C 374.933594 175.875 374.941406 207.5 374.902344 239.125 C 374.902344 253.027344 374.933594 266.925781 374.890625 280.828125 C 374.925781 282.460938 374.828125 284.082031 374.605469 285.699219 C 374.378906 287.316406 374.027344 288.90625 373.550781 290.46875 C 373.074219 292.027344 372.480469 293.542969 371.761719 295.007812 C 371.046875 296.476562 370.21875 297.878906 369.28125 299.210938 C 368.34375 300.546875 367.304688 301.800781 366.167969 302.972656 C 365.03125 304.140625 363.808594 305.214844 362.503906 306.191406 C 361.195312 307.171875 359.820312 308.039062 358.375 308.796875 C 356.929688 309.554688 355.433594 310.195312 353.890625 310.714844 C 350.503906 311.886719 347.023438 312.480469 343.441406 312.5 C 276.929688 312.601562 210.417969 312.621094 143.902344 312.550781 C 142.871094 312.558594 141.839844 312.515625 140.8125 312.417969 C 139.78125 312.324219 138.761719 312.175781 137.75 311.980469 C 136.734375 311.785156 135.734375 311.535156 134.742188 311.238281 C 133.753906 310.941406 132.78125 310.597656 131.828125 310.203125 C 130.871094 309.8125 129.941406 309.371094 129.027344 308.882812 C 128.117188 308.398438 127.234375 307.867188 126.375 307.292969 C 125.515625 306.71875 124.6875 306.101562 123.890625 305.445312 C 123.09375 304.789062 122.332031 304.09375 121.601562 303.363281 C 120.875 302.628906 120.183594 301.863281 119.53125 301.058594 C 118.882812 300.257812 118.269531 299.425781 117.703125 298.566406 C 117.132812 297.703125 116.605469 296.8125 116.125 295.898438 C 115.644531 294.984375 115.210938 294.050781 114.824219 293.089844 C 114.4375 292.132812 114.097656 291.160156 113.804688 290.167969 C 113.515625 289.175781 113.273438 288.171875 113.082031 287.15625 C 112.890625 286.140625 112.75 285.121094 112.664062 284.089844 C 112.574219 283.058594 112.535156 282.027344 112.546875 280.996094 C 112.503906 235.382812 112.503906 189.769531 112.546875 144.15625 C 112.539062 143.125 112.578125 142.09375 112.671875 141.066406 C 112.761719 140.039062 112.90625 139.015625 113.101562 138.003906 C 113.292969 136.988281 113.535156 135.984375 113.828125 134.996094 C 114.121094 134.007812 114.460938 133.03125 114.851562 132.078125 C 115.238281 131.121094 115.675781 130.183594 116.15625 129.273438 C 116.640625 128.359375 117.164062 127.472656 117.734375 126.609375 C 118.304688 125.75 118.914062 124.917969 119.566406 124.121094 C 120.21875 123.320312 120.90625 122.550781 121.636719 121.820312 C 122.363281 121.089844 123.125 120.394531 123.921875 119.738281 C 124.71875 119.082031 125.546875 118.464844 126.402344 117.890625 C 127.261719 117.316406 128.144531 116.789062 129.054688 116.300781 C 129.964844 115.816406 130.898438 115.375 131.851562 114.980469 C 132.804688 114.585938 133.777344 114.238281 134.761719 113.941406 C 135.75 113.644531 136.75 113.394531 137.765625 113.199219 C 138.777344 113 139.796875 112.851562 140.824219 112.753906 C 141.851562 112.65625 142.882812 112.609375 143.914062 112.613281 C 145.808594 112.597656 147.714844 112.613281 149.828125 112.613281 L 149.828125 100.027344 L 99.964844 100.027344 L 99.964844 337.824219 L 366.078125 337.824219 C 367.03125 337.824219 367.996094 337.765625 368.941406 337.851562 C 369.335938 337.863281 369.726562 337.914062 370.113281 338 C 370.5 338.089844 370.875 338.210938 371.234375 338.371094 C 371.597656 338.53125 371.941406 338.726562 372.265625 338.953125 C 372.589844 339.179688 372.886719 339.433594 373.164062 339.71875 C 373.4375 340.003906 373.683594 340.3125 373.898438 340.644531 C 374.113281 340.976562 374.292969 341.324219 374.441406 341.691406 C 374.585938 342.058594 374.699219 342.4375 374.773438 342.828125 C 374.84375 343.214844 374.882812 343.609375 374.878906 344.003906 C 374.875 344.398438 374.835938 344.792969 374.757812 345.179688 C 374.679688 345.566406 374.566406 345.945312 374.414062 346.308594 C 374.261719 346.675781 374.078125 347.023438 373.859375 347.351562 C 373.640625 347.683594 373.390625 347.988281 373.113281 348.269531 C 372.835938 348.550781 372.53125 348.804688 372.203125 349.027344 C 371.878906 349.25 371.53125 349.4375 371.167969 349.59375 C 370.804688 349.75 370.429688 349.867188 370.042969 349.949219 C 369.65625 350.035156 369.265625 350.078125 368.871094 350.085938 C 368.09375 350.152344 367.308594 350.109375 366.527344 350.109375 L 8.34375 350.109375 C 3.0625 350.109375 0.0273438 347.878906 0 343.992188 C -0.0273438 340.105469 3.039062 337.824219 8.289062 337.820312 L 37.324219 337.820312 Z M 243.710938 300.289062 C 276.703125 300.289062 309.695312 300.289062 342.683594 300.289062 C 354.714844 300.289062 362.609375 292.414062 362.609375 280.417969 C 362.609375 235.238281 362.609375 190.066406 362.609375 144.894531 C 362.609375 132.726562 354.761719 124.90625 342.550781 124.90625 C 276.652344 124.90625 210.753906 124.90625 144.855469 124.90625 C 132.621094 124.90625 124.804688 132.695312 124.804688 144.90625 C 124.804688 189.992188 124.804688 235.078125 124.804688 280.167969 C 124.804688 292.539062 132.585938 300.292969 144.992188 300.296875 C 177.898438 300.292969 210.804688 300.292969 243.710938 300.289062 Z M 87.515625 337.683594 L 87.515625 335.34375 C 87.515625 243.789062 87.496094 152.234375 87.457031 60.675781 C 87.398438 59.296875 86.925781 58.082031 86.035156 57.027344 C 80.9375 51.222656 75.683594 45.554688 70.527344 39.800781 C 69.96875 39.019531 69.492188 38.195312 69.09375 37.320312 C 62.742188 44.304688 57.03125 50.472656 51.496094 56.804688 C 50.453125 58.0625 49.90625 59.507812 49.847656 61.140625 C 49.773438 152.347656 49.75 243.554688 49.78125 334.761719 L 49.78125 337.695312 Z M 99.9375 87.589844 L 354.148438 87.589844 C 354.753906 87.589844 355.363281 87.601562 355.972656 87.589844 C 356.417969 87.621094 356.863281 87.601562 357.304688 87.535156 C 357.75 87.46875 358.179688 87.355469 358.597656 87.199219 C 359.015625 87.039062 359.414062 86.835938 359.789062 86.59375 C 360.164062 86.347656 360.511719 86.066406 360.824219 85.746094 C 361.140625 85.429688 361.417969 85.078125 361.65625 84.699219 C 361.894531 84.320312 362.09375 83.921875 362.246094 83.5 C 362.398438 83.078125 362.503906 82.644531 362.566406 82.203125 C 362.625 81.757812 362.636719 81.3125 362.601562 80.867188 C 362.648438 77.304688 362.617188 73.742188 362.613281 70.175781 C 362.613281 64.472656 360.46875 62.347656 354.722656 62.347656 L 99.9375 62.347656 Z M 324.953125 100.050781 L 162.464844 100.050781 L 162.464844 112.441406 L 324.953125 112.441406 Z M 37.328125 87.539062 L 37.328125 62.390625 C 30.675781 62.390625 24.183594 62.257812 17.703125 62.449219 C 17.332031 62.480469 16.964844 62.542969 16.609375 62.640625 C 16.25 62.738281 15.902344 62.871094 15.570312 63.035156 C 15.234375 63.199219 14.917969 63.394531 14.621094 63.617188 C 14.324219 63.84375 14.050781 64.09375 13.804688 64.367188 C 13.554688 64.644531 13.332031 64.941406 13.140625 65.261719 C 12.949219 65.582031 12.789062 65.914062 12.660156 66.261719 C 12.53125 66.613281 12.433594 66.96875 12.375 67.339844 C 12.3125 67.707031 12.289062 68.074219 12.296875 68.445312 C 12.203125 72.785156 12.203125 77.125 12.296875 81.464844 C 12.285156 81.839844 12.308594 82.207031 12.367188 82.578125 C 12.425781 82.945312 12.519531 83.304688 12.648438 83.652344 C 12.773438 84.003906 12.933594 84.339844 13.125 84.65625 C 13.316406 84.976562 13.539062 85.277344 13.785156 85.554688 C 14.035156 85.832031 14.308594 86.082031 14.605469 86.308594 C 14.902344 86.53125 15.214844 86.726562 15.550781 86.894531 C 15.882812 87.058594 16.230469 87.1875 16.589844 87.289062 C 16.949219 87.386719 17.3125 87.449219 17.683594 87.480469 C 24.167969 87.679688 30.660156 87.539062 37.328125 87.539062 Z M 37.328125 87.539062 " fill-opacity="1" fill-rule="nonzero"/></g><path fill="#000000" d="M 218.8125 269.011719 L 218.8125 232.894531 C 218.8125 231.851562 218.777344 230.808594 218.824219 229.765625 C 218.8125 229.054688 218.871094 228.351562 219 227.648438 C 219.128906 226.949219 219.324219 226.273438 219.589844 225.613281 C 219.855469 224.953125 220.1875 224.328125 220.578125 223.734375 C 220.972656 223.140625 221.417969 222.59375 221.921875 222.089844 C 222.425781 221.589844 222.972656 221.140625 223.566406 220.75 C 224.160156 220.359375 224.785156 220.03125 225.445312 219.765625 C 226.105469 219.5 226.785156 219.304688 227.484375 219.175781 C 228.183594 219.046875 228.886719 218.992188 229.597656 219.007812 C 238.972656 218.863281 248.347656 218.863281 257.722656 219.007812 C 264.339844 219.101562 268.558594 223.632812 268.589844 230.460938 C 268.640625 242.269531 268.605469 254.082031 268.605469 265.894531 L 268.605469 268.847656 C 269.429688 268.914062 270.011719 269.003906 270.59375 269.007812 C 278.230469 269.007812 285.871094 269.03125 293.511719 269.007812 C 297.875 268.988281 300.078125 266.785156 300.085938 262.402344 C 300.109375 250.675781 300.109375 238.953125 300.085938 227.226562 C 300.085938 226.535156 300.050781 225.832031 300.101562 225.140625 C 300.113281 224.738281 300.160156 224.339844 300.25 223.945312 C 300.335938 223.550781 300.460938 223.171875 300.621094 222.800781 C 300.78125 222.429688 300.972656 222.078125 301.199219 221.746094 C 301.429688 221.414062 301.683594 221.105469 301.972656 220.820312 C 302.257812 220.535156 302.566406 220.28125 302.902344 220.058594 C 303.238281 219.832031 303.589844 219.640625 303.960938 219.484375 C 304.332031 219.324219 304.714844 219.207031 305.109375 219.121094 C 305.503906 219.035156 305.902344 218.988281 306.304688 218.980469 C 306.699219 218.988281 307.085938 219.035156 307.472656 219.117188 C 307.859375 219.199219 308.230469 219.316406 308.59375 219.472656 C 308.957031 219.628906 309.300781 219.816406 309.625 220.035156 C 309.953125 220.257812 310.253906 220.507812 310.53125 220.789062 C 310.808594 221.066406 311.058594 221.371094 311.277344 221.699219 C 311.496094 222.027344 311.683594 222.371094 311.835938 222.734375 C 311.988281 223.097656 312.105469 223.472656 312.183594 223.859375 C 312.265625 224.246094 312.308594 224.636719 312.3125 225.027344 C 312.402344 238.054688 312.65625 251.097656 312.207031 264.109375 C 311.863281 274.121094 303.867188 281.1875 293.769531 281.277344 C 283.699219 281.371094 273.628906 281.316406 263.558594 281.292969 C 258.792969 281.285156 256.332031 278.832031 256.320312 274.070312 C 256.304688 260.953125 256.304688 247.839844 256.320312 234.722656 L 256.320312 231.445312 L 231.101562 231.445312 L 231.101562 234.378906 C 231.101562 247.492188 231.101562 260.609375 231.101562 273.726562 C 231.101562 278.972656 228.738281 281.296875 223.429688 281.300781 C 213.792969 281.308594 204.160156 281.308594 194.523438 281.300781 C 182.839844 281.273438 175.089844 273.542969 175.0625 261.859375 C 175.039062 249.875 175.042969 237.890625 175.074219 225.902344 C 175.09375 220.4375 179.863281 217.363281 184.25 219.914062 C 184.773438 220.230469 185.242188 220.613281 185.65625 221.0625 C 186.074219 221.511719 186.417969 222.011719 186.691406 222.558594 C 186.96875 223.105469 187.160156 223.679688 187.273438 224.28125 C 187.382812 224.882812 187.410156 225.492188 187.351562 226.101562 C 187.339844 237.914062 187.339844 249.726562 187.351562 261.539062 C 187.351562 267.117188 189.265625 269.015625 194.882812 269.019531 C 201.824219 269.019531 208.769531 269.019531 215.714844 269.019531 Z M 218.8125 269.011719 " fill-opacity="1" fill-rule="nonzero"/><path fill="#000000" d="M 274.925781 163.769531 C 275 162.445312 275.046875 161.699219 275.085938 160.941406 C 275.078125 160.230469 275.140625 159.527344 275.273438 158.828125 C 275.40625 158.128906 275.605469 157.453125 275.875 156.792969 C 276.144531 156.136719 276.476562 155.511719 276.867188 154.921875 C 277.261719 154.328125 277.710938 153.78125 278.214844 153.28125 C 278.71875 152.777344 279.265625 152.332031 279.859375 151.941406 C 280.453125 151.550781 281.078125 151.21875 281.734375 150.953125 C 282.394531 150.6875 283.074219 150.492188 283.769531 150.359375 C 284.46875 150.230469 285.171875 150.171875 285.882812 150.183594 C 291.089844 150.046875 296.296875 150.046875 301.507812 150.183594 C 308.117188 150.355469 312.320312 154.839844 312.355469 161.664062 C 312.40625 171.566406 312.402344 181.46875 312.335938 191.371094 C 312.285156 192.105469 312.417969 192.804688 312.738281 193.464844 C 313.058594 194.125 313.523438 194.664062 314.128906 195.078125 C 320.90625 200.367188 327.589844 205.769531 334.316406 211.117188 C 336.417969 212.789062 337.8125 214.816406 337.179688 217.621094 C 336.070312 222.539062 331.019531 224.054688 326.796875 220.707031 C 316.660156 212.671875 306.550781 204.609375 296.46875 196.515625 C 280.519531 183.792969 264.570312 171.078125 248.617188 158.367188 C 244.769531 155.296875 242.613281 155.335938 238.675781 158.476562 C 212.886719 179.042969 187.09375 199.601562 161.296875 220.15625 C 160.179688 221.128906 158.921875 221.851562 157.519531 222.320312 C 156.863281 222.5 156.195312 222.5625 155.515625 222.507812 C 154.835938 222.449219 154.191406 222.273438 153.574219 221.988281 C 152.957031 221.699219 152.40625 221.3125 151.929688 220.824219 C 151.449219 220.339844 151.066406 219.789062 150.785156 219.167969 C 150.613281 218.851562 150.472656 218.519531 150.363281 218.175781 C 150.253906 217.832031 150.175781 217.480469 150.132812 217.125 C 150.085938 216.765625 150.074219 216.40625 150.09375 216.046875 C 150.117188 215.6875 150.171875 215.332031 150.257812 214.980469 C 150.34375 214.628906 150.460938 214.289062 150.613281 213.960938 C 150.761719 213.632812 150.941406 213.320312 151.148438 213.027344 C 151.355469 212.730469 151.585938 212.457031 151.84375 212.207031 C 152.101562 211.953125 152.382812 211.726562 152.679688 211.527344 C 160.726562 205.046875 168.820312 198.625 176.894531 192.1875 L 231.253906 148.832031 C 239.476562 142.28125 247.949219 142.253906 256.160156 148.789062 C 262.246094 153.648438 268.34375 158.519531 274.925781 163.769531 Z M 287.363281 162.542969 C 287.363281 166.035156 287.339844 169.234375 287.386719 172.433594 C 287.355469 173.046875 287.535156 173.589844 287.925781 174.066406 C 291.773438 177.222656 295.679688 180.304688 299.859375 183.636719 L 299.859375 162.542969 Z M 287.363281 162.542969 " fill-opacity="1" fill-rule="nonzero"/><path fill="#000000" d="M 77.878906 74.9375 C 77.878906 75.542969 77.824219 76.148438 77.707031 76.742188 C 77.589844 77.339844 77.414062 77.921875 77.183594 78.484375 C 76.953125 79.046875 76.667969 79.578125 76.332031 80.085938 C 75.992188 80.59375 75.609375 81.0625 75.179688 81.492188 C 74.75 81.921875 74.285156 82.304688 73.777344 82.644531 C 73.273438 82.984375 72.738281 83.269531 72.175781 83.5 C 71.617188 83.734375 71.035156 83.910156 70.441406 84.027344 C 69.84375 84.144531 69.242188 84.203125 68.632812 84.203125 C 68.027344 84.203125 67.421875 84.140625 66.828125 84.023438 C 66.230469 83.902344 65.652344 83.726562 65.09375 83.492188 C 64.53125 83.257812 63.996094 82.96875 63.492188 82.632812 C 62.988281 82.292969 62.523438 81.90625 62.09375 81.472656 C 61.664062 81.042969 61.285156 80.574219 60.949219 80.066406 C 60.613281 79.558594 60.328125 79.023438 60.101562 78.460938 C 59.871094 77.898438 59.695312 77.316406 59.582031 76.71875 C 59.464844 76.121094 59.410156 75.519531 59.414062 74.910156 C 59.417969 74.300781 59.480469 73.699219 59.601562 73.105469 C 59.726562 72.507812 59.90625 71.929688 60.140625 71.371094 C 60.378906 70.808594 60.667969 70.277344 61.011719 69.773438 C 61.351562 69.273438 61.738281 68.808594 62.171875 68.378906 C 62.605469 67.953125 63.078125 67.574219 63.585938 67.242188 C 64.09375 66.90625 64.628906 66.625 65.195312 66.398438 C 65.757812 66.171875 66.339844 66 66.9375 65.890625 C 67.535156 65.777344 68.136719 65.722656 68.746094 65.730469 C 69.339844 65.75 69.929688 65.824219 70.515625 65.953125 C 71.097656 66.085938 71.660156 66.269531 72.210938 66.507812 C 72.757812 66.746094 73.277344 67.035156 73.769531 67.371094 C 74.265625 67.710938 74.722656 68.089844 75.140625 68.515625 C 75.5625 68.9375 75.941406 69.398438 76.273438 69.894531 C 76.605469 70.390625 76.890625 70.914062 77.125 71.460938 C 77.359375 72.011719 77.539062 72.578125 77.667969 73.164062 C 77.792969 73.746094 77.863281 74.339844 77.878906 74.9375 Z M 71.863281 74.746094 C 71.855469 74.351562 71.769531 73.96875 71.613281 73.601562 C 71.453125 73.238281 71.230469 72.917969 70.949219 72.636719 C 70.664062 72.359375 70.339844 72.144531 69.96875 71.992188 C 69.601562 71.839844 69.21875 71.765625 68.820312 71.761719 C 68.605469 71.742188 68.390625 71.746094 68.171875 71.773438 C 67.957031 71.800781 67.746094 71.847656 67.539062 71.917969 C 67.335938 71.988281 67.136719 72.082031 66.953125 72.191406 C 66.765625 72.304688 66.59375 72.433594 66.433594 72.582031 C 66.273438 72.730469 66.132812 72.894531 66.007812 73.074219 C 65.882812 73.25 65.777344 73.441406 65.691406 73.640625 C 65.605469 73.839844 65.542969 74.046875 65.503906 74.261719 C 65.460938 74.476562 65.441406 74.691406 65.445312 74.910156 C 65.414062 75.328125 65.46875 75.738281 65.609375 76.132812 C 65.75 76.53125 65.960938 76.882812 66.25 77.191406 C 66.535156 77.5 66.871094 77.738281 67.257812 77.90625 C 67.644531 78.074219 68.046875 78.160156 68.464844 78.160156 C 68.695312 78.175781 68.921875 78.164062 69.144531 78.128906 C 69.371094 78.09375 69.589844 78.039062 69.800781 77.957031 C 70.015625 77.875 70.21875 77.773438 70.40625 77.648438 C 70.597656 77.527344 70.773438 77.382812 70.9375 77.222656 C 71.097656 77.058594 71.238281 76.882812 71.359375 76.691406 C 71.484375 76.5 71.585938 76.296875 71.664062 76.085938 C 71.746094 75.871094 71.800781 75.652344 71.835938 75.425781 C 71.871094 75.203125 71.878906 74.976562 71.863281 74.746094 Z M 71.863281 74.746094 " fill-opacity="1" fill-rule="nonzero"/></svg>