<svg xmlns="http://www.w3.org/2000/svg" xmlns:xlink="http://www.w3.org/1999/xlink" width="500" zoomAndPan="magnify" viewBox="0 0 375 374.999991" height="500" preserveAspectRatio="xMidYMid meet" version="1.0"><defs><clipPath id="dd5110c3a2"><path d="M 8.542969 78 L 366.292969 78 L 366.292969 198 L 8.542969 198 Z M 8.542969 78 " clip-rule="nonzero"/></clipPath><clipPath id="803c58c5d2"><path d="M 10 24.648438 L 365 24.648438 L 365 163 L 10 163 Z M 10 24.648438 " clip-rule="nonzero"/></clipPath></defs><g clip-path="url(#dd5110c3a2)"><path fill="#000000" d="M 366.292969 84.488281 C 366.292969 82.597656 366.222656 80.742188 366.09375 78.921875 C 356.328125 102.316406 335.039062 123.46875 304.910156 139.367188 C 269.867188 157.863281 225.015625 168.046875 178.621094 168.046875 C 141.21875 168.046875 105.429688 162.210938 75.128906 151.167969 C 46.949219 140.894531 24.070312 126.3125 8.542969 108.796875 L 8.542969 125.039062 C 8.542969 131.90625 11.191406 138.4375 16 143.429688 C 48.542969 177.203125 109.335938 197.367188 178.621094 197.367188 C 282.101562 197.367188 366.292969 146.730469 366.292969 84.488281 Z M 366.292969 84.488281 " fill-opacity="1" fill-rule="nonzero"/></g><g clip-path="url(#803c58c5d2)"><path fill="#000000" d="M 178.621094 162.183594 C 224.078125 162.183594 267.957031 152.238281 302.171875 134.183594 C 335.453125 116.617188 357.410156 92.609375 364.09375 66.519531 C 358.214844 43.882812 340.765625 28.761719 314.953125 24.925781 C 314.003906 24.785156 313.054688 24.714844 312.109375 24.714844 C 310.492188 24.714844 308.886719 24.917969 307.3125 25.328125 L 11.835938 102.027344 C 11.46875 102.121094 11.132812 102.273438 10.8125 102.453125 C 41.496094 139.347656 105.476562 162.183594 178.621094 162.183594 Z M 178.621094 162.183594 " fill-opacity="1" fill-rule="nonzero"/></g><path fill="#000000" d="M 330.007812 174.710938 C 323.867188 180.546875 316.78125 185.984375 308.820312 190.972656 C 306.175781 213.839844 307.089844 251.855469 318.304688 285.207031 C 319.082031 287.511719 320.574219 289.277344 322.40625 290.054688 C 323.765625 290.632812 325.207031 290.59375 326.574219 289.945312 C 329.441406 288.585938 330.925781 284.882812 330.105469 281.144531 C 321.15625 240.328125 321.136719 204.609375 330.007812 174.710938 Z M 330.007812 174.710938 " fill-opacity="1" fill-rule="nonzero"/><path fill="#000000" d="M 178.621094 203.230469 C 122.761719 203.230469 72.175781 190.277344 36.789062 167.691406 C 37.261719 176.261719 39.773438 183.785156 42.617188 192.261719 C 50.488281 215.746094 61.273438 247.910156 40.550781 332.914062 C 39.613281 336.761719 41.585938 340.691406 45.242188 342.257812 C 47.382812 343.175781 49.8125 343.128906 51.917969 342.128906 C 54.027344 341.128906 55.605469 339.269531 56.25 337.023438 C 70.203125 288.476562 74.480469 245.453125 68.964844 209.144531 C 68.613281 206.8125 69.484375 204.527344 71.304688 203.03125 C 73.105469 201.546875 75.492188 201.132812 77.6875 201.917969 C 106.863281 212.367188 140.824219 217.890625 175.902344 217.890625 C 191.824219 217.890625 207.496094 216.765625 222.488281 214.542969 C 224.546875 214.242188 226.570312 214.894531 228.054688 216.34375 C 229.535156 217.785156 230.242188 219.785156 229.996094 221.835938 C 225.761719 256.964844 230.304688 298.050781 243.5 343.960938 C 244.140625 346.191406 245.714844 348.042969 247.816406 349.039062 C 249.925781 350.039062 252.363281 350.082031 254.511719 349.160156 C 258.097656 347.617188 260.066406 343.433594 259.09375 339.425781 C 240.597656 263.394531 256.226562 229.457031 272.324219 203.613281 C 273.078125 202.40625 274.1875 201.488281 275.53125 200.964844 C 309.34375 187.8125 333.316406 168.511719 344.699219 145.664062 C 336.488281 154.035156 326.527344 161.832031 314.921875 168.882812 C 278.46875 191.03125 230.0625 203.230469 178.621094 203.230469 Z M 178.621094 203.230469 " fill-opacity="1" fill-rule="nonzero"/></svg>