<svg xmlns="http://www.w3.org/2000/svg" xmlns:xlink="http://www.w3.org/1999/xlink" width="500" zoomAndPan="magnify" viewBox="0 0 375 374.999991" height="500" preserveAspectRatio="xMidYMid meet" version="1.0"><defs><clipPath id="2bbab59bea"><path d="M 15.769531 16 L 359 16 L 359 359.269531 L 15.769531 359.269531 Z M 15.769531 16 " clip-rule="nonzero"/></clipPath></defs><g clip-path="url(#2bbab59bea)"><path fill="#000000" d="M 18.371094 359.214844 C 85.355469 360.222656 287.128906 359.226562 354.277344 359.5625 C 354.582031 359.558594 354.886719 359.527344 355.1875 359.46875 C 355.484375 359.40625 355.777344 359.316406 356.058594 359.199219 C 356.34375 359.078125 356.613281 358.933594 356.867188 358.765625 C 357.121094 358.59375 357.355469 358.398438 357.574219 358.183594 C 357.789062 357.964844 357.984375 357.730469 358.152344 357.476562 C 358.324219 357.222656 358.46875 356.953125 358.585938 356.671875 C 358.707031 356.386719 358.796875 356.097656 358.855469 355.796875 C 358.917969 355.496094 358.949219 355.191406 358.953125 354.886719 L 358.953125 20.757812 C 358.945312 20.316406 358.875 19.882812 358.746094 19.460938 C 358.617188 19.039062 358.433594 18.644531 358.191406 18.273438 C 357.953125 17.902344 357.664062 17.570312 357.332031 17.28125 C 357 16.992188 356.632812 16.753906 356.234375 16.566406 C 355.832031 16.378906 355.414062 16.25 354.976562 16.183594 C 354.542969 16.113281 354.105469 16.105469 353.667969 16.160156 C 353.226562 16.210938 352.804688 16.324219 352.398438 16.496094 C 351.992188 16.667969 351.617188 16.894531 351.273438 17.171875 L 254.597656 97.984375 L 119.816406 97.984375 L 23.144531 17.171875 C 22.800781 16.886719 22.425781 16.652344 22.019531 16.476562 C 21.613281 16.296875 21.1875 16.179688 20.75 16.121094 C 20.308594 16.0625 19.867188 16.070312 19.425781 16.136719 C 18.988281 16.203125 18.566406 16.332031 18.164062 16.519531 C 17.761719 16.710938 17.394531 16.949219 17.058594 17.242188 C 16.722656 17.535156 16.4375 17.871094 16.199219 18.246094 C 15.960938 18.621094 15.777344 19.023438 15.65625 19.449219 C 15.53125 19.875 15.46875 20.3125 15.46875 20.757812 L 15.46875 354.886719 C 15.46875 355.351562 15.535156 355.804688 15.671875 356.246094 C 15.808594 356.691406 16.003906 357.105469 16.261719 357.492188 C 16.519531 357.875 16.832031 358.214844 17.191406 358.507812 C 17.550781 358.804688 17.945312 359.039062 18.371094 359.214844 Z M 87.320312 280.011719 L 55.488281 312.335938 L 55.488281 164.3125 L 87.320312 174.414062 Z M 95.765625 284.765625 C 97.035156 284.789062 96.597656 284.847656 96.671875 283.84375 L 120.078125 260.078125 C 157.636719 260.078125 216.78125 260.078125 254.339844 260.078125 L 343.109375 350.210938 L 311.171875 350.210938 L 251.054688 272.144531 C 250.609375 271.570312 250.0625 271.125 249.414062 270.804688 C 248.765625 270.484375 248.078125 270.324219 247.351562 270.324219 L 127.316406 270.324219 C 126.589844 270.324219 125.902344 270.484375 125.25 270.804688 C 124.601562 271.125 124.054688 271.570312 123.609375 272.144531 L 63.496094 350.210938 L 31.3125 350.210938 Z M 251.621094 250.726562 L 225.277344 250.726562 L 225.277344 147.246094 C 225.277344 146.941406 225.246094 146.636719 225.1875 146.335938 C 225.125 146.035156 225.039062 145.742188 224.921875 145.457031 C 224.804688 145.175781 224.660156 144.90625 224.488281 144.652344 C 224.316406 144.394531 224.125 144.160156 223.90625 143.941406 C 223.691406 143.726562 223.453125 143.53125 223.199219 143.359375 C 222.941406 143.191406 222.675781 143.046875 222.390625 142.929688 C 222.105469 142.8125 221.8125 142.722656 221.511719 142.664062 C 221.210938 142.601562 220.90625 142.574219 220.601562 142.570312 L 153.902344 142.570312 C 153.59375 142.574219 153.289062 142.601562 152.988281 142.664062 C 152.6875 142.722656 152.394531 142.8125 152.113281 142.929688 C 151.828125 143.046875 151.558594 143.191406 151.304688 143.359375 C 151.046875 143.53125 150.8125 143.726562 150.59375 143.941406 C 150.378906 144.160156 150.183594 144.394531 150.015625 144.652344 C 149.84375 144.90625 149.699219 145.175781 149.582031 145.457031 C 149.464844 145.742188 149.375 146.035156 149.316406 146.335938 C 149.253906 146.636719 149.226562 146.941406 149.226562 147.246094 L 149.226562 250.726562 L 122.796875 250.726562 L 122.796875 107.335938 L 251.621094 107.335938 Z M 215.925781 250.726562 L 158.578125 250.726562 L 158.578125 151.921875 L 215.925781 151.921875 Z M 321.199219 314.640625 L 289.371094 282.320312 L 289.371094 174.414062 L 321.199219 164.3125 Z M 75.300781 350.210938 L 129.617188 279.675781 L 245.050781 279.675781 L 299.371094 350.210938 Z M 260.96875 104.84375 L 294.742188 76.617188 L 349.601562 30.761719 L 349.601562 343.476562 L 330.167969 323.746094 C 331.25 324.570312 330.191406 157.882812 330.550781 157.925781 C 330.546875 157.558594 330.5 157.199219 330.414062 156.84375 C 330.328125 156.488281 330.199219 156.148438 330.03125 155.820312 C 329.863281 155.496094 329.660156 155.195312 329.421875 154.914062 C 329.1875 154.636719 328.917969 154.390625 328.625 154.171875 C 328.328125 153.957031 328.011719 153.777344 327.675781 153.632812 C 327.335938 153.492188 326.988281 153.390625 326.625 153.328125 C 326.265625 153.269531 325.902344 153.25 325.535156 153.273438 C 325.171875 153.296875 324.8125 153.363281 324.460938 153.46875 L 283.28125 166.535156 C 282.808594 166.683594 282.371094 166.90625 281.96875 167.195312 C 281.566406 167.484375 281.214844 167.828125 280.921875 168.230469 C 280.628906 168.628906 280.40625 169.066406 280.25 169.539062 C 280.097656 170.011719 280.019531 170.496094 280.019531 170.992188 L 280.019531 272.824219 L 260.96875 253.484375 Z M 24.820312 30.761719 L 113.445312 104.84375 L 113.445312 253.484375 L 96.671875 270.519531 L 96.671875 170.992188 C 96.671875 170.496094 96.59375 170.011719 96.441406 169.539062 C 96.285156 169.066406 96.0625 168.628906 95.769531 168.230469 C 95.476562 167.828125 95.125 167.484375 94.722656 167.195312 C 94.320312 166.902344 93.878906 166.683594 93.40625 166.535156 L 52.222656 153.46875 C 51.875 153.363281 51.515625 153.296875 51.152344 153.273438 C 50.785156 153.25 50.421875 153.269531 50.0625 153.328125 C 49.699219 153.390625 49.351562 153.492188 49.011719 153.632812 C 48.675781 153.777344 48.359375 153.957031 48.0625 154.171875 C 47.769531 154.386719 47.5 154.636719 47.261719 154.914062 C 47.027344 155.191406 46.824219 155.496094 46.65625 155.820312 C 46.488281 156.148438 46.359375 156.488281 46.273438 156.84375 C 46.1875 157.199219 46.140625 157.558594 46.136719 157.925781 L 46.136719 321.832031 L 24.820312 343.476562 Z M 24.820312 30.761719 " fill-opacity="1" fill-rule="nonzero"/></g><path fill="#000000" d="M 176.15625 166.316406 L 198.511719 166.316406 L 198.511719 175.667969 L 176.15625 175.667969 Z M 176.15625 166.316406 " fill-opacity="1" fill-rule="nonzero"/><path fill="#000000" d="M 143.464844 57.1875 C 143.640625 82.941406 231.027344 82.941406 231.199219 57.1875 C 231.027344 31.425781 143.640625 31.425781 143.464844 57.1875 Z M 221.847656 57.1875 C 221.847656 60.183594 210.105469 67.207031 187.332031 67.207031 C 164.5625 67.207031 152.816406 60.183594 152.816406 57.1875 C 152.816406 54.1875 164.5625 47.160156 187.332031 47.160156 C 210.105469 47.160156 221.847656 54.1875 221.847656 57.1875 Z M 221.847656 57.1875 " fill-opacity="1" fill-rule="nonzero"/></svg>