<svg xmlns="http://www.w3.org/2000/svg" xmlns:xlink="http://www.w3.org/1999/xlink" width="500" zoomAndPan="magnify" viewBox="0 0 375 374.999991" height="500" preserveAspectRatio="xMidYMid meet" version="1.0"><defs><clipPath id="4e061c4884"><path d="M 11.589844 0.125 L 363.339844 0.125 L 363.339844 374.90625 L 11.589844 374.90625 Z M 11.589844 0.125 " clip-rule="nonzero"/></clipPath><clipPath id="8e467c8db8"><path d="M 90.660156 90.660156 L 284.160156 90.660156 L 284.160156 284.160156 L 90.660156 284.160156 Z M 90.660156 90.660156 " clip-rule="nonzero"/></clipPath></defs><path fill="#f69c04" d="M 174.621094 35.261719 L 216.441406 24.058594 L 210.839844 14.351562 Z M 164.148438 360.605469 L 200.390625 339.679688 L 158.539062 350.898438 Z M 310.378906 186.773438 L 331.136719 264.199219 L 349.097656 253.832031 Z M 25.894531 121.136719 L 64.613281 188.210938 L 43.863281 110.757812 L 25.894531 121.136719 " fill-opacity="1" fill-rule="nonzero"/><path fill="#d9d9d9" d="M 322.003906 276.875 L 306.363281 218.511719 L 306.363281 298.75 L 326.425781 293.382812 Z M 229.324219 33.128906 L 214.394531 37.132812 L 257.757812 37.132812 L 254.851562 26.289062 Z M 53.257812 99.070312 L 68.628906 156.433594 L 68.628906 76.191406 L 48.566406 81.566406 Z M 120.140625 348.667969 L 147.210938 341.410156 L 160.585938 337.828125 L 117.234375 337.828125 L 120.140625 348.667969 " fill-opacity="1" fill-rule="nonzero"/><path fill="#ffffff" d="M 80.71875 49.21875 L 80.71875 325.734375 L 294.273438 325.734375 L 294.273438 49.21875 L 80.71875 49.21875 " fill-opacity="1" fill-rule="nonzero"/><g clip-path="url(#4e061c4884)"><path fill="#000000" d="M 331.136719 264.199219 L 310.378906 186.773438 L 349.097656 253.832031 Z M 326.425781 293.382812 L 306.363281 298.75 L 306.363281 218.511719 L 322.003906 276.875 Z M 174.621094 35.261719 L 210.839844 14.351562 L 216.441406 24.058594 Z M 254.851562 26.289062 L 257.757812 37.132812 L 214.394531 37.132812 L 229.324219 33.128906 Z M 43.863281 110.757812 L 64.613281 188.210938 L 25.894531 121.136719 Z M 48.566406 81.566406 L 68.628906 76.191406 L 68.628906 156.433594 L 53.257812 99.070312 Z M 200.390625 339.679688 L 164.148438 360.605469 L 158.539062 350.898438 Z M 120.140625 348.667969 L 117.234375 337.828125 L 160.585938 337.828125 L 147.210938 341.410156 Z M 294.273438 325.734375 L 80.71875 325.734375 L 80.71875 49.21875 L 294.273438 49.21875 Z M 362.582031 253.015625 L 306.363281 155.644531 L 306.363281 43.175781 C 306.363281 39.835938 303.65625 37.132812 300.3125 37.132812 L 270.285156 37.132812 L 264.972656 17.316406 C 264.09375 14.105469 260.8125 12.261719 257.554688 13.042969 L 228.53125 20.824219 L 218.277344 3.074219 C 216.984375 0.582031 213.589844 -0.828125 210.027344 0.867188 L 147.214844 37.132812 L 74.671875 37.132812 C 71.335938 37.132812 68.628906 39.835938 68.628906 43.175781 L 68.628906 63.664062 L 39.59375 71.445312 C 37.433594 71.921875 34.382812 74.589844 35.316406 78.859375 L 40.632812 98.675781 L 14.613281 113.699219 C 11.726562 115.367188 10.726562 119.058594 12.40625 121.953125 L 68.628906 219.328125 L 68.628906 331.78125 C 68.628906 335.125 71.335938 337.828125 74.671875 337.828125 L 104.703125 337.828125 L 110.019531 357.640625 C 110.675781 360.101562 113.234375 362.847656 117.433594 361.921875 L 146.457031 354.132812 L 156.710938 371.882812 C 157.820312 373.820312 159.863281 374.90625 161.941406 374.90625 C 162.96875 374.90625 164.007812 374.644531 164.964844 374.097656 L 227.773438 337.828125 L 300.316406 337.828125 C 303.65625 337.828125 306.363281 335.125 306.363281 331.78125 L 306.363281 311.28125 L 335.402344 303.5 C 338.625 302.628906 340.539062 299.316406 339.675781 296.082031 L 334.371094 276.289062 L 360.375 261.269531 C 363.269531 259.605469 364.261719 255.90625 362.582031 253.015625 " fill-opacity="1" fill-rule="nonzero"/></g><path fill="#000000" d="M 125.695312 132.453125 C 118.253906 132.453125 112.199219 138.503906 112.199219 145.949219 C 112.199219 153.390625 118.253906 159.441406 125.695312 159.441406 C 133.140625 159.441406 139.191406 153.390625 139.191406 145.949219 C 139.191406 138.503906 133.140625 132.453125 125.695312 132.453125 Z M 125.695312 156.371094 C 119.949219 156.371094 115.273438 151.695312 115.273438 145.949219 C 115.273438 140.199219 119.949219 135.523438 125.695312 135.523438 C 131.445312 135.523438 136.121094 140.199219 136.121094 145.949219 C 136.121094 151.695312 131.445312 156.371094 125.695312 156.371094 Z M 125.695312 156.371094 " fill-opacity="1" fill-rule="nonzero"/><path fill="#000000" d="M 125.695312 213.730469 C 118.253906 213.730469 112.199219 219.78125 112.199219 227.226562 C 112.199219 234.667969 118.253906 240.722656 125.695312 240.722656 C 133.140625 240.722656 139.191406 234.667969 139.191406 227.226562 C 139.195312 219.78125 133.140625 213.730469 125.695312 213.730469 Z M 125.695312 237.652344 C 119.949219 237.652344 115.273438 232.976562 115.273438 227.226562 C 115.273438 221.476562 119.949219 216.800781 125.695312 216.800781 C 131.445312 216.800781 136.121094 221.476562 136.121094 227.226562 C 136.121094 232.976562 131.445312 237.652344 125.695312 237.652344 Z M 125.695312 237.652344 " fill-opacity="1" fill-rule="nonzero"/><path fill="#000000" d="M 126.992188 139.671875 C 126.46875 139.410156 125.839844 139.480469 125.375 139.835938 L 121.328125 142.96875 C 120.660156 143.488281 120.535156 144.453125 121.054688 145.121094 C 121.574219 145.792969 122.539062 145.914062 123.210938 145.398438 L 124.777344 144.179688 L 124.777344 150.84375 C 124.777344 151.695312 125.464844 152.378906 126.316406 152.378906 C 127.164062 152.378906 127.851562 151.695312 127.851562 150.84375 L 127.851562 141.050781 C 127.851562 140.464844 127.519531 139.929688 126.992188 139.671875 Z M 126.992188 139.671875 " fill-opacity="1" fill-rule="nonzero"/><path fill="#000000" d="M 125.695312 218.964844 C 123.105469 218.964844 121 221.070312 121 223.664062 C 121 224.511719 121.683594 225.199219 122.535156 225.199219 C 123.382812 225.199219 124.070312 224.511719 124.070312 223.664062 C 124.070312 222.765625 124.800781 222.035156 125.695312 222.035156 C 126.59375 222.035156 127.324219 222.765625 127.324219 223.664062 C 127.324219 225.039062 125.457031 226.953125 123.652344 228.804688 C 122.882812 229.59375 122.097656 230.398438 121.375 231.230469 C 120.980469 231.683594 120.890625 232.328125 121.136719 232.875 C 121.386719 233.421875 121.933594 233.773438 122.535156 233.773438 L 128.859375 233.773438 C 129.707031 233.773438 130.394531 233.085938 130.394531 232.234375 C 130.394531 231.386719 129.707031 230.699219 128.859375 230.699219 L 126.09375 230.699219 C 128.335938 228.394531 130.394531 226.195312 130.394531 223.664062 C 130.394531 221.070312 128.289062 218.964844 125.695312 218.964844 Z M 125.695312 218.964844 " fill-opacity="1" fill-rule="nonzero"/><g clip-path="url(#8e467c8db8)"><path fill="#000000" d="M 282.625 242.699219 L 171.988281 242.699219 C 168.109375 240.214844 164.351562 237.53125 160.734375 234.628906 L 160.734375 206.328125 C 175.328125 204.902344 189.085938 201.230469 201.238281 195.648438 L 201.238281 228.429688 C 201.238281 229.28125 201.925781 229.964844 202.773438 229.964844 L 227.800781 229.964844 L 227.800781 232.761719 C 227.800781 235.5 229.832031 237.839844 232.523438 238.203125 C 239.503906 239.144531 246.542969 239.617188 253.589844 239.617188 C 260.703125 239.617188 267.824219 239.136719 274.90625 238.175781 C 277.488281 237.824219 279.46875 235.664062 279.617188 233.039062 L 281.789062 194.207031 C 281.886719 192.429688 281.179688 190.730469 279.847656 189.546875 L 278.378906 188.242188 C 277.796875 187.722656 277.464844 186.980469 277.464844 186.199219 L 277.464844 179.242188 C 277.464844 178.070312 277.9375 176.925781 278.765625 176.101562 L 280.148438 174.71875 C 281.566406 173.296875 282.347656 171.414062 282.347656 169.402344 L 282.347656 142.316406 C 282.347656 139.082031 279.730469 136.386719 276.511719 136.304688 C 260.304688 135.910156 243.519531 136.519531 226.617188 138.117188 C 223.519531 138.410156 221.1875 140.980469 221.1875 144.101562 L 221.1875 145.199219 L 202.773438 145.199219 C 201.925781 145.199219 201.238281 145.882812 201.238281 146.734375 L 201.238281 151.886719 C 186.941406 149.644531 173.417969 145.695312 160.734375 140.011719 L 160.734375 125.8125 C 178.496094 124.839844 194.820312 120.855469 209.558594 113.902344 L 209.558594 129.785156 C 209.558594 130.636719 210.246094 131.324219 211.09375 131.324219 L 271.226562 131.324219 C 272.078125 131.324219 272.761719 130.636719 272.761719 129.785156 L 272.761719 92.199219 C 272.761719 91.347656 272.078125 90.660156 271.226562 90.660156 L 211.09375 90.660156 C 210.246094 90.660156 209.558594 91.347656 209.558594 92.199219 L 209.558594 110.488281 C 194.746094 117.757812 178.582031 121.851562 160.734375 122.800781 L 160.734375 113.039062 C 160.734375 112.1875 160.046875 111.503906 159.199219 111.503906 L 92.199219 111.503906 C 91.347656 111.503906 90.660156 112.1875 90.660156 113.039062 L 90.660156 187.410156 C 90.660156 188.261719 91.347656 188.949219 92.199219 188.949219 L 159.199219 188.949219 C 160.046875 188.949219 160.734375 188.261719 160.734375 187.410156 L 160.734375 143.351562 C 173.449219 148.921875 186.957031 152.832031 201.238281 155.023438 L 201.238281 192.285156 C 189.171875 198.015625 175.394531 201.785156 160.734375 203.242188 L 160.734375 194.316406 C 160.734375 193.464844 160.046875 192.777344 159.199219 192.777344 L 92.199219 192.777344 C 91.347656 192.777344 90.660156 193.464844 90.660156 194.316406 L 90.660156 268.6875 C 90.660156 269.539062 91.347656 270.226562 92.199219 270.226562 L 159.199219 270.226562 C 160.046875 270.226562 160.734375 269.539062 160.734375 268.6875 L 160.734375 238.523438 C 162.695312 240.039062 164.683594 241.511719 166.71875 242.90625 C 166.246094 243.171875 165.917969 243.652344 165.917969 244.230469 L 165.917969 282.625 C 165.917969 283.472656 166.601562 284.160156 167.453125 284.160156 L 282.625 284.160156 C 283.476562 284.160156 284.160156 283.472656 284.160156 282.625 L 284.160156 244.230469 C 284.160156 243.382812 283.476562 242.699219 282.625 242.699219 Z M 250.011719 128.25 C 250.859375 125.960938 252.199219 123.5 253.570312 123.003906 C 254.523438 122.65625 255.496094 122.582031 256.457031 122.78125 C 258.441406 123.1875 260.390625 122.488281 261.546875 120.953125 C 262.699219 119.425781 263.835938 118.449219 264.671875 118.273438 C 266.253906 117.933594 268.394531 118.605469 269.691406 119.144531 L 269.691406 128.25 Z M 212.632812 93.734375 L 269.691406 93.734375 L 269.691406 115.867188 C 268.125 115.335938 266 114.855469 264.035156 115.269531 C 262.417969 115.609375 260.757812 116.898438 259.09375 119.101562 C 258.65625 119.683594 257.886719 119.9375 257.078125 119.773438 C 255.546875 119.457031 254.023438 119.574219 252.523438 120.113281 C 249.335938 121.269531 247.484375 125.984375 246.761719 128.25 L 212.632812 128.25 L 212.632812 112.394531 C 213.796875 111.800781 214.953125 111.191406 216.097656 110.558594 C 216.945312 112.242188 218.667969 113.410156 220.675781 113.410156 C 223.507812 113.410156 225.8125 111.105469 225.8125 108.273438 C 225.8125 105.4375 223.507812 103.132812 220.675781 103.132812 C 218.171875 103.132812 216.089844 104.933594 215.636719 107.304688 C 214.640625 107.863281 213.636719 108.40625 212.632812 108.9375 Z M 218.605469 108.273438 C 218.605469 107.132812 219.535156 106.203125 220.671875 106.203125 C 221.8125 106.203125 222.742188 107.132812 222.742188 108.273438 C 222.742188 109.410156 221.8125 110.339844 220.671875 110.339844 C 219.535156 110.339844 218.605469 109.410156 218.605469 108.273438 Z M 157.660156 138.558594 C 149.734375 134.789062 142.128906 130.34375 134.878906 125.210938 C 140.707031 125.769531 146.410156 126.054688 151.980469 126.054688 C 153.890625 126.054688 155.78125 126.007812 157.660156 125.941406 Z M 109.351562 185.875 C 109.683594 180.8125 111.828125 165.136719 125.695312 165.136719 C 139.566406 165.136719 141.710938 180.8125 142.042969 185.875 Z M 157.660156 185.875 L 145.136719 185.875 C 144.683594 176.847656 140.246094 162.066406 125.695312 162.066406 C 111.148438 162.066406 106.707031 176.847656 106.257812 185.875 L 93.734375 185.875 L 93.734375 114.574219 L 157.660156 114.574219 L 157.660156 122.925781 C 149.046875 123.207031 140.046875 122.785156 130.617188 121.644531 C 130.003906 119.496094 128.042969 117.90625 125.695312 117.90625 C 122.863281 117.90625 120.558594 120.210938 120.558594 123.042969 C 120.558594 125.878906 122.863281 128.183594 125.695312 128.183594 C 127.609375 128.183594 129.261719 127.121094 130.144531 125.566406 C 138.828125 132.019531 148.003906 137.503906 157.660156 141.984375 Z M 127.765625 123.042969 C 127.765625 124.183594 126.835938 125.109375 125.695312 125.109375 C 124.554688 125.109375 123.628906 124.183594 123.628906 123.042969 C 123.628906 121.902344 124.554688 120.976562 125.695312 120.976562 C 126.835938 120.976562 127.765625 121.902344 127.765625 123.042969 Z M 204.308594 194.183594 C 206.039062 193.324219 207.742188 192.433594 209.398438 191.496094 L 209.398438 226.894531 L 204.308594 226.894531 Z M 226.976562 170.242188 C 227.117188 169.695312 227.554688 169.394531 228.597656 168.792969 C 230.210938 167.859375 232.652344 166.445312 232.652344 162.15625 C 232.652344 160.007812 231.6875 158.304688 229.941406 157.164062 C 233.269531 157.160156 236.648438 157.058594 240.046875 156.890625 C 236.914062 162.890625 232.855469 168.421875 228.015625 173.425781 C 227.464844 172.683594 226.679688 171.371094 226.976562 170.242188 Z M 227.816406 226.894531 L 220.753906 226.894531 L 220.753906 208.730469 L 225.355469 208.730469 C 225.507812 210.722656 225.097656 212.796875 224.089844 215.023438 C 223.871094 215.503906 223.917969 216.066406 224.207031 216.503906 C 224.5 216.945312 224.976562 217.199219 225.527344 217.191406 C 226.714844 217.136719 230.433594 217.371094 231.808594 218.710938 C 232.109375 219 232.242188 219.308594 232.242188 219.703125 C 232.242188 221.046875 231.648438 222.007812 230.429688 222.648438 C 228.875 223.464844 227.898438 225.078125 227.816406 226.894531 Z M 212.46875 208.730469 L 217.683594 208.730469 L 217.683594 226.894531 L 212.46875 226.894531 Z M 224.683594 205.660156 L 212.46875 205.660156 L 212.46875 189.683594 C 216.617188 187.140625 220.496094 184.335938 224.082031 181.304688 C 224 181.835938 223.953125 182.371094 223.953125 182.914062 L 223.953125 201.320312 C 223.953125 202.671875 224.203125 204.097656 224.683594 205.660156 Z M 224.257812 144.101562 C 224.257812 142.597656 225.421875 141.316406 226.90625 141.175781 C 243.6875 139.585938 260.351562 138.976562 276.4375 139.378906 C 278.003906 139.417969 279.28125 140.734375 279.28125 142.316406 L 279.28125 169.402344 C 279.28125 170.589844 278.816406 171.707031 277.976562 172.542969 L 276.59375 173.929688 C 275.195312 175.328125 274.394531 177.265625 274.394531 179.242188 L 274.394531 186.203125 C 274.394531 187.855469 275.101562 189.4375 276.339844 190.539062 L 277.808594 191.84375 C 278.4375 192.402344 278.769531 193.203125 278.722656 194.035156 L 276.550781 232.867188 C 276.484375 234.027344 275.621094 234.980469 274.492188 235.132812 C 260.675781 237.007812 246.691406 237.019531 232.933594 235.160156 C 231.761719 235.003906 230.875 233.972656 230.875 232.761719 L 230.875 227.132812 C 230.875 226.375 231.261719 225.683594 231.859375 225.371094 C 234.085938 224.199219 235.316406 222.191406 235.316406 219.707031 C 235.316406 218.484375 234.84375 217.378906 233.953125 216.511719 C 232.355469 214.957031 229.636719 214.40625 227.695312 214.21875 C 228.699219 211.085938 228.722656 208.0625 227.753906 205.203125 C 227.261719 203.757812 227.023438 202.484375 227.023438 201.324219 L 227.023438 182.914062 C 227.023438 181.449219 227.445312 180.023438 228.246094 178.796875 C 228.640625 178.191406 228.878906 177.523438 228.964844 176.839844 C 234.433594 171.429688 239.019531 165.394531 242.527344 158.8125 C 243.460938 159.773438 244.761719 160.378906 246.207031 160.378906 C 249.039062 160.378906 251.34375 158.070312 251.34375 155.238281 C 251.34375 152.40625 249.039062 150.101562 246.207031 150.101562 C 243.890625 150.101562 241.953125 151.648438 241.3125 153.753906 C 235.523438 154.070312 229.84375 154.136719 224.261719 153.976562 L 224.261719 144.101562 Z M 244.136719 155.238281 C 244.136719 154.101562 245.066406 153.171875 246.207031 153.171875 C 247.347656 153.171875 248.273438 154.101562 248.273438 155.238281 C 248.273438 156.378906 247.347656 157.308594 246.207031 157.308594 C 245.066406 157.308594 244.136719 156.378906 244.136719 155.238281 Z M 204.308594 148.269531 L 221.1875 148.269531 L 221.1875 153.863281 C 215.453125 153.609375 209.820312 153.117188 204.308594 152.355469 Z M 222.152344 157.007812 C 222.875 157.925781 223.941406 158.582031 225.1875 158.738281 C 229.578125 159.285156 229.578125 161.449219 229.578125 162.15625 C 229.578125 164.675781 228.519531 165.285156 227.054688 166.132812 C 225.90625 166.800781 224.476562 167.628906 224 169.46875 C 223.519531 171.304688 224.09375 173.355469 225.648438 175.398438 C 225.707031 175.476562 225.742188 175.5625 225.78125 175.648438 C 221.785156 179.46875 217.332031 182.960938 212.46875 186.082031 L 212.46875 171.308594 C 212.46875 170.457031 211.78125 169.773438 210.929688 169.773438 L 204.308594 169.773438 L 204.308594 155.449219 C 210.136719 156.238281 216.082031 156.773438 222.152344 157.007812 Z M 204.308594 172.84375 L 209.398438 172.84375 L 209.398438 187.964844 C 207.742188 188.941406 206.042969 189.867188 204.308594 190.761719 Z M 157.660156 232.066406 C 149.089844 224.746094 141.300781 216.195312 134.332031 206.449219 C 138.574219 206.820312 142.789062 207.007812 146.960938 207.007812 C 150.566406 207.007812 154.132812 206.859375 157.660156 206.59375 Z M 109.351562 267.15625 C 109.683594 262.089844 111.828125 246.417969 125.695312 246.417969 C 139.566406 246.417969 141.710938 262.089844 142.042969 267.15625 Z M 157.660156 267.15625 L 145.136719 267.15625 C 144.683594 258.125 140.246094 243.34375 125.695312 243.34375 C 111.148438 243.34375 106.707031 258.125 106.257812 267.15625 L 93.734375 267.15625 L 93.734375 195.851562 L 157.660156 195.851562 L 157.660156 203.523438 C 149.460938 204.152344 141.007812 204.050781 132.441406 203.179688 C 131.820312 201.039062 129.863281 199.460938 127.527344 199.460938 C 124.691406 199.460938 122.386719 201.765625 122.386719 204.597656 C 122.386719 207.429688 124.691406 209.738281 127.527344 209.738281 C 129.148438 209.738281 130.578125 208.96875 131.519531 207.792969 C 139.257812 218.691406 147.976562 228.148438 157.660156 236.101562 Z M 129.59375 204.597656 C 129.59375 205.738281 128.667969 206.664062 127.527344 206.664062 C 126.386719 206.664062 125.460938 205.738281 125.460938 204.597656 C 125.460938 203.457031 126.386719 202.53125 127.527344 202.53125 C 128.667969 202.53125 129.59375 203.457031 129.59375 204.597656 Z M 168.988281 245.769531 L 171.078125 245.769531 C 172.976562 246.964844 174.898438 248.125 176.859375 249.226562 L 174.328125 249.226562 C 173.480469 249.226562 172.792969 249.914062 172.792969 250.761719 L 172.792969 281.089844 L 168.984375 281.089844 L 168.984375 245.769531 Z M 175.863281 252.296875 L 182.671875 252.296875 C 189.207031 255.542969 196.0625 258.261719 203.214844 260.460938 C 203.742188 262.734375 205.777344 264.4375 208.207031 264.4375 C 211.039062 264.4375 213.34375 262.132812 213.34375 259.296875 C 213.34375 256.464844 211.039062 254.160156 208.207031 254.160156 C 206.074219 254.160156 204.246094 255.464844 203.46875 257.316406 C 198.84375 255.871094 194.34375 254.195312 189.980469 252.296875 L 221.652344 252.296875 C 222.75 255.273438 224.273438 261.257812 222.066406 264.339844 C 220.84375 266.046875 219.054688 267.007812 216.75 267.1875 C 214.289062 267.378906 212.324219 269.265625 212.074219 271.664062 C 211.917969 273.179688 211.484375 274.582031 210.773438 275.835938 C 209.21875 278.597656 204.453125 280.511719 202.535156 281.089844 L 175.863281 281.089844 Z M 206.140625 259.296875 C 206.140625 258.160156 207.070312 257.230469 208.207031 257.230469 C 209.347656 257.230469 210.277344 258.160156 210.277344 259.296875 C 210.277344 260.4375 209.347656 261.367188 208.207031 261.367188 C 207.070312 261.367188 206.140625 260.4375 206.140625 259.296875 Z M 274.210938 258.707031 C 272.285156 258.035156 269.4375 257.449219 266.792969 258.484375 C 264.570312 259.351562 262.828125 261.234375 261.753906 263.921875 C 261.21875 265.253906 259.894531 266.085938 258.449219 265.972656 C 254.644531 265.695312 251.390625 266.433594 249.027344 268.097656 C 246.183594 270.097656 245.167969 272.972656 244.277344 275.507812 C 243.527344 277.628906 242.804688 279.636719 241.109375 281.09375 L 209.714844 281.09375 C 211.203125 280.101562 212.597656 278.859375 213.453125 277.347656 C 214.367188 275.722656 214.933594 273.917969 215.132812 271.984375 C 215.226562 271.054688 216.011719 270.328125 216.992188 270.25 C 220.195312 270 222.816406 268.574219 224.566406 266.128906 C 227.472656 262.066406 225.976562 255.628906 224.894531 252.296875 L 274.210938 252.296875 Z M 245.128906 281.089844 C 246.074219 279.609375 246.648438 278.007812 247.171875 276.527344 C 248.019531 274.121094 248.75 272.042969 250.792969 270.605469 C 253.039062 269.03125 256.070312 268.886719 258.226562 269.035156 C 261.003906 269.242188 263.570312 267.640625 264.601562 265.0625 C 265.367188 263.15625 266.476562 261.90625 267.90625 261.34375 C 270.164062 260.460938 272.898438 261.425781 274.207031 262.007812 L 274.207031 281.089844 Z M 281.089844 281.089844 L 277.285156 281.089844 L 277.285156 250.761719 C 277.285156 249.914062 276.597656 249.226562 275.746094 249.226562 L 183.402344 249.226562 C 181.242188 248.136719 179.128906 246.972656 177.039062 245.769531 L 281.089844 245.769531 Z M 281.089844 281.089844 " fill-opacity="1" fill-rule="nonzero"/></g><path fill="#000000" d="M 233.277344 116.214844 C 233.402344 116.226562 233.539062 116.234375 233.691406 116.234375 C 234.890625 116.234375 237.007812 115.667969 241.417969 112.417969 C 242.582031 111.554688 244.1875 111.527344 245.40625 112.34375 C 247.003906 113.414062 248.800781 113.914062 250.703125 113.890625 C 253.507812 113.828125 256.175781 112.351562 257.832031 109.945312 C 259.269531 107.851562 259.671875 105.457031 258.929688 103.371094 C 257.257812 98.679688 248.867188 96.082031 244.957031 96.476562 C 241.058594 96.855469 229.261719 103.269531 228.390625 107.371094 C 227.886719 109.746094 228.355469 112.292969 229.601562 114.019531 C 230.523438 115.292969 231.792969 116.050781 233.277344 116.214844 Z M 231.394531 108.007812 C 231.832031 105.96875 241.800781 99.871094 245.257812 99.53125 C 248.636719 99.199219 255.109375 101.800781 256.039062 104.402344 C 256.441406 105.527344 256.164062 106.945312 255.300781 108.203125 C 254.203125 109.796875 252.457031 110.777344 250.632812 110.816406 C 249.316406 110.859375 248.175781 110.503906 247.121094 109.789062 C 244.828125 108.253906 241.800781 108.316406 239.59375 109.945312 C 235.164062 113.214844 233.746094 113.175781 233.613281 113.160156 C 233 113.09375 232.5 112.785156 232.089844 112.21875 C 231.34375 111.1875 231.070312 109.535156 231.394531 108.007812 Z M 231.394531 108.007812 " fill-opacity="1" fill-rule="nonzero"/><path fill="#000000" d="M 239.625 169.609375 C 239.625 170.457031 240.3125 171.144531 241.160156 171.144531 L 266.84375 171.144531 C 267.691406 171.144531 268.378906 170.457031 268.378906 169.609375 C 268.378906 168.761719 267.691406 168.074219 266.84375 168.074219 L 241.160156 168.074219 C 240.3125 168.074219 239.625 168.761719 239.625 169.609375 Z M 239.625 169.609375 " fill-opacity="1" fill-rule="nonzero"/><path fill="#000000" d="M 262.234375 180.09375 C 263.085938 180.09375 263.773438 179.410156 263.773438 178.558594 C 263.773438 177.710938 263.085938 177.023438 262.234375 177.023438 L 246.207031 177.023438 C 245.355469 177.023438 244.671875 177.710938 244.671875 178.558594 C 244.671875 179.410156 245.355469 180.09375 246.207031 180.09375 Z M 262.234375 180.09375 " fill-opacity="1" fill-rule="nonzero"/><path fill="#000000" d="M 266.84375 189.265625 L 237.230469 189.265625 C 236.382812 189.265625 235.695312 189.949219 235.695312 190.800781 C 235.695312 191.648438 236.382812 192.335938 237.230469 192.335938 L 266.84375 192.335938 C 267.691406 192.335938 268.378906 191.648438 268.378906 190.800781 C 268.378906 189.949219 267.691406 189.265625 266.84375 189.265625 Z M 266.84375 189.265625 " fill-opacity="1" fill-rule="nonzero"/><path fill="#000000" d="M 264.738281 199.792969 L 242.601562 199.792969 C 241.753906 199.792969 241.066406 200.480469 241.066406 201.328125 C 241.066406 202.175781 241.753906 202.863281 242.601562 202.863281 L 264.738281 202.863281 C 265.585938 202.863281 266.273438 202.175781 266.273438 201.328125 C 266.273438 200.480469 265.585938 199.792969 264.738281 199.792969 Z M 264.738281 199.792969 " fill-opacity="1" fill-rule="nonzero"/><path fill="#000000" d="M 260.261719 212.953125 L 245.128906 212.953125 C 244.277344 212.953125 243.59375 213.640625 243.59375 214.488281 C 243.59375 215.339844 244.277344 216.023438 245.128906 216.023438 L 260.261719 216.023438 C 261.113281 216.023438 261.796875 215.339844 261.796875 214.488281 C 261.796875 213.640625 261.109375 212.953125 260.261719 212.953125 Z M 260.261719 212.953125 " fill-opacity="1" fill-rule="nonzero"/></svg>