<svg xmlns="http://www.w3.org/2000/svg" xmlns:xlink="http://www.w3.org/1999/xlink" width="500" zoomAndPan="magnify" viewBox="0 0 375 374.999991" height="500" preserveAspectRatio="xMidYMid meet" version="1.0"><path fill="#000000" d="M 254.699219 267.253906 L 266.636719 265.929688 L 267.960938 277.875 L 256.023438 279.199219 Z M 254.699219 267.253906 " fill-opacity="1" fill-rule="nonzero"/><path fill="#000000" d="M 259.992188 315.046875 L 271.929688 313.71875 L 273.253906 325.667969 L 261.316406 326.992188 Z M 259.992188 315.046875 " fill-opacity="1" fill-rule="nonzero"/><path fill="#000000" d="M 257.332031 291.152344 L 269.269531 289.828125 L 270.59375 301.773438 L 258.65625 303.097656 Z M 257.332031 291.152344 " fill-opacity="1" fill-rule="nonzero"/><path fill="#000000" d="M 179.445312 158.679688 L 185.757812 158.679688 L 185.757812 146.660156 L 179.445312 146.660156 C 176.132812 146.660156 173.441406 143.964844 173.441406 140.648438 L 173.441406 99.21875 L 161.433594 99.21875 L 161.433594 140.648438 C 161.433594 150.589844 169.515625 158.679688 179.445312 158.679688 Z M 179.445312 158.679688 " fill-opacity="1" fill-rule="nonzero"/><path fill="#000000" d="M 301.777344 18.9375 C 278.722656 10.691406 253.550781 13.992188 233.480469 27.257812 L 233.480469 20.457031 C 233.480469 10.515625 225.398438 2.429688 215.46875 2.429688 C 188.546875 2.429688 164.765625 16.148438 150.730469 36.964844 C 143.730469 25.492188 133.695312 16.128906 121.609375 10.066406 C 104.398438 1.441406 84.886719 0.0429688 66.632812 6.136719 C 48.363281 12.234375 33.550781 25.109375 24.949219 42.378906 C 11.671875 69.007812 16.25 101.621094 36.332031 123.550781 L 99.773438 192.789062 C 100.933594 194.050781 102.546875 194.734375 104.199219 194.734375 C 104.835938 194.734375 105.480469 194.632812 106.097656 194.421875 L 113.03125 192.101562 L 121.125 208.183594 L 113.679688 211.917969 L 121.226562 230.792969 L 108.03125 230.792969 L 95.234375 346.074219 L 96.027344 347.667969 C 104.457031 364.550781 121.40625 375.03125 140.253906 375.03125 L 254.667969 375.03125 C 273.519531 375.03125 290.464844 364.550781 298.894531 347.667969 L 299.6875 346.074219 L 286.890625 230.792969 L 251.648438 230.792969 L 268.898438 182.445312 C 302.179688 180.113281 337.511719 152.585938 349.140625 119.195312 C 363.363281 78.339844 342.121094 33.359375 301.777344 18.9375 Z M 215.46875 14.445312 C 218.785156 14.445312 221.472656 17.140625 221.472656 20.457031 L 221.472656 98.15625 C 221.46875 98.515625 221.472656 98.871094 221.472656 99.230469 L 221.472656 157.253906 C 221.472656 163.25 218.140625 168.648438 212.785156 171.328125 L 209.464844 172.988281 L 209.464844 230.789062 L 185.449219 230.789062 L 185.449219 170.691406 L 179.445312 170.691406 C 162.894531 170.691406 149.425781 157.210938 149.425781 140.644531 L 149.425781 80.546875 C 149.425781 44.097656 179.054688 14.445312 215.46875 14.445312 Z M 153.089844 192.167969 L 147.386719 180.625 L 147.679688 180.527344 C 149.925781 179.785156 151.523438 177.78125 151.757812 175.425781 L 152.050781 172.46875 C 157.984375 177.597656 165.332031 181.125 173.449219 182.289062 L 173.449219 230.792969 L 172.832031 230.792969 L 156.671875 190.371094 Z M 143.847656 49.585938 C 139.730469 59.085938 137.425781 69.550781 137.425781 80.554688 L 137.425781 140.648438 C 137.425781 146.996094 138.859375 153.003906 141.382812 158.40625 L 140.191406 170.367188 L 130.71875 173.535156 C 129.152344 128.640625 125.296875 94.730469 119.191406 72.925781 C 112.101562 47.609375 103.195312 28.339844 95.644531 14.824219 C 102.722656 15.570312 109.6875 17.535156 116.238281 20.824219 C 128.449219 26.941406 138.140625 37.121094 143.847656 49.585938 Z M 70.433594 17.542969 C 74.179688 16.292969 77.992188 15.433594 81.824219 14.933594 C 89.574219 27.753906 99.738281 48.011719 107.621094 76.164062 C 112.929688 95.121094 116.484375 123.964844 118.238281 161.929688 C 104.65625 139.898438 87.773438 111.964844 76.742188 89.886719 C 63.492188 63.347656 57.6875 40.617188 55.113281 25.234375 C 59.769531 21.996094 64.902344 19.386719 70.433594 17.542969 Z M 105.996094 181.789062 L 45.1875 115.433594 C 28.4375 97.152344 24.617188 69.953125 35.6875 47.746094 C 38.101562 42.902344 41.152344 38.515625 44.648438 34.574219 C 47.890625 50.347656 54.066406 71.363281 66.003906 95.257812 C 79.144531 121.570312 100.25 155.726562 114.609375 178.90625 Z M 124.546875 188.257812 L 135.882812 184.472656 L 142.347656 197.554688 L 131.867188 202.804688 Z M 128.9375 217.714844 L 150.371094 206.972656 L 159.886719 230.792969 L 134.160156 230.792969 Z M 254.667969 363.003906 L 140.253906 363.003906 C 129.601562 363.003906 119.792969 358.539062 112.828125 350.984375 L 282.09375 350.984375 C 275.128906 358.539062 265.320312 363.003906 254.667969 363.003906 Z M 286.820312 338.964844 L 108.101562 338.964844 L 118.78125 242.8125 L 276.140625 242.8125 Z M 337.804688 115.234375 C 327.214844 145.632812 294.378906 170.457031 264.59375 170.582031 L 260.378906 170.601562 L 238.910156 230.792969 L 221.480469 230.792969 L 221.480469 180.125 C 228.964844 174.992188 233.488281 166.53125 233.488281 157.253906 L 233.488281 141.550781 C 238.308594 148.480469 244.511719 153.886719 252.136719 156.621094 C 255.925781 157.988281 260.046875 158.679688 264.402344 158.679688 C 289.121094 158.679688 317.558594 136.953125 326.488281 111.230469 C 336.347656 82.835938 321.648438 51.59375 293.742188 41.585938 C 287.964844 39.511719 281.96875 38.460938 275.917969 38.460938 C 259.035156 38.460938 243.464844 46.582031 233.488281 59.710938 L 233.488281 42.402344 C 251.28125 27.089844 275.617188 22.355469 297.742188 30.253906 C 331.890625 42.46875 349.867188 80.59375 337.804688 115.234375 Z M 236.695312 78.820312 C 242.578125 61.875 258.34375 50.488281 275.917969 50.488281 C 280.582031 50.488281 285.21875 51.304688 289.695312 52.902344 C 311.429688 60.695312 322.84375 85.089844 315.144531 107.289062 C 307.988281 127.898438 283.800781 146.660156 264.402344 146.660156 C 261.441406 146.660156 258.679688 146.207031 256.1875 145.304688 C 236.152344 138.125 228.59375 102.144531 236.695312 78.820312 Z M 236.695312 78.820312 " fill-opacity="1" fill-rule="nonzero"/></svg>