<svg xmlns="http://www.w3.org/2000/svg" xmlns:xlink="http://www.w3.org/1999/xlink" width="500" zoomAndPan="magnify" viewBox="0 0 375 374.999991" height="500" preserveAspectRatio="xMidYMid meet" version="1.0"><path fill="#000000" d="M 157.734375 181.234375 L 158.039062 178.179688 C 153.417969 174.1875 149.636719 169.253906 147.019531 163.652344 L 145.792969 176.007812 L 136.003906 179.28125 C 134.382812 132.902344 130.398438 97.867188 124.089844 75.339844 C 116.757812 49.164062 107.550781 29.25 99.742188 15.292969 C 107.0625 16.0625 114.257812 18.117188 121.039062 21.519531 C 133.65625 27.839844 143.683594 38.34375 149.582031 51.214844 C 151.5625 46.644531 153.929688 42.28125 156.6875 38.195312 C 149.453125 26.34375 139.085938 16.671875 126.597656 10.40625 C 108.8125 1.496094 88.648438 0.0507812 69.789062 6.34375 C 50.910156 12.648438 35.605469 25.945312 26.714844 43.789062 C 13 71.300781 17.726562 104.992188 38.476562 127.648438 L 104.027344 199.171875 C 105.226562 200.476562 106.894531 201.183594 108.601562 201.183594 C 109.257812 201.183594 109.921875 201.078125 110.558594 200.859375 L 153.523438 186.5 C 155.84375 185.738281 157.492188 183.667969 157.734375 181.234375 Z M 73.710938 18.121094 C 77.585938 16.832031 81.53125 15.980469 85.503906 15.464844 C 93.507812 28.707031 104.003906 49.632812 112.140625 78.6875 C 117.625 98.269531 121.300781 128.070312 123.109375 167.289062 C 109.078125 144.53125 91.632812 115.671875 80.234375 92.863281 C 66.539062 65.445312 60.539062 41.964844 57.878906 26.070312 C 62.691406 22.722656 67.996094 20.027344 73.710938 18.121094 Z M 110.453125 187.808594 L 47.621094 119.253906 C 30.3125 100.367188 26.367188 72.269531 37.808594 49.328125 C 40.300781 44.324219 43.453125 39.789062 47.0625 35.71875 C 50.414062 52.015625 56.796875 73.726562 69.132812 98.414062 C 82.710938 125.59375 104.519531 160.882812 119.355469 184.832031 Z M 110.453125 187.808594 " fill-opacity="1" fill-rule="nonzero"/><path fill="#000000" d="M 141.34375 190.578125 L 129.625 194.496094 L 137.1875 209.523438 L 148.019531 204.09375 Z M 141.34375 190.578125 " fill-opacity="1" fill-rule="nonzero"/><path fill="#000000" d="M 145.855469 375.023438 L 264.082031 375.023438 C 275.085938 375.023438 285.222656 370.410156 292.417969 362.609375 L 117.515625 362.609375 C 124.710938 370.410156 134.847656 375.023438 145.855469 375.023438 Z M 145.855469 375.023438 " fill-opacity="1" fill-rule="nonzero"/><path fill="#000000" d="M 155.332031 145.304688 C 155.332031 162.421875 169.25 176.347656 186.351562 176.347656 L 192.554688 176.347656 L 192.554688 238.433594 L 217.371094 238.433594 L 217.371094 178.722656 L 220.800781 177.007812 C 226.34375 174.238281 229.777344 168.664062 229.777344 162.46875 L 229.777344 102.523438 C 229.777344 102.148438 229.773438 101.777344 229.777344 101.410156 L 229.777344 21.132812 C 229.777344 17.707031 227 14.925781 223.574219 14.925781 C 185.949219 14.925781 155.332031 45.566406 155.332031 83.21875 Z M 167.742188 102.503906 L 180.148438 102.503906 L 180.148438 145.304688 C 180.148438 148.734375 182.929688 151.515625 186.351562 151.515625 L 192.871094 151.515625 L 192.871094 163.933594 L 186.351562 163.933594 C 176.089844 163.933594 167.742188 155.574219 167.742188 145.304688 Z M 167.742188 102.503906 " fill-opacity="1" fill-rule="nonzero"/><path fill="#000000" d="M 166.148438 238.433594 L 156.3125 213.824219 L 134.160156 224.925781 L 139.5625 238.433594 Z M 166.148438 238.433594 " fill-opacity="1" fill-rule="nonzero"/><path fill="#000000" d="M 123.667969 250.851562 L 112.632812 350.191406 L 297.296875 350.191406 L 286.257812 250.851562 Z M 264.105469 276.101562 L 276.4375 274.730469 L 277.808594 287.066406 L 265.476562 288.441406 Z M 266.839844 300.789062 L 279.175781 299.417969 L 280.546875 311.753906 L 268.210938 313.125 Z M 270.953125 337.808594 L 269.582031 325.472656 L 281.917969 324.101562 L 283.289062 336.4375 Z M 270.953125 337.808594 " fill-opacity="1" fill-rule="nonzero"/><path fill="#000000" d="M 265.648438 150.117188 C 268.222656 151.042969 271.078125 151.515625 274.136719 151.515625 C 294.179688 151.515625 319.175781 132.132812 326.570312 110.84375 C 334.523438 87.914062 322.730469 62.707031 300.273438 54.65625 C 295.644531 52.996094 290.855469 52.160156 286.035156 52.160156 C 267.875 52.160156 251.585938 63.921875 245.507812 81.433594 C 237.136719 105.527344 244.949219 142.699219 265.648438 150.117188 Z M 265.648438 150.117188 " fill-opacity="1" fill-rule="nonzero"/><path fill="#000000" d="M 308.585938 31.253906 C 285.726562 23.089844 260.582031 27.980469 242.191406 43.808594 L 242.191406 61.695312 C 252.503906 48.128906 268.589844 39.742188 286.035156 39.742188 C 292.289062 39.742188 298.488281 40.828125 304.453125 42.96875 C 333.289062 53.308594 348.476562 85.585938 338.289062 114.921875 C 329.066406 141.488281 299.675781 163.9375 274.136719 163.9375 C 269.640625 163.9375 265.375 163.222656 261.460938 161.816406 C 253.578125 158.988281 247.175781 153.402344 242.191406 146.242188 L 242.191406 162.46875 C 242.191406 172.054688 237.523438 180.789062 229.785156 186.097656 L 229.785156 238.441406 L 247.796875 238.441406 L 269.980469 176.257812 L 274.335938 176.238281 C 305.113281 176.105469 339.046875 150.460938 349.984375 119.054688 C 362.449219 83.261719 343.875 43.875 308.585938 31.253906 Z M 308.585938 31.253906 " fill-opacity="1" fill-rule="nonzero"/></svg>