<svg xmlns="http://www.w3.org/2000/svg" xmlns:xlink="http://www.w3.org/1999/xlink" width="500" zoomAndPan="magnify" viewBox="0 0 375 374.999991" height="500" preserveAspectRatio="xMidYMid meet" version="1.0"><defs><clipPath id="c43fde7883"><path d="M 21.09375 0 L 337.59375 0 L 337.59375 375 L 21.09375 375 Z M 21.09375 0 " clip-rule="nonzero"/></clipPath><clipPath id="5eb503ae54"><path d="M 150.902344 118.96875 L 320.714844 118.96875 L 320.714844 353.464844 L 150.902344 353.464844 Z M 150.902344 118.96875 " clip-rule="nonzero"/></clipPath><clipPath id="ab3922eafd"><path d="M 0.902344 0.96875 L 170.714844 0.96875 L 170.714844 235.464844 L 0.902344 235.464844 Z M 0.902344 0.96875 " clip-rule="nonzero"/></clipPath><clipPath id="2414c2fb4c"><rect x="0" width="171" y="0" height="236"/></clipPath></defs><g clip-path="url(#c43fde7883)"><path fill="#000000" d="M 143.5625 102.386719 L 328.699219 102.386719 C 333.554688 102.386719 337.492188 106.324219 337.492188 111.175781 L 337.492188 363.140625 C 337.492188 367.992188 333.554688 371.929688 328.699219 371.929688 L 143.5625 371.929688 C 141.9375 371.929688 140.421875 371.488281 139.097656 370.710938 L 138.921875 370.605469 L 138.742188 370.480469 C 137.738281 369.828125 136.890625 368.980469 136.238281 367.976562 L 136.113281 367.800781 L 136.007812 367.605469 C 135.230469 366.300781 134.789062 364.765625 134.789062 363.140625 L 134.789062 111.175781 C 134.789062 106.324219 138.726562 102.386719 143.582031 102.386719 Z M 91.894531 322.113281 C 95.105469 318.492188 100.667969 318.160156 104.285156 321.386719 C 107.921875 324.617188 108.242188 330.160156 105.011719 333.777344 L 70.886719 372.070312 C 67.65625 375.6875 62.113281 376.003906 58.496094 372.792969 C 58.214844 372.53125 57.949219 372.265625 57.703125 371.980469 L 23.652344 333.777344 C 20.421875 330.160156 20.753906 324.601562 24.375 321.386719 C 27.992188 318.160156 33.554688 318.492188 36.765625 322.113281 L 55.546875 343.183594 L 55.546875 131.117188 L 36.765625 152.1875 C 33.535156 155.804688 27.992188 156.140625 24.375 152.910156 C 20.753906 149.683594 20.421875 144.140625 23.652344 140.523438 L 57.703125 102.300781 C 57.949219 102.019531 58.214844 101.753906 58.496094 101.488281 C 62.113281 98.257812 67.675781 98.59375 70.886719 102.210938 L 105.011719 140.507812 C 108.242188 144.125 107.921875 149.683594 104.285156 152.894531 C 100.667969 156.125 95.105469 155.789062 91.894531 152.171875 L 73.113281 131.101562 L 73.113281 343.164062 L 91.894531 322.09375 Z M 277.949219 15.371094 C 274.332031 12.140625 273.996094 6.601562 277.226562 2.980469 C 280.457031 -0.636719 286 -0.96875 289.617188 2.257812 L 327.921875 36.386719 C 331.542969 39.617188 331.878906 45.160156 328.648438 48.777344 C 328.382812 49.058594 328.117188 49.324219 327.835938 49.570312 L 289.617188 83.613281 C 286 86.839844 280.4375 86.523438 277.226562 82.886719 C 273.996094 79.253906 274.332031 73.710938 277.949219 70.5 L 299.027344 51.722656 L 173.253906 51.722656 L 194.332031 70.5 C 197.949219 73.730469 198.265625 79.269531 195.054688 82.886719 C 191.824219 86.503906 186.28125 86.824219 182.664062 83.613281 L 144.445312 49.570312 C 144.164062 49.324219 143.898438 49.058594 143.632812 48.777344 C 140.402344 45.140625 140.71875 39.601562 144.355469 36.386719 L 182.664062 2.257812 C 186.296875 -0.96875 191.839844 -0.636719 195.054688 2.980469 C 198.285156 6.601562 197.96875 12.160156 194.332031 15.371094 L 173.253906 34.148438 L 299.027344 34.148438 Z M 319.925781 278.734375 L 244.285156 354.351562 L 319.925781 354.351562 Z M 152.371094 341.929688 L 319.925781 174.421875 L 319.925781 119.980469 L 152.371094 119.980469 L 152.371094 341.945312 Z M 152.371094 341.929688 " fill-opacity="1" fill-rule="evenodd"/></g><g clip-path="url(#5eb503ae54)"><g transform="matrix(1, 0, 0, 1, 150, 118)"><g clip-path="url(#2414c2fb4c)"><g clip-path="url(#ab3922eafd)"><path fill="#ffffff" d="M 0.902344 0.96875 L 170.714844 0.96875 L 170.714844 235.789062 L 0.902344 235.789062 Z M 0.902344 0.96875 " fill-opacity="1" fill-rule="nonzero"/></g></g></g></g></svg>