<svg xmlns="http://www.w3.org/2000/svg" xmlns:xlink="http://www.w3.org/1999/xlink" width="500" zoomAndPan="magnify" viewBox="0 0 375 374.999991" height="500" preserveAspectRatio="xMidYMid meet" version="1.0"><defs><clipPath id="617fb3fd22"><path d="M 0 9.84375 L 375 9.84375 L 375 365.34375 L 0 365.34375 Z M 0 9.84375 " clip-rule="nonzero"/></clipPath></defs><g clip-path="url(#617fb3fd22)"><path fill="#000000" d="M 102.484375 117.054688 C 100.402344 115.773438 98.511719 114.277344 96.808594 112.570312 C 95.101562 110.859375 93.605469 108.941406 92.316406 106.820312 C 91.03125 108.921875 89.53125 110.828125 87.816406 112.535156 C 86.09375 114.25 84.164062 115.757812 82.027344 117.054688 C 84.164062 118.351562 86.09375 119.859375 87.816406 121.574219 C 89.527344 123.28125 91.03125 125.1875 92.316406 127.289062 C 93.605469 125.167969 95.101562 123.25 96.808594 121.535156 C 98.511719 119.828125 100.402344 118.335938 102.484375 117.054688 Z M 87.648438 280.460938 C 89.011719 280.460938 90.121094 281.570312 90.121094 282.933594 C 90.121094 284.296875 89.011719 285.40625 87.648438 285.40625 C 86.285156 285.40625 85.179688 284.296875 85.179688 282.933594 C 85.179688 281.570312 86.285156 280.460938 87.648438 280.460938 Z M 87.648438 250.085938 C 89.011719 250.085938 90.121094 251.191406 90.121094 252.558594 C 90.121094 253.921875 89.011719 255.03125 87.648438 255.03125 C 86.285156 255.03125 85.179688 253.921875 85.179688 252.558594 C 85.179688 251.191406 86.285156 250.085938 87.648438 250.085938 Z M 333.554688 100.320312 C 331.035156 100.320312 328.988281 98.277344 328.988281 95.753906 C 328.988281 93.230469 331.035156 91.1875 333.554688 91.1875 L 350.113281 91.1875 C 352.632812 91.1875 354.679688 93.230469 354.679688 95.753906 C 354.679688 98.277344 352.632812 100.320312 350.113281 100.320312 Z M 333.554688 119.402344 C 331.035156 119.402344 328.988281 117.355469 328.988281 114.832031 C 328.988281 112.3125 331.035156 110.265625 333.554688 110.265625 L 350.113281 110.265625 C 352.632812 110.265625 354.679688 112.3125 354.679688 114.832031 C 354.679688 117.355469 352.632812 119.402344 350.113281 119.402344 Z M 163.953125 91.175781 C 167.835938 91.175781 171.359375 92.757812 173.914062 95.3125 L 173.929688 95.332031 C 176.484375 97.882812 178.0625 101.410156 178.0625 105.292969 C 178.0625 109.175781 176.484375 112.703125 173.929688 115.257812 L 173.914062 115.273438 C 171.359375 117.828125 167.835938 119.410156 163.953125 119.410156 C 160.070312 119.410156 156.550781 117.828125 153.996094 115.273438 L 153.988281 115.265625 L 153.980469 115.273438 C 151.425781 112.71875 149.847656 109.191406 149.847656 105.292969 C 149.847656 101.398438 151.425781 97.867188 153.980469 95.3125 C 154.078125 95.214844 154.179688 95.121094 154.28125 95.035156 C 156.808594 92.644531 160.214844 91.175781 163.953125 91.175781 Z M 167.484375 101.761719 C 166.585938 100.867188 165.339844 100.3125 163.953125 100.3125 C 162.660156 100.3125 161.480469 100.800781 160.597656 101.597656 L 160.433594 101.769531 C 159.535156 102.667969 158.976562 103.917969 158.976562 105.292969 C 158.976562 106.667969 159.535156 107.917969 160.433594 108.816406 L 160.425781 108.828125 C 161.324219 109.71875 162.574219 110.273438 163.953125 110.273438 C 165.339844 110.273438 166.585938 109.71875 167.484375 108.828125 C 168.378906 107.925781 168.933594 106.675781 168.933594 105.292969 C 168.933594 103.910156 168.378906 102.660156 167.484375 101.761719 Z M 198.378906 91.175781 C 202.261719 91.175781 205.785156 92.757812 208.335938 95.3125 L 208.355469 95.332031 C 210.90625 97.882812 212.488281 101.410156 212.488281 105.292969 C 212.488281 109.175781 210.90625 112.703125 208.355469 115.257812 L 208.34375 115.265625 L 208.355469 115.273438 C 205.800781 117.828125 202.273438 119.410156 198.378906 119.410156 C 194.496094 119.410156 190.972656 117.828125 188.421875 115.273438 L 188.402344 115.257812 C 185.851562 112.703125 184.269531 109.175781 184.269531 105.292969 C 184.269531 101.410156 185.851562 97.882812 188.402344 95.332031 L 188.421875 95.3125 C 190.972656 92.757812 194.496094 91.175781 198.378906 91.175781 Z M 201.910156 101.761719 C 201.011719 100.867188 199.761719 100.3125 198.378906 100.3125 C 196.996094 100.3125 195.746094 100.867188 194.847656 101.761719 C 193.953125 102.660156 193.398438 103.910156 193.398438 105.292969 C 193.398438 106.675781 193.953125 107.925781 194.847656 108.828125 C 195.746094 109.71875 196.996094 110.273438 198.378906 110.273438 C 199.753906 110.273438 201 109.71875 201.902344 108.816406 L 201.910156 108.828125 C 202.800781 107.925781 203.359375 106.675781 203.359375 105.292969 C 203.359375 103.910156 202.800781 102.660156 201.910156 101.761719 Z M 273.792969 106.859375 L 308.148438 106.859375 C 308.871094 106.859375 309.535156 106.558594 310.011719 106.082031 L 310.148438 105.949219 C 310.546875 105.484375 310.789062 104.878906 310.789062 104.214844 L 310.789062 104.1875 C 310.789062 103.453125 310.496094 102.792969 310.027344 102.324219 L 310.019531 102.316406 L 310.007812 102.324219 C 309.53125 101.84375 308.871094 101.546875 308.148438 101.546875 L 273.792969 101.546875 C 273.066406 101.546875 272.40625 101.84375 271.925781 102.324219 L 271.777344 102.46875 C 271.386719 102.921875 271.148438 103.523438 271.148438 104.1875 L 271.148438 104.214844 C 271.148438 104.941406 271.441406 105.601562 271.90625 106.082031 L 271.925781 106.097656 C 272.402344 106.566406 273.0625 106.859375 273.792969 106.859375 Z M 308.148438 115.992188 L 273.792969 115.992188 C 270.558594 115.992188 267.621094 114.667969 265.488281 112.539062 L 265.472656 112.519531 C 263.34375 110.390625 262.019531 107.449219 262.019531 104.214844 L 262.019531 104.1875 C 262.019531 101.117188 263.21875 98.296875 265.175781 96.191406 C 265.269531 96.078125 265.367188 95.972656 265.472656 95.867188 C 267.601562 93.734375 270.546875 92.410156 273.792969 92.410156 L 308.148438 92.410156 C 311.390625 92.410156 314.332031 93.734375 316.464844 95.867188 L 316.453125 95.875 C 318.589844 98.015625 319.917969 100.960938 319.917969 104.1875 L 319.917969 104.214844 C 319.917969 107.296875 318.714844 110.109375 316.761719 112.214844 C 316.667969 112.324219 316.570312 112.433594 316.464844 112.539062 C 314.335938 114.667969 311.386719 115.992188 308.148438 115.992188 Z M 129.730469 195.589844 L 129.730469 86.40625 C 129.730469 81.839844 131.5625 77.722656 134.511719 74.773438 C 137.335938 71.945312 141.203125 70.195312 145.433594 70.195312 L 359.09375 70.195312 C 363.320312 70.195312 367.191406 71.945312 370.015625 74.773438 C 372.964844 77.722656 374.792969 81.839844 374.792969 86.40625 L 374.792969 329.640625 C 374.792969 334.210938 372.964844 338.328125 370.015625 341.28125 C 367.191406 344.105469 363.320312 345.859375 359.09375 345.859375 L 352.925781 345.859375 L 352.925781 355.773438 C 352.925781 358.398438 351.855469 360.78125 350.136719 362.503906 C 348.414062 364.226562 346.035156 365.296875 343.410156 365.296875 L 310.15625 365.296875 C 307.535156 365.296875 305.152344 364.226562 303.429688 362.503906 C 301.710938 360.78125 300.640625 358.398438 300.640625 355.773438 L 300.640625 345.859375 L 203.886719 345.859375 L 203.886719 355.773438 C 203.886719 358.398438 202.816406 360.78125 201.09375 362.503906 C 199.375 364.226562 196.992188 365.296875 194.371094 365.296875 L 161.117188 365.296875 C 158.492188 365.296875 156.109375 364.226562 154.390625 362.503906 C 152.667969 360.78125 151.597656 358.398438 151.597656 355.773438 L 151.597656 345.859375 L 145.433594 345.859375 C 141.53125 345.859375 137.929688 344.359375 135.171875 341.902344 C 133.261719 340.195312 131.753906 338.015625 130.816406 335.535156 L 15.367188 335.535156 C 11.503906 335.535156 7.980469 333.949219 5.417969 331.394531 L 5.390625 331.367188 C 2.828125 328.800781 1.242188 325.269531 1.242188 321.398438 L 1.242188 312.269531 L 1.105469 311.863281 C -0.25 307.625 0.101562 302.328125 1.011719 296.871094 L 13.585938 221.382812 C 14.230469 217.503906 15.878906 214.054688 18.3125 211.273438 C 20.746094 208.492188 23.949219 206.402344 27.707031 205.253906 L 42.3125 200.769531 L 42.664062 200.664062 C 43.984375 198.003906 45.472656 195.488281 47.308594 193.234375 C 49.382812 190.691406 51.871094 188.523438 55 186.917969 L 55 186.898438 C 55.523438 186.632812 56.058594 186.429688 56.628906 186.296875 L 56.628906 186.308594 C 57.230469 186.164062 57.785156 186.097656 58.328125 186.097656 L 116.972656 186.097656 C 117.511719 186.097656 118.066406 186.164062 118.667969 186.308594 L 118.671875 186.296875 C 119.214844 186.425781 119.746094 186.628906 120.28125 186.898438 L 120.300781 186.917969 C 123.429688 188.523438 125.914062 190.691406 127.992188 193.234375 C 128.609375 193.992188 129.1875 194.777344 129.730469 195.589844 Z M 343.796875 345.859375 L 309.769531 345.859375 L 309.769531 355.773438 C 309.769531 355.878906 309.816406 355.976562 309.886719 356.046875 C 309.957031 356.117188 310.054688 356.160156 310.15625 356.160156 L 343.410156 356.160156 C 343.515625 356.160156 343.613281 356.117188 343.683594 356.046875 C 343.75 355.976562 343.796875 355.878906 343.796875 355.773438 Z M 194.753906 345.859375 L 160.730469 345.859375 L 160.730469 355.773438 C 160.730469 355.878906 160.773438 355.976562 160.84375 356.046875 C 160.914062 356.117188 161.011719 356.160156 161.117188 356.160156 L 194.371094 356.160156 C 194.472656 356.160156 194.570312 356.117188 194.640625 356.046875 C 194.710938 355.976562 194.753906 355.878906 194.753906 355.773438 Z M 141.246094 335.535156 C 142.445312 336.285156 143.882812 336.722656 145.433594 336.722656 L 359.09375 336.722656 C 361.269531 336.722656 363.226562 335.859375 364.617188 334.464844 C 365.882812 333.199219 366.671875 331.488281 366.671875 329.640625 L 366.671875 140.394531 L 137.855469 140.394531 L 137.855469 202.265625 L 147.59375 205.253906 C 151.351562 206.402344 154.554688 208.492188 156.988281 211.273438 C 159.421875 214.054688 161.070312 217.507812 161.714844 221.382812 L 174.289062 296.871094 C 175.179688 302.210938 175.535156 307.394531 174.277344 311.585938 L 174.277344 321.398438 C 174.277344 325.289062 172.691406 328.828125 170.132812 331.382812 L 170.125 331.375 C 167.558594 333.941406 164.027344 335.535156 160.15625 335.535156 Z M 366.671875 131.257812 L 366.671875 86.40625 C 366.671875 84.5625 365.882812 82.851562 364.617188 81.585938 C 363.226562 80.195312 361.269531 79.328125 359.09375 79.328125 L 241.820312 79.328125 L 241.820312 131.257812 Z M 232.691406 79.328125 L 145.433594 79.328125 C 143.257812 79.328125 141.300781 80.195312 139.90625 81.585938 C 138.640625 82.851562 137.855469 84.5625 137.855469 86.40625 L 137.855469 131.257812 L 232.691406 131.257812 Z M 252.261719 161.914062 C 230.414062 161.914062 210.632812 170.777344 196.3125 185.101562 C 181.996094 199.425781 173.136719 219.222656 173.136719 241.082031 C 173.136719 262.941406 181.996094 282.734375 196.3125 297.0625 C 210.632812 311.386719 230.414062 320.25 252.261719 320.25 C 274.109375 320.25 293.894531 311.386719 308.210938 297.0625 C 316.648438 288.621094 323.191406 278.28125 327.140625 266.738281 L 338.933594 266.738281 C 341.558594 266.738281 343.9375 265.667969 345.660156 263.945312 C 347.382812 262.222656 348.449219 259.839844 348.449219 257.214844 L 348.449219 224.945312 C 348.449219 222.324219 347.382812 219.941406 345.660156 218.21875 C 343.9375 216.496094 341.558594 215.425781 338.933594 215.425781 L 327.140625 215.425781 C 323.191406 203.882812 316.648438 193.542969 308.214844 185.101562 C 293.894531 170.777344 274.113281 161.914062 252.261719 161.914062 Z M 329.660156 224.5625 C 330.792969 229.890625 331.390625 235.417969 331.390625 241.082031 C 331.390625 246.746094 330.792969 252.273438 329.660156 257.601562 L 338.933594 257.601562 C 339.039062 257.601562 339.136719 257.558594 339.207031 257.488281 C 339.277344 257.417969 339.320312 257.320312 339.320312 257.214844 L 339.320312 224.945312 C 339.320312 224.84375 339.277344 224.746094 339.207031 224.675781 C 339.136719 224.605469 339.039062 224.5625 338.933594 224.5625 Z M 301.757812 191.558594 C 289.09375 178.886719 271.59375 171.046875 252.261719 171.046875 C 232.933594 171.046875 215.433594 178.886719 202.765625 191.558594 C 190.101562 204.230469 182.265625 221.742188 182.265625 241.082031 C 182.265625 260.421875 190.101562 277.929688 202.765625 290.601562 C 215.433594 303.273438 232.933594 311.113281 252.261719 311.113281 C 271.589844 311.113281 289.09375 303.273438 301.757812 290.601562 C 314.421875 277.929688 322.257812 260.421875 322.257812 241.082031 C 322.257812 221.742188 314.425781 204.230469 301.757812 191.558594 Z M 207.183594 213.023438 C 206.980469 213.351562 206.777344 213.683594 206.582031 214.015625 L 206.535156 214.089844 L 206.460938 214.21875 L 206.214844 214.644531 L 206.148438 214.753906 L 205.898438 215.203125 L 205.84375 215.292969 L 205.589844 215.765625 L 205.546875 215.839844 L 205.285156 216.332031 L 205.257812 216.386719 L 204.988281 216.902344 L 204.972656 216.9375 L 204.699219 217.476562 L 204.691406 217.492188 L 204.417969 218.050781 L 204.417969 218.054688 L 204.152344 218.609375 L 204.140625 218.636719 L 203.890625 219.175781 L 203.871094 219.222656 L 203.636719 219.746094 L 203.609375 219.8125 L 203.390625 220.320312 L 203.351562 220.40625 L 203.148438 220.894531 L 203.105469 221.003906 L 202.914062 221.476562 L 202.863281 221.605469 L 202.6875 222.058594 L 202.628906 222.210938 L 202.464844 222.644531 L 202.402344 222.820312 L 202.253906 223.234375 L 202.183594 223.429688 L 202.046875 223.828125 L 201.96875 224.046875 L 201.84375 224.421875 L 201.835938 224.453125 L 201.691406 224.894531 L 201.652344 225.023438 L 201.566406 225.289062 L 201.464844 225.625 L 201.378906 225.914062 L 201.285156 226.230469 L 201.195312 226.539062 L 201.171875 226.621094 L 201.054688 227.039062 L 200.988281 227.289062 L 200.886719 227.675781 L 200.851562 227.808594 L 200.789062 228.0625 L 200.769531 228.136719 L 200.648438 228.640625 L 200.636719 228.679688 L 200.539062 229.085938 L 200.527344 229.140625 L 200.449219 229.492188 L 200.355469 229.921875 L 200.261719 230.378906 L 200.226562 230.546875 L 200.128906 231.027344 L 200.101562 231.171875 L 200.011719 231.679688 L 199.988281 231.804688 L 199.898438 232.335938 L 199.878906 232.4375 L 199.792969 232.992188 L 199.78125 233.074219 L 199.695312 233.652344 L 199.6875 233.710938 L 199.609375 234.316406 L 199.605469 234.351562 L 199.527344 234.984375 L 199.527344 234.996094 L 199.457031 235.640625 L 199.457031 235.652344 L 199.394531 236.289062 L 199.390625 236.320312 L 199.339844 236.9375 L 199.335938 236.996094 L 199.292969 237.589844 C 199.269531 237.976562 199.246094 238.367188 199.230469 238.757812 L 199.226562 238.898438 L 199.21875 239.027344 L 199.203125 239.554688 C 216.179688 262.179688 228.4375 255.78125 241.917969 248.734375 C 258.214844 240.214844 275.976562 230.9375 302.296875 254.042969 C 302.625 254.332031 303.03125 254.703125 303.472656 255.109375 L 303.507812 254.988281 L 303.53125 254.898438 L 303.585938 254.691406 L 303.640625 254.480469 L 303.671875 254.355469 L 303.695312 254.269531 L 303.75 254.058594 L 303.800781 253.847656 L 303.832031 253.71875 L 303.851562 253.636719 L 303.902344 253.421875 L 303.953125 253.210938 L 303.984375 253.074219 L 304.003906 253 L 304.050781 252.785156 L 304.097656 252.574219 L 304.128906 252.429688 L 304.144531 252.359375 L 304.191406 252.144531 L 304.234375 251.929688 L 304.265625 251.785156 L 304.28125 251.714844 L 304.367188 251.285156 L 304.394531 251.136719 L 304.40625 251.070312 L 304.445312 250.855469 L 304.488281 250.636719 L 304.515625 250.484375 L 304.527344 250.421875 L 304.527344 250.40625 L 304.601562 249.988281 L 304.628906 249.828125 L 304.636719 249.769531 L 304.636719 249.765625 L 304.707031 249.335938 L 304.734375 249.171875 L 304.804688 248.679688 L 304.832031 248.507812 L 304.835938 248.460938 L 304.867188 248.242188 L 304.894531 248.019531 L 304.917969 247.847656 L 304.921875 247.800781 L 304.925781 247.785156 L 304.976562 247.359375 L 305 247.179688 L 305.003906 247.140625 L 305.050781 246.699219 L 305.070312 246.511719 L 305.074219 246.476562 L 305.117188 246.03125 L 305.132812 245.839844 L 305.15625 245.585938 L 305.175781 245.363281 L 305.191406 245.167969 L 305.191406 245.140625 L 305.238281 244.515625 L 305.238281 244.46875 L 305.25 244.246094 L 305.265625 244.023438 L 305.277344 243.816406 L 305.277344 243.796875 L 305.289062 243.570312 L 305.296875 243.34375 L 305.304688 243.136719 L 305.304688 243.121094 L 305.308594 243.0625 L 305.320312 242.667969 L 305.328125 242.453125 L 305.328125 242.445312 L 305.335938 241.992188 L 305.339844 241.769531 L 305.339844 241.765625 L 305.34375 241.535156 L 305.34375 241.082031 C 305.34375 226.414062 299.402344 213.136719 289.796875 203.527344 C 280.195312 193.917969 266.921875 187.972656 252.261719 187.972656 C 237.605469 187.972656 224.332031 193.917969 214.726562 203.527344 L 214.296875 203.964844 L 214.28125 203.980469 L 213.867188 204.40625 L 213.839844 204.4375 L 213.445312 204.851562 L 213.402344 204.902344 L 213.03125 205.304688 L 212.96875 205.371094 L 212.617188 205.761719 L 212.542969 205.84375 L 212.210938 206.222656 L 212.125 206.324219 L 211.8125 206.6875 L 211.710938 206.808594 L 211.613281 206.925781 L 211.304688 207.296875 L 211.300781 207.296875 L 211.023438 207.636719 L 210.898438 207.789062 L 210.640625 208.117188 L 210.503906 208.289062 L 210.261719 208.601562 L 210.113281 208.792969 L 209.886719 209.089844 L 209.851562 209.136719 L 209.597656 209.472656 L 209.519531 209.582031 L 209.347656 209.816406 L 209.15625 210.082031 L 209.113281 210.140625 L 208.835938 210.535156 L 208.765625 210.632812 L 208.496094 211.023438 L 208.445312 211.089844 L 208.246094 211.386719 L 207.972656 211.796875 L 207.890625 211.917969 L 207.761719 212.117188 L 207.542969 212.453125 L 207.425781 212.636719 L 207.203125 212.996094 Z M 300.015625 264.304688 C 299.507812 263.84375 299.015625 263.382812 298.527344 262.929688 L 298.535156 262.921875 C 297.863281 262.296875 297.210938 261.691406 296.304688 260.894531 C 274.65625 241.886719 259.777344 249.660156 246.125 256.796875 C 231.566406 264.40625 218.136719 271.417969 201.1875 255.597656 L 201.195312 255.621094 L 201.308594 256.011719 L 201.378906 256.25 L 201.429688 256.421875 L 201.554688 256.832031 L 201.566406 256.875 L 201.683594 257.242188 C 201.859375 257.789062 202.039062 258.324219 202.230469 258.863281 L 202.375 259.265625 L 202.671875 260.0625 L 202.828125 260.460938 L 202.863281 260.554688 L 202.984375 260.855469 L 203.144531 261.25 L 203.308594 261.644531 L 203.449219 261.976562 L 203.472656 262.035156 L 203.609375 262.347656 L 203.640625 262.425781 L 203.816406 262.8125 L 203.96875 263.148438 L 203.988281 263.199219 L 204.140625 263.523438 L 204.167969 263.582031 L 204.347656 263.964844 L 204.417969 264.109375 L 204.53125 264.347656 L 204.699219 264.6875 L 204.71875 264.726562 L 204.910156 265.101562 L 205.101562 265.480469 L 205.285156 265.832031 L 205.296875 265.855469 L 205.496094 266.226562 L 205.589844 266.398438 L 205.695312 266.597656 L 205.898438 266.960938 L 205.902344 266.964844 L 206.109375 267.332031 L 206.214844 267.515625 L 206.316406 267.699219 L 206.53125 268.0625 L 206.535156 268.070312 L 206.746094 268.421875 L 206.867188 268.621094 L 206.964844 268.78125 L 207.1875 269.140625 L 207.203125 269.167969 L 207.410156 269.496094 L 207.542969 269.707031 L 207.636719 269.851562 L 207.867188 270.203125 L 207.890625 270.242188 L 208.097656 270.554688 L 208.246094 270.777344 L 208.332031 270.902344 L 208.566406 271.246094 L 208.605469 271.304688 L 208.808594 271.589844 L 208.972656 271.828125 L 209.050781 271.933594 L 209.296875 272.273438 L 209.347656 272.34375 L 209.542969 272.613281 L 209.613281 272.703125 L 209.792969 272.949219 L 210.046875 273.285156 L 210.113281 273.367188 L 210.113281 273.371094 L 210.464844 273.824219 L 210.503906 273.871094 L 210.5625 273.945312 L 210.820312 274.273438 L 210.898438 274.371094 L 211.085938 274.597656 L 211.300781 274.863281 L 211.351562 274.921875 L 211.617188 275.242188 L 211.710938 275.355469 L 211.886719 275.5625 L 212.125 275.839844 L 212.160156 275.878906 L 212.4375 276.195312 L 212.542969 276.316406 L 212.714844 276.507812 L 212.96875 276.792969 L 212.996094 276.820312 L 213.277344 277.128906 L 213.402344 277.261719 L 213.449219 277.3125 L 213.773438 277.65625 L 213.839844 277.722656 L 213.851562 277.738281 L 214.140625 278.039062 L 214.28125 278.183594 L 214.324219 278.226562 L 214.726562 278.636719 C 224.332031 288.246094 237.605469 294.191406 252.261719 294.191406 C 266.921875 294.191406 280.195312 288.246094 289.796875 278.636719 L 289.992188 278.441406 L 290.183594 278.246094 L 290.246094 278.183594 L 290.378906 278.046875 L 290.570312 277.847656 L 290.6875 277.722656 L 290.757812 277.648438 L 290.949219 277.449219 L 291.125 277.261719 L 291.136719 277.25 L 291.324219 277.046875 L 291.507812 276.84375 L 291.554688 276.792969 L 291.691406 276.640625 L 291.980469 276.316406 L 292.058594 276.226562 L 292.402344 275.839844 L 292.421875 275.8125 L 292.78125 275.394531 L 292.816406 275.355469 L 292.957031 275.183594 L 293.132812 274.972656 L 293.222656 274.863281 L 293.308594 274.757812 L 293.484375 274.546875 L 293.828125 274.117188 L 294 273.898438 L 294.023438 273.871094 L 294.167969 273.683594 L 294.339844 273.464844 L 294.414062 273.367188 L 294.507812 273.246094 L 294.671875 273.027344 L 294.800781 272.859375 L 294.839844 272.804688 L 295.003906 272.585938 L 295.164062 272.363281 L 295.179688 272.34375 L 295.328125 272.136719 L 295.488281 271.914062 L 295.550781 271.828125 L 295.648438 271.6875 L 295.808594 271.464844 L 295.835938 271.425781 L 296.121094 271.007812 L 296.277344 270.78125 L 296.28125 270.777344 L 296.429688 270.550781 L 296.734375 270.089844 L 296.886719 269.855469 L 297.035156 269.625 L 297.183594 269.390625 L 297.324219 269.167969 L 297.328125 269.15625 L 297.476562 268.921875 L 297.621094 268.683594 L 297.660156 268.621094 L 297.765625 268.449219 L 298.1875 267.734375 L 298.3125 267.515625 L 298.324219 267.492188 L 298.460938 267.253906 L 298.597656 267.011719 L 298.628906 266.960938 L 298.734375 266.769531 L 298.867188 266.527344 L 298.9375 266.398438 L 299 266.28125 L 299.128906 266.035156 L 299.242188 265.832031 L 299.261719 265.792969 L 299.390625 265.542969 L 299.515625 265.296875 Z M 208.273438 197.070312 C 197.015625 208.332031 190.050781 223.894531 190.050781 241.082031 C 190.050781 258.265625 197.015625 273.832031 208.273438 285.09375 C 219.53125 296.355469 235.085938 303.324219 252.261719 303.324219 C 269.441406 303.324219 284.996094 296.355469 296.253906 285.09375 C 307.511719 273.832031 314.476562 258.265625 314.476562 241.082031 C 314.476562 223.894531 307.511719 208.332031 296.253906 197.070312 C 284.996094 185.804688 269.441406 178.835938 252.261719 178.835938 C 235.085938 178.835938 219.53125 185.804688 208.273438 197.070312 Z M 246.15625 196.425781 C 239.011719 197.394531 232.398438 200.042969 226.726562 203.953125 C 220.941406 207.941406 216.128906 213.265625 212.730469 219.476562 C 211.527344 221.683594 212.34375 224.445312 214.550781 225.648438 C 216.753906 226.851562 219.515625 226.035156 220.71875 223.828125 C 223.421875 218.886719 227.269531 214.640625 231.898438 211.445312 C 236.417969 208.332031 241.683594 206.222656 247.367188 205.453125 C 249.859375 205.117188 251.605469 202.824219 251.273438 200.332031 C 250.9375 197.839844 248.648438 196.089844 246.15625 196.425781 Z M 55.929688 197.292969 C 55.375 197.8125 54.855469 198.378906 54.367188 198.976562 C 53.09375 200.539062 51.996094 202.382812 50.988281 204.378906 L 66.03125 234.296875 L 74.109375 227.4375 L 75.734375 226.0625 L 80.191406 222.277344 C 74.371094 218.0625 69.40625 213.8125 65.308594 209.535156 C 64.730469 208.933594 64.171875 208.332031 63.632812 207.730469 C 63.457031 207.5625 63.292969 207.378906 63.144531 207.1875 C 60.25 203.910156 57.84375 200.613281 55.929688 197.292969 Z M 95.109375 222.277344 L 99.566406 226.0625 L 101.1875 227.4375 L 109.265625 234.296875 L 124.308594 204.382812 C 123.300781 202.382812 122.207031 200.539062 120.933594 198.976562 C 120.441406 198.378906 119.921875 197.8125 119.367188 197.292969 C 117.453125 200.613281 115.046875 203.910156 112.15625 207.183594 C 112.007812 207.382812 111.84375 207.566406 111.660156 207.738281 C 111.121094 208.335938 110.566406 208.9375 109.992188 209.535156 C 105.890625 213.8125 100.929688 218.0625 95.109375 222.277344 Z M 109.921875 195.230469 L 65.378906 195.230469 C 66.40625 196.773438 67.566406 198.316406 68.855469 199.859375 L 106.445312 199.859375 C 107.734375 198.316406 108.894531 196.773438 109.921875 195.230469 Z M 131.722656 209.90625 L 116.375 240.433594 C 115.863281 241.445312 115.160156 242.296875 114.289062 242.964844 C 113.425781 243.621094 112.414062 244.078125 111.285156 244.304688 C 110.183594 244.527344 109.085938 244.5 108.03125 244.230469 C 106.953125 243.953125 105.964844 243.445312 105.113281 242.722656 L 101.1875 239.390625 L 101.1875 311.480469 L 161.34375 311.480469 C 163.59375 311.480469 164.8125 310.710938 165.371094 309.488281 C 165.417969 309.34375 165.476562 309.199219 165.535156 309.058594 C 166.34375 306.511719 166.007812 302.597656 165.304688 298.371094 L 152.730469 222.882812 C 152.367188 220.695312 151.464844 218.777344 150.140625 217.265625 C 148.816406 215.753906 147.035156 214.605469 144.917969 213.957031 Z M 74.109375 239.390625 L 70.183594 242.722656 C 69.335938 243.445312 68.347656 243.953125 67.269531 244.230469 C 66.21875 244.496094 65.117188 244.53125 64.015625 244.308594 L 63.996094 244.308594 C 62.878906 244.078125 61.871094 243.621094 61.011719 242.964844 C 60.136719 242.296875 59.433594 241.441406 58.925781 240.433594 L 43.574219 209.910156 L 30.378906 213.957031 C 28.261719 214.605469 26.484375 215.753906 25.160156 217.265625 C 23.835938 218.777344 22.933594 220.695312 22.570312 222.882812 L 9.996094 298.371094 C 9.289062 302.609375 8.953125 306.53125 9.769531 309.078125 C 9.808594 309.195312 9.847656 309.308594 9.894531 309.417969 L 9.984375 309.613281 C 10.570312 310.761719 11.78125 311.480469 13.953125 311.480469 L 74.109375 311.480469 Z M 97.296875 208.996094 L 78.003906 208.996094 C 80.808594 211.398438 83.921875 213.800781 87.347656 216.203125 L 87.648438 215.945312 L 87.953125 216.203125 C 91.378906 213.800781 94.492188 211.398438 97.296875 208.996094 Z M 165.148438 320.253906 C 164 320.492188 162.738281 320.613281 161.34375 320.613281 L 13.953125 320.613281 C 12.652344 320.613281 11.460938 320.503906 10.371094 320.296875 L 10.371094 321.398438 C 10.371094 322.78125 10.929688 324.03125 11.824219 324.925781 L 11.84375 324.945312 C 12.738281 325.84375 13.988281 326.398438 15.367188 326.398438 L 160.15625 326.398438 C 161.535156 326.398438 162.785156 325.839844 163.679688 324.945312 L 163.6875 324.9375 L 163.679688 324.925781 C 164.585938 324.019531 165.148438 322.769531 165.148438 321.398438 Z M 83.242188 311.480469 L 92.058594 311.480469 L 92.058594 231.640625 L 87.648438 227.898438 L 83.242188 231.640625 Z M 129.945312 267.164062 L 116.601562 267.164062 L 116.601562 285.910156 L 129.941406 293.035156 L 143.28125 285.910156 L 143.28125 267.164062 Z M 115.964844 258.027344 C 113.761719 258.027344 111.722656 258.839844 110.210938 260.152344 C 108.523438 261.617188 107.472656 263.683594 107.472656 266 L 107.472656 286.726562 C 107.472656 288.222656 107.894531 289.625 108.691406 290.855469 C 109.421875 291.992188 110.464844 292.945312 111.765625 293.640625 L 125.746094 301.109375 C 127.078125 301.820312 128.519531 302.179688 129.941406 302.179688 C 131.363281 302.179688 132.804688 301.824219 134.140625 301.109375 L 148.121094 293.640625 C 149.421875 292.949219 150.464844 291.996094 151.195312 290.859375 C 151.992188 289.625 152.414062 288.222656 152.414062 286.726562 L 152.414062 266 C 152.414062 263.6875 151.363281 261.621094 149.671875 260.152344 C 148.164062 258.839844 146.121094 258.027344 143.921875 258.027344 Z M 49.429688 152.492188 C 47.347656 151.210938 45.453125 149.714844 43.753906 148.007812 C 42.046875 146.296875 40.546875 144.378906 39.257812 142.257812 C 37.972656 144.359375 36.472656 146.265625 34.757812 147.972656 C 33.035156 149.6875 31.105469 151.195312 28.96875 152.492188 C 31.105469 153.789062 33.039062 155.296875 34.757812 157.011719 C 36.472656 158.71875 37.972656 160.625 39.257812 162.726562 C 40.546875 160.605469 42.046875 158.6875 43.753906 156.972656 C 45.453125 155.265625 47.347656 153.773438 49.429688 152.492188 Z M 50.207031 141.585938 C 47.789062 139.160156 45.933594 136.09375 44.648438 132.398438 L 44.660156 132.394531 C 44.265625 131.253906 43.523438 130.296875 42.558594 129.605469 L 42.5625 129.597656 C 41.605469 128.914062 40.457031 128.527344 39.25 128.527344 C 38.929688 128.527344 38.621094 128.5625 38.320312 128.625 C 37.441406 128.769531 36.621094 129.113281 35.921875 129.621094 C 34.976562 130.300781 34.246094 131.257812 33.851562 132.417969 L 33.847656 132.417969 C 32.597656 136.066406 30.761719 139.101562 28.339844 141.515625 C 25.898438 143.949219 22.816406 145.8125 19.113281 147.097656 L 19.109375 147.082031 C 17.964844 147.476562 17.011719 148.210938 16.332031 149.160156 C 16.234375 149.296875 16.144531 149.4375 16.0625 149.578125 C 15.539062 150.453125 15.246094 151.453125 15.246094 152.492188 C 15.246094 153.6875 15.632812 154.828125 16.3125 155.789062 L 16.335938 155.820312 L 16.332031 155.820312 C 17.015625 156.773438 17.96875 157.507812 19.109375 157.898438 C 19.222656 157.9375 19.335938 157.972656 19.453125 158.003906 C 23.003906 159.28125 25.972656 161.105469 28.339844 163.46875 C 30.757812 165.882812 32.597656 168.917969 33.847656 172.566406 C 34.234375 173.722656 34.96875 174.679688 35.921875 175.363281 L 35.941406 175.378906 L 35.9375 175.382812 C 36.875 176.050781 38.011719 176.429688 39.230469 176.433594 L 39.25 176.433594 L 39.25 176.453125 C 40.449219 176.453125 41.601562 176.074219 42.5625 175.386719 C 43.515625 174.707031 44.257812 173.742188 44.660156 172.570312 L 44.710938 172.40625 C 45.996094 168.785156 47.828125 165.78125 50.207031 163.394531 C 52.605469 160.988281 55.632812 159.15625 59.28125 157.898438 C 59.4375 157.847656 59.589844 157.785156 59.738281 157.714844 C 60.683594 157.296875 61.484375 156.632812 62.074219 155.804688 C 62.207031 155.621094 62.320312 155.433594 62.417969 155.238281 C 62.871094 154.417969 63.125 153.480469 63.125 152.492188 L 63.140625 152.492188 C 63.140625 151.285156 62.757812 150.136719 62.074219 149.175781 C 61.394531 148.226562 60.433594 147.484375 59.277344 147.085938 L 59.28125 147.082031 C 55.632812 145.828125 52.605469 143.996094 50.207031 141.585938 Z M 131.871094 42.753906 C 127.664062 40.617188 123.953125 37.933594 120.738281 34.707031 C 117.519531 31.476562 114.828125 27.71875 112.667969 23.4375 C 110.523438 27.679688 107.828125 31.414062 104.589844 34.644531 C 101.34375 37.882812 97.5625 40.585938 93.25 42.753906 C 97.5625 44.925781 101.34375 47.628906 104.589844 50.867188 C 107.828125 54.09375 110.523438 57.832031 112.664062 62.074219 C 114.824219 57.792969 117.515625 54.035156 120.738281 50.800781 C 123.953125 47.574219 127.664062 44.890625 131.871094 42.753906 Z M 127.191406 28.285156 C 123.425781 24.503906 120.542969 19.75 118.554688 14.03125 L 118.566406 14.027344 C 118.132812 12.773438 117.320312 11.714844 116.273438 10.972656 C 115.222656 10.222656 113.96875 9.804688 112.652344 9.804688 C 112.375 9.804688 112.109375 9.828125 111.847656 9.871094 C 110.792969 10.007812 109.820312 10.394531 108.992188 10.992188 C 108.867188 11.082031 108.746094 11.179688 108.632812 11.28125 C 107.773438 12.003906 107.113281 12.953125 106.742188 14.054688 C 104.808594 19.707031 101.949219 24.421875 98.171875 28.1875 C 94.371094 31.976562 89.59375 34.871094 83.859375 36.855469 C 82.585938 37.296875 81.535156 38.101562 80.804688 39.132812 C 80.058594 40.175781 79.636719 41.425781 79.636719 42.753906 C 79.636719 44.085938 80.058594 45.335938 80.804688 46.378906 C 81.535156 47.410156 82.589844 48.210938 83.859375 48.652344 C 89.59375 50.636719 94.371094 53.53125 98.171875 57.324219 C 101.949219 61.089844 104.808594 65.804688 106.742188 71.460938 C 107.171875 72.722656 107.972656 73.773438 109.007812 74.515625 L 109.019531 74.523438 L 109.007812 74.535156 C 110.03125 75.269531 111.28125 75.679688 112.632812 75.6875 L 112.652344 75.6875 L 112.652344 75.707031 C 113.957031 75.707031 115.207031 75.285156 116.261719 74.539062 L 116.273438 74.53125 L 116.277344 74.539062 C 117.320312 73.792969 118.128906 72.742188 118.566406 71.460938 L 118.617188 71.296875 C 120.605469 65.660156 123.464844 60.964844 127.191406 57.222656 C 130.9375 53.460938 135.636719 50.609375 141.28125 48.667969 C 141.421875 48.621094 141.558594 48.566406 141.691406 48.503906 C 142.769531 48.046875 143.675781 47.308594 144.335938 46.378906 C 145.074219 45.34375 145.488281 44.09375 145.484375 42.753906 L 145.5 42.753906 C 145.5 41.441406 145.085938 40.191406 144.347656 39.148438 L 144.351562 39.144531 C 143.609375 38.089844 142.546875 37.28125 141.277344 36.84375 L 141.28125 36.839844 C 135.636719 34.898438 130.9375 32.046875 127.191406 28.285156 Z M 108.632812 11.28125 C 108.75 11.183594 108.871094 11.085938 108.996094 10.996094 Z M 103.265625 106.148438 C 105.660156 108.558594 108.691406 110.390625 112.335938 111.644531 L 112.335938 111.648438 C 113.492188 112.046875 114.453125 112.789062 115.132812 113.738281 C 115.816406 114.699219 116.199219 115.847656 116.199219 117.054688 L 116.179688 117.054688 C 116.183594 118.042969 115.929688 118.980469 115.476562 119.800781 C 115.378906 119.996094 115.261719 120.183594 115.132812 120.367188 C 114.539062 121.195312 113.738281 121.859375 112.792969 122.277344 C 112.648438 122.347656 112.496094 122.410156 112.335938 122.460938 C 108.691406 123.71875 105.664062 125.550781 103.265625 127.957031 C 100.886719 130.34375 99.050781 133.347656 97.769531 136.96875 L 97.714844 137.132812 C 97.316406 138.304688 96.574219 139.269531 95.621094 139.949219 C 94.660156 140.636719 93.507812 141.015625 92.308594 141.015625 L 92.308594 140.996094 L 92.289062 140.996094 C 91.070312 140.992188 89.933594 140.613281 88.996094 139.945312 L 89 139.941406 L 88.976562 139.925781 C 88.027344 139.242188 87.292969 138.285156 86.902344 137.128906 C 85.65625 133.480469 83.816406 130.445312 81.398438 128.03125 C 79.027344 125.667969 76.0625 123.84375 72.507812 122.566406 C 72.394531 122.535156 72.28125 122.5 72.164062 122.460938 C 71.023438 122.070312 70.074219 121.335938 69.390625 120.386719 L 69.394531 120.382812 L 69.371094 120.351562 C 68.691406 119.390625 68.304688 118.25 68.304688 117.054688 C 68.304688 116.015625 68.597656 115.015625 69.121094 114.140625 C 69.203125 114 69.289062 113.859375 69.390625 113.722656 C 70.070312 112.773438 71.023438 112.039062 72.164062 111.644531 L 72.171875 111.660156 C 75.875 110.375 78.957031 108.511719 81.398438 106.078125 C 83.816406 103.664062 85.65625 100.628906 86.902344 96.980469 L 86.910156 96.980469 C 87.300781 95.820312 88.03125 94.863281 88.976562 94.183594 C 89.679688 93.675781 90.5 93.332031 91.378906 93.1875 C 91.679688 93.125 91.988281 93.089844 92.308594 93.089844 C 93.511719 93.089844 94.660156 93.476562 95.621094 94.160156 L 95.613281 94.167969 C 96.582031 94.859375 97.324219 95.816406 97.714844 96.957031 L 97.707031 96.960938 C 98.992188 100.65625 100.847656 103.722656 103.265625 106.148438 Z M 103.265625 106.148438 " fill-opacity="1" fill-rule="evenodd"/></g></svg>