<svg xmlns="http://www.w3.org/2000/svg" xmlns:xlink="http://www.w3.org/1999/xlink" width="500" zoomAndPan="magnify" viewBox="0 0 375 374.999991" height="500" preserveAspectRatio="xMidYMid meet" version="1.0"><defs><clipPath id="87298bc3aa"><path d="M 0 27.613281 L 317 27.613281 L 317 345 L 0 345 Z M 0 27.613281 " clip-rule="nonzero"/></clipPath></defs><path fill="#0a66c2" d="M 356.480469 326.589844 C 359.726562 326.621094 362.386719 324.019531 362.414062 320.78125 C 362.414062 320.644531 362.414062 320.511719 362.414062 320.378906 C 362.414062 315.972656 359.753906 313.882812 354.316406 313.882812 L 345.511719 313.882812 L 345.511719 336.910156 L 348.828125 336.910156 L 348.828125 326.875 L 352.894531 326.875 L 352.984375 326.992188 L 359.304688 336.910156 L 362.847656 336.910156 L 356.046875 326.648438 L 356.496094 326.589844 Z M 352.65625 324.273438 L 348.8125 324.273438 L 348.8125 316.496094 L 353.6875 316.496094 C 356.199219 316.496094 359.066406 316.914062 359.066406 320.199219 C 359.066406 323.976562 356.167969 324.289062 352.640625 324.289062 " fill-opacity="1" fill-rule="nonzero"/><g clip-path="url(#87298bc3aa)"><path fill="#0a66c2" d="M 270.078125 297.722656 L 223.117188 297.722656 L 223.117188 224.234375 C 223.117188 206.71875 222.804688 184.152344 198.695312 184.152344 C 174.585938 184.152344 170.492188 203.253906 170.492188 222.964844 L 170.492188 297.722656 L 123.53125 297.722656 L 123.53125 146.59375 L 168.621094 146.59375 L 168.621094 167.25 L 169.25 167.25 C 178.441406 151.539062 195.542969 142.160156 213.730469 142.832031 C 261.335938 142.832031 270.109375 174.117188 270.109375 214.8125 L 270.109375 297.722656 Z M 70.515625 125.941406 C 55.464844 125.941406 43.253906 113.757812 43.253906 98.71875 C 43.253906 83.679688 55.449219 71.480469 70.5 71.480469 C 85.550781 71.480469 97.761719 83.664062 97.761719 98.703125 C 97.761719 113.742188 85.566406 125.941406 70.515625 125.941406 M 94.011719 297.722656 L 46.992188 297.722656 L 46.992188 146.59375 L 94.011719 146.59375 Z M 293.5 27.886719 L 23.390625 27.886719 C 10.625 27.753906 0.148438 37.96875 0 50.722656 L 0 321.722656 C 0.148438 334.488281 10.613281 344.703125 23.390625 344.570312 L 293.5 344.570312 C 306.292969 344.734375 316.800781 334.503906 316.980469 321.722656 L 316.980469 50.707031 C 316.800781 37.921875 306.292969 27.707031 293.5 27.871094 " fill-opacity="1" fill-rule="nonzero"/></g><path fill="#0a66c2" d="M 353.042969 303.621094 C 341.101562 303.742188 331.523438 313.492188 331.640625 325.425781 C 331.761719 337.355469 341.519531 346.929688 353.460938 346.808594 C 365.40625 346.691406 374.984375 336.9375 374.867188 325.007812 C 374.746094 313.238281 365.238281 303.726562 353.460938 303.621094 L 353.042969 303.621094 M 353.042969 344.34375 C 342.582031 344.523438 333.957031 336.175781 333.777344 325.722656 C 333.597656 315.269531 341.953125 306.652344 352.417969 306.472656 C 362.878906 306.292969 371.503906 314.644531 371.683594 325.097656 L 371.683594 325.410156 C 371.90625 335.640625 363.777344 344.105469 353.539062 344.332031 L 353.042969 344.332031 " fill-opacity="1" fill-rule="nonzero"/></svg>