<svg xmlns="http://www.w3.org/2000/svg" xmlns:xlink="http://www.w3.org/1999/xlink" width="500" zoomAndPan="magnify" viewBox="0 0 375 374.999991" height="500" preserveAspectRatio="xMidYMid meet" version="1.0"><defs><clipPath id="dd047d12f4"><path d="M 0 165 L 375 165 L 375 340.6875 L 0 340.6875 Z M 0 165 " clip-rule="nonzero"/></clipPath><clipPath id="2e4a982d85"><path d="M 178 34.6875 L 274 34.6875 L 274 131 L 178 131 Z M 178 34.6875 " clip-rule="nonzero"/></clipPath></defs><path fill="#000000" d="M 33.722656 205.144531 L 64.429688 205.144531 L 64.429688 259.367188 C 64.429688 261.894531 66.476562 263.941406 69 263.941406 C 71.523438 263.941406 73.570312 261.894531 73.570312 259.367188 L 73.570312 205.144531 L 87.160156 205.144531 L 87.160156 236.757812 C 87.160156 239.285156 89.207031 241.335938 91.730469 241.335938 C 94.253906 241.335938 96.300781 239.285156 96.300781 236.757812 L 96.300781 205.144531 L 104.277344 205.144531 C 108.652344 205.144531 112.84375 203.277344 115.773438 200.023438 C 118.699219 196.769531 120.121094 192.40625 119.667969 188.046875 L 111.574219 110.085938 C 110.75 102.164062 104.136719 96.191406 96.183594 96.191406 L 41.816406 96.191406 C 33.863281 96.191406 27.246094 102.164062 26.421875 110.085938 L 18.328125 188.050781 C 17.878906 192.40625 19.300781 196.773438 22.230469 200.027344 C 25.160156 203.277344 29.347656 205.144531 33.722656 205.144531 Z M 27.421875 188.992188 L 35.515625 111.03125 C 35.851562 107.789062 38.558594 105.34375 41.816406 105.34375 L 96.183594 105.34375 C 99.4375 105.34375 102.148438 107.789062 102.484375 111.03125 L 110.578125 188.996094 C 110.765625 190.804688 110.199219 192.542969 108.980469 193.894531 C 107.765625 195.25 106.09375 195.992188 104.277344 195.992188 L 33.722656 195.992188 C 31.90625 195.992188 30.234375 195.25 29.019531 193.898438 C 27.800781 192.546875 27.234375 190.804688 27.421875 188.992188 Z M 27.421875 188.992188 " fill-opacity="1" fill-rule="nonzero"/><path fill="#000000" d="M 71.542969 272.476562 C 71.292969 272.292969 71.019531 272.15625 70.746094 272.042969 C 70.46875 271.925781 70.175781 271.835938 69.898438 271.789062 C 69.304688 271.675781 68.6875 271.675781 68.09375 271.789062 C 67.820312 271.835938 67.523438 271.925781 67.25 272.042969 C 66.972656 272.15625 66.699219 272.292969 66.472656 272.476562 C 66.21875 272.636719 65.96875 272.820312 65.765625 273.046875 C 65.558594 273.253906 65.375 273.484375 65.195312 273.734375 C 65.03125 273.984375 64.894531 274.238281 64.78125 274.511719 C 64.667969 274.808594 64.574219 275.082031 64.53125 275.382812 C 64.460938 275.679688 64.4375 275.976562 64.4375 276.273438 C 64.4375 276.570312 64.460938 276.867188 64.53125 277.167969 C 64.574219 277.464844 64.667969 277.738281 64.78125 278.011719 C 64.894531 278.285156 65.03125 278.5625 65.195312 278.8125 C 65.375 279.066406 65.558594 279.292969 65.765625 279.5 C 65.96875 279.730469 66.21875 279.910156 66.472656 280.070312 C 66.699219 280.230469 66.972656 280.390625 67.25 280.507812 C 67.523438 280.621094 67.820312 280.6875 68.09375 280.757812 C 68.390625 280.828125 68.6875 280.847656 69.007812 280.847656 C 69.304688 280.847656 69.601562 280.828125 69.898438 280.757812 C 70.175781 280.6875 70.46875 280.621094 70.746094 280.507812 C 71.019531 280.390625 71.292969 280.230469 71.542969 280.070312 C 71.796875 279.910156 72.023438 279.730469 72.230469 279.5 C 72.4375 279.292969 72.640625 279.066406 72.800781 278.8125 C 72.960938 278.5625 73.097656 278.285156 73.214844 278.011719 C 73.328125 277.738281 73.417969 277.464844 73.488281 277.167969 C 73.53125 276.867188 73.578125 276.570312 73.578125 276.273438 C 73.578125 275.0625 73.074219 273.894531 72.230469 273.046875 C 72.023438 272.820312 71.796875 272.636719 71.542969 272.476562 Z M 71.542969 272.476562 " fill-opacity="1" fill-rule="nonzero"/><path fill="#000000" d="M 239.945312 240.105469 C 240.195312 240.265625 240.445312 240.402344 240.71875 240.515625 C 240.996094 240.628906 241.292969 240.722656 241.589844 240.792969 C 241.886719 240.835938 242.183594 240.859375 242.480469 240.859375 C 243.691406 240.859375 244.859375 240.378906 245.703125 239.53125 C 246.546875 238.6875 247.050781 237.496094 247.050781 236.285156 C 247.050781 235.09375 246.546875 233.90625 245.703125 233.058594 C 244.652344 232.003906 243.074219 231.503906 241.589844 231.800781 C 241.292969 231.871094 240.996094 231.960938 240.71875 232.074219 C 240.445312 232.1875 240.195312 232.328125 239.945312 232.484375 C 239.691406 232.648438 239.464844 232.851562 239.238281 233.058594 C 239.027344 233.265625 238.847656 233.492188 238.664062 233.746094 C 238.503906 233.996094 238.367188 234.269531 238.253906 234.546875 C 238.140625 234.820312 238.046875 235.117188 238.003906 235.390625 C 237.933594 235.691406 237.910156 235.988281 237.910156 236.285156 C 237.910156 237.496094 238.390625 238.6875 239.238281 239.53125 C 239.464844 239.738281 239.691406 239.921875 239.945312 240.105469 Z M 239.945312 240.105469 " fill-opacity="1" fill-rule="nonzero"/><g clip-path="url(#dd047d12f4)"><path fill="#000000" d="M 370.382812 331.433594 L 332.546875 331.433594 L 332.546875 313.367188 L 337.347656 313.367188 C 348.003906 313.367188 356.671875 304.6875 356.671875 294.019531 L 356.671875 253.757812 C 356.671875 246.367188 353.582031 239.230469 348.195312 234.175781 C 344.382812 230.597656 339.742188 228.300781 334.746094 227.390625 L 334.746094 195.96875 C 334.746094 178.9375 320.910156 165.082031 303.902344 165.082031 L 181.050781 165.082031 C 164.042969 165.082031 150.203125 178.9375 150.203125 195.96875 L 150.203125 227.394531 C 145.214844 228.308594 140.566406 230.597656 136.757812 234.175781 C 131.371094 239.230469 128.277344 246.367188 128.277344 253.757812 L 128.277344 294.019531 C 128.277344 304.6875 136.949219 313.367188 147.601562 313.367188 L 152.402344 313.367188 L 152.402344 331.433594 L 102.324219 331.433594 L 102.324219 315.722656 C 102.324219 313.195312 100.277344 311.144531 97.753906 311.144531 L 73.570312 311.144531 L 73.570312 292.042969 C 73.570312 289.515625 71.523438 287.46875 69 287.46875 C 66.476562 287.46875 64.429688 289.515625 64.429688 292.042969 L 64.429688 311.144531 L 34.769531 311.144531 C 32.246094 311.144531 30.199219 313.195312 30.199219 315.722656 L 30.199219 331.433594 L 4.535156 331.433594 C 2.011719 331.433594 -0.0351562 333.484375 -0.0351562 336.011719 C -0.0351562 338.539062 2.011719 340.585938 4.535156 340.585938 L 370.382812 340.585938 C 372.90625 340.585938 374.953125 338.539062 374.953125 336.011719 C 374.953125 333.484375 372.90625 331.433594 370.382812 331.433594 Z M 323.410156 331.433594 L 308.59375 331.433594 L 308.59375 313.367188 L 323.410156 313.367188 Z M 299.453125 313.367188 L 299.453125 331.433594 L 185.496094 331.433594 L 185.496094 313.367188 Z M 181.050781 174.234375 L 237.90625 174.234375 L 237.90625 221.125 C 237.90625 223.648438 239.953125 225.699219 242.476562 225.699219 C 245 225.699219 247.046875 223.648438 247.046875 221.125 L 247.046875 174.234375 L 303.902344 174.234375 C 315.867188 174.234375 325.605469 183.984375 325.605469 195.96875 L 325.605469 227.265625 C 312.78125 229.351562 303.066406 240.855469 303.066406 254.519531 L 303.066406 265.570312 L 247.039062 265.570312 C 247.039062 265.546875 247.046875 265.527344 247.046875 265.507812 L 247.046875 252.75 C 247.046875 250.222656 245 248.171875 242.476562 248.171875 C 239.953125 248.171875 237.90625 250.222656 237.90625 252.75 L 237.90625 265.507812 C 237.90625 265.527344 237.914062 265.546875 237.914062 265.570312 L 181.886719 265.570312 L 181.886719 254.519531 C 181.886719 240.855469 172.171875 229.351562 159.34375 227.265625 L 159.34375 195.96875 C 159.34375 183.984375 169.082031 174.234375 181.050781 174.234375 Z M 137.417969 294.023438 L 137.417969 253.757812 C 137.417969 248.816406 139.402344 244.234375 143.007812 240.851562 C 146.316406 237.746094 150.5625 236.074219 155.074219 236.074219 C 155.46875 236.074219 155.867188 236.085938 156.265625 236.109375 C 165.507812 236.710938 172.75 244.796875 172.75 254.519531 L 172.75 270.144531 C 172.75 272.671875 174.792969 274.722656 177.316406 274.722656 L 307.636719 274.722656 C 310.160156 274.722656 312.207031 272.671875 312.207031 270.144531 L 312.207031 254.519531 C 312.207031 244.796875 319.445312 236.710938 328.683594 236.109375 C 333.625 235.804688 338.34375 237.472656 341.945312 240.851562 C 345.546875 244.234375 347.53125 248.816406 347.53125 253.757812 L 347.53125 294.023438 C 347.53125 299.644531 342.964844 304.21875 337.347656 304.21875 L 147.601562 304.21875 C 141.988281 304.21875 137.417969 299.644531 137.417969 294.023438 Z M 161.542969 313.367188 L 176.355469 313.367188 L 176.355469 331.433594 L 161.542969 331.433594 Z M 39.339844 320.296875 L 93.183594 320.296875 L 93.183594 331.433594 L 39.339844 331.433594 Z M 39.339844 320.296875 " fill-opacity="1" fill-rule="nonzero"/></g><g clip-path="url(#2e4a982d85)"><path fill="#000000" d="M 225.804688 130.320312 C 252.132812 130.320312 273.554688 108.875 273.554688 82.515625 C 273.554688 56.15625 252.132812 34.707031 225.804688 34.707031 C 199.476562 34.707031 178.058594 56.15625 178.058594 82.515625 C 178.058594 108.875 199.476562 130.320312 225.804688 130.320312 Z M 225.804688 43.859375 C 247.097656 43.859375 264.414062 61.199219 264.414062 82.515625 C 264.414062 103.828125 247.097656 121.171875 225.804688 121.171875 C 204.515625 121.171875 187.199219 103.828125 187.199219 82.515625 C 187.199219 61.199219 204.519531 43.859375 225.804688 43.859375 Z M 225.804688 43.859375 " fill-opacity="1" fill-rule="nonzero"/></g><path fill="#000000" d="M 225.804688 87.089844 L 245.367188 87.089844 C 247.890625 87.089844 249.9375 85.042969 249.9375 82.515625 C 249.9375 79.988281 247.890625 77.941406 245.367188 77.941406 L 230.375 77.941406 L 230.375 57.175781 C 230.375 54.648438 228.328125 52.597656 225.804688 52.597656 C 223.28125 52.597656 221.234375 54.648438 221.234375 57.175781 L 221.234375 82.515625 C 221.234375 85.042969 223.28125 87.089844 225.804688 87.089844 Z M 225.804688 87.089844 " fill-opacity="1" fill-rule="nonzero"/></svg>