<svg xmlns="http://www.w3.org/2000/svg" xmlns:xlink="http://www.w3.org/1999/xlink" width="500" zoomAndPan="magnify" viewBox="0 0 375 374.999991" height="500" preserveAspectRatio="xMidYMid meet" version="1.0"><defs><clipPath id="734b86ef85"><path d="M 0 25.078125 L 375 25.078125 L 375 349.828125 L 0 349.828125 Z M 0 25.078125 " clip-rule="nonzero"/></clipPath></defs><g clip-path="url(#734b86ef85)"><path fill="#231f20" d="M 262.257812 349.808594 C 261.410156 349.808594 260.601562 349.636719 259.828125 349.296875 L 211.140625 327.785156 C 210.269531 327.398438 209.53125 326.835938 208.925781 326.101562 C 208.320312 325.363281 207.914062 324.53125 207.707031 323.597656 L 202.402344 299.746094 C 202.347656 299.5 202.25 299.273438 202.113281 299.0625 C 201.972656 298.851562 201.800781 298.671875 201.597656 298.523438 C 201.394531 298.375 201.171875 298.269531 200.929688 298.203125 C 200.683594 298.136719 200.4375 298.113281 200.1875 298.136719 L 170.355469 301.003906 C 169.847656 301.054688 169.339844 301.039062 168.835938 300.957031 L 126.683594 294.238281 C 126.316406 294.183594 125.960938 294.21875 125.613281 294.355469 C 125.265625 294.488281 124.976562 294.699219 124.746094 294.988281 L 119.332031 301.753906 C 118.398438 302.921875 117.191406 303.640625 115.71875 303.910156 L 112.007812 304.582031 C 111.082031 304.75 110.167969 304.699219 109.265625 304.441406 C 108.363281 304.179688 107.566406 303.734375 106.875 303.097656 L 69.785156 269.058594 C 69.210938 268.535156 68.757812 267.925781 68.425781 267.226562 C 68.089844 266.523438 67.898438 265.789062 67.851562 265.011719 L 67.445312 258.476562 C 67.421875 258.117188 67.3125 257.785156 67.113281 257.480469 C 66.917969 257.179688 66.660156 256.941406 66.339844 256.773438 L 57.75 252.277344 C 57.53125 252.164062 57.296875 252.089844 57.050781 252.058594 C 56.804688 252.027344 56.5625 252.042969 56.320312 252.097656 C 56.082031 252.15625 55.855469 252.25 55.648438 252.386719 C 55.445312 252.523438 55.265625 252.691406 55.121094 252.890625 L 53.382812 255.277344 C 53.230469 255.488281 53.066406 255.6875 52.886719 255.875 C 52.707031 256.066406 52.519531 256.242188 52.316406 256.40625 C 52.113281 256.570312 51.902344 256.71875 51.683594 256.855469 C 51.460938 256.992188 51.230469 257.113281 50.996094 257.21875 C 50.757812 257.328125 50.515625 257.417969 50.265625 257.492188 C 50.019531 257.570312 49.765625 257.628906 49.507812 257.671875 C 49.253906 257.710938 48.996094 257.738281 48.734375 257.746094 C 48.476562 257.757812 48.214844 257.75 47.957031 257.722656 C 47.699219 257.699219 47.441406 257.65625 47.191406 257.597656 C 46.9375 257.542969 46.6875 257.46875 46.445312 257.378906 C 46.199219 257.289062 45.964844 257.179688 45.734375 257.0625 C 45.503906 256.941406 45.28125 256.804688 45.070312 256.65625 C 44.859375 256.503906 44.65625 256.34375 44.464844 256.167969 C 44.273438 255.992188 44.09375 255.804688 43.925781 255.605469 C 43.761719 255.40625 43.605469 255.195312 43.46875 254.976562 C 43.328125 254.757812 43.203125 254.53125 43.09375 254.296875 L 35.082031 237.210938 C 34.792969 236.597656 34.320312 236.21875 33.660156 236.070312 L 25.203125 234.191406 C 24.742188 234.089844 24.304688 234.136719 23.878906 234.335938 L 16.859375 237.609375 C 16.136719 237.949219 15.378906 238.136719 14.582031 238.171875 C 13.785156 238.207031 13.015625 238.085938 12.265625 237.8125 L 3.949219 234.789062 C 3.371094 234.574219 2.835938 234.28125 2.347656 233.90625 C 1.859375 233.53125 1.441406 233.09375 1.085938 232.585938 C 0.734375 232.082031 0.464844 231.539062 0.277344 230.949219 C 0.09375 230.363281 0 229.761719 -0.00390625 229.148438 L -0.00390625 55.128906 C 0 54.738281 0.0390625 54.347656 0.113281 53.960938 C 0.191406 53.574219 0.304688 53.199219 0.457031 52.835938 C 0.609375 52.472656 0.792969 52.125 1.011719 51.796875 C 1.230469 51.472656 1.480469 51.167969 1.757812 50.890625 C 2.035156 50.609375 2.339844 50.363281 2.667969 50.144531 C 2.996094 49.925781 3.339844 49.738281 3.703125 49.589844 C 4.070312 49.4375 4.445312 49.324219 4.828125 49.246094 C 5.214844 49.167969 5.605469 49.128906 6 49.128906 L 231.941406 49.128906 C 232.511719 49.132812 233 48.929688 233.402344 48.523438 L 245.464844 36.46875 C 246.023438 35.902344 246.675781 35.46875 247.410156 35.164062 C 248.144531 34.859375 248.910156 34.707031 249.707031 34.710938 L 281.769531 34.710938 C 282.566406 34.707031 283.332031 34.859375 284.066406 35.164062 C 284.804688 35.46875 285.453125 35.902344 286.011719 36.46875 L 304.050781 54.5 C 304.246094 54.695312 304.46875 54.84375 304.722656 54.949219 C 304.972656 55.050781 305.238281 55.105469 305.511719 55.105469 C 305.785156 55.105469 306.050781 55.050781 306.304688 54.949219 C 306.554688 54.84375 306.78125 54.695312 306.972656 54.5 L 309.714844 51.761719 C 310.273438 51.195312 310.921875 50.761719 311.660156 50.457031 C 312.394531 50.152344 313.160156 50 313.957031 50.003906 L 321.363281 50.003906 C 321.636719 50.003906 321.902344 49.949219 322.152344 49.84375 C 322.40625 49.742188 322.628906 49.589844 322.824219 49.398438 C 323.019531 49.203125 323.167969 48.980469 323.273438 48.726562 C 323.378906 48.476562 323.429688 48.210938 323.429688 47.9375 L 323.429688 38.347656 C 323.429688 37.550781 323.578125 36.785156 323.882812 36.050781 C 324.1875 35.316406 324.625 34.664062 325.1875 34.105469 L 331.863281 27.433594 C 332.140625 27.15625 332.445312 26.90625 332.773438 26.6875 C 333.101562 26.46875 333.445312 26.285156 333.808594 26.136719 C 334.175781 25.984375 334.550781 25.871094 334.9375 25.792969 C 335.324219 25.71875 335.710938 25.679688 336.105469 25.679688 C 336.5 25.679688 336.890625 25.71875 337.277344 25.792969 C 337.664062 25.871094 338.039062 25.984375 338.402344 26.136719 C 338.765625 26.285156 339.113281 26.46875 339.441406 26.6875 C 339.769531 26.90625 340.074219 27.15625 340.351562 27.433594 L 345.117188 32.199219 C 345.398438 32.476562 345.730469 32.660156 346.113281 32.75 C 346.496094 32.835938 346.875 32.820312 347.246094 32.695312 L 367.058594 25.933594 C 367.511719 25.777344 367.976562 25.679688 368.449219 25.636719 C 368.925781 25.59375 369.398438 25.605469 369.871094 25.675781 C 370.34375 25.746094 370.800781 25.867188 371.246094 26.046875 C 371.6875 26.226562 372.105469 26.453125 372.492188 26.730469 C 372.878906 27.007812 373.230469 27.328125 373.542969 27.691406 C 373.855469 28.050781 374.121094 28.445312 374.339844 28.867188 C 374.554688 29.292969 374.722656 29.738281 374.835938 30.199219 C 374.945312 30.664062 375.003906 31.136719 375.003906 31.613281 L 375.003906 44.375 C 375.003906 44.941406 374.921875 45.496094 374.765625 46.039062 L 358.132812 103.59375 C 358.082031 103.78125 358.054688 103.972656 358.054688 104.164062 L 358.054688 131.890625 C 358.054688 132.910156 357.808594 133.867188 357.320312 134.765625 L 342.664062 161.632812 C 342.492188 161.941406 342.410156 162.269531 342.410156 162.621094 L 342.410156 173.722656 C 342.410156 174.746094 342.167969 175.707031 341.675781 176.605469 C 341.1875 177.503906 340.507812 178.226562 339.644531 178.777344 L 317.171875 193.179688 C 316.796875 193.417969 316.53125 193.742188 316.367188 194.152344 L 305.242188 221.960938 C 305.199219 222.066406 305.164062 222.179688 305.140625 222.292969 L 303.523438 229.839844 C 303.257812 231.074219 302.664062 232.121094 301.738281 232.980469 L 294.746094 239.46875 C 294.335938 239.847656 294.113281 240.320312 294.089844 240.878906 L 292.980469 263.050781 C 292.921875 264.09375 292.617188 265.054688 292.0625 265.9375 C 291.507812 266.824219 290.773438 267.515625 289.859375 268.019531 L 285.769531 270.25 C 285.394531 270.453125 285.109375 270.746094 284.917969 271.125 L 269.601562 301.132812 C 269.460938 301.410156 269.386719 301.707031 269.375 302.015625 L 268.257812 343.964844 C 268.246094 344.351562 268.199219 344.734375 268.117188 345.113281 C 268.03125 345.492188 267.910156 345.859375 267.753906 346.210938 C 267.601562 346.566406 267.414062 346.902344 267.191406 347.222656 C 266.972656 347.542969 266.722656 347.835938 266.445312 348.105469 C 266.167969 348.375 265.867188 348.617188 265.542969 348.828125 C 265.21875 349.042969 264.875 349.21875 264.519531 349.367188 C 264.160156 349.511719 263.789062 349.621094 263.410156 349.695312 C 263.027344 349.773438 262.644531 349.808594 262.257812 349.808594 Z M 200.386719 294.191406 C 201.070312 294.195312 201.734375 294.308594 202.375 294.535156 C 203.019531 294.761719 203.609375 295.089844 204.140625 295.515625 C 204.671875 295.941406 205.121094 296.445312 205.480469 297.023438 C 205.84375 297.605469 206.097656 298.226562 206.246094 298.890625 L 211.546875 322.746094 C 211.699219 323.425781 212.09375 323.90625 212.730469 324.1875 L 261.421875 345.695312 C 261.574219 345.765625 261.738281 345.8125 261.90625 345.839844 C 262.070312 345.871094 262.238281 345.878906 262.410156 345.867188 C 262.578125 345.855469 262.742188 345.820312 262.90625 345.765625 C 263.066406 345.714844 263.21875 345.640625 263.363281 345.550781 C 263.503906 345.460938 263.636719 345.355469 263.753906 345.230469 C 263.871094 345.109375 263.96875 344.972656 264.054688 344.824219 C 264.136719 344.679688 264.203125 344.523438 264.246094 344.359375 C 264.292969 344.195312 264.316406 344.03125 264.324219 343.859375 L 265.441406 301.910156 C 265.46875 301.007812 265.683594 300.148438 266.09375 299.34375 L 281.410156 269.335938 C 281.972656 268.234375 282.796875 267.386719 283.882812 266.792969 L 287.972656 264.5625 C 288.289062 264.390625 288.542969 264.152344 288.730469 263.847656 C 288.921875 263.542969 289.027344 263.210938 289.046875 262.851562 L 290.15625 240.683594 C 290.195312 239.898438 290.378906 239.15625 290.707031 238.445312 C 291.039062 237.734375 291.492188 237.113281 292.066406 236.582031 L 299.058594 230.09375 C 299.378906 229.800781 299.582031 229.4375 299.671875 229.011719 L 301.289062 221.46875 C 301.359375 221.136719 301.460938 220.8125 301.585938 220.5 L 312.710938 192.691406 C 313.1875 191.5 313.964844 190.558594 315.046875 189.867188 L 337.519531 175.464844 C 337.816406 175.273438 338.050781 175.023438 338.21875 174.714844 C 338.390625 174.40625 338.472656 174.074219 338.472656 173.722656 L 338.472656 162.621094 C 338.472656 161.601562 338.71875 160.644531 339.207031 159.746094 L 353.863281 132.878906 C 354.03125 132.570312 354.117188 132.242188 354.117188 131.890625 L 354.117188 104.164062 C 354.117188 103.597656 354.195312 103.042969 354.355469 102.5 L 370.984375 44.945312 C 371.039062 44.757812 371.066406 44.566406 371.066406 44.371094 L 371.066406 31.613281 C 371.066406 31.445312 371.046875 31.285156 371.007812 31.125 C 370.96875 30.964844 370.914062 30.8125 370.835938 30.667969 C 370.761719 30.519531 370.671875 30.382812 370.5625 30.261719 C 370.457031 30.136719 370.335938 30.027344 370.203125 29.929688 C 370.066406 29.835938 369.925781 29.753906 369.773438 29.695312 C 369.621094 29.632812 369.460938 29.589844 369.300781 29.566406 C 369.136719 29.542969 368.972656 29.539062 368.808594 29.554688 C 368.644531 29.570312 368.484375 29.601562 368.332031 29.65625 L 348.519531 36.417969 C 347.988281 36.59375 347.441406 36.699219 346.882812 36.726562 C 346.320312 36.753906 345.769531 36.703125 345.222656 36.574219 C 344.675781 36.449219 344.15625 36.25 343.667969 35.980469 C 343.175781 35.707031 342.730469 35.375 342.332031 34.980469 L 337.566406 30.214844 C 337.375 30.023438 337.148438 29.871094 336.898438 29.769531 C 336.644531 29.664062 336.378906 29.609375 336.105469 29.609375 C 335.832031 29.609375 335.570312 29.664062 335.316406 29.769531 C 335.0625 29.871094 334.839844 30.023438 334.644531 30.214844 L 327.972656 36.886719 C 327.566406 37.289062 327.363281 37.777344 327.367188 38.347656 L 327.367188 47.9375 C 327.367188 48.328125 327.328125 48.71875 327.25 49.105469 C 327.171875 49.492188 327.058594 49.867188 326.90625 50.230469 C 326.753906 50.59375 326.570312 50.941406 326.351562 51.269531 C 326.132812 51.597656 325.882812 51.898438 325.605469 52.175781 C 325.328125 52.457031 325.023438 52.703125 324.695312 52.921875 C 324.367188 53.140625 324.023438 53.328125 323.660156 53.476562 C 323.296875 53.628906 322.921875 53.742188 322.535156 53.820312 C 322.148438 53.898438 321.757812 53.9375 321.363281 53.9375 L 313.957031 53.9375 C 313.386719 53.933594 312.898438 54.136719 312.496094 54.542969 L 309.757812 57.28125 C 309.480469 57.558594 309.175781 57.808594 308.847656 58.027344 C 308.519531 58.246094 308.171875 58.429688 307.808594 58.582031 C 307.445312 58.730469 307.070312 58.84375 306.683594 58.921875 C 306.296875 59 305.90625 59.035156 305.511719 59.035156 C 305.117188 59.035156 304.726562 59 304.34375 58.921875 C 303.957031 58.84375 303.582031 58.730469 303.214844 58.582031 C 302.851562 58.429688 302.507812 58.246094 302.179688 58.027344 C 301.851562 57.808594 301.546875 57.558594 301.269531 57.28125 L 283.230469 39.25 C 282.828125 38.84375 282.339844 38.644531 281.769531 38.644531 L 249.710938 38.644531 C 249.136719 38.644531 248.648438 38.84375 248.246094 39.25 L 236.1875 51.304688 C 235.625 51.871094 234.976562 52.304688 234.242188 52.609375 C 233.503906 52.914062 232.738281 53.066406 231.941406 53.0625 L 6 53.0625 C 5.726562 53.0625 5.464844 53.117188 5.210938 53.222656 C 4.957031 53.328125 4.734375 53.476562 4.539062 53.671875 C 4.347656 53.863281 4.195312 54.085938 4.09375 54.339844 C 3.988281 54.59375 3.933594 54.855469 3.933594 55.128906 L 3.933594 229.148438 C 3.933594 229.582031 4.058594 229.976562 4.308594 230.332031 C 4.558594 230.6875 4.886719 230.941406 5.292969 231.089844 L 13.613281 234.113281 C 14.148438 234.3125 14.675781 234.289062 15.195312 234.042969 L 22.214844 230.769531 C 23.445312 230.195312 24.726562 230.058594 26.054688 230.347656 L 34.511719 232.226562 C 35.421875 232.433594 36.234375 232.824219 36.960938 233.40625 C 37.6875 233.988281 38.25 234.699219 38.644531 235.539062 L 46.65625 252.625 C 46.730469 252.789062 46.828125 252.9375 46.945312 253.074219 C 47.058594 253.210938 47.191406 253.332031 47.335938 253.4375 C 47.484375 253.539062 47.640625 253.625 47.808594 253.683594 C 47.976562 253.746094 48.152344 253.789062 48.332031 253.804688 C 48.507812 253.820312 48.6875 253.816406 48.863281 253.785156 C 49.042969 253.757812 49.210938 253.707031 49.375 253.632812 C 49.539062 253.558594 49.691406 253.464844 49.832031 253.351562 C 49.96875 253.238281 50.09375 253.109375 50.199219 252.964844 L 51.933594 250.574219 C 52.359375 249.996094 52.875 249.507812 53.472656 249.113281 C 54.074219 248.714844 54.726562 248.4375 55.425781 248.273438 C 56.125 248.109375 56.832031 248.070312 57.546875 248.160156 C 58.261719 248.25 58.9375 248.457031 59.574219 248.789062 L 68.164062 253.289062 C 69.09375 253.777344 69.839844 254.460938 70.414062 255.339844 C 70.984375 256.21875 71.304688 257.183594 71.371094 258.230469 L 71.78125 264.765625 C 71.8125 265.320312 72.035156 265.785156 72.445312 266.160156 L 109.535156 300.199219 C 110.039062 300.660156 110.628906 300.832031 111.300781 300.710938 L 115.011719 300.035156 C 115.519531 299.945312 115.9375 299.695312 116.257812 299.292969 L 121.671875 292.53125 C 122.003906 292.117188 122.382812 291.753906 122.808594 291.441406 C 123.238281 291.125 123.699219 290.875 124.195312 290.683594 C 124.6875 290.492188 125.199219 290.367188 125.726562 290.3125 C 126.253906 290.257812 126.78125 290.269531 127.304688 290.351562 L 169.453125 297.070312 C 169.628906 297.097656 169.800781 297.105469 169.976562 297.085938 L 199.808594 294.21875 C 200.003906 294.203125 200.195312 294.191406 200.386719 294.191406 Z M 200.386719 294.191406 " fill-opacity="1" fill-rule="nonzero"/></g></svg>