<svg xmlns="http://www.w3.org/2000/svg" xmlns:xlink="http://www.w3.org/1999/xlink" width="500" zoomAndPan="magnify" viewBox="0 0 375 374.999991" height="500" preserveAspectRatio="xMidYMid meet" version="1.0"><defs><clipPath id="63b5050e88"><path d="M 76.40625 9 L 298.40625 9 L 298.40625 375 L 76.40625 375 Z M 76.40625 9 " clip-rule="nonzero"/></clipPath></defs><g clip-path="url(#63b5050e88)"><path fill="#231f20" d="M 296.382812 374.996094 L 78.417969 374.996094 C 78.152344 374.996094 77.898438 374.945312 77.65625 374.847656 C 77.414062 374.746094 77.199219 374.601562 77.011719 374.414062 C 76.824219 374.230469 76.683594 374.015625 76.582031 373.769531 C 76.480469 373.527344 76.429688 373.273438 76.429688 373.007812 L 76.429688 101.027344 C 76.429688 100.40625 76.667969 99.898438 77.144531 99.5 L 81.390625 95.960938 C 81.894531 95.539062 82.464844 95.402344 83.101562 95.546875 L 103.445312 100.152344 C 103.714844 100.210938 103.960938 100.324219 104.179688 100.484375 L 110.023438 104.757812 L 109.726562 98.582031 L 100.753906 87.398438 C 100.582031 87.183594 100.457031 86.945312 100.386719 86.679688 C 100.3125 86.414062 100.296875 86.148438 100.335938 85.875 C 100.371094 85.605469 100.464844 85.351562 100.605469 85.117188 C 100.75 84.882812 100.933594 84.6875 101.15625 84.53125 L 106.640625 80.65625 L 111.210938 66.933594 C 111.425781 66.28125 111.863281 65.855469 112.523438 65.65625 L 120.527344 63.253906 L 116.589844 57.53125 C 116.332031 57.160156 116.214844 56.75 116.242188 56.296875 C 116.265625 55.84375 116.425781 55.449219 116.722656 55.105469 L 129.105469 40.761719 C 129.476562 40.332031 129.945312 40.105469 130.511719 40.078125 L 136.941406 39.761719 L 142.933594 33.117188 C 143.21875 32.800781 143.574219 32.59375 143.988281 32.503906 C 144.40625 32.414062 144.8125 32.457031 145.203125 32.628906 L 155.96875 37.339844 L 170.851562 34.589844 L 176.175781 27.039062 L 174.128906 20.894531 L 163.21875 21.207031 C 162.992188 21.214844 162.773438 21.183594 162.554688 21.113281 C 162.339844 21.042969 162.144531 20.941406 161.964844 20.804688 C 161.78125 20.667969 161.628906 20.503906 161.503906 20.316406 C 161.378906 20.125 161.289062 19.921875 161.234375 19.703125 L 159.820312 14.035156 C 159.757812 13.789062 159.746094 13.539062 159.78125 13.285156 C 159.8125 13.03125 159.894531 12.792969 160.023438 12.570312 C 160.148438 12.347656 160.3125 12.15625 160.511719 11.996094 C 160.714844 11.839844 160.9375 11.722656 161.179688 11.648438 L 167.726562 9.703125 C 168.199219 9.5625 168.65625 9.59375 169.105469 9.792969 L 189.195312 18.824219 C 189.738281 19.066406 190.097656 19.472656 190.277344 20.035156 L 191.738281 24.652344 L 204.257812 26.097656 C 204.429688 26.117188 204.59375 26.160156 204.75 26.222656 L 220.363281 32.296875 L 229.582031 32.640625 C 229.769531 32.644531 229.957031 32.679688 230.136719 32.738281 L 240.144531 36.078125 L 251.664062 25.042969 C 251.96875 24.753906 252.328125 24.574219 252.746094 24.511719 C 253.160156 24.449219 253.554688 24.515625 253.929688 24.703125 C 254.308594 24.894531 254.59375 25.175781 254.792969 25.546875 C 254.988281 25.917969 255.0625 26.3125 255.007812 26.730469 L 253.722656 36.847656 L 255.46875 38.398438 L 261.449219 37.746094 L 264.0625 29.589844 C 264.113281 29.425781 264.1875 29.269531 264.28125 29.125 C 264.375 28.976562 264.488281 28.847656 264.613281 28.730469 C 264.742188 28.613281 264.882812 28.515625 265.039062 28.433594 C 265.191406 28.355469 265.355469 28.296875 265.523438 28.257812 C 265.691406 28.21875 265.863281 28.203125 266.039062 28.210938 C 266.210938 28.21875 266.378906 28.25 266.546875 28.300781 C 266.710938 28.351562 266.867188 28.425781 267.015625 28.519531 C 267.160156 28.609375 267.292969 28.71875 267.410156 28.847656 L 271.59375 33.371094 L 278.183594 36.75 C 278.402344 36.863281 278.589844 37.011719 278.753906 37.195312 C 278.917969 37.378906 279.042969 37.582031 279.132812 37.8125 C 279.21875 38.042969 279.261719 38.28125 279.261719 38.527344 C 279.261719 38.769531 279.214844 39.007812 279.128906 39.238281 L 269.75 63.496094 C 269.628906 63.8125 269.4375 64.078125 269.179688 64.296875 C 268.921875 64.515625 268.625 64.660156 268.296875 64.726562 L 257.855469 66.851562 C 257.398438 66.945312 256.957031 66.882812 256.542969 66.667969 L 254.847656 65.78125 L 254.046875 70.070312 L 260.53125 72.8125 C 260.671875 72.871094 260.804688 72.945312 260.929688 73.035156 C 261.050781 73.125 261.164062 73.226562 261.261719 73.34375 C 261.363281 73.457031 261.449219 73.582031 261.519531 73.71875 C 261.589844 73.851562 261.644531 73.992188 261.683594 74.140625 C 261.722656 74.289062 261.742188 74.4375 261.746094 74.589844 C 261.75 74.742188 261.738281 74.894531 261.707031 75.042969 C 261.675781 75.191406 261.628906 75.335938 261.566406 75.472656 C 261.5 75.613281 261.421875 75.742188 261.328125 75.863281 L 243.207031 99.207031 L 244.835938 101.140625 L 262.558594 113.589844 L 268.710938 113.914062 C 268.945312 113.929688 269.171875 113.980469 269.386719 114.074219 C 269.601562 114.164062 269.796875 114.292969 269.96875 114.453125 C 270.136719 114.613281 270.277344 114.800781 270.382812 115.011719 C 270.488281 115.222656 270.554688 115.441406 270.578125 115.675781 L 271.246094 121.535156 L 274.234375 121.265625 L 275.828125 119.003906 C 276.085938 118.640625 276.425781 118.390625 276.847656 118.257812 C 277.269531 118.121094 277.691406 118.128906 278.109375 118.273438 L 281.648438 119.515625 C 281.988281 119.632812 282.273438 119.832031 282.507812 120.105469 C 282.738281 120.382812 282.886719 120.695312 282.949219 121.050781 L 283.644531 125.089844 L 293.753906 129.105469 C 294.164062 129.265625 294.484375 129.535156 294.714844 129.914062 L 298.074219 135.402344 C 298.269531 135.71875 298.367188 136.066406 298.367188 136.441406 L 298.367188 373.007812 C 298.367188 373.273438 298.320312 373.527344 298.21875 373.769531 C 298.117188 374.011719 297.972656 374.226562 297.789062 374.414062 C 297.601562 374.601562 297.386719 374.742188 297.144531 374.84375 C 296.902344 374.945312 296.648438 374.996094 296.382812 374.996094 Z M 80.402344 371.023438 L 294.398438 371.023438 L 294.398438 137.003906 L 291.675781 132.554688 L 281.144531 128.375 C 280.824219 128.246094 280.554688 128.046875 280.335938 127.777344 C 280.117188 127.507812 279.980469 127.203125 279.917969 126.863281 L 279.234375 122.878906 L 278.210938 122.523438 L 276.953125 124.308594 C 276.601562 124.808594 276.121094 125.085938 275.511719 125.140625 L 269.671875 125.671875 C 269.414062 125.695312 269.160156 125.667969 268.914062 125.59375 C 268.664062 125.515625 268.4375 125.398438 268.238281 125.234375 C 268.035156 125.070312 267.875 124.871094 267.75 124.644531 C 267.625 124.417969 267.546875 124.175781 267.519531 123.917969 L 266.824219 117.796875 L 261.78125 117.53125 C 261.398438 117.511719 261.054688 117.390625 260.742188 117.171875 L 242.34375 104.246094 C 242.203125 104.148438 242.078125 104.03125 241.964844 103.902344 L 239.136719 100.535156 C 238.988281 100.363281 238.875 100.167969 238.796875 99.957031 C 238.714844 99.742188 238.671875 99.523438 238.667969 99.296875 C 238.664062 99.066406 238.699219 98.847656 238.769531 98.628906 C 238.839844 98.414062 238.945312 98.214844 239.085938 98.035156 L 256.605469 75.46875 L 251.027344 73.109375 C 250.820312 73.023438 250.628906 72.902344 250.464844 72.75 C 250.296875 72.597656 250.15625 72.417969 250.050781 72.21875 C 249.945312 72.019531 249.871094 71.808594 249.835938 71.582031 C 249.804688 71.359375 249.804688 71.136719 249.847656 70.914062 L 251.441406 62.414062 C 251.46875 62.261719 251.515625 62.113281 251.578125 61.972656 C 251.640625 61.828125 251.71875 61.695312 251.8125 61.574219 C 251.910156 61.449219 252.015625 61.339844 252.136719 61.242188 C 252.253906 61.144531 252.386719 61.058594 252.523438 60.992188 C 252.664062 60.925781 252.808594 60.875 252.960938 60.839844 C 253.113281 60.804688 253.265625 60.789062 253.421875 60.792969 C 253.578125 60.792969 253.730469 60.816406 253.878906 60.851562 C 254.03125 60.890625 254.175781 60.945312 254.3125 61.015625 L 257.757812 62.816406 L 266.441406 61.046875 L 274.78125 39.472656 L 269.472656 36.75 C 269.261719 36.640625 269.078125 36.503906 268.917969 36.332031 L 266.808594 34.046875 L 264.835938 40.191406 C 264.71875 40.566406 264.503906 40.875 264.203125 41.125 C 263.898438 41.375 263.550781 41.519531 263.160156 41.5625 L 255.023438 42.445312 C 254.4375 42.507812 253.925781 42.347656 253.488281 41.957031 L 250.304688 39.121094 C 249.78125 38.660156 249.566406 38.078125 249.652344 37.386719 L 250.363281 31.796875 L 242.027344 39.78125 C 241.761719 40.035156 241.449219 40.203125 241.089844 40.285156 C 240.730469 40.363281 240.375 40.347656 240.027344 40.230469 L 229.148438 36.601562 L 219.882812 36.257812 C 219.65625 36.25 219.441406 36.203125 219.234375 36.125 L 203.550781 30.019531 L 190.003906 28.453125 C 189.613281 28.410156 189.269531 28.261719 188.96875 28.015625 C 188.667969 27.765625 188.457031 27.453125 188.339844 27.078125 L 186.757812 22.085938 L 177.222656 17.796875 C 177.308594 17.9375 177.378906 18.082031 177.429688 18.238281 L 180.261719 26.738281 C 180.472656 27.371094 180.386719 27.964844 180 28.511719 L 173.632812 37.542969 C 173.320312 37.984375 172.898438 38.253906 172.371094 38.351562 L 156.09375 41.363281 C 155.691406 41.4375 155.308594 41.390625 154.9375 41.226562 L 144.925781 36.84375 L 139.335938 43.042969 C 138.96875 43.449219 138.507812 43.667969 137.960938 43.695312 L 131.554688 44.003906 L 120.730469 56.542969 L 125.34375 63.246094 C 125.433594 63.375 125.503906 63.511719 125.5625 63.65625 C 125.617188 63.804688 125.65625 63.953125 125.675781 64.109375 C 125.699219 64.265625 125.699219 64.421875 125.683594 64.578125 C 125.667969 64.734375 125.632812 64.882812 125.582031 65.03125 C 125.53125 65.179688 125.460938 65.320312 125.375 65.449219 C 125.292969 65.582031 125.191406 65.703125 125.078125 65.8125 C 124.964844 65.917969 124.84375 66.011719 124.707031 66.089844 C 124.570312 66.167969 124.429688 66.230469 124.277344 66.277344 L 114.652344 69.167969 L 110.199219 82.53125 C 110.0625 82.945312 109.816406 83.277344 109.460938 83.527344 L 105.171875 86.558594 L 113.226562 96.59375 C 113.496094 96.929688 113.640625 97.3125 113.660156 97.742188 L 114.191406 108.722656 C 114.210938 109.105469 114.125 109.460938 113.9375 109.796875 C 113.75 110.128906 113.488281 110.386719 113.148438 110.566406 C 112.8125 110.75 112.453125 110.828125 112.070312 110.800781 C 111.691406 110.773438 111.34375 110.648438 111.035156 110.421875 L 102.167969 103.9375 L 83.179688 99.640625 L 80.402344 101.957031 Z M 164.132812 14.917969 L 164.703125 17.1875 L 175.195312 16.886719 L 168.152344 13.722656 Z M 164.132812 14.917969 " fill-opacity="1" fill-rule="nonzero"/></g><path fill="#231f20" d="M 144.230469 30.859375 L 117.429688 30.859375 C 117.261719 30.859375 117.101562 30.839844 116.941406 30.796875 C 116.78125 30.757812 116.628906 30.695312 116.480469 30.617188 C 116.335938 30.539062 116.203125 30.445312 116.082031 30.332031 C 115.960938 30.21875 115.855469 30.09375 115.765625 29.957031 C 115.675781 29.816406 115.601562 29.671875 115.546875 29.515625 C 115.496094 29.359375 115.460938 29.195312 115.449219 29.03125 C 115.433594 28.867188 115.441406 28.703125 115.46875 28.539062 C 115.496094 28.378906 115.542969 28.21875 115.609375 28.070312 L 122.511719 12.398438 C 122.625 12.140625 122.785156 11.917969 122.992188 11.730469 C 123.199219 11.539062 123.4375 11.402344 123.703125 11.3125 C 123.96875 11.226562 124.242188 11.195312 124.519531 11.222656 C 124.800781 11.25 125.0625 11.332031 125.308594 11.46875 L 132.667969 15.644531 L 140.027344 14.492188 L 146.550781 9.972656 C 146.761719 9.828125 146.992188 9.726562 147.242188 9.667969 C 147.492188 9.609375 147.742188 9.601562 147.996094 9.644531 C 148.246094 9.683594 148.484375 9.769531 148.703125 9.902344 C 148.921875 10.03125 149.109375 10.199219 149.265625 10.40625 L 155.101562 18.109375 C 155.246094 18.296875 155.351562 18.503906 155.421875 18.734375 C 155.488281 18.960938 155.515625 19.191406 155.503906 19.429688 C 155.488281 19.667969 155.433594 19.894531 155.335938 20.113281 C 155.238281 20.328125 155.109375 20.523438 154.945312 20.695312 L 145.65625 30.257812 C 145.265625 30.65625 144.792969 30.859375 144.230469 30.859375 Z M 120.472656 26.882812 L 143.394531 26.882812 L 150.90625 19.148438 L 147.25 14.324219 L 141.914062 18.019531 C 141.664062 18.191406 141.386719 18.304688 141.089844 18.351562 L 132.597656 19.679688 C 132.140625 19.75 131.710938 19.671875 131.3125 19.445312 L 125.261719 16.011719 Z M 120.472656 26.882812 " fill-opacity="1" fill-rule="nonzero"/><path fill="#231f20" d="M 259.671875 23.023438 C 259.25 23.023438 258.867188 22.898438 258.519531 22.65625 C 258.175781 22.410156 257.933594 22.085938 257.796875 21.6875 C 257.65625 21.285156 257.648438 20.882812 257.765625 20.476562 C 257.886719 20.070312 258.113281 19.734375 258.445312 19.472656 L 266.175781 13.386719 L 267.433594 10.75 C 267.484375 10.648438 267.539062 10.550781 267.601562 10.460938 L 274.238281 1.035156 C 274.5 0.660156 274.851562 0.40625 275.292969 0.273438 C 275.730469 0.140625 276.164062 0.160156 276.589844 0.328125 C 277.015625 0.496094 277.34375 0.777344 277.574219 1.171875 C 277.808594 1.570312 277.890625 1.992188 277.828125 2.449219 L 275.707031 17.984375 C 275.652344 18.390625 275.484375 18.75 275.207031 19.050781 C 274.933594 19.355469 274.59375 19.554688 274.195312 19.648438 L 260.128906 22.96875 C 259.980469 23.003906 259.828125 23.023438 259.671875 23.023438 Z M 270.945312 12.613281 L 269.558594 15.519531 C 269.425781 15.796875 269.238281 16.03125 268.996094 16.222656 L 267.960938 17.035156 L 271.957031 16.09375 L 272.789062 9.996094 Z M 270.945312 12.613281 " fill-opacity="1" fill-rule="nonzero"/><path fill="#231f20" d="M 275.863281 87.964844 L 268.164062 87.964844 C 267.824219 87.964844 267.503906 87.882812 267.207031 87.714844 L 263.359375 85.589844 C 263.042969 85.417969 262.792969 85.171875 262.609375 84.863281 C 262.421875 84.550781 262.332031 84.214844 262.332031 83.851562 L 262.332031 76.148438 C 262.332031 75.488281 262.59375 74.960938 263.121094 74.5625 L 269.089844 70.046875 C 269.457031 69.773438 269.867188 69.636719 270.320312 69.644531 C 270.777344 69.652344 271.183594 69.800781 271.539062 70.089844 L 277.109375 74.605469 C 277.320312 74.773438 277.488281 74.976562 277.613281 75.214844 C 277.742188 75.453125 277.816406 75.707031 277.839844 75.972656 C 277.863281 76.242188 277.832031 76.503906 277.75 76.761719 C 277.667969 77.015625 277.539062 77.246094 277.363281 77.449219 L 274.847656 80.355469 L 277.570312 84.964844 C 277.753906 85.273438 277.84375 85.605469 277.847656 85.960938 C 277.851562 86.316406 277.761719 86.652344 277.585938 86.960938 C 277.410156 87.269531 277.167969 87.515625 276.859375 87.695312 C 276.550781 87.875 276.21875 87.964844 275.863281 87.964844 Z M 268.675781 83.988281 L 272.382812 83.988281 L 270.703125 81.144531 C 270.484375 80.777344 270.394531 80.378906 270.433594 79.953125 C 270.472656 79.527344 270.632812 79.152344 270.910156 78.832031 L 273.015625 76.402344 L 270.246094 74.15625 L 266.304688 77.136719 L 266.304688 82.679688 Z M 268.675781 83.988281 " fill-opacity="1" fill-rule="nonzero"/></svg>