<svg xmlns="http://www.w3.org/2000/svg" xmlns:xlink="http://www.w3.org/1999/xlink" width="500" zoomAndPan="magnify" viewBox="0 0 375 374.999991" height="500" preserveAspectRatio="xMidYMid meet" version="1.0"><defs><clipPath id="6714a5ee6c"><path d="M 18.125 16.84375 L 357.125 16.84375 L 357.125 358.09375 L 18.125 358.09375 Z M 18.125 16.84375 " clip-rule="nonzero"/></clipPath></defs><g clip-path="url(#6714a5ee6c)"><path fill="#191919" d="M 288.464844 326.738281 C 288.464844 326.421875 288.496094 326.105469 288.558594 325.796875 C 288.621094 325.484375 288.710938 325.183594 288.835938 324.886719 C 288.957031 324.59375 289.105469 324.316406 289.28125 324.050781 C 289.457031 323.789062 289.660156 323.542969 289.882812 323.320312 C 290.109375 323.09375 290.351562 322.894531 290.617188 322.71875 C 290.882812 322.542969 291.160156 322.394531 291.453125 322.273438 C 291.746094 322.148438 292.050781 322.058594 292.363281 321.996094 C 292.671875 321.933594 292.988281 321.902344 293.304688 321.902344 L 308.613281 321.902344 C 308.929688 321.902344 309.246094 321.933594 309.558594 321.996094 C 309.867188 322.058594 310.171875 322.148438 310.464844 322.273438 C 310.757812 322.394531 311.039062 322.542969 311.300781 322.71875 C 311.566406 322.894531 311.8125 323.09375 312.035156 323.320312 C 312.261719 323.542969 312.460938 323.789062 312.636719 324.050781 C 312.8125 324.316406 312.960938 324.59375 313.085938 324.886719 C 313.207031 325.183594 313.296875 325.484375 313.359375 325.796875 C 313.421875 326.105469 313.453125 326.421875 313.453125 326.738281 C 313.453125 327.054688 313.421875 327.371094 313.359375 327.683594 C 313.296875 327.992188 313.207031 328.296875 313.085938 328.589844 C 312.960938 328.882812 312.8125 329.160156 312.636719 329.425781 C 312.460938 329.691406 312.261719 329.933594 312.035156 330.160156 C 311.8125 330.382812 311.566406 330.582031 311.300781 330.757812 C 311.039062 330.9375 310.757812 331.085938 310.464844 331.207031 C 310.171875 331.328125 309.867188 331.417969 309.558594 331.480469 C 309.246094 331.542969 308.929688 331.574219 308.613281 331.574219 L 293.304688 331.574219 C 292.988281 331.574219 292.671875 331.542969 292.363281 331.480469 C 292.050781 331.417969 291.746094 331.328125 291.453125 331.207031 C 291.160156 331.085938 290.882812 330.9375 290.617188 330.757812 C 290.351562 330.582031 290.109375 330.382812 289.882812 330.160156 C 289.660156 329.933594 289.457031 329.691406 289.28125 329.425781 C 289.105469 329.160156 288.957031 328.882812 288.835938 328.589844 C 288.710938 328.296875 288.621094 327.992188 288.558594 327.683594 C 288.496094 327.371094 288.464844 327.054688 288.464844 326.738281 Z M 293.304688 284.679688 L 308.613281 284.679688 C 308.929688 284.679688 309.246094 284.648438 309.558594 284.585938 C 309.867188 284.523438 310.171875 284.433594 310.464844 284.3125 C 310.757812 284.1875 311.039062 284.039062 311.300781 283.863281 C 311.566406 283.6875 311.8125 283.488281 312.035156 283.261719 C 312.261719 283.039062 312.460938 282.792969 312.636719 282.53125 C 312.8125 282.265625 312.960938 281.988281 313.085938 281.695312 C 313.207031 281.402344 313.296875 281.097656 313.359375 280.785156 C 313.421875 280.476562 313.453125 280.160156 313.453125 279.84375 C 313.453125 279.527344 313.421875 279.210938 313.359375 278.898438 C 313.296875 278.589844 313.207031 278.285156 313.085938 277.992188 C 312.960938 277.699219 312.8125 277.421875 312.636719 277.15625 C 312.460938 276.894531 312.261719 276.648438 312.035156 276.425781 C 311.8125 276.199219 311.566406 276 311.300781 275.824219 C 311.039062 275.648438 310.757812 275.496094 310.464844 275.375 C 310.171875 275.253906 309.867188 275.164062 309.558594 275.101562 C 309.246094 275.039062 308.929688 275.007812 308.613281 275.007812 L 293.304688 275.007812 C 292.988281 275.007812 292.671875 275.039062 292.363281 275.101562 C 292.050781 275.164062 291.746094 275.253906 291.453125 275.375 C 291.160156 275.496094 290.882812 275.648438 290.617188 275.824219 C 290.351562 276 290.109375 276.199219 289.882812 276.425781 C 289.660156 276.648438 289.457031 276.894531 289.28125 277.15625 C 289.105469 277.421875 288.957031 277.699219 288.835938 277.992188 C 288.710938 278.285156 288.621094 278.589844 288.558594 278.898438 C 288.496094 279.210938 288.464844 279.527344 288.464844 279.84375 C 288.464844 280.160156 288.496094 280.476562 288.558594 280.785156 C 288.621094 281.097656 288.710938 281.402344 288.835938 281.695312 C 288.957031 281.988281 289.105469 282.265625 289.28125 282.53125 C 289.457031 282.792969 289.660156 283.039062 289.882812 283.261719 C 290.109375 283.488281 290.351562 283.6875 290.617188 283.863281 C 290.882812 284.039062 291.160156 284.1875 291.453125 284.3125 C 291.746094 284.433594 292.050781 284.523438 292.363281 284.585938 C 292.671875 284.648438 292.988281 284.679688 293.304688 284.679688 Z M 293.304688 237.78125 L 308.613281 237.78125 C 308.929688 237.78125 309.246094 237.75 309.558594 237.6875 C 309.867188 237.628906 310.171875 237.535156 310.464844 237.414062 C 310.757812 237.292969 311.039062 237.144531 311.300781 236.96875 C 311.566406 236.789062 311.8125 236.589844 312.035156 236.367188 C 312.261719 236.140625 312.460938 235.898438 312.636719 235.632812 C 312.8125 235.367188 312.960938 235.089844 313.085938 234.796875 C 313.207031 234.503906 313.296875 234.203125 313.359375 233.890625 C 313.421875 233.578125 313.453125 233.265625 313.453125 232.945312 C 313.453125 232.628906 313.421875 232.316406 313.359375 232.003906 C 313.296875 231.691406 313.207031 231.390625 313.085938 231.097656 C 312.960938 230.800781 312.8125 230.523438 312.636719 230.261719 C 312.460938 229.996094 312.261719 229.75 312.035156 229.527344 C 311.8125 229.304688 311.566406 229.101562 311.300781 228.925781 C 311.039062 228.75 310.757812 228.601562 310.464844 228.480469 C 310.171875 228.359375 309.867188 228.265625 309.558594 228.203125 C 309.246094 228.140625 308.929688 228.109375 308.613281 228.109375 L 293.304688 228.109375 C 292.988281 228.109375 292.671875 228.140625 292.363281 228.203125 C 292.050781 228.265625 291.746094 228.359375 291.453125 228.480469 C 291.160156 228.601562 290.882812 228.75 290.617188 228.925781 C 290.351562 229.101562 290.109375 229.304688 289.882812 229.527344 C 289.660156 229.75 289.457031 229.996094 289.28125 230.261719 C 289.105469 230.523438 288.957031 230.800781 288.835938 231.097656 C 288.710938 231.390625 288.621094 231.691406 288.558594 232.003906 C 288.496094 232.316406 288.464844 232.628906 288.464844 232.945312 C 288.464844 233.265625 288.496094 233.578125 288.558594 233.890625 C 288.621094 234.203125 288.710938 234.503906 288.835938 234.796875 C 288.957031 235.089844 289.105469 235.367188 289.28125 235.632812 C 289.457031 235.898438 289.660156 236.140625 289.882812 236.367188 C 290.109375 236.589844 290.351562 236.789062 290.617188 236.96875 C 290.882812 237.144531 291.160156 237.292969 291.453125 237.414062 C 291.746094 237.535156 292.050781 237.628906 292.363281 237.6875 C 292.671875 237.75 292.988281 237.78125 293.304688 237.78125 Z M 241.488281 42.578125 L 241.488281 124.757812 C 241.488281 125.078125 241.457031 125.390625 241.394531 125.703125 C 241.332031 126.015625 241.242188 126.316406 241.121094 126.609375 C 240.996094 126.902344 240.847656 127.183594 240.671875 127.445312 C 240.496094 127.710938 240.296875 127.953125 240.070312 128.179688 C 239.84375 128.402344 239.601562 128.605469 239.335938 128.78125 C 239.074219 128.957031 238.792969 129.105469 238.5 129.226562 C 238.207031 129.347656 237.902344 129.441406 237.59375 129.503906 C 237.28125 129.5625 236.964844 129.59375 236.648438 129.59375 L 87.847656 129.59375 C 87.53125 129.59375 87.214844 129.5625 86.902344 129.503906 C 86.59375 129.441406 86.289062 129.347656 85.996094 129.226562 C 85.703125 129.105469 85.421875 128.957031 85.160156 128.78125 C 84.894531 128.605469 84.652344 128.402344 84.425781 128.179688 C 84.199219 127.953125 84 127.710938 83.824219 127.445312 C 83.648438 127.183594 83.5 126.902344 83.375 126.609375 C 83.253906 126.316406 83.164062 126.015625 83.101562 125.703125 C 83.039062 125.390625 83.007812 125.078125 83.007812 124.757812 L 83.007812 42.578125 C 83.007812 42.261719 83.039062 41.945312 83.101562 41.636719 C 83.164062 41.324219 83.253906 41.019531 83.375 40.726562 C 83.5 40.433594 83.648438 40.15625 83.824219 39.890625 C 84 39.628906 84.199219 39.382812 84.425781 39.160156 C 84.652344 38.933594 84.894531 38.734375 85.160156 38.558594 C 85.421875 38.382812 85.703125 38.230469 85.996094 38.109375 C 86.289062 37.988281 86.59375 37.898438 86.902344 37.835938 C 87.214844 37.773438 87.53125 37.742188 87.847656 37.742188 L 236.648438 37.742188 C 236.964844 37.742188 237.277344 37.773438 237.589844 37.835938 C 237.902344 37.898438 238.207031 37.988281 238.5 38.109375 C 238.792969 38.230469 239.070312 38.378906 239.335938 38.558594 C 239.601562 38.734375 239.84375 38.933594 240.070312 39.160156 C 240.292969 39.382812 240.496094 39.628906 240.671875 39.890625 C 240.847656 40.15625 240.996094 40.433594 241.121094 40.726562 C 241.242188 41.019531 241.332031 41.324219 241.394531 41.632812 C 241.457031 41.945312 241.488281 42.261719 241.488281 42.578125 Z M 231.808594 47.414062 L 92.695312 47.414062 L 92.695312 119.921875 L 231.804688 119.921875 Z M 18.152344 203.28125 L 18.152344 194.367188 C 18.152344 193.441406 18.246094 192.523438 18.429688 191.613281 C 18.609375 190.703125 18.878906 189.820312 19.238281 188.964844 C 19.59375 188.109375 20.03125 187.296875 20.546875 186.527344 C 21.0625 185.753906 21.648438 185.042969 22.304688 184.386719 C 22.960938 183.730469 23.675781 183.144531 24.449219 182.632812 C 25.222656 182.117188 26.035156 181.683594 26.894531 181.328125 C 27.75 180.972656 28.636719 180.703125 29.546875 180.523438 C 30.457031 180.34375 31.375 180.25 32.304688 180.25 L 103.78125 180.25 L 103.78125 175.21875 C 103.78125 174.253906 103.878906 173.300781 104.066406 172.355469 C 104.257812 171.410156 104.535156 170.492188 104.90625 169.601562 C 105.273438 168.710938 105.726562 167.863281 106.265625 167.0625 C 106.800781 166.261719 107.410156 165.519531 108.09375 164.839844 C 108.773438 164.15625 109.515625 163.550781 110.320312 163.011719 C 111.121094 162.476562 111.96875 162.023438 112.859375 161.65625 C 113.75 161.285156 114.667969 161.007812 115.617188 160.816406 C 116.5625 160.628906 117.515625 160.535156 118.480469 160.53125 L 125.5 160.53125 L 125.5 150.488281 L 75.597656 150.488281 C 74.710938 150.488281 73.835938 150.402344 72.964844 150.226562 C 72.097656 150.054688 71.253906 149.796875 70.433594 149.457031 C 69.613281 149.117188 68.835938 148.703125 68.101562 148.210938 C 67.363281 147.71875 66.683594 147.160156 66.054688 146.53125 C 65.429688 145.90625 64.871094 145.226562 64.375 144.488281 C 63.882812 143.753906 63.46875 142.976562 63.128906 142.15625 C 62.789062 141.339844 62.53125 140.496094 62.359375 139.628906 C 62.183594 138.761719 62.097656 137.882812 62.097656 136.996094 L 62.097656 30.339844 C 62.097656 29.453125 62.183594 28.578125 62.359375 27.710938 C 62.53125 26.839844 62.789062 25.996094 63.128906 25.179688 C 63.46875 24.363281 63.882812 23.585938 64.375 22.847656 C 64.871094 22.113281 65.429688 21.429688 66.054688 20.804688 C 66.683594 20.179688 67.363281 19.621094 68.101562 19.128906 C 68.835938 18.636719 69.613281 18.21875 70.433594 17.878906 C 71.253906 17.539062 72.097656 17.285156 72.964844 17.109375 C 73.835938 16.9375 74.710938 16.847656 75.597656 16.847656 L 248.894531 16.847656 C 249.78125 16.847656 250.660156 16.9375 251.53125 17.109375 C 252.398438 17.285156 253.242188 17.539062 254.0625 17.878906 C 254.878906 18.21875 255.65625 18.636719 256.394531 19.128906 C 257.132812 19.621094 257.8125 20.179688 258.441406 20.804688 C 259.066406 21.429688 259.625 22.113281 260.121094 22.847656 C 260.613281 23.585938 261.027344 24.363281 261.367188 25.179688 C 261.707031 25.996094 261.964844 26.839844 262.136719 27.707031 C 262.3125 28.578125 262.398438 29.453125 262.398438 30.339844 L 262.398438 136.996094 C 262.398438 137.882812 262.3125 138.761719 262.136719 139.628906 C 261.964844 140.496094 261.707031 141.339844 261.367188 142.160156 C 261.027344 142.976562 260.613281 143.753906 260.117188 144.488281 C 259.625 145.226562 259.066406 145.90625 258.441406 146.535156 C 257.8125 147.160156 257.132812 147.71875 256.394531 148.210938 C 255.65625 148.703125 254.878906 149.121094 254.0625 149.457031 C 253.242188 149.796875 252.398438 150.054688 251.527344 150.226562 C 250.660156 150.402344 249.78125 150.488281 248.894531 150.488281 L 198.996094 150.488281 L 198.996094 160.535156 L 206.011719 160.535156 C 206.976562 160.535156 207.933594 160.628906 208.878906 160.820312 C 209.828125 161.007812 210.746094 161.289062 211.636719 161.65625 C 212.527344 162.027344 213.375 162.480469 214.175781 163.015625 C 214.976562 163.550781 215.71875 164.160156 216.402344 164.839844 C 217.085938 165.523438 217.695312 166.265625 218.230469 167.066406 C 218.765625 167.867188 219.21875 168.710938 219.589844 169.601562 C 219.960938 170.492188 220.238281 171.410156 220.429688 172.355469 C 220.617188 173.300781 220.710938 174.257812 220.714844 175.21875 L 220.714844 180.253906 L 343.03125 180.253906 C 343.960938 180.253906 344.878906 180.34375 345.789062 180.527344 C 346.699219 180.707031 347.582031 180.976562 348.4375 181.332031 C 349.292969 181.6875 350.109375 182.121094 350.878906 182.636719 C 351.652344 183.152344 352.363281 183.738281 353.019531 184.390625 C 353.675781 185.046875 354.261719 185.761719 354.777344 186.53125 C 355.292969 187.300781 355.726562 188.113281 356.082031 188.96875 C 356.4375 189.828125 356.707031 190.707031 356.890625 191.617188 C 357.070312 192.527344 357.164062 193.445312 357.164062 194.371094 L 357.164062 203.28125 C 357.164062 204 357.105469 204.714844 356.996094 205.425781 C 356.886719 206.136719 356.722656 206.835938 356.503906 207.523438 C 356.289062 208.207031 356.019531 208.875 355.703125 209.519531 C 355.382812 210.164062 355.019531 210.78125 354.605469 211.371094 C 354.191406 211.960938 353.738281 212.515625 353.238281 213.035156 C 352.742188 213.554688 352.207031 214.035156 351.636719 214.472656 C 351.066406 214.914062 350.464844 215.304688 349.835938 215.652344 C 349.203125 216 348.550781 216.296875 347.875 216.542969 L 347.875 353.253906 C 347.875 353.570312 347.84375 353.886719 347.78125 354.195312 C 347.71875 354.507812 347.625 354.808594 347.503906 355.101562 C 347.382812 355.398438 347.234375 355.675781 347.058594 355.9375 C 346.882812 356.203125 346.679688 356.449219 346.457031 356.671875 C 346.230469 356.894531 345.988281 357.097656 345.722656 357.273438 C 345.457031 357.449219 345.179688 357.597656 344.886719 357.71875 C 344.59375 357.839844 344.289062 357.933594 343.976562 357.996094 C 343.667969 358.058594 343.351562 358.089844 343.035156 358.089844 L 258.914062 358.089844 C 258.59375 358.089844 258.28125 358.058594 257.96875 357.996094 C 257.65625 357.933594 257.355469 357.839844 257.058594 357.71875 C 256.765625 357.597656 256.488281 357.449219 256.222656 357.273438 C 255.957031 357.097656 255.714844 356.894531 255.488281 356.671875 C 255.265625 356.449219 255.066406 356.203125 254.886719 355.9375 C 254.710938 355.675781 254.5625 355.398438 254.441406 355.101562 C 254.320312 354.808594 254.226562 354.507812 254.164062 354.195312 C 254.101562 353.886719 254.070312 353.570312 254.070312 353.253906 L 254.070312 287.753906 L 70.425781 287.753906 L 70.425781 353.253906 C 70.425781 353.570312 70.394531 353.886719 70.332031 354.195312 C 70.269531 354.507812 70.175781 354.808594 70.054688 355.101562 C 69.933594 355.398438 69.785156 355.675781 69.609375 355.9375 C 69.433594 356.203125 69.230469 356.449219 69.007812 356.671875 C 68.78125 356.894531 68.539062 357.097656 68.273438 357.273438 C 68.007812 357.449219 67.730469 357.597656 67.4375 357.71875 C 67.144531 357.839844 66.839844 357.933594 66.527344 357.996094 C 66.21875 358.058594 65.902344 358.089844 65.585938 358.089844 L 34.421875 358.089844 C 34.101562 358.089844 33.789062 358.058594 33.476562 357.996094 C 33.164062 357.933594 32.863281 357.839844 32.570312 357.71875 C 32.273438 357.597656 31.996094 357.449219 31.730469 357.273438 C 31.46875 357.097656 31.222656 356.894531 31 356.671875 C 30.773438 356.449219 30.574219 356.203125 30.394531 355.9375 C 30.21875 355.675781 30.070312 355.398438 29.949219 355.101562 C 29.828125 354.808594 29.734375 354.507812 29.671875 354.195312 C 29.613281 353.886719 29.582031 353.570312 29.582031 353.253906 L 29.582031 217.148438 C 28.78125 216.992188 28.003906 216.765625 27.242188 216.476562 C 26.484375 216.183594 25.753906 215.832031 25.058594 215.414062 C 24.359375 214.996094 23.699219 214.523438 23.082031 213.992188 C 22.464844 213.464844 21.898438 212.886719 21.382812 212.257812 C 20.867188 211.628906 20.40625 210.960938 20.003906 210.257812 C 19.601562 209.550781 19.261719 208.8125 18.988281 208.046875 C 18.710938 207.285156 18.503906 206.5 18.363281 205.699219 C 18.222656 204.898438 18.152344 204.09375 18.152344 203.28125 Z M 60.742188 217.417969 L 39.261719 217.417969 L 39.261719 348.417969 L 60.742188 348.417969 Z M 254.074219 238.191406 L 70.425781 238.191406 L 70.425781 278.078125 L 254.070312 278.078125 L 254.070312 238.191406 Z M 254.074219 217.417969 L 70.425781 217.417969 L 70.425781 228.519531 L 254.070312 228.519531 Z M 338.191406 311.210938 L 263.753906 311.210938 L 263.753906 348.417969 L 338.191406 348.417969 Z M 338.191406 264.3125 L 263.753906 264.3125 L 263.753906 301.539062 L 338.191406 301.539062 Z M 338.191406 217.417969 L 263.753906 217.417969 L 263.753906 254.640625 L 338.191406 254.640625 Z M 248.894531 140.816406 C 249.402344 140.808594 249.886719 140.707031 250.351562 140.511719 C 250.816406 140.316406 251.226562 140.039062 251.585938 139.683594 C 251.941406 139.328125 252.21875 138.917969 252.414062 138.453125 C 252.609375 137.988281 252.710938 137.503906 252.71875 136.996094 L 252.71875 30.339844 C 252.710938 29.835938 252.609375 29.351562 252.414062 28.886719 C 252.21875 28.421875 251.941406 28.007812 251.585938 27.652344 C 251.226562 27.296875 250.816406 27.019531 250.351562 26.824219 C 249.886719 26.625 249.402344 26.527344 248.894531 26.519531 L 75.597656 26.519531 C 75.09375 26.527344 74.609375 26.628906 74.144531 26.824219 C 73.679688 27.019531 73.265625 27.296875 72.910156 27.652344 C 72.554688 28.007812 72.277344 28.421875 72.082031 28.886719 C 71.882812 29.351562 71.78125 29.835938 71.777344 30.339844 L 71.777344 136.996094 C 71.785156 137.503906 71.882812 137.988281 72.082031 138.453125 C 72.277344 138.917969 72.554688 139.328125 72.910156 139.683594 C 73.265625 140.039062 73.679688 140.316406 74.144531 140.511719 C 74.609375 140.707031 75.09375 140.808594 75.597656 140.816406 Z M 135.179688 150.488281 L 135.179688 160.53125 L 189.316406 160.53125 L 189.316406 150.488281 Z M 113.464844 180.25 L 211.027344 180.25 L 211.027344 175.21875 C 211.027344 174.890625 210.996094 174.5625 210.929688 174.242188 C 210.867188 173.917969 210.769531 173.605469 210.644531 173.300781 C 210.519531 172.996094 210.363281 172.707031 210.179688 172.433594 C 209.996094 172.160156 209.789062 171.90625 209.554688 171.675781 C 209.324219 171.441406 209.070312 171.234375 208.796875 171.050781 C 208.523438 170.867188 208.234375 170.714844 207.929688 170.589844 C 207.625 170.460938 207.3125 170.367188 206.988281 170.300781 C 206.664062 170.238281 206.339844 170.207031 206.011719 170.207031 L 194.738281 170.207031 C 194.347656 170.257812 193.957031 170.257812 193.566406 170.207031 L 130.921875 170.207031 C 130.53125 170.257812 130.140625 170.257812 129.746094 170.207031 L 118.476562 170.207031 C 118.148438 170.207031 117.820312 170.238281 117.5 170.300781 C 117.175781 170.367188 116.863281 170.460938 116.558594 170.589844 C 116.253906 170.714844 115.964844 170.867188 115.691406 171.050781 C 115.417969 171.234375 115.164062 171.441406 114.929688 171.675781 C 114.699219 171.90625 114.488281 172.160156 114.308594 172.433594 C 114.125 172.707031 113.96875 172.996094 113.84375 173.300781 C 113.714844 173.605469 113.621094 173.917969 113.558594 174.242188 C 113.492188 174.5625 113.460938 174.890625 113.460938 175.21875 Z M 27.835938 203.28125 C 27.839844 203.570312 27.871094 203.859375 27.929688 204.148438 C 27.988281 204.433594 28.078125 204.710938 28.191406 204.980469 C 28.304688 205.25 28.441406 205.503906 28.605469 205.746094 C 28.769531 205.988281 28.953125 206.214844 29.160156 206.417969 C 29.367188 206.625 29.59375 206.8125 29.835938 206.972656 C 30.078125 207.136719 30.332031 207.277344 30.601562 207.390625 C 30.871094 207.503906 31.148438 207.589844 31.4375 207.648438 C 31.722656 207.707031 32.011719 207.742188 32.304688 207.746094 L 343.03125 207.746094 C 343.324219 207.742188 343.613281 207.714844 343.902344 207.65625 C 344.1875 207.597656 344.46875 207.511719 344.738281 207.398438 C 345.007812 207.289062 345.261719 207.148438 345.507812 206.988281 C 345.75 206.824219 345.972656 206.636719 346.179688 206.429688 C 346.386719 206.222656 346.570312 206 346.734375 205.753906 C 346.894531 205.511719 347.03125 205.253906 347.144531 204.984375 C 347.253906 204.714844 347.339844 204.4375 347.394531 204.148438 C 347.453125 203.863281 347.480469 203.574219 347.480469 203.28125 L 347.480469 194.367188 C 347.480469 194.078125 347.453125 193.789062 347.394531 193.503906 C 347.335938 193.214844 347.253906 192.9375 347.140625 192.667969 C 347.027344 192.398438 346.890625 192.144531 346.730469 191.902344 C 346.566406 191.660156 346.382812 191.433594 346.175781 191.226562 C 345.96875 191.019531 345.746094 190.835938 345.503906 190.675781 C 345.261719 190.511719 345.003906 190.375 344.734375 190.265625 C 344.464844 190.152344 344.1875 190.066406 343.898438 190.011719 C 343.613281 189.953125 343.324219 189.925781 343.03125 189.925781 L 32.304688 189.925781 C 32.011719 189.921875 31.722656 189.953125 31.433594 190.007812 C 31.148438 190.066406 30.867188 190.148438 30.597656 190.261719 C 30.328125 190.371094 30.070312 190.507812 29.824219 190.671875 C 29.582031 190.832031 29.355469 191.015625 29.148438 191.222656 C 28.941406 191.429688 28.757812 191.65625 28.59375 191.898438 C 28.429688 192.140625 28.292969 192.394531 28.179688 192.664062 C 28.066406 192.9375 27.980469 193.214844 27.921875 193.5 C 27.867188 193.789062 27.835938 194.078125 27.835938 194.367188 Z M 170.664062 104.324219 C 170.4375 104.546875 170.238281 104.792969 170.058594 105.058594 C 169.882812 105.320312 169.734375 105.597656 169.613281 105.894531 C 169.492188 106.1875 169.398438 106.488281 169.335938 106.800781 C 169.277344 107.109375 169.246094 107.425781 169.246094 107.742188 C 169.246094 108.0625 169.277344 108.375 169.335938 108.6875 C 169.398438 108.996094 169.492188 109.300781 169.613281 109.59375 C 169.734375 109.886719 169.882812 110.164062 170.058594 110.429688 C 170.238281 110.695312 170.4375 110.9375 170.664062 111.164062 C 170.886719 111.386719 171.132812 111.585938 171.394531 111.765625 C 171.660156 111.941406 171.9375 112.089844 172.234375 112.210938 C 172.527344 112.332031 172.828125 112.425781 173.140625 112.484375 C 173.453125 112.546875 173.765625 112.578125 174.085938 112.578125 C 174.402344 112.578125 174.71875 112.546875 175.027344 112.484375 C 175.339844 112.425781 175.644531 112.332031 175.9375 112.210938 C 176.230469 112.089844 176.507812 111.941406 176.773438 111.765625 C 177.039062 111.585938 177.28125 111.386719 177.507812 111.164062 L 189.757812 98.925781 C 189.980469 98.699219 190.183594 98.457031 190.359375 98.191406 C 190.535156 97.925781 190.683594 97.648438 190.804688 97.355469 C 190.925781 97.0625 191.019531 96.761719 191.078125 96.449219 C 191.140625 96.136719 191.171875 95.824219 191.171875 95.503906 C 191.171875 95.1875 191.140625 94.875 191.078125 94.5625 C 191.015625 94.25 190.925781 93.949219 190.804688 93.65625 C 190.679688 93.363281 190.53125 93.085938 190.355469 92.820312 C 190.179688 92.558594 189.980469 92.3125 189.753906 92.089844 C 189.53125 91.863281 189.285156 91.664062 189.019531 91.488281 C 188.757812 91.3125 188.476562 91.160156 188.183594 91.039062 C 187.890625 90.917969 187.589844 90.828125 187.277344 90.765625 C 186.964844 90.703125 186.652344 90.671875 186.332031 90.671875 C 186.015625 90.671875 185.703125 90.703125 185.390625 90.765625 C 185.078125 90.824219 184.777344 90.917969 184.480469 91.039062 C 184.1875 91.160156 183.910156 91.308594 183.644531 91.484375 C 183.382812 91.660156 183.136719 91.859375 182.910156 92.085938 Z M 142.222656 103.664062 C 142.449219 103.890625 142.691406 104.089844 142.957031 104.265625 C 143.222656 104.441406 143.5 104.589844 143.792969 104.710938 C 144.085938 104.835938 144.390625 104.925781 144.703125 104.988281 C 145.011719 105.050781 145.328125 105.082031 145.644531 105.082031 C 145.964844 105.082031 146.277344 105.050781 146.589844 104.988281 C 146.902344 104.925781 147.203125 104.835938 147.5 104.710938 C 147.792969 104.589844 148.070312 104.441406 148.335938 104.265625 C 148.597656 104.089844 148.84375 103.890625 149.070312 103.664062 L 182.269531 70.492188 C 182.496094 70.269531 182.695312 70.023438 182.871094 69.761719 C 183.046875 69.496094 183.195312 69.21875 183.320312 68.925781 C 183.441406 68.632812 183.53125 68.328125 183.59375 68.015625 C 183.65625 67.707031 183.6875 67.390625 183.6875 67.074219 C 183.6875 66.757812 183.65625 66.441406 183.59375 66.128906 C 183.53125 65.820312 183.441406 65.515625 183.320312 65.222656 C 183.195312 64.929688 183.046875 64.652344 182.871094 64.386719 C 182.695312 64.125 182.496094 63.878906 182.269531 63.65625 C 182.046875 63.429688 181.800781 63.230469 181.535156 63.054688 C 181.273438 62.878906 180.992188 62.726562 180.699219 62.605469 C 180.40625 62.484375 180.101562 62.394531 179.792969 62.332031 C 179.480469 62.269531 179.164062 62.238281 178.847656 62.238281 C 178.53125 62.238281 178.214844 62.269531 177.902344 62.332031 C 177.589844 62.394531 177.289062 62.484375 176.996094 62.605469 C 176.703125 62.726562 176.421875 62.878906 176.15625 63.054688 C 175.894531 63.230469 175.648438 63.429688 175.425781 63.65625 L 142.222656 96.824219 C 142 97.050781 141.796875 97.292969 141.621094 97.558594 C 141.445312 97.820312 141.296875 98.101562 141.175781 98.394531 C 141.050781 98.6875 140.960938 98.988281 140.898438 99.300781 C 140.835938 99.613281 140.804688 99.925781 140.804688 100.246094 C 140.804688 100.5625 140.835938 100.875 140.898438 101.1875 C 140.960938 101.5 141.050781 101.800781 141.175781 102.09375 C 141.296875 102.390625 141.445312 102.667969 141.621094 102.929688 C 141.796875 103.195312 142 103.441406 142.222656 103.664062 Z M 138.160156 76.667969 C 138.800781 76.671875 139.421875 76.546875 140.011719 76.300781 C 140.605469 76.054688 141.128906 75.707031 141.582031 75.253906 L 153.832031 63.015625 C 154.058594 62.789062 154.257812 62.546875 154.433594 62.28125 C 154.613281 62.019531 154.761719 61.738281 154.882812 61.445312 C 155.003906 61.152344 155.097656 60.851562 155.15625 60.539062 C 155.21875 60.226562 155.25 59.914062 155.25 59.59375 C 155.25 59.277344 155.21875 58.964844 155.15625 58.652344 C 155.097656 58.339844 155.003906 58.039062 154.882812 57.746094 C 154.761719 57.453125 154.613281 57.171875 154.433594 56.910156 C 154.257812 56.644531 154.058594 56.402344 153.832031 56.175781 C 153.609375 55.953125 153.363281 55.75 153.101562 55.574219 C 152.835938 55.398438 152.554688 55.25 152.261719 55.128906 C 151.96875 55.007812 151.667969 54.914062 151.355469 54.851562 C 151.042969 54.789062 150.730469 54.757812 150.410156 54.757812 C 150.09375 54.757812 149.777344 54.789062 149.464844 54.851562 C 149.15625 54.914062 148.851562 55.007812 148.558594 55.128906 C 148.265625 55.25 147.984375 55.398438 147.722656 55.574219 C 147.457031 55.75 147.214844 55.953125 146.988281 56.175781 L 134.738281 68.410156 C 134.398438 68.75 134.113281 69.128906 133.890625 69.550781 C 133.664062 69.972656 133.503906 70.417969 133.410156 70.886719 C 133.316406 71.359375 133.292969 71.832031 133.339844 72.308594 C 133.386719 72.78125 133.5 73.242188 133.683594 73.683594 C 133.867188 74.125 134.109375 74.53125 134.414062 74.902344 C 134.71875 75.273438 135.070312 75.589844 135.46875 75.855469 C 135.867188 76.121094 136.296875 76.324219 136.753906 76.460938 C 137.210938 76.601562 137.679688 76.667969 138.160156 76.667969 Z M 138.160156 76.667969 " fill-opacity="1" fill-rule="nonzero"/></g></svg>