<svg xmlns="http://www.w3.org/2000/svg" xmlns:xlink="http://www.w3.org/1999/xlink" width="500" zoomAndPan="magnify" viewBox="0 0 375 374.999991" height="500" preserveAspectRatio="xMidYMid meet" version="1.0"><defs><clipPath id="c0f1e636f2"><path d="M 31.171875 0 L 343.921875 0 L 343.921875 375 L 31.171875 375 Z M 31.171875 0 " clip-rule="nonzero"/></clipPath></defs><g clip-path="url(#c0f1e636f2)"><path fill="#000000" d="M 335.589844 158.3125 C 330.339844 152.9375 323.273438 150 315.710938 150 C 307.082031 150 300.082031 143 300.082031 134.375 L 300.082031 112.5 L 306.332031 112.5 C 309.769531 112.5 312.585938 109.6875 312.585938 106.25 L 312.585938 81.25 C 312.585938 77.8125 309.769531 75 306.332031 75 L 218.804688 75 C 215.367188 75 212.554688 77.8125 212.554688 81.25 L 212.554688 106.25 C 212.554688 109.6875 215.367188 112.5 218.804688 112.5 L 225.058594 112.5 L 225.058594 134.375 C 225.058594 138.5625 223.433594 142.4375 220.433594 145.4375 C 217.492188 148.375 213.617188 150 209.429688 150 L 209.179688 150 C 205.863281 145.5 201.863281 141.625 197.300781 138.5625 C 187.234375 131.875 181.296875 120.6875 181.296875 108.6875 L 181.296875 50 C 184.734375 50 187.546875 47.1875 187.546875 43.75 L 187.546875 6.25 C 187.546875 2.8125 184.734375 0 181.296875 0 L 118.777344 0 C 115.335938 0 112.523438 2.8125 112.523438 6.25 L 112.523438 43.75 C 112.523438 47.1875 115.335938 50 118.777344 50 L 118.777344 108.6875 C 118.777344 114.625 117.277344 120.4375 114.523438 125.625 C 111.648438 130.9375 107.710938 135.3125 102.773438 138.5625 C 89.328125 147.5625 81.265625 162.625 81.265625 178.8125 L 81.265625 193.75 L 37.5 193.75 C 35.8125 193.75 34.1875 194.4375 33 195.6875 C 31.8125 196.875 31.1875 198.5625 31.25 200.25 L 37.5 369 C 37.628906 372.3125 40.378906 375 43.753906 375 L 337.59375 375 C 341.03125 375 343.84375 372.1875 343.84375 368.75 L 343.84375 178.125 C 343.84375 170.5625 340.90625 163.5 335.589844 158.3125 Z M 110.898438 243.75 L 45.378906 243.75 L 44.003906 206.25 L 112.273438 206.25 Z M 206.300781 362.5 L 119.027344 362.5 L 120.652344 318.75 L 206.300781 318.75 Z M 206.300781 306.25 L 121.089844 306.25 L 123.152344 250.125 L 123.152344 250 L 206.300781 250 Z M 206.300781 237.5 L 123.652344 237.5 L 125.027344 200.25 C 125.089844 198.5625 124.464844 196.875 123.277344 195.6875 C 122.089844 194.4375 120.464844 193.75 118.777344 193.75 L 93.769531 193.75 L 93.769531 178.8125 C 93.769531 166.8125 99.707031 155.625 109.710938 148.9375 C 116.273438 144.6875 121.714844 138.625 125.527344 131.5625 C 129.28125 124.5625 131.28125 116.6875 131.28125 108.6875 L 131.28125 50 L 168.792969 50 L 168.792969 108.6875 C 168.792969 124.875 176.855469 139.9375 190.359375 148.9375 C 194.550781 151.75 198.050781 155.375 200.800781 159.75 C 201.238281 160.5 201.675781 161.1875 202.050781 161.9375 C 204.800781 167.0625 206.300781 172.875 206.300781 178.8125 Z M 331.339844 212.5 L 281.324219 212.5 C 277.886719 212.5 275.074219 215.3125 275.074219 218.75 L 275.074219 325 C 275.074219 328.4375 277.886719 331.25 281.324219 331.25 L 331.339844 331.25 L 331.339844 362.5 L 218.804688 362.5 L 218.804688 178.8125 C 218.804688 177 218.679688 175.25 218.492188 173.4375 C 218.429688 172.9375 218.367188 172.4375 218.242188 172 C 218.054688 170.5625 217.804688 169.25 217.492188 167.875 C 217.429688 167.4375 217.304688 167 217.242188 166.625 C 216.804688 165 216.304688 163.375 215.742188 161.8125 C 220.871094 160.625 225.558594 158.0625 229.246094 154.25 C 234.625 149 237.5625 141.9375 237.5625 134.375 L 237.5625 112.5 L 287.578125 112.5 L 287.578125 134.375 C 287.578125 149.875 300.207031 162.5 315.710938 162.5 C 319.898438 162.5 323.773438 164.125 326.777344 167.125 C 329.714844 170.0625 331.339844 173.9375 331.339844 178.125 Z M 331.339844 212.5 " fill-opacity="1" fill-rule="nonzero"/></g></svg>