<svg xmlns="http://www.w3.org/2000/svg" xmlns:xlink="http://www.w3.org/1999/xlink" width="500" zoomAndPan="magnify" viewBox="0 0 375 374.999991" height="500" preserveAspectRatio="xMidYMid meet" version="1.0"><defs><clipPath id="70c3486b90"><path d="M 0.382812 34.773438 L 374.617188 34.773438 L 374.617188 340.007812 L 0.382812 340.007812 Z M 0.382812 34.773438 " clip-rule="nonzero"/></clipPath></defs><g clip-path="url(#70c3486b90)"><path fill="#070605" d="M 351.628906 293.410156 C 351.628906 306.433594 341.027344 317.035156 328.003906 317.035156 L 47.011719 317.035156 C 33.976562 317.035156 23.371094 306.433594 23.371094 293.410156 L 23.371094 106.195312 C 23.371094 93.175781 33.976562 82.585938 47.011719 82.585938 L 131.582031 82.585938 L 147.257812 59.066406 C 147.695312 58.554688 149.054688 57.824219 149.585938 57.746094 L 225.28125 57.742188 C 225.9375 57.824219 227.277344 58.535156 227.636719 58.945312 L 243.414062 82.585938 L 328.003906 82.585938 C 341.027344 82.585938 351.628906 93.175781 351.628906 106.195312 Z M 328.003906 59.609375 L 255.71875 59.609375 L 246.777344 46.21875 C 242.378906 39.585938 233.394531 34.777344 225.421875 34.777344 L 149.585938 34.777344 C 141.503906 34.777344 132.722656 39.464844 128.214844 46.195312 L 119.269531 59.609375 L 47.011719 59.609375 C 21.300781 59.609375 0.382812 80.511719 0.382812 106.195312 L 0.382812 293.410156 C 0.382812 319.105469 21.300781 340.007812 47.011719 340.007812 L 328.003906 340.007812 C 353.707031 340.007812 374.617188 319.105469 374.617188 293.410156 L 374.617188 106.195312 C 374.617188 80.511719 353.707031 59.609375 328.003906 59.609375 " fill-opacity="1" fill-rule="nonzero"/></g><path fill="#070605" d="M 187.5 278.410156 C 144.125 278.410156 108.839844 243.15625 108.839844 199.820312 C 108.839844 156.472656 144.125 121.207031 187.5 121.207031 C 230.875 121.207031 266.164062 156.472656 266.164062 199.820312 C 266.164062 243.15625 230.875 278.410156 187.5 278.410156 Z M 187.5 98.234375 C 131.449219 98.234375 85.851562 143.804688 85.851562 199.820312 C 85.851562 255.820312 131.449219 301.386719 187.5 301.386719 C 243.550781 301.386719 289.152344 255.820312 289.152344 199.820312 C 289.152344 143.804688 243.550781 98.234375 187.5 98.234375 " fill-opacity="1" fill-rule="nonzero"/><path fill="#070605" d="M 187.5 144.707031 C 157.050781 144.707031 132.355469 169.375 132.355469 199.816406 C 132.355469 230.242188 157.050781 254.914062 187.5 254.914062 C 217.953125 254.914062 242.644531 230.242188 242.644531 199.816406 C 242.644531 169.375 217.953125 144.707031 187.5 144.707031 " fill-opacity="1" fill-rule="nonzero"/><path fill="#070605" d="M 66.378906 131.984375 C 59.695312 131.984375 54.253906 126.550781 54.253906 119.871094 C 54.253906 113.191406 59.695312 107.757812 66.378906 107.757812 C 73.0625 107.757812 78.5 113.191406 78.5 119.871094 C 78.5 126.550781 73.0625 131.984375 66.378906 131.984375 Z M 66.378906 92.4375 C 51.242188 92.4375 38.925781 104.746094 38.925781 119.871094 C 38.925781 134.996094 51.242188 147.300781 66.378906 147.300781 C 81.515625 147.300781 93.832031 134.996094 93.832031 119.871094 C 93.832031 104.746094 81.515625 92.4375 66.378906 92.4375 " fill-opacity="1" fill-rule="nonzero"/></svg>