<svg xmlns="http://www.w3.org/2000/svg" xmlns:xlink="http://www.w3.org/1999/xlink" width="500" zoomAndPan="magnify" viewBox="0 0 375 374.999991" height="500" preserveAspectRatio="xMidYMid meet" version="1.0"><path fill="#ffffff" d="M 374.929688 187.554688 C 374.929688 190.621094 374.855469 193.6875 374.703125 196.75 C 374.554688 199.816406 374.328125 202.875 374.027344 205.929688 C 373.726562 208.980469 373.351562 212.023438 372.898438 215.058594 C 372.449219 218.09375 371.925781 221.117188 371.328125 224.125 C 370.730469 227.132812 370.058594 230.128906 369.3125 233.101562 C 368.566406 236.078125 367.746094 239.035156 366.855469 241.972656 C 365.964844 244.90625 365.003906 247.820312 363.972656 250.707031 C 362.9375 253.597656 361.832031 256.457031 360.660156 259.292969 C 359.484375 262.128906 358.242188 264.929688 356.929688 267.703125 C 355.617188 270.476562 354.238281 273.21875 352.792969 275.921875 C 351.347656 278.628906 349.835938 281.296875 348.257812 283.929688 C 346.679688 286.5625 345.039062 289.152344 343.335938 291.703125 C 341.632812 294.253906 339.867188 296.761719 338.039062 299.226562 C 336.210938 301.691406 334.324219 304.109375 332.375 306.480469 C 330.429688 308.851562 328.425781 311.171875 326.367188 313.445312 C 324.304688 315.71875 322.191406 317.941406 320.023438 320.109375 C 317.851562 322.28125 315.632812 324.394531 313.359375 326.457031 C 311.085938 328.515625 308.761719 330.519531 306.390625 332.464844 C 304.019531 334.410156 301.601562 336.296875 299.136719 338.125 C 296.671875 339.953125 294.164062 341.71875 291.613281 343.425781 C 289.0625 345.128906 286.472656 346.769531 283.839844 348.347656 C 281.210938 349.925781 278.539062 351.4375 275.835938 352.882812 C 273.128906 354.328125 270.390625 355.707031 267.617188 357.019531 C 264.84375 358.332031 262.039062 359.574219 259.203125 360.746094 C 256.371094 361.921875 253.507812 363.027344 250.621094 364.058594 C 247.730469 365.09375 244.820312 366.054688 241.882812 366.945312 C 238.945312 367.835938 235.992188 368.652344 233.015625 369.398438 C 230.039062 370.144531 227.046875 370.816406 224.039062 371.414062 C 221.027344 372.015625 218.007812 372.539062 214.972656 372.988281 C 211.9375 373.4375 208.894531 373.8125 205.839844 374.113281 C 202.785156 374.414062 199.726562 374.640625 196.664062 374.792969 C 193.597656 374.941406 190.53125 375.019531 187.464844 375.019531 C 184.398438 375.019531 181.332031 374.941406 178.265625 374.792969 C 175.203125 374.640625 172.144531 374.414062 169.089844 374.113281 C 166.035156 373.8125 162.992188 373.4375 159.957031 372.988281 C 156.921875 372.539062 153.902344 372.015625 150.890625 371.414062 C 147.882812 370.816406 144.890625 370.144531 141.914062 369.398438 C 138.9375 368.652344 135.984375 367.835938 133.046875 366.945312 C 130.109375 366.054688 127.199219 365.09375 124.308594 364.058594 C 121.421875 363.027344 118.558594 361.921875 115.726562 360.746094 C 112.890625 359.574219 110.085938 358.332031 107.3125 357.019531 C 104.539062 355.707031 101.800781 354.328125 99.09375 352.882812 C 96.390625 351.4375 93.71875 349.925781 91.089844 348.347656 C 88.457031 346.769531 85.867188 345.128906 83.316406 343.425781 C 80.765625 341.71875 78.257812 339.953125 75.792969 338.125 C 73.328125 336.296875 70.910156 334.410156 68.539062 332.464844 C 66.167969 330.519531 63.84375 328.515625 61.570312 326.457031 C 59.296875 324.394531 57.078125 322.28125 54.90625 320.109375 C 52.738281 317.941406 50.621094 315.71875 48.5625 313.445312 C 46.503906 311.171875 44.5 308.851562 42.550781 306.480469 C 40.605469 304.109375 38.71875 301.691406 36.890625 299.226562 C 35.0625 296.761719 33.296875 294.253906 31.59375 291.703125 C 29.890625 289.152344 28.25 286.5625 26.671875 283.929688 C 25.09375 281.296875 23.582031 278.628906 22.136719 275.921875 C 20.6875 273.21875 19.308594 270.476562 18 267.703125 C 16.6875 264.929688 15.445312 262.128906 14.269531 259.292969 C 13.097656 256.457031 11.992188 253.597656 10.957031 250.707031 C 9.925781 247.820312 8.960938 244.90625 8.070312 241.972656 C 7.179688 239.035156 6.363281 236.078125 5.617188 233.101562 C 4.871094 230.128906 4.199219 227.132812 3.601562 224.125 C 3.003906 221.117188 2.480469 218.09375 2.027344 215.058594 C 1.578125 212.023438 1.203125 208.980469 0.902344 205.929688 C 0.601562 202.875 0.375 199.816406 0.226562 196.75 C 0.0742188 193.6875 0 190.621094 0 187.554688 C 0 184.484375 0.0742188 181.417969 0.226562 178.355469 C 0.375 175.289062 0.601562 172.230469 0.902344 169.179688 C 1.203125 166.125 1.578125 163.082031 2.027344 160.046875 C 2.480469 157.011719 3.003906 153.988281 3.601562 150.980469 C 4.199219 147.972656 4.871094 144.980469 5.617188 142.003906 C 6.363281 139.027344 7.179688 136.070312 8.070312 133.136719 C 8.960938 130.199219 9.925781 127.285156 10.957031 124.398438 C 11.992188 121.507812 13.097656 118.648438 14.269531 115.8125 C 15.445312 112.980469 16.6875 110.175781 18 107.402344 C 19.308594 104.628906 20.6875 101.886719 22.136719 99.183594 C 23.582031 96.476562 25.09375 93.808594 26.671875 91.175781 C 28.25 88.546875 29.890625 85.953125 31.59375 83.402344 C 33.296875 80.851562 35.0625 78.34375 36.890625 75.878906 C 38.71875 73.417969 40.605469 71 42.550781 68.625 C 44.5 66.253906 46.503906 63.933594 48.5625 61.660156 C 50.621094 59.386719 52.738281 57.164062 54.90625 54.996094 C 57.078125 52.824219 59.296875 50.710938 61.570312 48.652344 C 63.84375 46.589844 66.167969 44.585938 68.539062 42.640625 C 70.910156 40.695312 73.328125 38.808594 75.792969 36.980469 C 78.257812 35.152344 80.765625 33.386719 83.316406 31.683594 C 85.867188 29.976562 88.457031 28.335938 91.089844 26.757812 C 93.71875 25.183594 96.390625 23.671875 99.09375 22.222656 C 101.800781 20.777344 104.539062 19.398438 107.3125 18.085938 C 110.085938 16.773438 112.890625 15.53125 115.726562 14.359375 C 118.558594 13.183594 121.421875 12.082031 124.308594 11.046875 C 127.199219 10.011719 130.109375 9.050781 133.046875 8.160156 C 135.984375 7.269531 138.9375 6.453125 141.914062 5.707031 C 144.890625 4.960938 147.882812 4.289062 150.890625 3.691406 C 153.902344 3.09375 156.921875 2.566406 159.957031 2.117188 C 162.992188 1.667969 166.035156 1.292969 169.089844 0.992188 C 172.144531 0.691406 175.203125 0.464844 178.265625 0.3125 C 181.332031 0.164062 184.398438 0.0898438 187.464844 0.0898438 C 190.53125 0.0898438 193.597656 0.164062 196.664062 0.3125 C 199.726562 0.464844 202.785156 0.691406 205.839844 0.992188 C 208.894531 1.292969 211.9375 1.667969 214.972656 2.117188 C 218.007812 2.566406 221.027344 3.09375 224.039062 3.691406 C 227.046875 4.289062 230.039062 4.960938 233.015625 5.707031 C 235.992188 6.453125 238.945312 7.269531 241.882812 8.160156 C 244.820312 9.050781 247.730469 10.011719 250.621094 11.046875 C 253.507812 12.082031 256.371094 13.183594 259.203125 14.359375 C 262.039062 15.53125 264.84375 16.773438 267.617188 18.085938 C 270.390625 19.398438 273.128906 20.777344 275.835938 22.222656 C 278.539062 23.671875 281.210938 25.183594 283.839844 26.757812 C 286.472656 28.335938 289.0625 29.976562 291.613281 31.683594 C 294.164062 33.386719 296.671875 35.152344 299.136719 36.980469 C 301.601562 38.808594 304.019531 40.695312 306.390625 42.640625 C 308.761719 44.585938 311.085938 46.589844 313.359375 48.652344 C 315.632812 50.710938 317.851562 52.824219 320.023438 54.996094 C 322.191406 57.164062 324.304688 59.386719 326.367188 61.660156 C 328.425781 63.933594 330.429688 66.253906 332.375 68.625 C 334.324219 71 336.210938 73.417969 338.039062 75.878906 C 339.867188 78.34375 341.632812 80.851562 343.335938 83.402344 C 345.039062 85.953125 346.679688 88.546875 348.257812 91.175781 C 349.835938 93.808594 351.347656 96.476562 352.792969 99.183594 C 354.238281 101.886719 355.617188 104.628906 356.929688 107.402344 C 358.242188 110.175781 359.484375 112.980469 360.660156 115.8125 C 361.832031 118.648438 362.9375 121.507812 363.972656 124.398438 C 365.003906 127.285156 365.964844 130.199219 366.855469 133.136719 C 367.746094 136.070312 368.566406 139.027344 369.3125 142.003906 C 370.058594 144.980469 370.730469 147.972656 371.328125 150.980469 C 371.925781 153.988281 372.449219 157.011719 372.898438 160.046875 C 373.351562 163.082031 373.726562 166.125 374.027344 169.179688 C 374.328125 172.230469 374.554688 175.289062 374.703125 178.355469 C 374.855469 181.417969 374.929688 184.484375 374.929688 187.554688 Z M 374.929688 187.554688 " fill-opacity="1" fill-rule="nonzero"/><path fill="#e60023" d="M 117.871094 361.570312 C 115.523438 340.238281 117.164062 319.863281 121.847656 300.175781 L 140.597656 219.328125 C 137.558594 209.484375 135.207031 198.246094 135.207031 186.988281 C 135.207031 160.746094 147.863281 141.996094 167.777344 141.996094 C 181.597656 141.996094 191.6875 151.609375 191.6875 170.109375 C 191.6875 175.976562 190.523438 182.535156 188.171875 190.027344 L 179.972656 216.976562 C 178.328125 222.136719 177.621094 227.050781 177.621094 231.273438 C 177.621094 250.023438 191.917969 260.574219 210.191406 260.574219 C 242.761719 260.574219 265.964844 226.835938 265.964844 183.011719 C 265.964844 134.273438 234.101562 103.097656 186.988281 103.097656 C 134.5 103.097656 101.226562 137.3125 101.226562 184.882812 C 101.226562 204.09375 107.09375 221.90625 118.5625 234.101562 C 114.816406 240.425781 110.820312 241.59375 104.742188 241.59375 C 85.992188 241.59375 68.179688 215.121094 68.179688 179.035156 C 68.179688 116.707031 118.085938 67.03125 188.152344 67.03125 C 261.738281 67.03125 307.898438 118.347656 307.898438 181.613281 C 307.898438 244.882812 262.90625 293.160156 214.398438 293.160156 C 195.1875 293.160156 178.308594 284.960938 166.59375 270.1875 L 156.980469 309.082031 C 151.820312 329.230469 144.097656 348.210938 131.675781 366.5 C 149.257812 371.890625 166.59375 374.929688 187.445312 374.929688 C 291.023438 374.929688 374.910156 291.039062 374.910156 187.464844 C 374.910156 83.890625 291.039062 0 187.464844 0 C 83.890625 0 0 83.890625 0 187.464844 C 0 265.964844 48.28125 333.683594 117.871094 361.570312 " fill-opacity="1" fill-rule="nonzero"/></svg>