<svg xmlns="http://www.w3.org/2000/svg" xmlns:xlink="http://www.w3.org/1999/xlink" width="500" zoomAndPan="magnify" viewBox="0 0 375 374.999991" height="500" preserveAspectRatio="xMidYMid meet" version="1.0"><defs><clipPath id="e99acd7706"><path d="M 38.671875 0 L 336.421875 0 L 336.421875 375 L 38.671875 375 Z M 38.671875 0 " clip-rule="nonzero"/></clipPath></defs><g clip-path="url(#e99acd7706)"><path fill="#231f20" d="M 302.765625 374.898438 L 291.707031 374.898438 C 290.644531 374.898438 289.707031 374.554688 288.898438 373.867188 C 270.019531 357.738281 254.15625 369.703125 249.742188 373.753906 C 248.914062 374.519531 247.933594 374.898438 246.804688 374.898438 L 100.414062 374.898438 C 100.128906 374.894531 99.847656 374.867188 99.566406 374.8125 C 99.289062 374.757812 99.015625 374.675781 98.753906 374.566406 C 98.488281 374.457031 98.238281 374.320312 98 374.164062 C 97.761719 374.003906 97.542969 373.824219 97.34375 373.621094 C 97.140625 373.421875 96.960938 373.199219 96.800781 372.964844 C 96.640625 372.726562 96.507812 372.476562 96.398438 372.210938 C 96.289062 371.949219 96.207031 371.675781 96.152344 371.398438 C 96.09375 371.117188 96.066406 370.835938 96.066406 370.550781 L 96.066406 311.695312 C 96.066406 311.574219 96.023438 311.46875 95.9375 311.382812 C 95.847656 311.292969 95.746094 311.25 95.621094 311.25 L 43.027344 311.25 C 42.738281 311.25 42.457031 311.222656 42.175781 311.167969 C 41.898438 311.109375 41.625 311.027344 41.363281 310.917969 C 41.097656 310.808594 40.847656 310.675781 40.609375 310.515625 C 40.375 310.359375 40.152344 310.175781 39.953125 309.976562 C 39.75 309.773438 39.570312 309.554688 39.410156 309.316406 C 39.253906 309.078125 39.117188 308.828125 39.007812 308.566406 C 38.898438 308.300781 38.816406 308.03125 38.761719 307.75 C 38.703125 307.472656 38.675781 307.1875 38.675781 306.902344 L 38.675781 123.21875 C 38.675781 122.890625 38.714844 122.5625 38.789062 122.242188 C 38.863281 121.917969 38.972656 121.609375 39.117188 121.3125 C 39.261719 121.015625 39.4375 120.738281 39.644531 120.480469 C 39.855469 120.226562 40.089844 119.996094 40.347656 119.792969 C 40.609375 119.589844 40.890625 119.417969 41.1875 119.277344 C 41.488281 119.140625 41.800781 119.035156 42.125 118.964844 C 42.445312 118.898438 42.773438 118.867188 43.105469 118.871094 C 43.433594 118.878906 43.761719 118.921875 44.082031 119 L 51.550781 120.867188 C 52.230469 121.039062 52.839844 121.359375 53.367188 121.824219 L 77.121094 142.722656 C 77.230469 142.816406 77.359375 142.851562 77.5 142.824219 L 90.660156 140.277344 C 90.8125 140.25 90.921875 140.164062 90.984375 140.019531 L 104.839844 108.492188 C 104.863281 108.441406 104.875 108.386719 104.875 108.332031 L 107.601562 44.65625 C 107.617188 44.292969 107.679688 43.933594 107.785156 43.585938 L 119.972656 3.214844 C 120.105469 2.765625 120.304688 2.351562 120.574219 1.96875 C 120.84375 1.585938 121.164062 1.253906 121.539062 0.976562 C 121.914062 0.695312 122.324219 0.484375 122.769531 0.339844 C 123.214844 0.191406 123.667969 0.121094 124.136719 0.121094 L 126.054688 0.121094 C 126.574219 0.125 127.078125 0.21875 127.566406 0.402344 C 128.054688 0.582031 128.496094 0.84375 128.890625 1.183594 C 129.285156 1.527344 129.609375 1.921875 129.859375 2.378906 C 130.113281 2.835938 130.277344 3.320312 130.355469 3.835938 L 133.132812 22.613281 C 133.152344 22.765625 133.234375 22.878906 133.371094 22.949219 L 138.582031 25.550781 C 139.019531 25.769531 139.414062 26.054688 139.753906 26.402344 C 140.097656 26.753906 140.375 27.152344 140.582031 27.597656 C 140.789062 28.039062 140.917969 28.507812 140.964844 28.996094 C 141.015625 29.480469 140.984375 29.964844 140.867188 30.441406 L 139.3125 37.003906 C 139.28125 37.140625 139.308594 37.265625 139.394531 37.378906 L 147.070312 47.242188 C 147.550781 47.863281 147.84375 48.5625 147.945312 49.339844 L 151.542969 76.527344 C 151.558594 76.65625 151.621094 76.757812 151.722656 76.832031 C 151.828125 76.90625 151.941406 76.933594 152.066406 76.910156 L 158.167969 75.785156 C 158.285156 75.765625 158.378906 75.703125 158.449219 75.609375 L 159.902344 73.589844 C 160.359375 72.949219 160.949219 72.472656 161.667969 72.152344 C 162.386719 71.835938 163.136719 71.722656 163.917969 71.808594 C 164.703125 71.898438 165.40625 72.175781 166.035156 72.648438 C 166.664062 73.121094 167.132812 73.71875 167.4375 74.441406 L 169.484375 79.296875 C 169.523438 79.390625 169.585938 79.460938 169.667969 79.507812 L 180.714844 86.007812 C 181.316406 86.359375 181.804688 86.832031 182.179688 87.421875 C 182.554688 88.007812 182.773438 88.652344 182.839844 89.34375 L 185.675781 119.34375 C 185.683594 119.421875 185.710938 119.492188 185.753906 119.554688 L 194.519531 132.238281 C 195.011719 132.945312 195.269531 133.734375 195.289062 134.597656 L 195.726562 151.71875 C 195.730469 151.964844 195.855469 152.105469 196.09375 152.148438 L 198.871094 152.625 C 199.164062 152.675781 199.453125 152.757812 199.730469 152.867188 C 200.011719 152.980469 200.273438 153.117188 200.527344 153.28125 C 200.777344 153.449219 201.007812 153.636719 201.21875 153.847656 C 201.429688 154.0625 201.617188 154.292969 201.78125 154.546875 C 201.941406 154.796875 202.078125 155.0625 202.1875 155.34375 C 202.296875 155.625 202.375 155.910156 202.421875 156.207031 C 202.472656 156.503906 202.488281 156.800781 202.476562 157.101562 C 202.460938 157.402344 202.417969 157.695312 202.34375 157.984375 L 200.269531 166.113281 C 200.234375 166.253906 200.261719 166.382812 200.347656 166.5 L 205.1875 172.691406 C 205.277344 172.804688 205.390625 172.859375 205.53125 172.863281 L 217.617188 173.074219 C 218.230469 173.085938 218.820312 173.222656 219.378906 173.480469 C 219.9375 173.742188 220.417969 174.105469 220.820312 174.570312 L 234.382812 190.160156 C 234.480469 190.273438 234.605469 190.324219 234.75 190.3125 L 239.691406 189.972656 C 240.347656 189.925781 240.980469 190.023438 241.589844 190.265625 C 242.199219 190.507812 242.726562 190.867188 243.175781 191.347656 L 247.546875 196.042969 C 247.742188 196.253906 247.910156 196.476562 248.058594 196.71875 C 248.207031 196.960938 248.332031 197.210938 248.433594 197.476562 C 248.53125 197.742188 248.605469 198.015625 248.652344 198.296875 C 248.695312 198.574219 248.714844 198.855469 248.707031 199.140625 C 248.699219 199.421875 248.660156 199.703125 248.597656 199.980469 C 248.535156 200.253906 248.445312 200.523438 248.332031 200.78125 C 248.214844 201.039062 248.074219 201.285156 247.914062 201.515625 C 247.75 201.75 247.566406 201.964844 247.359375 202.160156 L 246.003906 203.445312 C 245.90625 203.539062 245.863281 203.648438 245.867188 203.78125 C 245.871094 203.914062 245.921875 204.023438 246.023438 204.109375 L 256.328125 212.828125 C 257.167969 213.535156 257.667969 214.433594 257.824219 215.523438 L 260.074219 231.050781 C 260.089844 231.160156 260.140625 231.25 260.222656 231.320312 L 263.046875 233.820312 C 263.105469 233.875 263.175781 233.90625 263.253906 233.921875 C 263.328125 233.941406 263.40625 233.9375 263.480469 233.910156 C 263.554688 233.886719 263.617188 233.847656 263.671875 233.789062 C 263.726562 233.730469 263.761719 233.664062 263.777344 233.585938 C 263.859375 233.222656 263.988281 232.875 264.15625 232.546875 C 264.328125 232.214844 264.539062 231.910156 264.789062 231.632812 C 265.035156 231.359375 265.316406 231.117188 265.628906 230.914062 C 265.9375 230.707031 266.269531 230.546875 266.625 230.425781 C 266.976562 230.304688 267.335938 230.234375 267.710938 230.207031 C 268.082031 230.179688 268.449219 230.199219 268.816406 230.269531 C 269.179688 230.335938 269.53125 230.449219 269.871094 230.609375 C 270.207031 230.765625 270.519531 230.964844 270.804688 231.203125 L 277.058594 236.414062 C 277.214844 236.542969 277.382812 236.558594 277.5625 236.460938 L 278.21875 236.089844 C 278.382812 235.996094 278.554688 235.917969 278.730469 235.847656 C 278.90625 235.777344 279.082031 235.71875 279.265625 235.671875 C 279.449219 235.625 279.636719 235.589844 279.824219 235.566406 C 280.011719 235.542969 280.199219 235.53125 280.386719 235.535156 C 280.578125 235.535156 280.765625 235.550781 280.953125 235.578125 C 281.136719 235.601562 281.324219 235.640625 281.503906 235.691406 C 281.6875 235.742188 281.867188 235.804688 282.039062 235.875 C 282.214844 235.949219 282.382812 236.035156 282.542969 236.128906 C 282.707031 236.226562 282.863281 236.332031 283.011719 236.445312 C 283.164062 236.5625 283.304688 236.6875 283.4375 236.820312 C 283.570312 236.957031 283.691406 237.097656 283.808594 237.25 C 283.921875 237.398438 284.027344 237.554688 284.121094 237.71875 C 284.214844 237.882812 284.296875 238.054688 284.367188 238.226562 C 284.441406 238.402344 284.5 238.582031 284.550781 238.761719 C 284.597656 238.945312 284.632812 239.128906 284.660156 239.316406 C 284.683594 239.503906 284.695312 239.691406 284.695312 239.882812 L 284.695312 256.699219 C 284.695312 256.824219 284.738281 256.929688 284.828125 257.015625 C 284.914062 257.101562 285.019531 257.144531 285.140625 257.144531 L 291.125 257.144531 C 291.949219 257.144531 292.714844 257.359375 293.414062 257.792969 C 294.117188 258.222656 294.648438 258.808594 295.015625 259.546875 L 300.511719 270.539062 C 300.527344 270.566406 300.542969 270.59375 300.566406 270.617188 L 319.6875 294.078125 C 319.742188 294.144531 319.808594 294.191406 319.890625 294.21875 L 325.621094 296.128906 C 326.0625 296.273438 326.472656 296.488281 326.84375 296.761719 C 327.21875 297.039062 327.539062 297.367188 327.808594 297.75 C 328.074219 298.128906 328.277344 298.542969 328.410156 298.988281 C 328.546875 299.433594 328.605469 299.886719 328.59375 300.351562 L 327.753906 337.410156 C 327.75 337.484375 327.765625 337.558594 327.804688 337.625 L 335.761719 352.816406 C 335.925781 353.128906 336.050781 353.457031 336.132812 353.800781 C 336.21875 354.140625 336.261719 354.488281 336.257812 354.84375 C 336.257812 355.195312 336.214844 355.542969 336.132812 355.882812 C 336.046875 356.226562 335.921875 356.554688 335.757812 356.863281 C 335.59375 357.175781 335.394531 357.464844 335.160156 357.726562 C 334.925781 357.988281 334.660156 358.222656 334.371094 358.421875 C 334.078125 358.621094 333.769531 358.78125 333.4375 358.90625 C 333.109375 359.03125 332.769531 359.113281 332.417969 359.152344 L 307.507812 362.082031 C 307.394531 362.097656 307.300781 362.144531 307.226562 362.230469 C 307.152344 362.3125 307.113281 362.414062 307.113281 362.523438 L 307.113281 370.546875 C 307.113281 370.832031 307.085938 371.117188 307.03125 371.394531 C 306.972656 371.675781 306.890625 371.949219 306.78125 372.210938 C 306.671875 372.476562 306.539062 372.726562 306.378906 372.964844 C 306.222656 373.199219 306.039062 373.421875 305.839844 373.621094 C 305.636719 373.824219 305.417969 374.003906 305.179688 374.164062 C 304.941406 374.320312 304.691406 374.457031 304.429688 374.566406 C 304.164062 374.675781 303.890625 374.757812 303.613281 374.8125 C 303.332031 374.867188 303.050781 374.898438 302.765625 374.898438 Z M 269.335938 361.816406 C 275.910156 361.816406 283.476562 364.101562 291.433594 370.898438 C 291.515625 370.964844 291.605469 370.996094 291.710938 370.996094 L 302.765625 370.996094 C 302.886719 370.996094 302.992188 370.949219 303.078125 370.863281 C 303.164062 370.777344 303.210938 370.671875 303.210938 370.550781 L 303.210938 362.527344 C 303.210938 361.992188 303.304688 361.480469 303.492188 360.980469 C 303.683594 360.484375 303.953125 360.035156 304.308594 359.636719 C 304.664062 359.238281 305.074219 358.917969 305.546875 358.671875 C 306.019531 358.425781 306.519531 358.269531 307.050781 358.207031 L 331.960938 355.277344 C 332.035156 355.269531 332.101562 355.246094 332.160156 355.203125 C 332.222656 355.164062 332.269531 355.109375 332.304688 355.042969 C 332.339844 354.980469 332.355469 354.910156 332.355469 354.835938 C 332.355469 354.765625 332.339844 354.695312 332.304688 354.628906 L 324.34375 339.4375 C 323.996094 338.773438 323.832031 338.070312 323.847656 337.320312 L 324.691406 300.265625 C 324.695312 300.046875 324.59375 299.902344 324.386719 299.832031 L 318.65625 297.921875 C 317.855469 297.65625 317.191406 297.199219 316.660156 296.546875 L 297.539062 273.085938 C 297.335938 272.835938 297.164062 272.570312 297.019531 272.285156 L 291.523438 261.296875 C 291.441406 261.128906 291.308594 261.046875 291.125 261.050781 L 285.140625 261.050781 C 284.855469 261.046875 284.570312 261.019531 284.292969 260.964844 C 284.011719 260.910156 283.742188 260.824219 283.476562 260.714844 C 283.214844 260.605469 282.960938 260.472656 282.726562 260.316406 C 282.488281 260.15625 282.269531 259.976562 282.066406 259.773438 C 281.863281 259.574219 281.683594 259.351562 281.527344 259.117188 C 281.367188 258.878906 281.234375 258.628906 281.125 258.363281 C 281.015625 258.101562 280.933594 257.828125 280.875 257.550781 C 280.820312 257.269531 280.792969 256.988281 280.792969 256.703125 L 280.792969 239.882812 C 280.792969 239.804688 280.773438 239.730469 280.734375 239.660156 C 280.691406 239.59375 280.640625 239.539062 280.570312 239.5 C 280.503906 239.457031 280.429688 239.4375 280.351562 239.4375 C 280.269531 239.4375 280.195312 239.457031 280.128906 239.496094 L 279.46875 239.863281 C 279.085938 240.078125 278.675781 240.230469 278.246094 240.320312 C 277.816406 240.410156 277.382812 240.4375 276.945312 240.394531 C 276.503906 240.355469 276.082031 240.253906 275.675781 240.085938 C 275.269531 239.917969 274.898438 239.691406 274.558594 239.410156 L 268.304688 234.203125 C 268.246094 234.152344 268.175781 234.121094 268.101562 234.105469 C 268.023438 234.09375 267.949219 234.097656 267.875 234.121094 C 267.800781 234.148438 267.738281 234.1875 267.6875 234.246094 C 267.636719 234.304688 267.601562 234.371094 267.585938 234.445312 C 267.542969 234.628906 267.488281 234.808594 267.425781 234.988281 C 267.359375 235.164062 267.285156 235.335938 267.195312 235.5 C 267.109375 235.667969 267.011719 235.828125 266.90625 235.980469 C 266.796875 236.136719 266.679688 236.28125 266.550781 236.421875 C 266.425781 236.558594 266.289062 236.691406 266.148438 236.8125 C 266.003906 236.933594 265.851562 237.042969 265.695312 237.144531 C 265.535156 237.246094 265.371094 237.339844 265.203125 237.417969 C 265.03125 237.5 264.855469 237.570312 264.679688 237.625 C 264.5 237.683594 264.316406 237.730469 264.132812 237.765625 C 263.945312 237.796875 263.761719 237.820312 263.574219 237.832031 C 263.386719 237.839844 263.199219 237.839844 263.011719 237.824219 C 262.824219 237.808594 262.636719 237.785156 262.453125 237.746094 C 262.269531 237.707031 262.085938 237.65625 261.910156 237.59375 C 261.730469 237.53125 261.558594 237.460938 261.390625 237.375 C 261.222656 237.289062 261.0625 237.195312 260.90625 237.089844 C 260.75 236.984375 260.601562 236.871094 260.460938 236.746094 L 257.632812 234.246094 C 256.835938 233.542969 256.363281 232.664062 256.210938 231.613281 L 253.960938 216.082031 C 253.945312 215.972656 253.890625 215.878906 253.804688 215.808594 L 243.5 207.089844 C 243.269531 206.894531 243.058594 206.671875 242.871094 206.433594 C 242.683594 206.191406 242.523438 205.933594 242.390625 205.65625 C 242.257812 205.382812 242.15625 205.097656 242.085938 204.800781 C 242.011719 204.503906 241.972656 204.203125 241.964844 203.898438 C 241.953125 203.589844 241.976562 203.289062 242.03125 202.988281 C 242.089844 202.6875 242.171875 202.394531 242.289062 202.113281 C 242.40625 201.832031 242.550781 201.566406 242.722656 201.3125 C 242.898438 201.0625 243.09375 200.828125 243.316406 200.621094 L 244.671875 199.332031 C 244.761719 199.246094 244.804688 199.144531 244.808594 199.023438 C 244.8125 198.902344 244.773438 198.796875 244.691406 198.707031 L 240.316406 194.007812 C 240.21875 193.90625 240.101562 193.859375 239.960938 193.867188 L 235.019531 194.207031 C 234.339844 194.253906 233.683594 194.144531 233.054688 193.882812 C 232.425781 193.625 231.886719 193.234375 231.4375 192.722656 L 217.875 177.128906 C 217.789062 177.03125 217.679688 176.980469 217.546875 176.976562 L 205.464844 176.765625 C 204.808594 176.753906 204.183594 176.605469 203.597656 176.3125 C 203.011719 176.019531 202.515625 175.613281 202.113281 175.09375 L 197.273438 168.902344 C 196.859375 168.371094 196.585938 167.773438 196.445312 167.117188 C 196.308594 166.457031 196.320312 165.800781 196.484375 165.148438 L 198.5625 157.019531 C 198.59375 156.894531 198.574219 156.777344 198.503906 156.667969 C 198.433594 156.558594 198.332031 156.496094 198.207031 156.472656 L 195.429688 155.992188 C 194.933594 155.90625 194.46875 155.742188 194.03125 155.492188 C 193.59375 155.246094 193.210938 154.929688 192.882812 154.550781 C 192.550781 154.171875 192.296875 153.746094 192.117188 153.277344 C 191.933594 152.808594 191.835938 152.324219 191.820312 151.820312 L 191.386719 134.695312 C 191.386719 134.609375 191.359375 134.527344 191.308594 134.453125 L 182.542969 121.773438 C 182.113281 121.148438 181.863281 120.460938 181.792969 119.710938 L 178.957031 89.710938 C 178.941406 89.5625 178.867188 89.449219 178.738281 89.371094 L 167.691406 82.875 C 166.863281 82.382812 166.261719 81.699219 165.886719 80.8125 L 163.839844 75.957031 C 163.773438 75.796875 163.652344 75.707031 163.480469 75.6875 C 163.308594 75.667969 163.171875 75.726562 163.070312 75.871094 L 161.617188 77.886719 C 160.933594 78.835938 160.023438 79.414062 158.875 79.625 L 152.773438 80.746094 C 152.484375 80.800781 152.191406 80.824219 151.894531 80.816406 C 151.601562 80.8125 151.308594 80.777344 151.023438 80.710938 C 150.734375 80.644531 150.457031 80.550781 150.1875 80.429688 C 149.917969 80.308594 149.667969 80.160156 149.425781 79.988281 C 149.1875 79.8125 148.96875 79.617188 148.773438 79.402344 C 148.574219 79.183594 148.398438 78.945312 148.246094 78.695312 C 148.097656 78.441406 147.972656 78.175781 147.875 77.894531 C 147.78125 77.617188 147.710938 77.332031 147.671875 77.039062 L 144.078125 49.851562 C 144.066406 49.773438 144.035156 49.699219 143.988281 49.636719 L 136.316406 39.773438 C 135.910156 39.253906 135.636719 38.671875 135.496094 38.03125 C 135.355469 37.386719 135.363281 36.742188 135.515625 36.101562 L 137.070312 29.542969 C 137.125 29.3125 137.046875 29.144531 136.835938 29.039062 L 131.628906 26.4375 C 130.992188 26.117188 130.46875 25.671875 130.050781 25.097656 C 129.632812 24.523438 129.375 23.886719 129.269531 23.183594 L 126.496094 4.40625 C 126.476562 4.296875 126.429688 4.207031 126.34375 4.132812 C 126.261719 4.0625 126.164062 4.027344 126.054688 4.023438 L 124.136719 4.023438 C 123.914062 4.023438 123.773438 4.128906 123.710938 4.339844 L 111.523438 44.714844 C 111.511719 44.75 111.503906 44.785156 111.503906 44.824219 L 108.777344 108.5 C 108.753906 109.042969 108.632812 109.5625 108.414062 110.0625 L 94.554688 141.589844 C 94.269531 142.242188 93.847656 142.792969 93.289062 143.238281 C 92.730469 143.683594 92.101562 143.972656 91.402344 144.109375 L 78.242188 146.652344 C 77.582031 146.78125 76.925781 146.753906 76.277344 146.578125 C 75.628906 146.402344 75.050781 146.09375 74.542969 145.648438 L 50.789062 124.753906 C 50.734375 124.703125 50.671875 124.671875 50.601562 124.65625 L 43.132812 122.789062 C 42.992188 122.753906 42.867188 122.777344 42.75 122.867188 C 42.636719 122.957031 42.578125 123.074219 42.578125 123.21875 L 42.578125 306.902344 C 42.582031 307.023438 42.625 307.128906 42.710938 307.214844 C 42.796875 307.304688 42.902344 307.347656 43.027344 307.347656 L 95.621094 307.347656 C 95.90625 307.347656 96.191406 307.375 96.46875 307.433594 C 96.75 307.488281 97.023438 307.570312 97.285156 307.679688 C 97.550781 307.789062 97.800781 307.921875 98.035156 308.082031 C 98.273438 308.238281 98.492188 308.421875 98.695312 308.621094 C 98.898438 308.824219 99.078125 309.042969 99.238281 309.28125 C 99.394531 309.519531 99.527344 309.769531 99.636719 310.03125 C 99.746094 310.296875 99.832031 310.566406 99.886719 310.847656 C 99.941406 311.125 99.96875 311.410156 99.972656 311.695312 L 99.972656 370.550781 C 99.972656 370.671875 100.015625 370.777344 100.101562 370.863281 C 100.1875 370.949219 100.292969 370.996094 100.417969 370.996094 L 246.808594 370.996094 C 246.921875 370.996094 247.019531 370.957031 247.105469 370.882812 C 249.371094 368.796875 257.84375 361.816406 269.335938 361.816406 Z M 269.335938 361.816406 " fill-opacity="1" fill-rule="nonzero"/></g></svg>