<svg xmlns="http://www.w3.org/2000/svg" xmlns:xlink="http://www.w3.org/1999/xlink" width="500" zoomAndPan="magnify" viewBox="0 0 375 374.999991" height="500" preserveAspectRatio="xMidYMid meet" version="1.0"><defs><clipPath id="0a420eaa1b"><path d="M 43.5 25.246094 L 331.5 25.246094 L 331.5 349.996094 L 43.5 349.996094 Z M 43.5 25.246094 " clip-rule="nonzero"/></clipPath></defs><g clip-path="url(#0a420eaa1b)"><path fill="#000000" d="M 158.535156 137.539062 L 158.535156 153.953125 C 158.535156 161.527344 152.339844 167.757812 144.738281 167.757812 L 118.808594 167.757812 C 111.234375 167.757812 105.03125 161.53125 105.03125 153.953125 L 105.03125 128.003906 C 105.03125 120.394531 111.234375 114.195312 118.808594 114.195312 L 144.738281 114.195312 C 150.929688 114.195312 156.1875 118.308594 157.925781 123.941406 L 166.886719 115.800781 C 169.027344 113.859375 172.339844 114.019531 174.28125 116.160156 C 176.222656 118.300781 176.0625 121.617188 173.921875 123.558594 Z M 148.066406 132.898438 L 148.066406 128.003906 C 148.066406 126.167969 146.570312 124.671875 144.738281 124.671875 L 118.808594 124.671875 C 116.984375 124.671875 115.5 126.171875 115.5 128.003906 L 115.5 153.953125 C 115.5 155.777344 116.984375 157.285156 118.808594 157.285156 L 144.738281 157.285156 C 146.570312 157.285156 148.066406 155.78125 148.066406 153.953125 L 148.066406 147.046875 L 143.332031 151.347656 C 141.261719 153.226562 138.085938 153.148438 136.109375 151.171875 L 123.53125 138.566406 C 121.492188 136.519531 121.492188 133.199219 123.539062 131.15625 C 125.582031 129.113281 128.898438 129.117188 130.941406 131.164062 C 130.941406 131.164062 139.992188 140.234375 139.992188 140.234375 Z M 158.535156 210.320312 L 158.535156 226.746094 C 158.535156 234.324219 152.339844 240.53125 144.738281 240.53125 L 118.808594 240.53125 C 111.230469 240.53125 105.03125 234.328125 105.03125 226.746094 L 105.03125 200.792969 C 105.03125 193.183594 111.234375 186.988281 118.808594 186.988281 L 144.738281 186.988281 C 150.925781 186.988281 156.183594 191.097656 157.921875 196.730469 L 166.886719 188.59375 C 169.027344 186.648438 172.339844 186.8125 174.28125 188.953125 C 176.222656 191.09375 176.0625 194.410156 173.921875 196.351562 Z M 148.066406 205.679688 L 148.066406 200.792969 C 148.066406 198.960938 146.570312 197.464844 144.738281 197.464844 L 118.808594 197.464844 C 116.984375 197.464844 115.5 198.960938 115.5 200.792969 L 115.5 226.746094 C 115.5 228.566406 116.988281 230.054688 118.808594 230.054688 L 144.738281 230.054688 C 146.570312 230.054688 148.066406 228.570312 148.066406 226.746094 L 148.066406 219.824219 L 143.332031 224.121094 C 141.261719 226 138.085938 225.921875 136.113281 223.945312 L 123.535156 211.359375 C 121.492188 209.316406 121.492188 205.996094 123.535156 203.953125 C 125.578125 201.90625 128.894531 201.90625 130.9375 203.953125 L 139.988281 213.011719 Z M 229.714844 322.679688 C 232.246094 321.28125 235.429688 322.203125 236.828125 324.734375 C 238.222656 327.265625 237.300781 330.453125 234.773438 331.851562 C 219.835938 340.097656 203.386719 346.011719 185.875 349.066406 L 181.097656 349.914062 C 180.492188 350.023438 179.871094 350.023438 179.265625 349.914062 C 179.265625 349.914062 174.492188 349.066406 174.492188 349.066406 C 99.1875 335.933594 43.511719 269.789062 43.511719 193.226562 L 43.511719 86.882812 C 43.511719 84.789062 44.761719 82.894531 46.683594 82.066406 L 178.121094 25.667969 C 179.4375 25.101562 180.925781 25.101562 182.246094 25.667969 L 313.710938 82.066406 C 315.636719 82.894531 316.882812 84.785156 316.882812 86.882812 L 316.882812 193.226562 C 316.882812 205.988281 315.335938 218.464844 312.410156 230.453125 C 311.722656 233.261719 308.886719 234.984375 306.082031 234.296875 C 303.277344 233.613281 301.554688 230.777344 302.238281 227.96875 C 304.972656 216.777344 306.414062 205.136719 306.414062 193.226562 C 306.414062 193.226562 306.414062 90.335938 306.414062 90.335938 L 180.183594 36.179688 L 53.980469 90.335938 L 53.980469 193.226562 C 53.980469 264.722656 105.976562 326.492188 176.296875 338.746094 C 176.304688 338.746094 176.308594 338.75 176.3125 338.75 L 180.183594 339.4375 L 184.050781 338.75 C 184.054688 338.75 184.0625 338.746094 184.066406 338.746094 C 200.414062 335.898438 215.773438 330.375 229.714844 322.679688 Z M 161.285156 301.777344 C 163.988281 302.792969 165.363281 305.816406 164.347656 308.523438 C 163.335938 311.230469 160.316406 312.601562 157.609375 311.589844 C 109.183594 293.429688 75.382812 246.429688 75.382812 193.226562 L 75.382812 107.875 C 75.382812 105.777344 76.632812 103.886719 78.554688 103.058594 L 178.121094 60.351562 C 179.4375 59.789062 180.925781 59.789062 182.242188 60.351562 L 281.839844 103.058594 C 283.765625 103.882812 285.011719 105.777344 285.011719 107.875 L 285.011719 186.675781 C 285.011719 189.566406 282.667969 191.914062 279.777344 191.914062 C 276.890625 191.914062 274.542969 189.566406 274.542969 186.675781 L 274.542969 111.328125 L 180.183594 70.867188 C 180.183594 70.867188 85.851562 111.328125 85.851562 111.328125 L 85.851562 193.226562 C 85.851562 242.023438 116.867188 285.125 161.285156 301.777344 Z M 188.988281 134.546875 C 186.097656 134.546875 183.753906 132.199219 183.753906 129.308594 C 183.753906 126.417969 186.097656 124.074219 188.988281 124.074219 L 250.132812 124.074219 C 253.019531 124.074219 255.363281 126.417969 255.363281 129.308594 C 255.363281 132.199219 253.019531 134.546875 250.132812 134.546875 Z M 188.988281 157.863281 C 186.097656 157.863281 183.753906 155.515625 183.753906 152.625 C 183.753906 149.734375 186.097656 147.386719 188.988281 147.386719 L 219.558594 147.386719 C 222.449219 147.386719 224.792969 149.734375 224.792969 152.625 C 224.792969 155.515625 222.449219 157.863281 219.558594 157.863281 Z M 188.988281 199.945312 C 186.097656 199.945312 183.753906 197.601562 183.753906 194.707031 C 183.753906 191.816406 186.097656 189.472656 188.988281 189.472656 L 212.617188 189.472656 C 215.503906 189.472656 217.851562 191.816406 217.851562 194.707031 C 217.851562 197.601562 215.503906 199.945312 212.617188 199.945312 Z M 188.988281 223.261719 C 186.097656 223.261719 183.753906 220.914062 183.753906 218.023438 C 183.753906 215.132812 186.097656 212.789062 188.988281 212.789062 L 199.933594 212.789062 C 202.820312 212.789062 205.164062 215.132812 205.164062 218.023438 C 205.164062 220.914062 202.820312 223.261719 199.933594 223.261719 Z M 266.6875 181.03125 L 266.691406 181.035156 L 328.859375 288.777344 L 328.859375 288.78125 C 332.273438 294.710938 332.273438 301.683594 328.855469 307.621094 L 328.851562 307.628906 C 325.421875 313.539062 319.386719 317.039062 312.546875 317.039062 L 188.230469 317.039062 C 181.402344 317.039062 175.347656 313.53125 171.929688 307.613281 L 171.929688 307.609375 C 168.519531 301.683594 168.519531 294.710938 171.929688 288.777344 L 234.089844 181.035156 C 237.503906 175.101562 243.558594 171.609375 250.390625 171.609375 C 257.234375 171.609375 263.269531 175.097656 266.6875 181.03125 Z M 257.617188 186.265625 C 256.105469 183.632812 253.425781 182.085938 250.390625 182.085938 C 247.359375 182.085938 244.675781 183.632812 243.15625 186.265625 L 181 294.007812 C 179.484375 296.644531 179.484375 299.746094 181 302.382812 C 182.515625 305.003906 185.203125 306.5625 188.230469 306.5625 L 312.546875 306.5625 C 315.589844 306.5625 318.269531 305 319.796875 302.367188 C 321.308594 299.734375 321.304688 296.640625 319.789062 294.007812 L 257.621094 186.265625 Z M 254.589844 271.734375 C 260.199219 273.523438 264.28125 278.789062 264.28125 284.984375 C 264.28125 292.644531 258.042969 298.886719 250.390625 298.886719 C 242.734375 298.886719 236.496094 292.644531 236.496094 284.984375 C 236.496094 278.789062 240.578125 273.523438 246.1875 271.734375 C 241.773438 270.085938 238.585938 265.90625 238.410156 260.917969 L 236.6875 213.546875 L 236.6875 213.53125 C 236.585938 210.160156 237.710938 207.226562 240.042969 204.792969 L 240.054688 204.78125 C 242.410156 202.347656 245.304688 201.121094 248.683594 201.121094 L 252.09375 201.121094 C 255.480469 201.121094 258.398438 202.355469 260.734375 204.792969 C 263.089844 207.230469 264.21875 210.183594 264.089844 213.5625 L 262.382812 260.914062 C 262.207031 265.902344 259.007812 270.082031 254.589844 271.734375 Z M 250.390625 262.015625 C 251.214844 262.015625 251.894531 261.367188 251.921875 260.539062 L 253.628906 213.179688 L 253.628906 213.175781 C 253.644531 212.746094 253.503906 212.375 253.195312 212.058594 L 253.1875 212.046875 C 252.890625 211.742188 252.519531 211.59375 252.09375 211.59375 L 248.683594 211.59375 C 248.253906 211.59375 247.882812 211.753906 247.578125 212.066406 C 247.28125 212.382812 247.140625 212.769531 247.152344 213.207031 L 248.871094 260.539062 L 248.871094 260.542969 C 248.898438 261.363281 249.570312 262.015625 250.390625 262.015625 Z M 250.390625 288.410156 C 252.273438 288.410156 253.8125 286.871094 253.8125 284.984375 C 253.8125 283.097656 252.273438 281.558594 250.390625 281.558594 C 248.503906 281.558594 246.964844 283.097656 246.964844 284.984375 C 246.964844 286.871094 248.503906 288.410156 250.390625 288.410156 Z M 250.390625 288.410156 " fill-opacity="1" fill-rule="evenodd"/></g></svg>