<svg xmlns="http://www.w3.org/2000/svg" xmlns:xlink="http://www.w3.org/1999/xlink" width="500" zoomAndPan="magnify" viewBox="0 0 375 374.999991" height="500" preserveAspectRatio="xMidYMid meet" version="1.0"><defs><clipPath id="d513ec4ecd"><path d="M 0 42 L 375 42 L 375 332.953125 L 0 332.953125 Z M 0 42 " clip-rule="nonzero"/></clipPath></defs><g clip-path="url(#d513ec4ecd)"><path fill="#000000" d="M 208.996094 172.101562 C 201.800781 172.101562 195.410156 168.355469 191.90625 162.09375 C 190.363281 159.355469 191.34375 155.890625 194.089844 154.359375 C 196.824219 152.835938 200.28125 153.808594 201.820312 156.542969 C 204.960938 162.140625 213.035156 162.144531 216.167969 156.542969 C 217.699219 153.808594 221.164062 152.828125 223.902344 154.359375 C 226.636719 155.890625 227.617188 159.355469 226.085938 162.09375 C 222.578125 168.355469 216.183594 172.101562 208.996094 172.101562 Z M 239.925781 162.09375 C 238.394531 159.355469 239.375 155.890625 242.109375 154.359375 C 244.851562 152.835938 248.3125 153.808594 249.84375 156.542969 C 252.980469 162.144531 261.058594 162.140625 264.199219 156.542969 C 265.730469 153.808594 269.191406 152.828125 271.929688 154.359375 C 274.671875 155.890625 275.644531 159.355469 274.117188 162.09375 C 266.636719 175.445312 247.40625 175.445312 239.925781 162.09375 Z M 234.648438 222.121094 C 227.457031 222.121094 221.0625 218.378906 217.554688 212.109375 C 216.027344 209.371094 217.003906 205.914062 219.738281 204.382812 C 222.480469 202.84375 225.941406 203.824219 227.472656 206.566406 C 230.601562 212.164062 238.683594 212.167969 241.820312 206.566406 C 243.359375 203.824219 246.820312 202.84375 249.554688 204.382812 C 252.300781 205.914062 253.273438 209.371094 251.738281 212.109375 C 248.230469 218.378906 241.84375 222.121094 234.648438 222.121094 Z M 282.679688 222.121094 C 275.476562 222.121094 269.09375 218.378906 265.585938 212.109375 C 264.046875 209.371094 265.027344 205.914062 267.765625 204.382812 C 270.5 202.84375 273.964844 203.824219 275.5 206.566406 C 278.636719 212.160156 286.714844 212.167969 289.851562 206.566406 C 291.382812 203.824219 294.839844 202.84375 297.585938 204.382812 C 300.320312 205.914062 301.296875 209.371094 299.769531 212.109375 C 296.257812 218.378906 289.863281 222.121094 282.679688 222.121094 Z M 277.394531 262.128906 C 269.917969 275.488281 250.71875 275.496094 243.214844 262.128906 C 241.675781 259.394531 242.65625 255.9375 245.394531 254.398438 C 248.128906 252.867188 251.59375 253.847656 253.128906 256.589844 C 256.261719 262.179688 264.351562 262.183594 267.480469 256.589844 C 269.011719 253.847656 272.476562 252.867188 275.214844 254.398438 C 277.949219 255.9375 278.929688 259.394531 277.394531 262.128906 Z M 325.417969 262.128906 C 317.945312 275.488281 298.714844 275.484375 291.238281 262.128906 C 289.703125 259.394531 290.683594 255.9375 293.417969 254.398438 C 296.164062 252.867188 299.621094 253.847656 301.152344 256.589844 C 304.285156 262.183594 312.367188 262.179688 315.5 256.589844 C 317.039062 253.847656 320.503906 252.867188 323.238281 254.398438 C 325.980469 255.9375 326.957031 259.394531 325.417969 262.128906 Z M 362.917969 306.554688 C 363.308594 305.910156 364.113281 304.199219 363.070312 302.171875 L 271.835938 124.277344 C 268.792969 118.351562 263.222656 114.945312 256.546875 114.945312 L 152.617188 114.945312 L 247.875 300.671875 C 249.175781 303.210938 249.949219 305.925781 250.199219 308.691406 L 359.085938 308.691406 C 361.375 308.691406 362.53125 307.195312 362.917969 306.554688 Z M 233.203125 320.007812 C 238.367188 317.359375 240.410156 311.011719 237.765625 305.855469 L 139.851562 114.945312 L 110.398438 114.945312 L 12.480469 305.855469 C 11.207031 308.335938 10.980469 311.183594 11.84375 313.859375 C 14.71875 322.804688 26.945312 323.714844 31.1875 315.445312 L 120.0625 142.15625 C 122.179688 138.039062 128.070312 138.042969 130.175781 142.15625 L 219.054688 315.445312 C 221.695312 320.601562 228.046875 322.648438 233.203125 320.007812 Z M 120.144531 299.355469 C 117.101562 305.292969 111.535156 308.691406 104.867188 308.691406 L 47.421875 308.691406 L 125.121094 157.195312 L 159.09375 223.421875 Z M 207.554688 56.261719 C 207.554688 54.902344 208.699219 53.75 210.0625 53.75 L 221.109375 53.75 C 222.460938 53.75 223.613281 54.902344 223.613281 56.261719 L 223.613281 103.585938 L 207.554688 103.585938 Z M 373.179688 296.992188 L 281.941406 119.097656 C 276.964844 109.386719 267.46875 103.585938 256.546875 103.585938 L 234.980469 103.585938 L 234.980469 56.261719 C 234.980469 48.609375 228.75 42.390625 221.109375 42.390625 L 210.0625 42.390625 C 202.410156 42.390625 196.191406 48.609375 196.191406 56.261719 L 196.191406 103.585938 L 106.917969 103.585938 C 104.792969 103.585938 102.835938 104.78125 101.867188 106.675781 L 2.367188 300.671875 C -3.136719 311.402344 1.117188 324.609375 11.851562 330.109375 C 22.476562 335.554688 35.710938 331.488281 41.300781 320.625 L 41.597656 320.054688 L 104.867188 320.054688 C 115.78125 320.054688 125.273438 314.25 130.257812 304.539062 L 165.472656 235.875 L 208.941406 320.625 C 217.234375 336.789062 240.476562 336.257812 248.136719 320.054688 L 359.085938 320.054688 C 370.929688 320.050781 378.59375 307.53125 373.179688 296.992188 Z M 373.179688 296.992188 " fill-opacity="1" fill-rule="evenodd"/></g></svg>