<svg xmlns="http://www.w3.org/2000/svg" xmlns:xlink="http://www.w3.org/1999/xlink" width="500" zoomAndPan="magnify" viewBox="0 0 375 374.999991" height="500" preserveAspectRatio="xMidYMid meet" version="1.0"><defs><clipPath id="a2d48fed60"><path d="M 30.898438 2.171875 L 344.398438 2.171875 L 344.398438 372.671875 L 30.898438 372.671875 Z M 30.898438 2.171875 " clip-rule="nonzero"/></clipPath></defs><g clip-path="url(#a2d48fed60)"><path fill="#231f20" d="M 342.371094 372.664062 L 330.753906 372.664062 C 330.410156 372.664062 330.085938 372.582031 329.785156 372.417969 C 329.484375 372.253906 329.238281 372.027344 329.054688 371.742188 L 317.078125 353.203125 L 308.308594 347.949219 C 307.96875 347.746094 307.710938 347.464844 307.535156 347.109375 C 307.359375 346.75 307.292969 346.375 307.339844 345.980469 L 308.5625 335.597656 C 308.566406 335.5625 308.574219 335.527344 308.578125 335.492188 L 311.503906 318.558594 L 297.253906 296.625 C 297.089844 296.375 296.988281 296.097656 296.949219 295.800781 L 295.414062 284.558594 L 291.046875 285.5625 L 290.570312 290.824219 C 290.53125 291.21875 290.394531 291.570312 290.148438 291.882812 C 289.90625 292.195312 289.597656 292.417969 289.222656 292.546875 L 276.992188 296.824219 C 276.773438 296.898438 276.554688 296.9375 276.324219 296.9375 L 266.539062 296.9375 C 266.285156 296.9375 266.042969 296.890625 265.808594 296.800781 C 265.570312 296.707031 265.359375 296.578125 265.175781 296.40625 C 264.988281 296.238281 264.839844 296.039062 264.726562 295.8125 C 264.617188 295.589844 264.546875 295.351562 264.523438 295.097656 L 263.914062 288.382812 C 263.878906 288.019531 263.941406 287.671875 264.097656 287.339844 C 264.253906 287.011719 264.480469 286.742188 264.78125 286.535156 L 273.800781 280.34375 L 275.472656 264.765625 L 267.550781 249.410156 L 258.671875 276.011719 C 258.558594 276.355469 258.363281 276.648438 258.09375 276.886719 C 257.820312 277.128906 257.507812 277.28125 257.152344 277.355469 L 251.195312 278.542969 L 236.671875 283.984375 C 236.515625 284.042969 236.351562 284.082031 236.183594 284.097656 C 236.019531 284.117188 235.851562 284.117188 235.683594 284.09375 C 235.519531 284.070312 235.355469 284.027344 235.199219 283.964844 C 235.042969 283.898438 234.898438 283.820312 234.765625 283.71875 C 234.628906 283.621094 234.507812 283.503906 234.398438 283.375 C 234.292969 283.246094 234.203125 283.105469 234.132812 282.953125 C 234.058594 282.800781 234.007812 282.644531 233.976562 282.480469 C 233.945312 282.3125 233.933594 282.148438 233.941406 281.980469 L 234.554688 270.988281 C 234.566406 270.730469 234.628906 270.484375 234.738281 270.25 C 234.847656 270.015625 234.996094 269.808594 235.183594 269.632812 C 235.371094 269.453125 235.585938 269.320312 235.824219 269.222656 C 236.0625 269.128906 236.3125 269.078125 236.570312 269.078125 L 246.953125 269.078125 L 249.234375 243.4375 C 249.273438 243.03125 249.417969 242.667969 249.675781 242.347656 L 261.839844 227.308594 L 259.105469 218.570312 C 259.035156 218.347656 259.003906 218.121094 259.015625 217.886719 C 259.023438 217.65625 259.070312 217.433594 259.15625 217.21875 C 259.242188 217 259.363281 216.808594 259.515625 216.632812 C 259.671875 216.457031 259.847656 216.316406 260.054688 216.203125 L 264.0625 213.976562 L 258.472656 198.25 L 258.421875 198.257812 L 259.976562 209.128906 C 260.035156 209.515625 259.980469 209.886719 259.824219 210.238281 C 259.664062 210.59375 259.421875 210.878906 259.097656 211.097656 L 250.480469 216.832031 L 244.589844 233.300781 C 244.4375 233.730469 244.171875 234.070312 243.789062 234.316406 C 243.40625 234.566406 242.988281 234.671875 242.53125 234.636719 L 235.507812 234.097656 L 217.90625 251.675781 L 218.398438 255.578125 C 218.445312 255.96875 218.386719 256.34375 218.214844 256.699219 C 218.046875 257.050781 217.796875 257.335938 217.460938 257.542969 L 213.035156 260.304688 L 206.5625 272.644531 C 206.488281 272.789062 206.398438 272.921875 206.289062 273.042969 C 206.183594 273.160156 206.066406 273.269531 205.933594 273.359375 C 205.800781 273.453125 205.660156 273.53125 205.511719 273.589844 C 205.359375 273.648438 205.207031 273.6875 205.046875 273.710938 C 204.886719 273.730469 204.726562 273.734375 204.566406 273.71875 C 204.40625 273.703125 204.25 273.667969 204.097656 273.613281 C 203.945312 273.558594 203.800781 273.488281 203.667969 273.402344 C 203.53125 273.3125 203.410156 273.210938 203.296875 273.09375 L 193.511719 262.710938 C 193.148438 262.320312 192.964844 261.859375 192.964844 261.328125 L 192.964844 245.375 L 185.511719 232.40625 L 177.773438 219.121094 L 168.226562 216.878906 C 167.636719 216.742188 167.199219 216.40625 166.910156 215.875 L 161.40625 205.730469 C 161.324219 205.578125 161.261719 205.417969 161.21875 205.246094 C 161.179688 205.078125 161.160156 204.90625 161.164062 204.730469 C 161.167969 204.558594 161.191406 204.386719 161.238281 204.21875 C 161.285156 204.050781 161.355469 203.894531 161.441406 203.742188 C 161.53125 203.59375 161.636719 203.457031 161.761719 203.332031 C 161.886719 203.210938 162.023438 203.105469 162.175781 203.019531 C 162.324219 202.933594 162.484375 202.867188 162.652344 202.820312 C 162.824219 202.773438 162.992188 202.75 163.167969 202.75 L 166.992188 202.71875 L 165.808594 193.933594 L 159.042969 196.632812 C 158.808594 196.726562 158.5625 196.777344 158.308594 196.777344 C 158.054688 196.78125 157.808594 196.738281 157.574219 196.648438 C 157.335938 196.558594 157.125 196.425781 156.9375 196.257812 C 156.746094 196.085938 156.597656 195.890625 156.484375 195.664062 L 151.882812 186.476562 L 146.351562 189.238281 C 146.070312 189.378906 145.765625 189.449219 145.449219 189.449219 L 138.722656 189.449219 C 138.238281 189.449219 137.808594 189.296875 137.4375 188.992188 L 127.597656 180.898438 L 122.957031 180.898438 L 119.246094 184.078125 C 119.070312 184.226562 118.878906 184.34375 118.667969 184.425781 C 118.453125 184.507812 118.234375 184.554688 118.007812 184.5625 C 117.777344 184.570312 117.554688 184.542969 117.339844 184.476562 C 117.121094 184.410156 116.917969 184.308594 116.734375 184.175781 L 92.195312 166.242188 L 86.964844 166.242188 L 83.886719 169.316406 C 83.527344 169.675781 83.09375 169.871094 82.582031 169.902344 L 33.046875 172.957031 C 32.769531 172.972656 32.496094 172.933594 32.234375 172.839844 C 31.972656 172.746094 31.738281 172.601562 31.535156 172.414062 C 31.332031 172.222656 31.175781 172 31.066406 171.742188 C 30.957031 171.488281 30.898438 171.21875 30.898438 170.941406 L 30.898438 4.214844 C 30.898438 3.949219 30.949219 3.691406 31.054688 3.441406 C 31.15625 3.195312 31.300781 2.976562 31.492188 2.789062 C 31.679688 2.597656 31.898438 2.453125 32.148438 2.351562 C 32.394531 2.246094 32.652344 2.195312 32.921875 2.195312 L 342.371094 2.195312 C 342.640625 2.195312 342.898438 2.246094 343.144531 2.351562 C 343.394531 2.453125 343.613281 2.597656 343.800781 2.789062 C 343.992188 2.976562 344.136719 3.195312 344.238281 3.441406 C 344.34375 3.691406 344.394531 3.949219 344.394531 4.214844 L 344.394531 370.644531 C 344.394531 370.914062 344.34375 371.171875 344.238281 371.417969 C 344.136719 371.664062 343.992188 371.882812 343.800781 372.074219 C 343.613281 372.261719 343.394531 372.410156 343.144531 372.511719 C 342.898438 372.613281 342.640625 372.664062 342.371094 372.664062 Z M 331.855469 368.628906 L 340.351562 368.628906 L 340.351562 6.234375 L 34.941406 6.234375 L 34.941406 168.792969 L 81.570312 165.917969 L 84.699219 162.796875 C 85.09375 162.402344 85.570312 162.203125 86.128906 162.203125 L 92.855469 162.203125 C 93.296875 162.203125 93.691406 162.335938 94.046875 162.59375 L 117.828125 179.972656 L 120.894531 177.347656 C 121.273438 177.023438 121.710938 176.863281 122.210938 176.863281 L 128.324219 176.863281 C 128.808594 176.863281 129.238281 177.015625 129.609375 177.324219 L 139.445312 185.410156 L 144.972656 185.410156 L 151.882812 181.960938 C 152.125 181.839844 152.375 181.773438 152.644531 181.753906 C 152.910156 181.734375 153.171875 181.765625 153.425781 181.851562 C 153.679688 181.9375 153.910156 182.066406 154.113281 182.242188 C 154.316406 182.417969 154.476562 182.625 154.597656 182.863281 L 159.269531 192.195312 L 166.714844 189.21875 C 166.855469 189.164062 167.003906 189.125 167.15625 189.101562 C 167.308594 189.078125 167.460938 189.070312 167.613281 189.082031 C 167.769531 189.09375 167.917969 189.121094 168.066406 189.167969 C 168.210938 189.210938 168.351562 189.273438 168.484375 189.351562 C 168.617188 189.429688 168.738281 189.519531 168.851562 189.625 C 168.964844 189.730469 169.0625 189.847656 169.148438 189.976562 C 169.234375 190.101562 169.300781 190.238281 169.355469 190.382812 C 169.410156 190.527344 169.449219 190.675781 169.46875 190.824219 L 171.304688 204.449219 C 171.34375 204.738281 171.320312 205.019531 171.238281 205.296875 C 171.152344 205.574219 171.015625 205.824219 170.828125 206.042969 C 170.636719 206.261719 170.410156 206.429688 170.148438 206.554688 C 169.882812 206.675781 169.605469 206.734375 169.316406 206.738281 L 166.5625 206.761719 L 170.035156 213.15625 L 179.546875 215.390625 C 180.113281 215.523438 180.539062 215.839844 180.832031 216.339844 L 189.011719 230.386719 L 196.738281 243.835938 C 196.917969 244.144531 197.007812 244.480469 197.007812 244.839844 L 197.007812 260.527344 L 204.296875 268.261719 L 209.707031 257.949219 C 209.875 257.625 210.117188 257.367188 210.425781 257.171875 L 214.222656 254.800781 L 213.773438 251.195312 C 213.691406 250.542969 213.882812 249.984375 214.347656 249.519531 L 233.308594 230.585938 C 233.746094 230.148438 234.273438 229.953125 234.890625 230 L 241.304688 230.492188 L 246.898438 214.84375 C 247.050781 214.425781 247.308594 214.089844 247.679688 213.84375 L 255.792969 208.441406 L 254.140625 196.878906 C 254.101562 196.617188 254.117188 196.359375 254.179688 196.101562 C 254.246094 195.847656 254.355469 195.613281 254.511719 195.398438 C 254.667969 195.1875 254.855469 195.011719 255.082031 194.875 C 255.304688 194.734375 255.546875 194.644531 255.808594 194.601562 L 259.480469 193.988281 C 259.710938 193.949219 259.945312 193.953125 260.179688 193.996094 C 260.414062 194.039062 260.632812 194.121094 260.835938 194.242188 C 261.042969 194.363281 261.21875 194.511719 261.371094 194.695312 C 261.523438 194.878906 261.636719 195.082031 261.714844 195.304688 L 268.445312 214.238281 C 268.523438 214.464844 268.5625 214.695312 268.558594 214.933594 C 268.558594 215.171875 268.515625 215.402344 268.429688 215.628906 C 268.34375 215.851562 268.222656 216.050781 268.066406 216.234375 C 267.910156 216.414062 267.730469 216.5625 267.519531 216.679688 L 263.453125 218.933594 L 266.023438 227.136719 C 266.125 227.457031 266.140625 227.785156 266.078125 228.117188 C 266.015625 228.449219 265.878906 228.746094 265.664062 229.007812 L 253.210938 244.40625 L 250.816406 271.277344 C 250.796875 271.53125 250.726562 271.769531 250.617188 271.996094 C 250.503906 272.21875 250.355469 272.417969 250.167969 272.589844 C 249.980469 272.757812 249.769531 272.890625 249.535156 272.980469 C 249.300781 273.074219 249.054688 273.117188 248.804688 273.117188 L 238.484375 273.117188 L 238.152344 279.113281 L 249.929688 274.703125 C 250.03125 274.667969 250.136719 274.636719 250.242188 274.617188 L 255.207031 273.625 L 265.234375 243.589844 C 265.359375 243.203125 265.585938 242.886719 265.90625 242.636719 C 266.226562 242.386719 266.589844 242.246094 266.996094 242.214844 C 267.402344 242.183594 267.78125 242.265625 268.136719 242.464844 C 268.492188 242.664062 268.761719 242.941406 268.949219 243.300781 L 279.34375 263.457031 C 279.53125 263.816406 279.601562 264.195312 279.558594 264.597656 L 277.722656 281.695312 C 277.65625 282.3125 277.367188 282.792969 276.859375 283.144531 L 268.046875 289.195312 L 268.386719 292.898438 L 275.980469 292.898438 L 286.660156 289.167969 L 287.152344 283.742188 C 287.191406 283.308594 287.355469 282.925781 287.640625 282.597656 C 287.929688 282.269531 288.285156 282.054688 288.710938 281.957031 L 296.660156 280.125 C 296.9375 280.0625 297.214844 280.054688 297.496094 280.109375 C 297.773438 280.164062 298.03125 280.269531 298.265625 280.429688 C 298.5 280.59375 298.691406 280.792969 298.839844 281.035156 C 298.988281 281.277344 299.082031 281.539062 299.121094 281.820312 L 300.894531 294.808594 L 315.324219 317.027344 C 315.613281 317.46875 315.710938 317.949219 315.621094 318.46875 L 312.570312 336.125 L 311.507812 345.15625 L 319.5625 349.984375 C 319.828125 350.144531 320.050781 350.355469 320.21875 350.621094 Z M 331.855469 368.628906 " fill-opacity="1" fill-rule="nonzero"/></g><path fill="#231f20" d="M 253.085938 307.929688 L 231.066406 307.929688 C 230.394531 307.929688 229.855469 307.660156 229.449219 307.121094 L 225.78125 302.234375 C 225.511719 301.875 225.375 301.472656 225.375 301.023438 L 225.375 294.917969 C 225.375 294.648438 225.429688 294.390625 225.53125 294.144531 C 225.632812 293.898438 225.777344 293.679688 225.96875 293.488281 C 226.160156 293.300781 226.378906 293.152344 226.625 293.050781 C 226.871094 292.949219 227.128906 292.898438 227.398438 292.898438 L 238.039062 292.898438 L 247.480469 289.363281 C 247.710938 289.277344 247.949219 289.234375 248.191406 289.234375 L 254.308594 289.234375 C 254.574219 289.234375 254.832031 289.285156 255.082031 289.386719 C 255.328125 289.488281 255.546875 289.636719 255.738281 289.824219 C 255.925781 290.015625 256.074219 290.234375 256.175781 290.480469 C 256.277344 290.726562 256.328125 290.984375 256.328125 291.253906 L 256.328125 293.425781 L 262.851562 295.429688 C 263.226562 295.542969 263.539062 295.75 263.792969 296.046875 C 264.046875 296.34375 264.203125 296.683594 264.257812 297.070312 C 264.316406 297.453125 264.261719 297.824219 264.105469 298.179688 C 263.945312 298.539062 263.703125 298.824219 263.378906 299.039062 L 258.164062 302.511719 L 254.703125 307.121094 C 254.296875 307.660156 253.757812 307.929688 253.085938 307.929688 Z M 232.078125 303.890625 L 252.074219 303.890625 L 255.136719 299.8125 C 255.273438 299.628906 255.441406 299.472656 255.632812 299.34375 L 257.59375 298.039062 L 253.714844 296.847656 C 253.289062 296.71875 252.945312 296.472656 252.679688 296.117188 C 252.417969 295.761719 252.285156 295.359375 252.285156 294.917969 L 252.285156 293.273438 L 248.558594 293.273438 L 239.117188 296.808594 C 238.886719 296.894531 238.652344 296.9375 238.40625 296.9375 L 229.421875 296.9375 L 229.421875 300.351562 Z M 232.078125 303.890625 " fill-opacity="1" fill-rule="nonzero"/></svg>