<svg xmlns="http://www.w3.org/2000/svg" xmlns:xlink="http://www.w3.org/1999/xlink" width="500" zoomAndPan="magnify" viewBox="0 0 375 374.999991" height="500" preserveAspectRatio="xMidYMid meet" version="1.0"><path fill="#000000" d="M 4.664062 75.199219 C 4.664062 80.121094 8.65625 84.117188 13.582031 84.117188 L 111.824219 84.117188 C 114.410156 84.117188 116.648438 82.902344 118.210938 81.085938 C 119.457031 82.871094 121.425781 84.117188 123.769531 84.117188 L 252.214844 84.117188 C 254.9375 84.117188 257.242188 82.503906 258.363281 80.214844 C 259.886719 82.507812 262.371094 84.117188 265.332031 84.117188 L 363.574219 84.117188 C 368.503906 84.117188 372.496094 80.121094 372.496094 75.199219 L 372.496094 16.085938 C 372.496094 11.15625 368.503906 7.160156 363.574219 7.160156 L 265.332031 7.160156 C 260.632812 7.160156 256.820312 10.972656 256.820312 15.675781 L 256.820312 59.570312 C 255.59375 58.460938 254 57.734375 252.214844 57.734375 L 240.324219 57.734375 C 240.324219 54.082031 237.332031 51.09375 233.679688 51.09375 L 226.703125 51.09375 L 226.703125 7.65625 C 226.703125 3.425781 223.277344 0 219.046875 0 L 156.9375 0 C 152.707031 0 149.28125 3.425781 149.28125 7.65625 L 149.28125 51.09375 L 143.007812 51.09375 C 139.355469 51.09375 136.367188 54.082031 136.367188 57.734375 L 123.769531 57.734375 C 122.492188 57.734375 121.363281 58.175781 120.339844 58.78125 L 120.339844 15.675781 C 120.339844 10.972656 116.527344 7.160156 111.824219 7.160156 L 13.582031 7.160156 C 8.65625 7.160156 4.664062 11.15625 4.664062 16.085938 Z M 276.816406 38.019531 C 276.816406 34.84375 279.386719 32.273438 282.5625 32.273438 C 285.738281 32.273438 288.308594 34.84375 288.308594 38.019531 L 288.308594 53.261719 C 288.308594 56.441406 285.738281 59.011719 282.5625 59.011719 C 279.386719 59.011719 276.816406 56.441406 276.816406 53.261719 Z M 170.960938 76.957031 C 168.953125 76.957031 167.324219 75.328125 167.324219 73.320312 C 167.324219 71.3125 168.953125 69.683594 170.960938 69.683594 C 172.96875 69.683594 174.59375 71.3125 174.59375 73.320312 C 174.59375 75.328125 172.96875 76.957031 170.960938 76.957031 Z M 182.550781 76.957031 C 180.542969 76.957031 178.914062 75.328125 178.914062 73.320312 C 178.914062 71.3125 180.542969 69.683594 182.550781 69.683594 C 184.558594 69.683594 186.1875 71.3125 186.1875 73.320312 C 186.1875 75.328125 184.558594 76.957031 182.550781 76.957031 Z M 194.140625 76.957031 C 192.132812 76.957031 190.503906 75.328125 190.503906 73.320312 C 190.503906 71.3125 192.132812 69.683594 194.140625 69.683594 C 196.148438 69.683594 197.777344 71.3125 197.777344 73.320312 C 197.777344 75.328125 196.148438 76.957031 194.140625 76.957031 Z M 205.730469 76.957031 C 203.722656 76.957031 202.09375 75.328125 202.09375 73.320312 C 202.09375 71.3125 203.722656 69.683594 205.730469 69.683594 C 207.738281 69.683594 209.367188 71.3125 209.367188 73.320312 C 209.367188 75.328125 207.738281 76.957031 205.730469 76.957031 Z M 88.851562 38.019531 C 88.851562 34.84375 91.421875 32.273438 94.597656 32.273438 C 97.773438 32.273438 100.347656 34.84375 100.347656 38.019531 L 100.347656 53.261719 C 100.347656 56.441406 97.773438 59.011719 94.597656 59.011719 C 91.421875 59.011719 88.851562 56.441406 88.851562 53.261719 Z M 88.851562 38.019531 " fill-opacity="1" fill-rule="nonzero"/><path fill="#000000" d="M 365.789062 221.367188 L 330.839844 221.367188 L 330.839844 218.503906 C 330.839844 210.355469 324.207031 203.726562 316.058594 203.726562 L 267.867188 203.726562 C 259.714844 203.726562 253.082031 210.355469 253.082031 218.503906 L 253.082031 221.367188 L 11.371094 221.367188 C 7.679688 221.367188 4.664062 224.382812 4.664062 228.070312 C 4.664062 231.761719 7.679688 234.78125 11.371094 234.78125 L 365.789062 234.78125 C 369.476562 234.78125 372.496094 231.761719 372.496094 228.070312 C 372.496094 224.382812 369.476562 221.367188 365.789062 221.367188 Z M 319.121094 218.503906 L 319.121094 221.367188 L 297.824219 221.367188 L 297.824219 215.445312 L 316.058594 215.445312 C 317.746094 215.445312 319.121094 216.816406 319.121094 218.503906 Z M 264.800781 218.503906 C 264.800781 216.816406 266.175781 215.445312 267.867188 215.445312 L 286.105469 215.445312 L 286.105469 221.367188 L 264.800781 221.367188 Z M 264.800781 218.503906 " fill-opacity="1" fill-rule="nonzero"/><path fill="#000000" d="M 2.503906 109.164062 C 2.503906 112.402344 5.125 115.023438 8.363281 115.023438 L 28.488281 115.023438 L 28.488281 138.3125 C 26.273438 138.640625 24.542969 140.46875 24.542969 142.777344 L 24.542969 181.785156 C 24.542969 196.695312 44.144531 201.363281 44.144531 192.773438 L 44.144531 142.777344 C 44.144531 140.46875 42.417969 138.640625 40.207031 138.3125 L 40.207031 115.023438 L 76.609375 115.023438 L 76.609375 127.644531 C 76.609375 128.742188 77.242188 129.570312 78.078125 130.164062 L 78.078125 157.429688 L 77.636719 157.429688 C 75.566406 157.429688 73.886719 159.105469 73.886719 161.175781 L 71.585938 185.816406 C 71.585938 187.890625 73.265625 189.566406 75.335938 189.566406 L 92.542969 189.566406 C 94.613281 189.566406 96.292969 187.890625 96.292969 185.816406 L 93.605469 161.175781 C 93.605469 159.105469 91.925781 157.429688 89.855469 157.429688 L 89.796875 157.429688 L 89.796875 130.164062 C 90.632812 129.566406 91.265625 128.742188 91.265625 127.644531 L 91.265625 115.023438 L 120.054688 115.023438 L 120.054688 127.644531 C 120.054688 128.742188 120.691406 129.570312 121.527344 130.164062 L 121.527344 155.90625 C 107.785156 161.792969 112.492188 180.617188 127.382812 180.617188 C 135.140625 180.617188 141.429688 174.804688 141.429688 167.628906 C 141.429688 162.410156 138.050781 157.972656 133.246094 155.910156 L 133.246094 130.164062 C 134.078125 129.566406 134.714844 128.742188 134.714844 127.644531 L 134.714844 115.023438 L 152.410156 115.023438 C 155.648438 115.023438 158.269531 112.402344 158.269531 109.164062 C 158.269531 105.921875 155.648438 103.304688 152.410156 103.304688 L 8.363281 103.304688 C 5.125 103.304688 2.503906 105.921875 2.503906 109.164062 Z M 2.503906 109.164062 " fill-opacity="1" fill-rule="nonzero"/><path fill="#000000" d="M 371.320312 250.40625 C 371.320312 247.863281 369.257812 245.800781 366.714844 245.800781 L 217.472656 245.800781 C 214.925781 245.800781 212.863281 247.863281 212.863281 250.40625 L 212.863281 279.609375 C 212.863281 282.152344 214.925781 284.21875 217.472656 284.21875 L 366.714844 284.21875 C 369.257812 284.21875 371.320312 282.152344 371.320312 279.609375 Z M 251.675781 272.917969 L 241.429688 272.917969 C 237.839844 272.917969 234.90625 269.984375 234.90625 266.394531 C 234.90625 262.8125 237.839844 259.875 241.429688 259.875 L 251.675781 259.875 C 255.265625 259.875 258.199219 262.8125 258.199219 266.394531 C 258.199219 269.984375 255.265625 272.917969 251.675781 272.917969 Z M 295.667969 272.917969 L 285.417969 272.917969 C 281.832031 272.917969 278.894531 269.984375 278.894531 266.394531 C 278.894531 262.8125 281.832031 259.875 285.417969 259.875 L 295.667969 259.875 C 299.253906 259.875 302.1875 262.8125 302.1875 266.394531 C 302.1875 269.984375 299.253906 272.917969 295.667969 272.917969 Z M 341.082031 272.917969 L 330.832031 272.917969 C 327.246094 272.917969 324.308594 269.984375 324.308594 266.394531 C 324.308594 262.8125 327.246094 259.875 330.832031 259.875 L 341.082031 259.875 C 344.667969 259.875 347.605469 262.8125 347.605469 266.394531 C 347.605469 269.984375 344.667969 272.917969 341.082031 272.917969 Z M 341.082031 272.917969 " fill-opacity="1" fill-rule="nonzero"/><path fill="#000000" d="M 119.046875 245.800781 C 114.5625 245.800781 110.929688 249.433594 110.929688 253.914062 L 110.929688 366.882812 C 110.929688 371.367188 114.566406 375 119.046875 375 L 193.253906 375 C 197.734375 375 201.371094 371.367188 201.371094 366.882812 L 201.371094 253.914062 C 201.371094 249.433594 197.734375 245.800781 193.253906 245.800781 Z M 135.089844 321.660156 C 131.835938 321.660156 129.191406 317.039062 129.191406 311.339844 C 129.191406 305.640625 131.835938 301.015625 135.089844 301.015625 C 138.347656 301.015625 140.988281 305.640625 140.988281 311.339844 C 140.988281 317.039062 138.347656 321.660156 135.089844 321.660156 Z M 135.089844 321.660156 " fill-opacity="1" fill-rule="nonzero"/><path fill="#000000" d="M 366.714844 295.710938 L 217.472656 295.710938 C 214.925781 295.710938 212.863281 297.773438 212.863281 300.320312 L 212.863281 370.390625 C 212.863281 372.9375 214.925781 375 217.472656 375 L 366.714844 375 C 369.257812 375 371.320312 372.9375 371.320312 370.390625 L 371.320312 300.320312 C 371.320312 297.773438 369.257812 295.710938 366.714844 295.710938 Z M 366.714844 295.710938 " fill-opacity="1" fill-rule="nonzero"/><path fill="#000000" d="M 12.777344 245.800781 C 8.296875 245.800781 4.664062 249.433594 4.664062 253.914062 L 4.664062 366.882812 C 4.664062 371.367188 8.296875 375 12.777344 375 L 91.320312 375 C 95.804688 375 99.4375 371.367188 99.4375 366.882812 L 99.4375 253.917969 C 99.4375 249.433594 95.804688 245.804688 91.320312 245.804688 Z M 77.945312 321.660156 C 74.6875 321.660156 72.046875 317.039062 72.046875 311.339844 C 72.046875 305.640625 74.6875 301.015625 77.945312 301.015625 C 81.203125 301.015625 83.84375 305.640625 83.84375 311.339844 C 83.84375 317.039062 81.203125 321.660156 77.945312 321.660156 Z M 77.945312 321.660156 " fill-opacity="1" fill-rule="nonzero"/></svg>