<svg xmlns="http://www.w3.org/2000/svg" xmlns:xlink="http://www.w3.org/1999/xlink" width="500" zoomAndPan="magnify" viewBox="0 0 375 374.999991" height="500" preserveAspectRatio="xMidYMid meet" version="1.0"><defs><clipPath id="df54059285"><path d="M 43.605469 10.84375 L 331.878906 10.84375 L 331.878906 364.472656 L 43.605469 364.472656 Z M 43.605469 10.84375 " clip-rule="nonzero"/></clipPath><clipPath id="78ed17e000"><path d="M 43.605469 10.84375 L 331.382812 10.84375 L 331.382812 364.144531 L 43.605469 364.144531 Z M 43.605469 10.84375 " clip-rule="nonzero"/></clipPath><clipPath id="998ad93e0b"><rect x="0" width="375" y="0" height="375"/></clipPath></defs><g transform="matrix(1, 0, 0, 1, 0, 0)"><g clip-path="url(#998ad93e0b)"><path fill="#ffffff" d="M 49.054688 16.351562 L 325.933594 16.351562 L 325.933594 358.636719 L 49.054688 358.636719 Z M 49.054688 16.351562 " fill-opacity="1" fill-rule="nonzero"/><g clip-path="url(#df54059285)"><path stroke-linecap="butt" transform="matrix(2.180149, 0, 0, 2.180149, -335.740961, -204.933195)" fill="none" stroke-linejoin="miter" d="M 176.499701 101.499832 L 303.499693 101.499832 L 303.499693 258.50064 L 176.499701 258.50064 Z M 176.499701 101.499832 " stroke="#dcdcdc" stroke-width="5" stroke-opacity="1" stroke-miterlimit="10"/></g><path stroke-linecap="round" transform="matrix(2.180149, 0, 0, 2.180149, -335.740961, -204.933195)" fill="none" stroke-linejoin="miter" d="M 189.500533 119.832868 L 251.49995 119.832868 " stroke="#000000" stroke-width="5" stroke-opacity="1" stroke-miterlimit="10"/><path stroke-linecap="round" transform="matrix(2.180149, 0, 0, 2.180149, -335.740961, -204.933195)" fill="none" stroke-linejoin="miter" d="M 189.833795 130.834123 L 260.166574 130.834123 " stroke="#000000" stroke-width="5" stroke-opacity="1" stroke-miterlimit="10"/><path stroke-linecap="round" transform="matrix(2.180149, 0, 0, 2.180149, -335.740961, -204.933195)" fill="none" stroke-linejoin="miter" d="M 190.500321 142.166849 L 234.166703 142.166849 " stroke="#000000" stroke-width="5" stroke-opacity="1" stroke-miterlimit="10"/><path stroke-linecap="round" transform="matrix(2.180149, 0, 0, 2.180149, -335.740961, -204.933195)" fill="none" stroke-linejoin="miter" d="M 190.833584 160.499884 L 256.833946 160.499884 " stroke="#000000" stroke-width="5" stroke-opacity="1" stroke-miterlimit="10"/><path stroke-linecap="round" transform="matrix(2.180149, 0, 0, 2.180149, -335.740961, -204.933195)" fill="none" stroke-linejoin="miter" d="M 192.166635 170.166297 L 281.167504 170.166297 " stroke="#000000" stroke-width="5" stroke-opacity="1" stroke-miterlimit="10"/><path stroke-linecap="round" transform="matrix(2.180149, 0, 0, 2.180149, -335.740961, -204.933195)" fill="none" stroke-linejoin="miter" d="M 192.166635 181.167552 L 264.167519 181.167552 " stroke="#000000" stroke-width="5" stroke-opacity="1" stroke-miterlimit="10"/><path stroke-linecap="round" transform="matrix(2.180149, 0, 0, 2.180149, -335.740961, -204.933195)" fill="none" stroke-linejoin="miter" d="M 191.500109 200.500376 L 240.167224 200.500376 " stroke="#000000" stroke-width="5" stroke-opacity="1" stroke-miterlimit="10"/><path stroke-linecap="round" transform="matrix(2.180149, 0, 0, 2.180149, -335.740961, -204.933195)" fill="none" stroke-linejoin="miter" d="M 192.166635 210.833313 L 275.500245 210.833313 " stroke="#000000" stroke-width="5" stroke-opacity="1" stroke-miterlimit="10"/><path stroke-linecap="round" transform="matrix(2.180149, 0, 0, 2.180149, -335.740961, -204.933195)" fill="none" stroke-linejoin="miter" d="M 191.500109 219.499937 L 259.833311 219.499937 " stroke="#000000" stroke-width="5" stroke-opacity="1" stroke-miterlimit="10"/><path stroke-linecap="round" transform="matrix(2.180149, 0, 0, 2.180149, -335.740961, -204.933195)" fill="none" stroke-linejoin="miter" d="M 191.500109 229.832875 L 272.165825 229.832875 " stroke="#000000" stroke-width="5" stroke-opacity="1" stroke-miterlimit="10"/><g clip-path="url(#78ed17e000)"><path stroke-linecap="butt" transform="matrix(1.167093, 0, 0, 1.167093, 43.604968, 10.843123)" fill="none" stroke-linejoin="miter" d="M 0.000429026 0.000536848 L 246.576543 0.000536848 L 246.576543 302.719064 L 0.000429026 302.719064 Z M 0.000429026 0.000536848 " stroke="#000000" stroke-width="11.567198" stroke-opacity="1" stroke-miterlimit="4"/></g></g></g></svg>