<svg xmlns="http://www.w3.org/2000/svg" xmlns:xlink="http://www.w3.org/1999/xlink" width="500" zoomAndPan="magnify" viewBox="0 0 375 374.999991" height="500" preserveAspectRatio="xMidYMid meet" version="1.0"><defs><clipPath id="aecee0ea80"><path d="M 38.734375 109 L 226 109 L 226 362 L 38.734375 362 Z M 38.734375 109 " clip-rule="nonzero"/></clipPath><clipPath id="e8434ac539"><path d="M 154 13.25 L 336.484375 13.25 L 336.484375 171 L 154 171 Z M 154 13.25 " clip-rule="nonzero"/></clipPath></defs><g clip-path="url(#aecee0ea80)"><path fill="#000000" d="M 49.695312 186.613281 C 43.566406 189.945312 41.796875 184.09375 39.746094 180.65625 C 38.433594 178.457031 38.285156 173.964844 39.964844 172.472656 C 63.648438 151.351562 87.730469 130.570312 111.4375 109.941406 C 149.128906 142.710938 186.277344 175 225.011719 208.675781 C 220.421875 212.210938 214.90625 216.140625 209.828125 220.460938 C 196.25 232.015625 183.683594 244.574219 169.167969 255.136719 C 156.253906 264.539062 156.148438 275.339844 159.8125 287.390625 C 163.996094 301.132812 169.445312 314.605469 173.066406 328.449219 C 174.574219 334.226562 174.230469 341.050781 172.167969 346.699219 C 168.222656 357.472656 156.234375 363.046875 143.570312 361.691406 C 132.121094 360.46875 121.730469 351.808594 120.792969 341.132812 C 120.253906 335.066406 121.40625 328.671875 123.171875 322.730469 C 126.773438 310.667969 131.558594 298.875 135.390625 286.863281 C 139.472656 274.058594 136.726562 267.972656 123.636719 259.707031 C 124.175781 261.828125 124.574219 263.375 124.957031 264.941406 C 126.832031 272.59375 123.996094 278.761719 116.765625 283.277344 C 109.871094 287.578125 101.0625 287.390625 94.109375 283.164062 C 87.144531 278.917969 83.582031 271.160156 86.679688 263.96875 C 89.578125 257.230469 94.25 251.078125 97.332031 244.386719 C 98.421875 242.023438 97.371094 238.804688 96.855469 236.042969 C 96.277344 232.953125 94.304688 229.886719 94.519531 226.898438 C 94.992188 220.246094 96.457031 213.644531 96.3125 206.605469 C 93.449219 212.644531 90.589844 218.683594 87.609375 224.972656 C 80.078125 220.273438 76.964844 214.804688 81.046875 207.101562 C 83.800781 201.910156 86.050781 196.523438 87.542969 190.332031 C 83.304688 194.664062 79.292969 199.1875 74.722656 203.246094 C 72.882812 204.886719 68.023438 206.777344 67.640625 206.375 C 65.171875 203.734375 62.703125 200.648438 61.960938 197.402344 C 61.453125 195.203125 63.769531 192.515625 64.496094 190.820312 C 61.355469 192.261719 57.976562 193.828125 54.59375 195.382812 C 52.964844 192.457031 51.339844 189.5625 49.695312 186.613281 Z M 49.695312 186.613281 " fill-opacity="1" fill-rule="nonzero"/></g><g clip-path="url(#e8434ac539)"><path fill="#000000" d="M 256.453125 170.730469 C 222.410156 141.21875 188.671875 111.964844 154.542969 82.363281 C 159.4375 77.042969 165.226562 75.746094 173.457031 79.128906 C 199.480469 89.828125 214.6875 86.699219 235.542969 69.105469 C 253.4375 53.996094 272.011719 39.429688 291.082031 25.445312 C 300.484375 18.542969 311.75 13.5625 324.796875 13.367188 C 334.773438 13.222656 338.164062 15.472656 335.71875 24.042969 C 333.019531 33.507812 329.449219 43.734375 322.6875 51.191406 C 307.445312 67.988281 290.722656 83.894531 273.265625 99.011719 C 251.914062 117.503906 247.765625 131 260.324219 154.480469 C 264.015625 161.398438 262.050781 166.230469 256.453125 170.730469 Z M 256.453125 170.730469 " fill-opacity="1" fill-rule="nonzero"/></g><path fill="#000000" d="M 117.453125 105.800781 C 125.617188 98.558594 134.214844 90.921875 142.472656 83.59375 C 179.886719 116.085938 217.210938 148.496094 254.316406 180.714844 C 246.054688 187.820312 237.164062 195.464844 229.011719 202.464844 C 191.988281 170.378906 154.582031 137.976562 117.453125 105.800781 Z M 117.453125 105.800781 " fill-opacity="1" fill-rule="nonzero"/><path fill="#000000" d="M 189.84375 248.609375 C 196.609375 259.871094 202.363281 268.746094 207.328125 277.9375 C 212.046875 286.667969 209.609375 294.859375 201.734375 300 C 194.90625 304.457031 185.28125 304.589844 178.453125 300.308594 C 170.277344 295.191406 167.5625 287.214844 172.183594 278.429688 C 177.148438 269.007812 183.066406 259.960938 189.84375 248.609375 Z M 189.84375 248.609375 " fill-opacity="1" fill-rule="nonzero"/></svg>