<svg xmlns="http://www.w3.org/2000/svg" xmlns:xlink="http://www.w3.org/1999/xlink" width="500" zoomAndPan="magnify" viewBox="0 0 375 374.999991" height="500" preserveAspectRatio="xMidYMid meet" version="1.0"><defs><clipPath id="e3c6b865b5"><path d="M 19.453125 1 L 44 1 L 44 56 L 19.453125 56 Z M 19.453125 1 " clip-rule="nonzero"/></clipPath></defs><path fill="#000000" d="M 93.285156 191.960938 C 94.792969 193.058594 95.753906 195.390625 96.851562 198.410156 C 98.496094 202.660156 100.691406 208.5625 105.765625 213.640625 C 117.152344 224.890625 117.015625 227.359375 117.015625 230.515625 C 117.015625 232.023438 116.878906 233.671875 119.070312 237.375 C 120.582031 239.984375 122.226562 241.492188 124.011719 243.140625 C 126.34375 245.199219 128.8125 247.53125 131.691406 252.332031 C 133.199219 254.941406 134.296875 255.078125 134.984375 255.078125 C 137.863281 255.351562 138.003906 255.351562 135.121094 264.957031 C 134.984375 265.640625 134.296875 266.054688 133.613281 265.917969 C 130.183594 265.503906 129.910156 264.269531 129.496094 262.210938 C 129.222656 260.703125 128.675781 258.371094 123.597656 255.488281 C 119.347656 253.019531 118.386719 251.234375 117.835938 250.136719 C 117.5625 249.726562 117.5625 249.589844 114.957031 249.863281 C 113.722656 254.117188 114.546875 256.3125 115.503906 258.917969 C 116.601562 261.9375 117.976562 265.367188 117.015625 272.503906 C 116.191406 278.675781 116.601562 278.816406 117.976562 279.363281 C 119.347656 279.914062 121.265625 280.734375 123.734375 283.890625 C 125.929688 286.636719 127.300781 291.300781 128.675781 295.964844 C 130.457031 302.140625 132.242188 308.589844 135.945312 310.097656 C 144.175781 313.527344 145.410156 316.820312 146.917969 321.351562 C 147.878906 324.09375 149.113281 327.386719 152.40625 331.503906 C 154.324219 333.835938 155.972656 335.757812 157.207031 336.445312 C 157.890625 336.855469 158.578125 336.582031 159.265625 335.347656 C 159.402344 335.207031 159.539062 335.070312 159.675781 334.933594 C 161.320312 333.5625 162.691406 334.25 163.789062 335.894531 C 164.203125 336.445312 164.613281 337.128906 165.023438 337.816406 C 166.121094 339.738281 167.496094 341.933594 169.414062 341.382812 C 174.628906 339.738281 178.058594 339.875 180.664062 341.792969 C 183.132812 343.714844 184.640625 347.007812 185.738281 352.085938 C 185.875 352.773438 185.464844 353.59375 184.777344 353.730469 C 184.503906 353.871094 184.230469 353.730469 183.957031 353.59375 C 183.269531 353.320312 182.445312 352.910156 181.484375 352.496094 C 176.960938 350.4375 169.550781 347.144531 167.355469 350.578125 L 167.496094 352.359375 C 168.453125 354.28125 169.140625 354.96875 169.828125 355.515625 C 171.472656 356.886719 172.707031 357.984375 173.941406 366.082031 C 176 366.082031 177.234375 366.082031 178.195312 366.082031 C 178.878906 366.082031 179.292969 366.082031 179.429688 366.082031 C 179.429688 366.082031 179.703125 365.808594 180.113281 365.394531 C 180.664062 364.710938 181.484375 363.75 182.996094 362.101562 C 183.40625 361.691406 183.957031 361.554688 184.503906 361.828125 C 193.421875 364.984375 194.242188 364.984375 197.945312 364.847656 C 199.59375 364.847656 201.789062 364.710938 205.492188 364.847656 C 207.960938 364.984375 210.292969 366.082031 213.035156 367.316406 C 216.328125 368.960938 220.441406 370.882812 226.480469 371.570312 C 231.28125 372.117188 231.28125 371.980469 231.417969 370.882812 C 231.691406 369.238281 232.101562 366.628906 234.847656 362.652344 C 236.082031 360.867188 237.042969 359.769531 237.863281 358.808594 C 239.921875 356.203125 240.746094 355.242188 240.746094 350.578125 C 240.746094 347.832031 242.390625 347.007812 243.898438 346.183594 C 244.3125 346.046875 244.585938 345.773438 244.722656 345.636719 C 245.132812 345.226562 244.722656 344.128906 241.019531 340.011719 C 237.453125 336.03125 236.765625 334.25 237.589844 333.425781 C 238.550781 332.464844 240.46875 333.699219 242.800781 335.207031 C 244.722656 336.445312 247.054688 337.953125 247.878906 337.953125 C 255.421875 338.5 257.617188 331.640625 259.675781 325.054688 C 261.457031 319.429688 263.105469 314.214844 267.769531 312.707031 C 268.316406 312.570312 268.867188 312.707031 269.277344 313.253906 C 269.6875 313.804688 270.238281 314.625 270.785156 315.585938 C 271.746094 317.234375 272.84375 319.15625 273.941406 319.976562 C 274.765625 320.527344 275.722656 320.390625 276.957031 318.605469 C 277.78125 317.371094 277.507812 315.722656 277.097656 313.667969 C 276.546875 310.097656 275.722656 306.121094 279.703125 301.730469 C 280.113281 301.179688 280.9375 301.179688 281.484375 301.589844 C 281.898438 301.867188 282.582031 302.277344 283.40625 302.6875 C 289.304688 306.121094 301.238281 312.84375 300.414062 319.292969 C 300.414062 319.839844 300.003906 320.253906 299.59375 320.390625 C 297.261719 321.351562 294.242188 319.429688 291.363281 317.507812 C 289.441406 316.273438 287.519531 315.039062 286.972656 315.3125 C 286.425781 315.449219 286.699219 317.78125 288.894531 324.78125 C 290.949219 331.09375 292.734375 334.25 295.476562 335.621094 C 298.222656 336.992188 302.199219 336.71875 308.371094 335.894531 C 311.9375 335.347656 311.800781 333.289062 311.664062 329.171875 C 311.664062 328.074219 311.527344 326.976562 311.527344 325.605469 C 311.390625 312.429688 308.921875 308.863281 307.136719 305.980469 C 306.175781 304.472656 305.214844 303.101562 304.941406 300.90625 C 303.433594 291.710938 307 282.519531 310.566406 273.464844 C 312.625 268.25 314.679688 263.035156 315.503906 258.09375 C 316.191406 253.980469 316.875 251.371094 317.699219 248.765625 C 318.523438 246.15625 319.621094 243.6875 321.402344 239.847656 C 325.519531 231.75 328.671875 229.691406 331.140625 230.925781 C 334.433594 232.574219 335.667969 241.082031 336.628906 248.214844 C 337.316406 252.882812 337.863281 256.996094 338.277344 257.136719 C 338.414062 257.136719 338.414062 256.175781 339.097656 253.980469 C 341.019531 248.765625 339.785156 237.238281 338.414062 225.988281 C 337.453125 217.890625 336.628906 209.933594 336.902344 204.035156 C 337.179688 197.722656 337.453125 192.097656 338.136719 186.472656 C 338.6875 180.84375 339.648438 175.21875 341.019531 169.046875 C 342.117188 164.652344 341.429688 161.773438 340.605469 158.617188 C 339.785156 154.914062 338.6875 150.660156 339.785156 143.113281 L 339.785156 142.976562 C 341.019531 136.800781 339.511719 132.136719 336.492188 128.15625 C 333.335938 124.175781 328.535156 120.882812 323.1875 118.140625 C 317.699219 115.257812 315.917969 118.140625 313.171875 122.667969 C 312.761719 123.351562 312.351562 124.175781 311.800781 124.863281 C 311.527344 125.410156 310.839844 125.550781 310.292969 125.410156 C 304.121094 124.449219 301.101562 123.078125 299.042969 122.253906 C 297.808594 121.707031 297.125 121.433594 296.4375 121.570312 C 295.203125 121.707031 293.28125 123.078125 288.480469 126.785156 L 286.972656 127.882812 C 286.972656 127.882812 286.835938 127.882812 286.835938 128.019531 C 273.53125 135.703125 269.6875 133.917969 266.945312 132.683594 C 265.710938 132.136719 264.886719 131.722656 262.691406 132.957031 C 255.148438 137.484375 253.640625 136.386719 251.171875 134.46875 C 249.9375 133.507812 248.289062 132.273438 244.3125 131.996094 C 239.648438 131.722656 235.394531 133.371094 231.144531 135.152344 C 231.554688 136.664062 232.101562 137.484375 232.652344 138.308594 C 233.613281 139.683594 234.570312 141.191406 234.984375 144.347656 C 235.394531 147.226562 237.316406 149.011719 239.511719 151.070312 C 242.117188 153.539062 245.132812 156.421875 246.917969 161.910156 C 247.191406 162.597656 246.78125 163.417969 246.09375 163.554688 C 245.683594 163.695312 245.132812 163.554688 244.859375 163.28125 C 237.042969 157.382812 234.847656 153.953125 232.378906 150.109375 C 231.003906 147.914062 229.496094 145.582031 226.617188 142.425781 C 225.519531 141.191406 224.011719 142.015625 221.953125 143.386719 C 220.441406 144.347656 218.796875 145.445312 216.738281 146.128906 C 216.875 146.816406 216.875 147.503906 217.015625 148.050781 C 217.289062 149.835938 217.425781 150.660156 217.152344 151.617188 C 216.875 152.578125 216.328125 153.128906 215.230469 154.363281 L 215.09375 154.5 C 214.683594 155.050781 214.132812 155.597656 213.308594 156.558594 C 212.761719 157.109375 211.9375 157.246094 211.390625 156.695312 C 211.253906 156.558594 211.117188 156.285156 210.976562 156.011719 C 208.507812 147.914062 207.6875 147.777344 202.472656 147.367188 C 199.59375 147.089844 195.613281 146.816406 189.578125 145.308594 C 172.980469 141.328125 161.457031 135.289062 149.386719 128.84375 C 141.570312 124.726562 133.613281 120.472656 123.734375 116.628906 C 116.601562 114.023438 112.078125 114.433594 108.648438 114.710938 C 105.492188 114.984375 103.296875 115.257812 100.964844 113.199219 C 99.320312 111.828125 97.671875 111.554688 95.617188 111.277344 C 92.324219 110.730469 88.207031 110.179688 82.445312 105.242188 C 80.800781 103.871094 80.113281 103.59375 79.703125 104.007812 C 78.878906 104.96875 78.605469 107.574219 78.195312 110.730469 C 77.644531 114.710938 77.097656 119.648438 75.039062 123.902344 C 72.980469 128.566406 75.863281 139.683594 78.058594 147.914062 C 78.742188 150.519531 79.292969 152.714844 79.703125 154.636719 L 80.390625 157.929688 C 82.722656 169.867188 85.328125 182.492188 93.144531 191.683594 Z M 94.242188 199.367188 C 93.285156 196.761719 92.460938 194.703125 91.636719 194.15625 C 91.5 194.015625 91.363281 194.015625 91.363281 193.878906 C 82.996094 184.136719 80.390625 170.964844 77.921875 158.753906 L 77.234375 155.460938 C 76.824219 153.675781 76.273438 151.480469 75.589844 148.875 C 73.394531 140.09375 70.375 128.429688 72.84375 122.941406 C 74.628906 118.960938 75.175781 114.296875 75.726562 110.457031 C 76.136719 106.75 76.546875 103.871094 77.921875 102.359375 C 79.429688 100.714844 81.347656 100.714844 84.503906 103.320312 C 89.71875 107.710938 93.285156 108.261719 96.300781 108.671875 C 98.769531 109.082031 100.828125 109.359375 103.023438 111.277344 C 104.53125 112.515625 106.316406 112.375 108.785156 112.101562 C 112.351562 111.828125 117.289062 111.277344 124.96875 114.160156 L 125.109375 114.160156 C 134.984375 118.003906 143.078125 122.253906 151.035156 126.507812 C 162.96875 132.820312 174.351562 138.722656 190.675781 142.699219 C 196.4375 144.074219 200.277344 144.347656 203.160156 144.621094 C 209.332031 145.171875 210.703125 145.308594 213.308594 152.855469 L 213.585938 152.441406 C 214.40625 151.480469 214.820312 151.070312 214.957031 150.796875 C 215.09375 150.382812 214.957031 149.699219 214.820312 148.324219 C 214.683594 147.503906 214.542969 146.542969 214.40625 145.445312 C 214.269531 144.757812 214.683594 144.074219 215.367188 143.933594 C 217.5625 143.25 219.347656 142.015625 220.992188 141.054688 C 224.285156 138.996094 226.480469 137.484375 229.222656 140.503906 C 230.867188 142.425781 232.101562 143.933594 233.0625 145.445312 C 233.0625 145.171875 232.925781 144.894531 232.925781 144.757812 C 232.515625 142.152344 231.691406 140.917969 231.003906 139.683594 C 230.183594 138.445312 229.359375 137.074219 228.8125 134.46875 C 228.671875 133.78125 228.949219 133.09375 229.632812 132.820312 L 230.457031 132.410156 C 235.121094 130.488281 239.648438 128.703125 244.996094 128.980469 C 249.796875 129.253906 251.855469 130.761719 253.363281 131.996094 C 254.875 133.234375 255.695312 133.917969 261.734375 130.214844 C 265.160156 128.15625 266.671875 128.84375 268.589844 129.800781 C 270.785156 130.898438 273.804688 132.273438 285.875 125.273438 L 287.382812 124.175781 C 292.734375 120.058594 294.652344 118.550781 296.710938 118.414062 C 298.082031 118.277344 299.042969 118.6875 300.691406 119.375 C 302.472656 120.199219 305.355469 121.296875 310.566406 122.253906 C 310.839844 121.84375 311.113281 121.296875 311.390625 120.882812 C 314.957031 114.984375 317.152344 111.277344 324.96875 115.394531 C 330.59375 118.414062 335.667969 121.84375 339.097656 126.234375 C 342.527344 130.761719 344.3125 136.25 342.9375 143.25 C 341.980469 150.246094 342.9375 154.226562 343.761719 157.792969 C 344.585938 161.359375 345.269531 164.515625 344.035156 169.457031 C 342.664062 175.492188 341.84375 180.984375 341.292969 186.609375 C 340.746094 192.097656 340.332031 197.722656 340.058594 204.035156 C 339.785156 209.660156 340.746094 217.617188 341.566406 225.578125 C 342.9375 237.238281 344.175781 248.902344 342.117188 254.800781 C 340.605469 258.78125 339.234375 260.152344 337.726562 259.605469 C 335.804688 258.917969 335.121094 253.980469 334.433594 248.492188 C 333.613281 242.042969 332.515625 234.359375 330.457031 233.261719 C 329.359375 232.710938 327.574219 234.632812 324.421875 240.945312 C 322.773438 244.648438 321.675781 247.117188 320.855469 249.449219 C 320.03125 251.921875 319.484375 254.390625 318.796875 258.371094 C 317.835938 263.582031 315.777344 268.933594 313.722656 274.285156 C 310.292969 282.929688 306.863281 291.847656 308.234375 300.355469 C 308.507812 302.003906 309.195312 303.101562 310.019531 304.472656 C 312.074219 307.492188 314.679688 311.609375 314.820312 325.464844 C 314.820312 326.703125 314.957031 327.9375 314.957031 328.898438 C 315.230469 334.796875 315.367188 337.679688 309.332031 338.5 C 302.746094 339.460938 298.359375 339.738281 294.929688 338.089844 C 291.363281 336.304688 289.167969 332.601562 286.972656 325.605469 C 284.230469 316.820312 284.640625 313.527344 286.835938 312.84375 C 288.617188 312.292969 290.949219 313.804688 293.417969 315.3125 C 295.203125 316.410156 297.125 317.644531 298.359375 317.917969 C 297.398438 313.390625 287.796875 307.902344 282.71875 305.023438 L 281.621094 304.335938 C 279.289062 307.492188 279.839844 310.511719 280.386719 313.117188 C 280.800781 315.722656 281.210938 317.917969 279.703125 320.117188 C 277.234375 323.546875 274.902344 323.546875 272.84375 322.035156 C 271.199219 320.800781 269.964844 318.605469 268.867188 316.820312 C 268.589844 316.410156 268.453125 316 268.179688 315.585938 C 265.4375 317.097656 264.203125 321.351562 262.828125 325.742188 C 260.496094 333.289062 258.027344 341.246094 248.152344 340.558594 C 247.191406 340.421875 245.820312 339.738281 244.3125 338.914062 C 248.839844 344.128906 248.5625 346.046875 247.054688 347.421875 C 246.644531 347.832031 246.09375 348.105469 245.546875 348.382812 C 244.722656 348.792969 243.898438 349.203125 243.898438 350.300781 C 243.898438 356.066406 242.941406 357.300781 240.46875 360.316406 C 239.648438 361.277344 238.6875 362.515625 237.589844 364.023438 C 235.257812 367.453125 234.847656 369.648438 234.570312 371.15625 C 234.023438 374.589844 234.023438 375 226.617188 374.175781 C 220.167969 373.351562 215.78125 371.296875 212.351562 369.648438 C 209.882812 368.550781 207.824219 367.589844 205.902344 367.453125 C 202.335938 367.316406 200.140625 367.453125 198.632812 367.453125 C 194.65625 367.589844 193.695312 367.589844 185.050781 364.570312 C 184.09375 365.667969 183.40625 366.492188 182.996094 367.042969 C 182.308594 367.863281 182.035156 368.277344 181.210938 368.550781 C 180.527344 368.824219 179.976562 368.824219 178.878906 368.6875 C 177.917969 368.6875 176.273438 368.550781 173.667969 368.6875 C 172.980469 368.6875 172.296875 368.277344 172.160156 367.453125 C 171.0625 359.359375 169.964844 358.535156 168.730469 357.4375 C 167.769531 356.613281 166.808594 355.789062 165.574219 353.183594 C 165.4375 353.046875 165.4375 352.910156 165.4375 352.632812 L 165.164062 350.164062 C 165.164062 349.890625 165.164062 349.617188 165.300781 349.480469 C 168.316406 343.304688 177.371094 347.28125 182.996094 349.753906 C 182.171875 346.871094 181.074219 344.8125 179.566406 343.714844 C 177.78125 342.34375 175.039062 342.34375 170.785156 343.714844 C 166.945312 344.949219 164.886719 341.65625 163.242188 339.050781 C 162.832031 338.363281 162.417969 337.816406 162.144531 337.402344 L 161.871094 336.992188 C 160.363281 339.597656 158.441406 339.875 156.382812 338.777344 C 154.738281 337.816406 152.816406 335.757812 150.757812 333.148438 C 147.054688 328.621094 145.820312 325.191406 144.722656 322.171875 C 143.351562 318.195312 142.253906 315.449219 135.257812 312.429688 C 130.320312 310.375 128.261719 303.375 126.34375 296.515625 C 125.109375 292.125 123.875 287.734375 121.953125 285.402344 C 119.894531 282.792969 118.25 282.109375 117.152344 281.695312 C 114.40625 280.597656 113.585938 280.1875 114.546875 271.953125 C 115.367188 265.503906 114.132812 262.347656 113.171875 259.605469 C 111.9375 256.449219 110.980469 253.703125 112.898438 247.941406 C 113.035156 247.394531 113.449219 247.117188 113.996094 246.980469 C 119.347656 246.296875 119.484375 246.707031 120.445312 248.628906 C 120.855469 249.449219 121.542969 250.824219 125.109375 252.882812 C 131.28125 256.449219 131.964844 259.46875 132.378906 261.527344 C 132.515625 262.074219 132.515625 262.484375 133.0625 262.761719 C 134.710938 257.546875 135.257812 257.683594 134.984375 257.683594 C 133.75 257.546875 131.828125 257.410156 129.632812 253.566406 C 127.027344 249.175781 124.695312 246.980469 122.5 245.058594 C 120.582031 243.277344 118.660156 241.628906 117.015625 238.613281 C 114.40625 234.21875 114.546875 232.164062 114.546875 230.242188 C 114.683594 227.773438 114.683594 225.851562 104.121094 215.421875 C 98.496094 209.933594 96.164062 203.621094 94.519531 199.09375 Z M 239.511719 335.207031 C 239.375 335.347656 239.648438 335.484375 240.195312 335.757812 C 239.921875 335.347656 239.785156 335.070312 239.511719 335.207031 Z M 237.863281 152.992188 L 237.589844 152.714844 C 238.6875 154.089844 239.921875 155.460938 241.707031 157.109375 C 240.46875 155.460938 239.097656 154.226562 237.863281 152.992188 Z M 237.863281 152.992188 " fill-opacity="1" fill-rule="nonzero"/><path fill="#000000" d="M 314.679688 25.246094 C 312.351562 24.011719 311.527344 24.011719 311.253906 24.699219 C 310.976562 25.109375 310.839844 25.660156 310.703125 26.34375 C 310.019531 28.953125 309.058594 32.246094 304.53125 34.304688 C 303.570312 34.988281 303.296875 35.125 303.296875 35.261719 C 303.570312 35.675781 304.667969 36.359375 306.039062 37.046875 C 310.292969 39.378906 316.328125 42.671875 313.035156 51.042969 C 313.035156 51.316406 313.308594 50.769531 313.585938 51.042969 C 314.820312 51.867188 316.738281 53.238281 318.933594 56.804688 C 321.675781 61.195312 322.089844 65.175781 322.5 68.332031 C 322.636719 69.429688 322.773438 70.527344 322.910156 71.351562 C 323.734375 74.09375 326.617188 74.507812 341.019531 70.527344 C 343.351562 69.839844 342.800781 66.820312 341.980469 62.980469 C 341.703125 61.195312 341.292969 59.414062 341.15625 57.492188 C 340.195312 46.515625 339.785156 46.515625 338.6875 46.789062 C 336.21875 47.199219 332.515625 48.023438 326.617188 36.910156 C 324.96875 33.890625 323.460938 31.832031 321.675781 30.1875 C 319.894531 28.539062 317.699219 27.167969 314.679688 25.382812 Z M 308.78125 23.464844 C 309.878906 21.40625 311.527344 20.71875 315.917969 22.914062 L 316.054688 22.914062 C 319.207031 24.835938 321.539062 26.207031 323.597656 28.128906 C 325.65625 30.050781 327.300781 32.246094 329.085938 35.539062 C 334.023438 44.867188 336.492188 44.320312 338.136719 44.046875 C 341.292969 43.359375 342.664062 43.085938 343.898438 57.21875 C 344.035156 59 344.449219 60.785156 344.722656 62.429688 C 345.683594 67.644531 346.507812 71.898438 341.84375 73.132812 C 325.242188 77.800781 321.675781 76.703125 320.441406 72.171875 C 320.167969 71.214844 320.03125 69.976562 319.894531 68.742188 C 319.621094 65.863281 319.207031 62.292969 316.738281 58.453125 C 314.820312 55.296875 313.171875 54.199219 312.074219 53.375 C 310.703125 52.414062 310.019531 51.867188 310.566406 50.21875 L 310.566406 50.082031 C 313.035156 43.90625 308.234375 41.300781 304.804688 39.515625 C 303.160156 38.695312 301.789062 37.871094 301.101562 36.773438 C 300.140625 35.261719 300.414062 33.753906 303.160156 31.96875 C 303.160156 31.96875 303.296875 31.832031 303.296875 31.832031 C 306.726562 30.324219 307.546875 27.578125 308.097656 25.519531 C 308.371094 24.699219 308.507812 24.011719 308.921875 23.324219 Z M 308.78125 23.464844 " fill-opacity="1" fill-rule="nonzero"/><g clip-path="url(#e3c6b865b5)"><path fill="#000000" d="M 38.6875 17.835938 C 38.550781 15.367188 38.960938 13.582031 39.101562 12.210938 C 39.511719 9.605469 39.648438 8.78125 32.652344 4.941406 C 30.046875 3.566406 28.949219 3.980469 28.125 5.488281 C 27.578125 6.585938 27.027344 8.09375 26.480469 9.878906 C 26.070312 11.113281 25.65625 12.347656 25.109375 13.722656 C 24.285156 15.917969 23.1875 20.582031 22.640625 24.699219 C 22.226562 27.578125 22.226562 30.324219 22.777344 31.421875 C 23.875 33.753906 24.695312 35.261719 25.246094 36.359375 C 26.070312 38.007812 26.480469 38.832031 26.617188 39.515625 C 26.617188 40.203125 26.480469 40.613281 26.207031 41.4375 C 25.792969 42.398438 25.109375 44.046875 24.285156 48.160156 C 24.421875 50.355469 25.929688 51.730469 27.304688 52.414062 C 27.851562 52.140625 28.539062 51.730469 29.222656 51.453125 C 33.613281 49.394531 42.527344 45.144531 41.019531 29.363281 L 39.648438 21.128906 L 38.824219 18.25 C 38.824219 18.113281 38.824219 17.976562 38.824219 17.976562 Z M 41.84375 12.761719 C 41.570312 13.996094 41.292969 15.503906 41.433594 17.5625 L 42.253906 20.308594 C 42.253906 20.445312 42.253906 20.445312 42.253906 20.582031 L 43.765625 28.816406 L 43.765625 28.953125 C 45.546875 46.652344 35.535156 51.453125 30.457031 53.925781 C 31.828125 55.984375 30.871094 55.984375 28.398438 55.984375 L 27.304688 55.984375 C 26.753906 55.984375 26.207031 55.570312 26.070312 55.160156 C 26.070312 55.023438 25.929688 54.882812 25.929688 54.882812 C 24.011719 53.925781 21.679688 51.867188 21.542969 48.296875 C 21.542969 48.160156 21.542969 48.023438 21.542969 47.886719 C 22.363281 43.222656 23.1875 41.300781 23.597656 40.339844 C 23.738281 40.066406 23.875 39.792969 23.875 39.792969 C 23.875 39.515625 23.597656 38.96875 22.914062 37.597656 C 22.363281 36.5 21.542969 34.851562 20.445312 32.519531 C 19.621094 30.871094 19.621094 27.714844 20.171875 24.285156 C 20.71875 19.894531 21.953125 14.957031 22.777344 12.625 C 23.1875 11.386719 23.597656 10.152344 24.011719 8.917969 C 24.558594 6.996094 25.109375 5.351562 25.792969 4.117188 C 27.441406 1.234375 29.636719 0 34.023438 2.46875 C 42.804688 7.273438 42.527344 8.507812 41.84375 12.625 Z M 41.84375 12.761719 " fill-opacity="1" fill-rule="nonzero"/></g><path fill="#000000" d="M 338.414062 92.34375 L 339.234375 92.480469 C 342.664062 93.304688 348.425781 94.675781 350.757812 93.441406 C 351.855469 92.890625 351.855469 91.382812 350.074219 88.089844 C 348.289062 84.796875 345.683594 83.011719 342.664062 82.191406 C 339.234375 81.230469 335.257812 81.503906 331.554688 82.464844 C 327.851562 83.289062 324.421875 84.796875 322.089844 86.03125 C 320.578125 86.855469 319.757812 87.402344 319.757812 87.542969 C 319.484375 88.640625 321.539062 89.597656 324.285156 90.421875 C 328.671875 91.65625 334.707031 92.070312 337.179688 92.34375 C 337.453125 92.34375 337.726562 92.34375 338.136719 92.480469 C 338.136719 92.480469 338.277344 92.480469 338.277344 92.480469 Z M 338.550781 95.226562 L 337.863281 95.085938 L 337.039062 95.085938 C 334.433594 94.8125 328.261719 94.402344 323.597656 93.03125 C 319.34375 91.792969 316.191406 90.011719 317.152344 86.855469 C 317.425781 86.167969 318.796875 84.933594 320.855469 83.699219 C 323.324219 82.328125 326.890625 80.816406 331.003906 79.855469 C 335.121094 78.898438 339.511719 78.484375 343.488281 79.71875 C 347.191406 80.679688 350.347656 82.875 352.542969 86.855469 C 355.285156 91.933594 354.597656 94.539062 352.128906 95.910156 C 348.835938 97.695312 342.390625 96.183594 338.6875 95.226562 Z M 338.550781 95.226562 " fill-opacity="1" fill-rule="nonzero"/><path fill="#000000" d="M 269.140625 332.050781 C 269.140625 329.445312 268.316406 327.9375 267.492188 327.386719 C 267.082031 327.113281 266.671875 327.113281 266.257812 327.25 C 265.847656 327.386719 265.4375 327.800781 265.300781 328.484375 C 264.886719 329.855469 265.300781 331.914062 267.492188 334.523438 C 267.90625 335.070312 268.179688 335.207031 268.179688 335.070312 C 268.589844 334.386719 268.867188 332.875 269.003906 331.914062 Z M 269.003906 325.191406 C 270.511719 326.152344 271.882812 328.347656 271.882812 332.050781 C 271.882812 332.191406 271.882812 332.191406 271.882812 332.328125 C 271.746094 333.5625 271.335938 335.484375 270.648438 336.582031 C 269.550781 338.5 267.90625 339.050781 265.574219 336.304688 C 262.691406 332.875 262.144531 329.71875 262.828125 327.660156 C 263.242188 326.289062 264.203125 325.328125 265.300781 324.78125 C 266.535156 324.230469 267.769531 324.367188 269.003906 325.054688 Z M 269.003906 325.191406 " fill-opacity="1" fill-rule="nonzero"/><path fill="#000000" d="M 83.132812 80.542969 C 83.132812 80.542969 83.132812 80.542969 82.996094 80.542969 C 82.171875 81.367188 81.488281 83.699219 81.210938 86.03125 C 80.9375 88.226562 81.074219 90.421875 81.761719 91.109375 C 81.898438 91.246094 82.308594 90.972656 82.996094 90.285156 C 83.820312 89.460938 84.09375 88.226562 84.09375 86.71875 C 84.09375 84.660156 83.542969 82.191406 82.859375 80.542969 Z M 81.074219 78.621094 C 82.308594 77.386719 83.679688 77.25 85.191406 78.757812 C 85.328125 78.898438 85.464844 79.035156 85.464844 79.308594 C 86.152344 81.230469 86.972656 84.109375 86.972656 86.855469 C 86.972656 88.914062 86.425781 90.835938 85.054688 92.207031 C 82.859375 94.402344 81.210938 94.402344 79.976562 93.03125 C 78.742188 91.792969 78.332031 88.777344 78.605469 85.757812 C 78.878906 82.875 79.839844 79.855469 81.074219 78.621094 Z M 81.074219 78.621094 " fill-opacity="1" fill-rule="nonzero"/><path fill="#000000" d="M 330.046875 103.183594 C 331.554688 103.183594 332.378906 102.359375 332.789062 101.398438 C 333.0625 100.578125 333.0625 99.617188 332.789062 98.792969 C 332.515625 98.242188 332.101562 97.695312 331.691406 97.695312 C 330.867188 97.558594 329.769531 98.242188 328.261719 100.027344 C 327.851562 100.4375 327.714844 100.851562 327.574219 101.125 C 327.574219 101.261719 327.574219 101.535156 327.574219 101.675781 C 327.574219 101.8125 327.851562 101.949219 327.988281 102.222656 C 328.535156 102.632812 329.222656 102.910156 330.046875 103.183594 Z M 335.257812 102.359375 C 334.570312 104.28125 332.789062 105.925781 329.769531 105.925781 C 329.632812 105.925781 329.496094 105.925781 329.359375 105.925781 C 328.125 105.515625 326.890625 105.105469 326.066406 104.417969 C 325.519531 104.007812 325.105469 103.457031 324.832031 102.773438 C 324.558594 102.085938 324.558594 101.398438 324.695312 100.578125 C 324.832031 99.890625 325.242188 99.203125 325.929688 98.382812 C 328.125 95.773438 330.183594 94.8125 331.828125 95.085938 C 333.472656 95.226562 334.570312 96.460938 335.121094 97.96875 C 335.667969 99.339844 335.667969 100.988281 335.121094 102.496094 Z M 335.257812 102.359375 " fill-opacity="1" fill-rule="nonzero"/><path fill="#000000" d="M 93.832031 83.5625 C 94.929688 83.148438 95.476562 81.914062 95.617188 80.816406 C 95.617188 80.269531 95.617188 79.71875 95.476562 79.308594 C 95.476562 79.308594 95.476562 79.171875 95.476562 79.171875 C 95.066406 79.308594 94.242188 79.996094 93.144531 81.640625 C 92.871094 82.191406 92.597656 82.601562 92.597656 82.875 C 92.597656 83.011719 92.597656 83.011719 92.597656 83.148438 C 92.597656 83.148438 92.734375 83.289062 92.734375 83.289062 C 93.007812 83.425781 93.421875 83.5625 93.832031 83.5625 Z M 98.222656 80.953125 C 98.085938 83.148438 96.851562 85.484375 94.378906 86.167969 C 94.242188 86.167969 93.96875 86.304688 93.832031 86.167969 C 92.734375 86.03125 91.910156 85.757812 91.226562 85.347656 C 90.675781 85.070312 90.265625 84.660156 90.128906 84.109375 C 89.855469 83.5625 89.71875 83.011719 89.855469 82.464844 C 89.992188 81.777344 90.265625 80.953125 90.8125 79.996094 C 92.324219 77.660156 93.832031 76.5625 94.929688 76.289062 L 95.066406 76.289062 C 96.300781 76.152344 97.261719 76.703125 97.949219 77.800781 C 98.359375 78.621094 98.496094 79.71875 98.496094 80.816406 Z M 98.222656 80.953125 " fill-opacity="1" fill-rule="nonzero"/><path fill="#000000" d="M 263.105469 346.597656 C 262.691406 346.183594 262.007812 346.324219 261.320312 346.871094 C 260.359375 347.558594 259.125 348.65625 257.890625 350.027344 C 255.695312 352.222656 252.953125 354.96875 249.796875 356.75 C 248.699219 357.300781 248.289062 357.710938 248.289062 357.984375 C 248.289062 358.121094 248.839844 358.398438 249.660156 358.671875 C 251.03125 359.082031 252.816406 359.359375 254.875 359.496094 C 258.988281 359.496094 263.378906 358.671875 264.066406 356.203125 C 264.476562 354.96875 264.339844 353.183594 264.203125 351.398438 C 264.066406 349.753906 263.652344 347.96875 263.378906 346.597656 Z M 259.675781 344.675781 C 261.871094 343.167969 263.789062 342.890625 265.4375 345.226562 C 265.574219 345.363281 265.710938 345.5 265.710938 345.773438 C 266.121094 347.28125 266.535156 349.203125 266.671875 351.125 C 266.945312 353.183594 266.945312 355.242188 266.535156 356.886719 C 265.4375 360.730469 259.8125 362.238281 254.738281 362.101562 C 252.40625 362.101562 250.347656 361.691406 248.699219 361.140625 C 246.644531 360.457031 245.273438 359.21875 245.546875 357.574219 C 245.683594 356.476562 246.644531 355.378906 248.425781 354.28125 C 251.308594 352.632812 253.777344 350.164062 255.972656 347.96875 C 257.34375 346.597656 258.578125 345.363281 259.8125 344.539062 Z M 259.675781 344.675781 " fill-opacity="1" fill-rule="nonzero"/><path fill="#000000" d="M 99.730469 104.828125 C 99.042969 105.515625 97.949219 105.515625 96.574219 104.144531 C 96.574219 104.144531 96.4375 104.007812 96.4375 104.007812 C 96.164062 103.59375 95.339844 102.773438 94.792969 101.949219 L 94.792969 101.8125 C 94.378906 101.125 94.105469 100.300781 94.242188 99.617188 C 94.65625 98.105469 95.476562 97.558594 96.574219 97.832031 C 97.535156 98.105469 98.632812 99.339844 99.320312 100.714844 C 100.140625 102.222656 100.417969 104.007812 99.730469 104.691406 Z M 99.730469 104.828125 " fill-opacity="1" fill-rule="nonzero"/></svg>