<svg xmlns="http://www.w3.org/2000/svg" xmlns:xlink="http://www.w3.org/1999/xlink" width="500" zoomAndPan="magnify" viewBox="0 0 375 374.999991" height="500" preserveAspectRatio="xMidYMid meet" version="1.0"><defs><g/><clipPath id="970b76c752"><path d="M 37.5 204.121094 L 330.132812 204.121094 L 330.132812 256.851562 L 37.5 256.851562 Z M 37.5 204.121094 " clip-rule="nonzero"/></clipPath><clipPath id="514b44d81a"><path d="M 0.5 0.121094 L 293.132812 0.121094 L 293.132812 52.851562 L 0.5 52.851562 Z M 0.5 0.121094 " clip-rule="nonzero"/></clipPath><clipPath id="8a6a024c8f"><rect x="0" width="294" y="0" height="53"/></clipPath><clipPath id="dff6072a76"><path d="M 50.601562 208.460938 L 94.851562 208.460938 L 94.851562 252.710938 L 50.601562 252.710938 Z M 50.601562 208.460938 " clip-rule="nonzero"/></clipPath><clipPath id="1bf2e52346"><rect x="0" width="219" y="0" height="58"/></clipPath></defs><path fill="#000000" d="M 65.316406 211.902344 C 65.316406 206.644531 73.101562 206.644531 73.101562 211.902344 L 73.101562 250.253906 C 73.101562 255.507812 65.316406 255.507812 65.316406 250.253906 Z M 65.316406 211.902344 " fill-opacity="1" fill-rule="nonzero"/><path fill="#000000" d="M 56.363281 215.796875 C 51.105469 215.796875 51.105469 208.007812 56.363281 208.007812 L 82.253906 208.007812 C 87.3125 208.007812 87.3125 215.796875 82.253906 215.796875 Z M 56.363281 215.796875 " fill-opacity="1" fill-rule="nonzero"/><path fill="#000000" d="M 99.578125 250.253906 C 99.578125 255.507812 91.792969 255.507812 91.792969 250.253906 L 91.792969 211.902344 C 91.792969 209.761719 93.542969 208.007812 95.683594 208.007812 L 119.824219 208.007812 C 125.078125 208.007812 125.078125 215.796875 119.824219 215.796875 L 99.578125 215.796875 Z M 99.578125 250.253906 " fill-opacity="1" fill-rule="nonzero"/><path fill="#000000" d="M 95.683594 254.144531 C 90.625 254.144531 90.625 246.359375 95.683594 246.359375 L 119.824219 246.359375 C 125.078125 246.359375 125.078125 254.144531 119.824219 254.144531 Z M 95.683594 254.144531 " fill-opacity="1" fill-rule="nonzero"/><path fill="#000000" d="M 95.683594 235.066406 C 90.625 235.066406 90.625 227.28125 95.683594 227.28125 L 113.789062 227.28125 C 119.046875 227.28125 119.046875 235.066406 113.789062 235.066406 Z M 95.683594 235.066406 " fill-opacity="1" fill-rule="nonzero"/><path fill="#000000" d="M 129.363281 211.902344 C 129.363281 206.644531 137.148438 206.644531 137.148438 211.902344 L 137.148438 250.253906 C 137.148438 255.507812 129.363281 255.507812 129.363281 250.253906 Z M 129.363281 211.902344 " fill-opacity="1" fill-rule="nonzero"/><path fill="#000000" d="M 133.257812 215.796875 C 128.195312 215.796875 128.195312 208.007812 133.257812 208.007812 C 143.378906 208.007812 152.140625 206.453125 158.5625 212.679688 C 164.792969 219.105469 164.792969 229.226562 158.367188 235.652344 L 158.5625 235.652344 C 152.140625 242.078125 143.378906 240.519531 133.257812 240.519531 C 128.195312 240.519531 128.195312 232.730469 133.257812 232.730469 L 147.078125 232.730469 C 149.414062 232.730469 151.359375 231.757812 152.917969 230.203125 C 158.367188 224.75 154.476562 215.796875 147.078125 215.796875 Z M 133.257812 215.796875 " fill-opacity="1" fill-rule="nonzero"/><path fill="#000000" d="M 168.878906 211.902344 C 168.878906 206.644531 176.667969 206.644531 176.667969 211.902344 L 176.667969 246.359375 L 198.082031 246.359375 C 203.140625 246.359375 203.140625 254.144531 198.082031 254.144531 L 172.773438 254.144531 C 170.632812 254.144531 168.878906 252.589844 168.878906 250.253906 Z M 168.878906 211.902344 " fill-opacity="1" fill-rule="nonzero"/><path fill="#000000" d="M 215.210938 251.613281 C 213.65625 256.480469 206.257812 254.144531 207.8125 249.085938 L 219.882812 210.929688 C 220.46875 209.371094 222.023438 208.203125 223.582031 208.203125 C 228.058594 208.203125 232.539062 207.425781 233.511719 211.125 L 245.582031 249.085938 C 247.136719 254.144531 239.742188 256.480469 238.183594 251.613281 L 227.085938 215.992188 L 226.503906 215.992188 Z M 215.210938 251.613281 " fill-opacity="1" fill-rule="nonzero"/><path fill="#000000" d="M 215.992188 239.933594 C 210.929688 239.933594 210.929688 232.148438 215.992188 232.148438 L 237.402344 232.148438 C 242.464844 232.148438 242.464844 239.933594 237.402344 239.933594 Z M 215.992188 239.933594 " fill-opacity="1" fill-rule="nonzero"/><path fill="#000000" d="M 264.464844 211.902344 C 264.464844 206.644531 272.25 206.644531 272.25 211.902344 L 272.25 250.253906 C 272.25 255.507812 264.464844 255.507812 264.464844 250.253906 Z M 264.464844 211.902344 " fill-opacity="1" fill-rule="nonzero"/><path fill="#000000" d="M 255.3125 215.796875 C 250.253906 215.796875 250.253906 208.007812 255.3125 208.007812 L 281.398438 208.007812 C 286.460938 208.007812 286.460938 215.796875 281.398438 215.796875 Z M 255.3125 215.796875 " fill-opacity="1" fill-rule="nonzero"/><path fill="#000000" d="M 298.726562 250.253906 C 298.726562 255.507812 290.9375 255.507812 290.9375 250.253906 L 290.9375 211.902344 C 290.9375 209.761719 292.691406 208.007812 294.832031 208.007812 L 318.972656 208.007812 C 324.03125 208.007812 324.03125 215.796875 318.972656 215.796875 L 298.726562 215.796875 Z M 298.726562 250.253906 " fill-opacity="1" fill-rule="nonzero"/><path fill="#000000" d="M 294.832031 254.144531 C 289.574219 254.144531 289.574219 246.359375 294.832031 246.359375 L 318.972656 246.359375 C 324.03125 246.359375 324.03125 254.144531 318.972656 254.144531 Z M 294.832031 254.144531 " fill-opacity="1" fill-rule="nonzero"/><path fill="#000000" d="M 294.832031 235.066406 C 289.574219 235.066406 289.574219 227.28125 294.832031 227.28125 L 312.9375 227.28125 C 318.191406 227.28125 318.191406 235.066406 312.9375 235.066406 Z M 294.832031 235.066406 " fill-opacity="1" fill-rule="nonzero"/><path fill="#000000" d="M 25.992188 179.394531 L 349.144531 179.394531 C 351.285156 179.394531 353.039062 181.144531 353.039062 183.285156 L 353.039062 278.867188 C 353.039062 281.011719 351.285156 282.761719 349.144531 282.761719 L 25.992188 282.761719 C 23.851562 282.761719 22.097656 281.011719 22.097656 278.867188 L 22.097656 183.285156 C 22.097656 181.144531 23.851562 179.394531 25.992188 179.394531 Z M 345.25 187.179688 L 29.886719 187.179688 L 29.886719 274.976562 L 345.25 274.976562 Z M 345.25 187.179688 " fill-opacity="1" fill-rule="nonzero"/><path fill="#000000" d="M 317.023438 108.144531 C 317.023438 102.886719 324.8125 102.886719 324.8125 108.144531 L 324.8125 183.285156 C 324.8125 188.347656 317.023438 188.347656 317.023438 183.285156 Z M 83.613281 183.285156 C 83.613281 188.347656 75.828125 188.347656 75.828125 183.285156 L 75.828125 49.351562 C 75.828125 34.363281 88.09375 22.097656 103.082031 22.097656 L 238.765625 22.097656 C 243.828125 22.097656 243.828125 29.886719 238.765625 29.886719 L 103.082031 29.886719 C 92.375 29.886719 83.613281 38.644531 83.613281 49.351562 Z M 317.023438 278.867188 C 317.023438 273.808594 324.8125 273.808594 324.8125 278.867188 L 324.8125 301.839844 C 324.8125 316.828125 312.546875 329.09375 297.558594 329.09375 L 103.082031 329.09375 C 88.09375 329.09375 75.828125 316.828125 75.828125 301.839844 L 75.828125 278.867188 C 75.828125 273.808594 83.613281 273.808594 83.613281 278.867188 L 83.613281 301.839844 C 83.613281 312.546875 92.375 321.308594 103.082031 321.308594 L 297.558594 321.308594 C 308.265625 321.308594 317.023438 312.546875 317.023438 301.839844 Z M 317.023438 278.867188 " fill-opacity="1" fill-rule="nonzero"/><path fill="#000000" d="M 291.71875 325.199219 C 291.71875 320.140625 299.503906 320.140625 299.503906 325.199219 C 299.503906 333.765625 297.558594 340.382812 291.523438 346.417969 C 286.460938 351.285156 279.84375 354.402344 272.25 354.402344 L 77.773438 354.402344 C 62.785156 354.402344 50.519531 342.136719 50.519531 327.148438 L 50.519531 278.867188 C 50.519531 273.808594 58.308594 273.808594 58.308594 278.867188 L 58.308594 327.148438 C 58.308594 337.855469 67.066406 346.613281 77.773438 346.613281 L 272.25 346.613281 C 282.957031 346.613281 291.71875 337.855469 291.71875 327.148438 Z M 58.308594 183.285156 C 58.308594 188.347656 50.519531 188.347656 50.519531 183.285156 L 50.519531 74.464844 C 50.519531 59.671875 62.785156 47.40625 77.773438 47.40625 C 79.917969 47.40625 83.613281 47.210938 83.613281 51.300781 C 83.613281 58.503906 73.492188 51.300781 63.953125 60.839844 C 60.449219 64.34375 58.308594 69.210938 58.308594 74.464844 Z M 58.308594 183.285156 " fill-opacity="1" fill-rule="nonzero"/><path fill="#000000" d="M 311.378906 104.25 L 242.660156 35.335938 L 242.660156 84.78125 C 242.660156 95.488281 251.421875 104.25 262.128906 104.25 Z M 241.492188 23.265625 L 323.644531 105.222656 C 325.980469 107.753906 324.226562 112.035156 320.917969 112.035156 L 262.128906 112.035156 C 247.136719 112.035156 234.875 99.773438 234.875 84.78125 L 234.875 25.992188 C 234.875 22.488281 239.15625 20.738281 241.492188 23.265625 Z M 241.492188 23.265625 " fill-opacity="1" fill-rule="nonzero"/><path fill="#000000" d="M 111.84375 56.167969 L 159.925781 56.167969 C 162.066406 56.167969 163.820312 57.917969 163.820312 60.058594 L 163.820312 108.144531 C 163.820312 110.285156 162.066406 112.035156 159.925781 112.035156 L 111.84375 112.035156 C 109.699219 112.035156 107.949219 110.285156 107.949219 108.144531 L 107.949219 60.058594 C 107.949219 57.917969 109.699219 56.167969 111.84375 56.167969 Z M 156.03125 63.953125 L 115.734375 63.953125 L 115.734375 104.25 L 156.03125 104.25 Z M 156.03125 63.953125 " fill-opacity="1" fill-rule="nonzero"/><path fill="#000000" d="M 112.816406 137.539062 C 107.753906 137.539062 107.753906 129.75 112.816406 129.75 C 117.488281 129.75 123.71875 128.582031 123.71875 133.644531 C 123.71875 138.707031 117.488281 137.539062 112.816406 137.539062 Z M 112.816406 137.539062 " fill-opacity="1" fill-rule="nonzero"/><path fill="#000000" d="M 148.441406 137.539062 C 143.378906 137.539062 143.378906 129.75 148.441406 129.75 L 287.628906 129.75 C 292.886719 129.75 292.886719 137.539062 287.628906 137.539062 Z M 148.441406 137.539062 " fill-opacity="1" fill-rule="nonzero"/><path fill="#000000" d="M 112.816406 161.484375 C 107.753906 161.484375 107.753906 153.695312 112.816406 153.695312 C 117.488281 153.695312 123.71875 152.722656 123.71875 157.589844 C 123.71875 162.652344 117.488281 161.484375 112.816406 161.484375 Z M 112.816406 161.484375 " fill-opacity="1" fill-rule="nonzero"/><path fill="#000000" d="M 148.441406 161.484375 C 143.378906 161.484375 143.378906 153.695312 148.441406 153.695312 L 287.628906 153.695312 C 292.886719 153.695312 292.886719 161.484375 287.628906 161.484375 Z M 148.441406 161.484375 " fill-opacity="1" fill-rule="nonzero"/><path fill="#000000" d="M 23.460938 281.984375 C 19.570312 278.675781 24.628906 272.640625 28.523438 275.949219 L 56.945312 300.089844 C 60.839844 303.398438 55.777344 309.238281 51.882812 305.929688 Z M 23.460938 281.984375 " fill-opacity="1" fill-rule="nonzero"/><path fill="#000000" d="M 346.808594 275.949219 C 350.703125 272.640625 355.570312 278.675781 351.675781 281.984375 L 323.253906 306.121094 C 319.359375 309.238281 314.296875 303.398438 318.191406 300.089844 Z M 346.808594 275.949219 " fill-opacity="1" fill-rule="nonzero"/><g clip-path="url(#970b76c752)"><g transform="matrix(1, 0, 0, 1, 37, 204)"><g clip-path="url(#8a6a024c8f)"><g clip-path="url(#514b44d81a)"><path fill="#ffffff" d="M 0.5 0.121094 L 293.1875 0.121094 L 293.1875 52.851562 L 0.5 52.851562 Z M 0.5 0.121094 " fill-opacity="1" fill-rule="nonzero"/></g></g></g></g><g clip-path="url(#dff6072a76)"><path fill="#000000" d="M 53.058594 208.460938 L 87.476562 208.460938 L 94.128906 215.117188 C 94.609375 215.59375 94.851562 216.175781 94.851562 216.851562 L 94.851562 250.253906 C 94.851562 250.578125 94.789062 250.890625 94.664062 251.191406 C 94.539062 251.496094 94.359375 251.761719 94.128906 251.992188 C 93.898438 252.222656 93.632812 252.398438 93.332031 252.523438 C 93.03125 252.648438 92.71875 252.710938 92.390625 252.710938 L 53.058594 252.710938 C 52.734375 252.710938 52.417969 252.648438 52.117188 252.523438 C 51.816406 252.398438 51.550781 252.222656 51.320312 251.992188 C 51.089844 251.761719 50.914062 251.496094 50.789062 251.191406 C 50.664062 250.890625 50.601562 250.578125 50.601562 250.253906 L 50.601562 210.917969 C 50.601562 210.59375 50.664062 210.28125 50.789062 209.976562 C 50.914062 209.675781 51.089844 209.410156 51.320312 209.179688 C 51.550781 208.949219 51.816406 208.773438 52.117188 208.648438 C 52.417969 208.523438 52.734375 208.460938 53.058594 208.460938 Z M 60.433594 210.917969 L 60.433594 223.210938 L 82.558594 223.210938 L 82.558594 210.917969 Z M 57.976562 230.585938 L 57.976562 247.792969 L 87.476562 247.792969 L 87.476562 230.585938 Z M 75.183594 213.378906 L 80.101562 213.378906 L 80.101562 220.753906 L 75.183594 220.753906 Z M 75.183594 213.378906 " fill-opacity="1" fill-rule="nonzero"/></g><g transform="matrix(1, 0, 0, 1, 112, 201)"><g clip-path="url(#1bf2e52346)"><g fill="#000000" fill-opacity="1"><g transform="translate(0.340586, 45.390342)"><g><path d="M 23.96875 -29.890625 L 23.96875 -24.921875 L 15.328125 -24.921875 L 15.328125 0 L 9.453125 0 L 9.453125 -24.921875 L 0.8125 -24.921875 L 0.8125 -29.890625 Z M 23.96875 -29.890625 "/></g></g></g><g fill="#000000" fill-opacity="1"><g transform="translate(25.119504, 45.390342)"><g><path d="M 9.796875 -13.125 L 9.796875 -4.953125 L 24.0625 -4.953125 L 24.0625 0 L 3.890625 0 L 3.890625 -29.890625 L 23.734375 -29.890625 L 23.734375 -24.9375 L 9.796875 -24.9375 L 9.796875 -17.953125 L 21.984375 -17.953125 L 21.984375 -13.125 Z M 9.796875 -13.125 "/></g></g></g><g fill="#000000" fill-opacity="1"><g transform="translate(50.818431, 45.390342)"><g><path d="M 9.296875 0 L 3.890625 0 L 3.890625 -29.890625 L 11.609375 -29.890625 L 19.171875 -7.90625 L 19.609375 -7.90625 L 27.140625 -29.890625 L 34.671875 -29.890625 L 34.671875 0 L 29.078125 0 L 29.078125 -19.75 L 28.5625 -19.828125 L 21.65625 0 L 16.71875 0 L 9.8125 -19.828125 L 9.296875 -19.75 Z M 9.296875 0 "/></g></g></g><g fill="#000000" fill-opacity="1"><g transform="translate(89.397488, 45.390342)"><g><path d="M 15.4375 -29.890625 C 17.570312 -29.890625 19.398438 -29.5 20.921875 -28.71875 C 22.441406 -27.9375 23.585938 -26.835938 24.359375 -25.421875 C 25.140625 -24.015625 25.53125 -22.378906 25.53125 -20.515625 C 25.53125 -18.640625 25.140625 -17 24.359375 -15.59375 C 23.585938 -14.195312 22.441406 -13.101562 20.921875 -12.3125 C 19.398438 -11.53125 17.570312 -11.140625 15.4375 -11.140625 L 9.796875 -11.140625 L 9.796875 0 L 3.890625 0 L 3.890625 -29.890625 Z M 14.65625 -15.828125 C 17.945312 -15.828125 19.59375 -17.390625 19.59375 -20.515625 C 19.59375 -23.640625 17.945312 -25.203125 14.65625 -25.203125 L 9.796875 -25.203125 L 9.796875 -15.828125 Z M 14.65625 -15.828125 "/></g></g></g><g fill="#000000" fill-opacity="1"><g transform="translate(116.711543, 45.390342)"><g><path d="M 9.796875 -29.890625 L 9.796875 -4.953125 L 23.234375 -4.953125 L 23.234375 0 L 3.890625 0 L 3.890625 -29.890625 Z M 9.796875 -29.890625 "/></g></g></g><g fill="#000000" fill-opacity="1"><g transform="translate(141.142949, 45.390342)"><g><path d="M 28.6875 0 L 22.46875 0 L 20.21875 -6.890625 L 8.765625 -6.890625 L 6.515625 0 L 0.453125 0 L 10.78125 -29.890625 L 18.359375 -29.890625 Z M 14.203125 -23.65625 L 10.359375 -11.859375 L 18.59375 -11.859375 L 14.71875 -23.65625 Z M 14.203125 -23.65625 "/></g></g></g><g fill="#000000" fill-opacity="1"><g transform="translate(167.618217, 45.390342)"><g><path d="M 23.96875 -29.890625 L 23.96875 -24.921875 L 15.328125 -24.921875 L 15.328125 0 L 9.453125 0 L 9.453125 -24.921875 L 0.8125 -24.921875 L 0.8125 -29.890625 Z M 23.96875 -29.890625 "/></g></g></g><g fill="#000000" fill-opacity="1"><g transform="translate(192.397135, 45.390342)"><g><path d="M 9.796875 -13.125 L 9.796875 -4.953125 L 24.0625 -4.953125 L 24.0625 0 L 3.890625 0 L 3.890625 -29.890625 L 23.734375 -29.890625 L 23.734375 -24.9375 L 9.796875 -24.9375 L 9.796875 -17.953125 L 21.984375 -17.953125 L 21.984375 -13.125 Z M 9.796875 -13.125 "/></g></g></g></g></g></svg>