<svg xmlns="http://www.w3.org/2000/svg" xmlns:xlink="http://www.w3.org/1999/xlink" width="500" zoomAndPan="magnify" viewBox="0 0 375 374.999991" height="500" preserveAspectRatio="xMidYMid meet" version="1.0"><defs><clipPath id="cc97db143f"><path d="M 37.5 204.121094 L 330.132812 204.121094 L 330.132812 256.851562 L 37.5 256.851562 Z M 37.5 204.121094 " clip-rule="nonzero"/></clipPath><clipPath id="8d8f0caa12"><path d="M 0.5 0.121094 L 293.132812 0.121094 L 293.132812 52.851562 L 0.5 52.851562 Z M 0.5 0.121094 " clip-rule="nonzero"/></clipPath><clipPath id="ec6c31d183"><rect x="0" width="294" y="0" height="53"/></clipPath></defs><g clip-path="url(#cc97db143f)"><g transform="matrix(1, 0, 0, 1, 37, 204)"><g clip-path="url(#ec6c31d183)"><g clip-path="url(#8d8f0caa12)"><path fill="#ffffff" d="M 0.5 0.121094 L 293.1875 0.121094 L 293.1875 52.851562 L 0.5 52.851562 Z M 0.5 0.121094 " fill-opacity="1" fill-rule="nonzero"/></g></g></g></g><path fill="#000000" d="M 187.566406 0 C 291.078125 0 375 83.921875 375 187.566406 C 375 291.078125 291.078125 375 187.566406 375 C 83.921875 375 0 291.078125 0 187.566406 C 0 83.921875 83.921875 0 187.566406 0 Z M 187.566406 9.132812 C 286.046875 9.132812 366 88.953125 366 187.566406 C 366 286.046875 286.046875 366 187.566406 366 C 88.953125 366 9.132812 286.046875 9.132812 187.566406 C 9.132812 88.953125 88.953125 9.132812 187.566406 9.132812 Z M 187.566406 9.132812 " fill-opacity="1" fill-rule="evenodd"/><path fill="#000000" d="M 281.152344 300.476562 L 115.824219 300.476562 C 114.367188 300.476562 113.175781 299.285156 113.175781 297.828125 L 113.175781 181.34375 C 113.175781 179.890625 114.367188 178.699219 115.824219 178.699219 L 172.34375 178.699219 L 172.34375 135.546875 L 115.824219 135.546875 C 114.367188 135.546875 113.175781 134.488281 113.175781 132.898438 L 113.175781 77.171875 C 113.175781 75.714844 114.367188 74.523438 115.824219 74.523438 L 281.152344 74.523438 C 281.8125 74.523438 282.472656 74.789062 283.003906 75.316406 C 283.535156 75.847656 283.796875 76.507812 283.796875 77.171875 L 283.796875 297.828125 C 283.796875 299.285156 282.605469 300.476562 281.152344 300.476562 Z M 118.46875 295.183594 L 278.503906 295.183594 L 278.503906 79.816406 L 118.46875 79.816406 L 118.46875 130.25 L 174.992188 130.25 C 176.578125 130.25 177.636719 131.441406 177.636719 132.898438 L 177.636719 181.34375 C 177.636719 182.800781 176.578125 183.992188 174.992188 183.992188 L 118.46875 183.992188 Z M 118.46875 295.183594 " fill-opacity="1" fill-rule="evenodd"/><path fill="#000000" d="M 169.035156 124.292969 L 134.882812 124.292969 C 133.425781 124.292969 132.234375 123.101562 132.234375 121.648438 L 132.234375 90.273438 C 132.234375 88.820312 133.425781 87.628906 134.882812 87.628906 L 169.035156 87.628906 C 170.492188 87.628906 171.683594 88.820312 171.683594 90.273438 L 171.683594 121.648438 C 171.683594 123.101562 170.492188 124.292969 169.035156 124.292969 Z M 137.53125 119 L 166.386719 119 L 166.386719 92.921875 L 137.53125 92.921875 Z M 137.53125 119 " fill-opacity="1" fill-rule="evenodd"/><path fill="#000000" d="M 215.496094 124.292969 L 181.476562 124.292969 C 180.019531 124.292969 178.828125 123.101562 178.828125 121.648438 L 178.828125 90.273438 C 178.828125 88.820312 180.019531 87.628906 181.476562 87.628906 L 215.496094 87.628906 C 216.953125 87.628906 218.144531 88.820312 218.144531 90.273438 L 218.144531 121.648438 C 218.144531 123.101562 216.953125 124.292969 215.496094 124.292969 Z M 184.125 119 L 212.847656 119 L 212.847656 92.921875 L 184.125 92.921875 Z M 184.125 119 " fill-opacity="1" fill-rule="evenodd"/><path fill="#000000" d="M 262.089844 124.292969 L 228.070312 124.292969 C 226.613281 124.292969 225.421875 123.101562 225.421875 121.648438 L 225.421875 90.273438 C 225.421875 88.820312 226.613281 87.628906 228.070312 87.628906 L 262.089844 87.628906 C 263.546875 87.628906 264.738281 88.820312 264.738281 90.273438 L 264.738281 121.648438 C 264.738281 123.101562 263.546875 124.292969 262.089844 124.292969 Z M 230.71875 119 L 259.441406 119 L 259.441406 92.921875 L 230.71875 92.921875 Z M 230.71875 119 " fill-opacity="1" fill-rule="evenodd"/><path fill="#000000" d="M 174.992188 183.992188 L 93.847656 183.992188 C 92.394531 183.992188 91.203125 182.800781 91.203125 181.34375 L 91.203125 132.898438 C 91.203125 131.441406 92.394531 130.25 93.847656 130.25 L 174.992188 130.25 C 176.578125 130.25 177.636719 131.441406 177.636719 132.898438 L 177.636719 181.34375 C 177.636719 182.800781 176.578125 183.992188 174.992188 183.992188 Z M 96.496094 178.699219 L 172.34375 178.699219 L 172.34375 135.546875 L 96.496094 135.546875 Z M 96.496094 178.699219 " fill-opacity="1" fill-rule="evenodd"/><path fill="#000000" d="M 145.074219 157.253906 C 140.3125 157.253906 136.339844 153.414062 136.339844 148.515625 C 136.339844 143.753906 140.3125 139.914062 145.074219 139.914062 C 149.839844 139.914062 153.679688 143.753906 153.679688 148.515625 C 153.679688 153.414062 149.839844 157.253906 145.074219 157.253906 Z M 145.074219 145.207031 C 143.222656 145.207031 141.632812 146.664062 141.632812 148.515625 C 141.632812 150.503906 143.222656 151.960938 145.074219 151.960938 C 146.929688 151.960938 148.386719 150.503906 148.386719 148.515625 C 148.386719 146.664062 146.929688 145.207031 145.074219 145.207031 Z M 145.074219 145.207031 " fill-opacity="1" fill-rule="evenodd"/><path fill="#000000" d="M 174.992188 183.992188 L 145.738281 183.992188 C 144.546875 183.992188 143.488281 183.199219 143.222656 182.007812 C 142.164062 177.769531 140.441406 173.933594 138.058594 170.359375 C 137.664062 169.828125 137.53125 169.167969 137.664062 168.371094 C 137.664062 167.710938 138.191406 167.179688 138.722656 166.785156 C 144.015625 163.078125 150.238281 161.09375 156.59375 161.09375 C 163.871094 161.09375 170.753906 163.738281 176.710938 168.503906 C 177.375 169.035156 177.636719 169.695312 177.636719 170.492188 L 177.636719 181.34375 C 177.636719 182.800781 176.578125 183.992188 174.992188 183.992188 Z M 147.722656 178.699219 L 172.34375 178.699219 L 172.34375 171.8125 C 167.710938 168.371094 162.152344 166.386719 156.59375 166.386719 C 152.089844 166.386719 147.855469 167.578125 143.882812 169.828125 C 145.472656 172.609375 146.796875 175.519531 147.722656 178.699219 Z M 147.722656 178.699219 " fill-opacity="1" fill-rule="evenodd"/><path fill="#000000" d="M 145.738281 183.992188 L 93.847656 183.992188 C 92.394531 183.992188 91.203125 182.800781 91.203125 181.34375 L 91.203125 163.738281 C 91.203125 163.078125 91.464844 162.417969 91.996094 161.886719 C 98.351562 155.664062 106.425781 152.089844 114.894531 152.089844 C 130.25 152.089844 143.882812 163.738281 148.253906 180.417969 C 148.386719 180.683594 148.386719 181.082031 148.386719 181.34375 C 148.386719 182.800781 147.195312 183.992188 145.738281 183.992188 Z M 96.496094 178.699219 L 142.164062 178.699219 C 137.664062 165.988281 126.941406 157.386719 114.894531 157.386719 C 108.277344 157.386719 101.792969 160.035156 96.496094 164.929688 Z M 96.496094 178.699219 " fill-opacity="1" fill-rule="evenodd"/><path fill="#000000" d="M 281.152344 300.476562 L 170.359375 300.476562 C 168.902344 300.476562 167.710938 299.285156 167.710938 297.828125 L 167.710938 192.730469 C 167.710938 191.273438 168.902344 190.082031 170.359375 190.082031 L 281.152344 190.082031 C 282.605469 190.082031 283.796875 191.273438 283.796875 192.730469 L 283.796875 297.828125 C 283.796875 299.285156 282.605469 300.476562 281.152344 300.476562 Z M 173.003906 295.183594 L 278.503906 295.183594 L 278.503906 195.375 L 173.003906 195.375 Z M 173.003906 295.183594 " fill-opacity="1" fill-rule="evenodd"/><path fill="#000000" d="M 241.042969 283.003906 L 210.597656 283.003906 C 209.140625 283.003906 207.949219 281.8125 207.949219 280.355469 L 207.949219 267.648438 C 207.949219 266.191406 209.140625 265 210.597656 265 L 215.097656 265 L 215.097656 224.628906 L 207.820312 224.628906 L 207.820312 229.261719 C 207.820312 230.851562 206.628906 231.910156 205.171875 231.910156 L 193.789062 231.910156 C 192.332031 231.910156 191.140625 230.851562 191.140625 229.261719 L 191.140625 210.203125 C 191.140625 208.746094 192.332031 207.554688 193.789062 207.554688 L 257.722656 207.554688 C 259.175781 207.554688 260.367188 208.746094 260.367188 210.203125 L 260.367188 229.261719 C 260.367188 230.851562 259.175781 231.910156 257.722656 231.910156 L 246.46875 231.910156 C 245.015625 231.910156 243.824219 230.851562 243.824219 229.261719 L 243.824219 224.628906 L 236.542969 224.628906 L 236.542969 265 L 241.042969 265 C 242.5 265 243.691406 266.191406 243.691406 267.648438 L 243.691406 280.355469 C 243.691406 281.8125 242.5 283.003906 241.042969 283.003906 Z M 213.246094 277.710938 L 238.394531 277.710938 L 238.394531 270.296875 L 233.894531 270.296875 C 232.4375 270.296875 231.246094 269.105469 231.246094 267.648438 L 231.246094 221.980469 C 231.246094 220.527344 232.4375 219.335938 233.894531 219.335938 L 246.46875 219.335938 C 247.925781 219.335938 249.117188 220.527344 249.117188 221.980469 L 249.117188 226.613281 L 255.074219 226.613281 L 255.074219 212.847656 L 196.433594 212.847656 L 196.433594 226.613281 L 202.523438 226.613281 L 202.523438 221.980469 C 202.523438 220.527344 203.714844 219.335938 205.171875 219.335938 L 217.746094 219.335938 C 219.203125 219.335938 220.394531 220.527344 220.394531 221.980469 L 220.394531 267.648438 C 220.394531 269.105469 219.203125 270.296875 217.746094 270.296875 L 213.246094 270.296875 Z M 213.246094 277.710938 " fill-opacity="1" fill-rule="evenodd"/><path fill="#000000" d="M 263.148438 144.8125 L 219.335938 144.8125 C 217.878906 144.8125 216.6875 143.621094 216.6875 142.164062 C 216.6875 140.707031 217.878906 139.515625 219.335938 139.515625 L 263.148438 139.515625 C 264.605469 139.515625 265.796875 140.707031 265.796875 142.164062 C 265.796875 143.621094 264.605469 144.8125 263.148438 144.8125 Z M 263.148438 144.8125 " fill-opacity="1" fill-rule="evenodd"/><path fill="#000000" d="M 263.148438 159.769531 L 219.335938 159.769531 C 217.878906 159.769531 216.6875 158.578125 216.6875 157.121094 C 216.6875 155.664062 217.878906 154.472656 219.335938 154.472656 L 263.148438 154.472656 C 264.605469 154.472656 265.796875 155.664062 265.796875 157.121094 C 265.796875 158.578125 264.605469 159.769531 263.148438 159.769531 Z M 263.148438 159.769531 " fill-opacity="1" fill-rule="evenodd"/><path fill="#000000" d="M 263.148438 174.726562 L 219.335938 174.726562 C 217.878906 174.726562 216.6875 173.535156 216.6875 172.078125 C 216.6875 170.621094 217.878906 169.433594 219.335938 169.433594 L 263.148438 169.433594 C 264.605469 169.433594 265.796875 170.621094 265.796875 172.078125 C 265.796875 173.535156 264.605469 174.726562 263.148438 174.726562 Z M 263.148438 174.726562 " fill-opacity="1" fill-rule="evenodd"/><path fill="#000000" d="M 209.9375 144.8125 L 193.125 144.8125 C 191.667969 144.8125 190.476562 143.621094 190.476562 142.164062 C 190.476562 140.707031 191.667969 139.515625 193.125 139.515625 L 209.9375 139.515625 C 211.390625 139.515625 212.582031 140.707031 212.582031 142.164062 C 212.582031 143.621094 211.390625 144.8125 209.9375 144.8125 Z M 209.9375 144.8125 " fill-opacity="1" fill-rule="evenodd"/><path fill="#000000" d="M 209.9375 159.769531 L 193.125 159.769531 C 191.667969 159.769531 190.476562 158.578125 190.476562 157.121094 C 190.476562 155.664062 191.667969 154.472656 193.125 154.472656 L 209.9375 154.472656 C 211.390625 154.472656 212.582031 155.664062 212.582031 157.121094 C 212.582031 158.578125 211.390625 159.769531 209.9375 159.769531 Z M 209.9375 159.769531 " fill-opacity="1" fill-rule="evenodd"/><path fill="#000000" d="M 209.9375 174.726562 L 193.125 174.726562 C 191.667969 174.726562 190.476562 173.535156 190.476562 172.078125 C 190.476562 170.621094 191.667969 169.433594 193.125 169.433594 L 209.9375 169.433594 C 211.390625 169.433594 212.582031 170.621094 212.582031 172.078125 C 212.582031 173.535156 211.390625 174.726562 209.9375 174.726562 Z M 209.9375 174.726562 " fill-opacity="1" fill-rule="evenodd"/></svg>