<svg xmlns="http://www.w3.org/2000/svg" xmlns:xlink="http://www.w3.org/1999/xlink" width="500" zoomAndPan="magnify" viewBox="0 0 375 374.999991" height="500" preserveAspectRatio="xMidYMid meet" version="1.0"><defs><clipPath id="e2d0d0b67a"><path d="M 303 196 L 361.1875 196 L 361.1875 273 L 303 273 Z M 303 196 " clip-rule="nonzero"/></clipPath><clipPath id="03933a0721"><path d="M 13.9375 196 L 72 196 L 72 273 L 13.9375 273 Z M 13.9375 196 " clip-rule="nonzero"/></clipPath><clipPath id="cb61234a78"><path d="M 158 285 L 217 285 L 217 361.1875 L 158 361.1875 Z M 158 285 " clip-rule="nonzero"/></clipPath><clipPath id="72087d29ca"><path d="M 230 285 L 289 285 L 289 361.1875 L 230 361.1875 Z M 230 285 " clip-rule="nonzero"/></clipPath><clipPath id="65808834a8"><path d="M 303 285 L 361.1875 285 L 361.1875 361.1875 L 303 361.1875 Z M 303 285 " clip-rule="nonzero"/></clipPath><clipPath id="61b052af14"><path d="M 86 285 L 145 285 L 145 361.1875 L 86 361.1875 Z M 86 285 " clip-rule="nonzero"/></clipPath><clipPath id="e1f57e3502"><path d="M 13.9375 285 L 72 285 L 72 361.1875 L 13.9375 361.1875 Z M 13.9375 285 " clip-rule="nonzero"/></clipPath><clipPath id="83df754aea"><path d="M 74 13.9375 L 300 13.9375 L 300 175 L 74 175 Z M 74 13.9375 " clip-rule="nonzero"/></clipPath></defs><path fill="#000000" d="M 216.5 217.269531 C 216.5 206.082031 207.433594 197.015625 196.242188 196.917969 L 178.878906 196.917969 C 167.691406 196.917969 158.625 206.082031 158.625 217.269531 L 158.625 266.464844 C 158.625 268.007812 159.203125 269.453125 160.359375 270.515625 C 161.421875 271.578125 162.867188 272.15625 164.410156 272.15625 L 210.710938 272.15625 C 212.253906 272.15625 213.703125 271.578125 214.761719 270.515625 C 215.824219 269.453125 216.5 268.007812 216.5 266.464844 Z M 178.878906 208.492188 L 196.242188 208.492188 C 201.066406 208.492188 204.925781 212.449219 204.925781 217.269531 L 204.925781 241 L 170.199219 241 L 170.199219 217.269531 C 170.199219 212.449219 174.058594 208.589844 178.878906 208.492188 Z M 170.199219 260.582031 L 170.199219 252.574219 L 204.925781 252.574219 L 204.925781 260.582031 Z M 170.199219 260.582031 " fill-opacity="1" fill-rule="nonzero"/><path fill="#000000" d="M 288.84375 217.269531 C 288.84375 206.082031 279.777344 197.015625 268.585938 196.917969 L 251.222656 196.917969 C 240.035156 196.917969 230.96875 206.082031 230.96875 217.269531 L 230.96875 266.464844 C 230.96875 268.007812 231.546875 269.453125 232.703125 270.515625 C 233.765625 271.578125 235.210938 272.15625 236.753906 272.15625 L 283.054688 272.15625 C 284.597656 272.15625 286.046875 271.578125 287.105469 270.515625 C 288.167969 269.453125 288.84375 268.007812 288.84375 266.464844 Z M 251.222656 208.492188 L 268.585938 208.492188 C 273.410156 208.492188 277.269531 212.449219 277.269531 217.269531 L 277.269531 241 L 242.542969 241 L 242.542969 217.269531 C 242.542969 212.449219 246.402344 208.589844 251.222656 208.492188 Z M 242.542969 260.582031 L 242.542969 252.574219 L 277.269531 252.574219 L 277.269531 260.582031 Z M 242.542969 260.582031 " fill-opacity="1" fill-rule="nonzero"/><g clip-path="url(#e2d0d0b67a)"><path fill="#000000" d="M 340.929688 196.917969 L 323.566406 196.917969 C 312.378906 196.917969 303.3125 206.082031 303.3125 217.269531 L 303.3125 266.464844 C 303.3125 268.007812 303.890625 269.453125 305.046875 270.515625 C 306.109375 271.578125 307.554688 272.15625 309.097656 272.15625 L 355.398438 272.15625 C 356.941406 272.15625 358.390625 271.578125 359.449219 270.515625 C 360.511719 269.453125 361.1875 268.007812 361.1875 266.464844 L 361.1875 217.269531 C 361.1875 206.082031 352.121094 197.015625 340.929688 196.917969 Z M 323.566406 208.492188 L 340.929688 208.492188 C 345.753906 208.492188 349.613281 212.449219 349.613281 217.269531 L 349.613281 241 L 314.886719 241 L 314.886719 217.269531 C 314.886719 212.449219 318.746094 208.589844 323.566406 208.492188 Z M 314.886719 260.582031 L 314.886719 252.574219 L 349.613281 252.574219 L 349.613281 260.582031 Z M 314.886719 260.582031 " fill-opacity="1" fill-rule="nonzero"/></g><path fill="#000000" d="M 144.15625 217.269531 C 144.15625 206.082031 135.089844 197.015625 123.898438 196.917969 L 106.535156 196.917969 C 95.347656 196.917969 86.28125 206.082031 86.28125 217.269531 L 86.28125 266.464844 C 86.28125 268.007812 86.859375 269.453125 88.015625 270.515625 C 89.078125 271.578125 90.523438 272.15625 92.066406 272.15625 L 138.367188 272.15625 C 139.910156 272.15625 141.359375 271.578125 142.417969 270.515625 C 143.480469 269.453125 144.15625 268.007812 144.15625 266.464844 Z M 106.535156 208.492188 L 123.898438 208.492188 C 128.722656 208.492188 132.582031 212.449219 132.582031 217.269531 L 132.582031 241 L 97.855469 241 L 97.855469 217.269531 C 97.855469 212.449219 101.714844 208.589844 106.535156 208.492188 Z M 97.855469 260.582031 L 97.855469 252.574219 L 132.582031 252.574219 L 132.582031 260.582031 Z M 97.855469 260.582031 " fill-opacity="1" fill-rule="nonzero"/><g clip-path="url(#03933a0721)"><path fill="#000000" d="M 19.722656 272.15625 L 66.023438 272.15625 C 67.566406 272.15625 69.015625 271.578125 70.074219 270.515625 C 71.136719 269.453125 71.8125 268.007812 71.8125 266.464844 L 71.8125 217.269531 C 71.8125 206.082031 62.746094 197.015625 51.554688 196.917969 L 34.191406 196.917969 C 23.003906 196.917969 13.9375 206.082031 13.9375 217.269531 L 13.9375 266.464844 C 13.9375 268.007812 14.515625 269.453125 15.671875 270.515625 C 16.734375 271.578125 18.179688 272.15625 19.722656 272.15625 Z M 25.511719 260.582031 L 25.511719 252.574219 L 60.238281 252.574219 L 60.238281 260.582031 Z M 34.191406 208.492188 L 51.554688 208.492188 C 56.378906 208.492188 60.238281 212.449219 60.238281 217.269531 L 60.238281 241 L 25.511719 241 L 25.511719 217.269531 C 25.511719 212.449219 29.371094 208.589844 34.191406 208.492188 Z M 34.191406 208.492188 " fill-opacity="1" fill-rule="nonzero"/></g><g clip-path="url(#cb61234a78)"><path fill="#000000" d="M 196.242188 285.949219 L 178.878906 285.949219 C 173.574219 285.949219 168.367188 288.070312 164.507812 291.832031 C 160.648438 295.691406 158.625 300.707031 158.625 306.109375 L 158.625 355.300781 C 158.625 358.582031 161.132812 361.1875 164.410156 361.1875 L 210.710938 361.1875 C 213.992188 361.089844 216.5 358.484375 216.5 355.300781 L 216.5 306.109375 C 216.5 300.804688 214.28125 295.59375 210.613281 291.832031 C 206.757812 288.070312 201.546875 285.949219 196.242188 285.949219 Z M 178.878906 297.523438 L 196.242188 297.523438 C 198.558594 297.523438 200.777344 298.296875 202.414062 299.933594 C 204.054688 301.574219 204.925781 303.792969 204.925781 306.109375 L 204.925781 330.222656 L 170.199219 330.222656 L 170.199219 306.109375 C 170.199219 303.792969 171.164062 301.574219 172.707031 299.933594 C 174.25 298.296875 176.566406 297.523438 178.878906 297.523438 Z M 170.199219 349.613281 L 170.199219 341.605469 L 204.925781 341.605469 L 204.925781 349.613281 Z M 170.199219 349.613281 " fill-opacity="1" fill-rule="nonzero"/></g><g clip-path="url(#72087d29ca)"><path fill="#000000" d="M 268.585938 285.949219 L 251.222656 285.949219 C 245.917969 285.949219 240.710938 288.070312 236.851562 291.832031 C 232.992188 295.691406 230.96875 300.707031 230.96875 306.109375 L 230.96875 355.300781 C 230.96875 358.582031 233.476562 361.1875 236.753906 361.1875 L 283.054688 361.1875 C 286.335938 361.089844 288.84375 358.484375 288.84375 355.300781 L 288.84375 306.109375 C 288.84375 300.804688 286.625 295.59375 282.957031 291.832031 C 279.101562 288.070312 273.890625 285.949219 268.585938 285.949219 Z M 251.222656 297.523438 L 268.585938 297.523438 C 270.902344 297.523438 273.121094 298.296875 274.757812 299.933594 C 276.398438 301.574219 277.269531 303.792969 277.269531 306.109375 L 277.269531 330.222656 L 242.542969 330.222656 L 242.542969 306.109375 C 242.542969 303.792969 243.507812 301.574219 245.050781 299.933594 C 246.59375 298.296875 248.910156 297.523438 251.222656 297.523438 Z M 242.542969 349.613281 L 242.542969 341.605469 L 277.269531 341.605469 L 277.269531 349.613281 Z M 242.542969 349.613281 " fill-opacity="1" fill-rule="nonzero"/></g><g clip-path="url(#65808834a8)"><path fill="#000000" d="M 340.929688 285.949219 L 323.566406 285.949219 C 318.261719 285.949219 313.054688 288.070312 309.195312 291.832031 C 305.335938 295.691406 303.3125 300.707031 303.3125 306.109375 L 303.3125 355.300781 C 303.3125 358.582031 305.820312 361.1875 309.097656 361.1875 L 355.398438 361.1875 C 358.679688 361.089844 361.1875 358.484375 361.1875 355.300781 L 361.1875 306.109375 C 361.1875 300.804688 358.96875 295.59375 355.300781 291.832031 C 351.445312 288.070312 346.234375 285.949219 340.929688 285.949219 Z M 323.566406 297.523438 L 340.929688 297.523438 C 343.246094 297.523438 345.464844 298.296875 347.101562 299.933594 C 348.742188 301.574219 349.613281 303.792969 349.613281 306.109375 L 349.613281 330.222656 L 314.886719 330.222656 L 314.886719 306.109375 C 314.886719 303.792969 315.851562 301.574219 317.394531 299.933594 C 318.9375 298.296875 321.253906 297.523438 323.566406 297.523438 Z M 314.886719 349.613281 L 314.886719 341.605469 L 349.613281 341.605469 L 349.613281 349.613281 Z M 314.886719 349.613281 " fill-opacity="1" fill-rule="nonzero"/></g><g clip-path="url(#61b052af14)"><path fill="#000000" d="M 123.898438 285.949219 L 106.535156 285.949219 C 101.230469 285.949219 96.023438 288.070312 92.164062 291.832031 C 88.304688 295.691406 86.28125 300.707031 86.28125 306.109375 L 86.28125 355.300781 C 86.28125 358.582031 88.789062 361.1875 92.066406 361.1875 L 138.367188 361.1875 C 141.648438 361.089844 144.15625 358.484375 144.15625 355.300781 L 144.15625 306.109375 C 144.15625 300.804688 141.9375 295.59375 138.269531 291.832031 C 134.414062 288.070312 129.203125 285.949219 123.898438 285.949219 Z M 106.535156 297.523438 L 123.898438 297.523438 C 126.214844 297.523438 128.433594 298.296875 130.070312 299.933594 C 131.710938 301.574219 132.582031 303.792969 132.582031 306.109375 L 132.582031 330.222656 L 97.855469 330.222656 L 97.855469 306.109375 C 97.855469 303.792969 98.820312 301.574219 100.363281 299.933594 C 101.90625 298.296875 104.222656 297.523438 106.535156 297.523438 Z M 97.855469 349.613281 L 97.855469 341.605469 L 132.582031 341.605469 L 132.582031 349.613281 Z M 97.855469 349.613281 " fill-opacity="1" fill-rule="nonzero"/></g><g clip-path="url(#e1f57e3502)"><path fill="#000000" d="M 71.8125 355.300781 L 71.8125 306.109375 C 71.8125 300.804688 69.59375 295.59375 65.925781 291.832031 C 62.070312 287.972656 57.054688 285.949219 51.554688 285.949219 L 34.191406 285.949219 C 28.886719 285.949219 23.679688 288.070312 19.820312 291.832031 C 15.960938 295.691406 13.9375 300.707031 13.9375 306.109375 L 13.9375 355.300781 C 13.9375 358.582031 16.445312 361.1875 19.722656 361.1875 L 66.023438 361.1875 C 69.304688 361.089844 71.8125 358.484375 71.8125 355.300781 Z M 34.191406 297.523438 L 51.554688 297.523438 C 53.871094 297.523438 56.089844 298.296875 57.730469 299.933594 C 59.367188 301.574219 60.238281 303.792969 60.238281 306.109375 L 60.238281 330.222656 L 25.511719 330.222656 L 25.511719 306.109375 C 25.511719 303.792969 26.476562 301.574219 28.019531 299.933594 C 29.5625 298.296875 31.878906 297.523438 34.191406 297.523438 Z M 25.511719 349.613281 L 25.511719 341.605469 L 60.238281 341.605469 L 60.238281 349.613281 Z M 25.511719 349.613281 " fill-opacity="1" fill-rule="nonzero"/></g><path fill="#000000" d="M 160.746094 129.878906 C 161.519531 130.363281 162.480469 130.554688 163.542969 130.554688 C 164.605469 130.554688 165.664062 130.167969 166.535156 129.78125 L 216.113281 99.300781 C 217.847656 98.242188 218.910156 96.410156 218.910156 94.285156 C 218.910156 92.355469 217.847656 90.332031 216.113281 89.269531 L 166.535156 58.789062 C 164.796875 57.726562 162.578125 57.632812 160.84375 58.691406 C 159.011719 59.753906 157.949219 61.683594 158.046875 63.804688 L 158.046875 124.574219 C 157.851562 126.984375 159.007812 128.914062 160.746094 129.878906 Z M 169.523438 74.511719 L 202.320312 94.574219 L 169.523438 114.640625 Z M 169.523438 74.511719 " fill-opacity="1" fill-rule="nonzero"/><g clip-path="url(#83df754aea)"><path fill="#000000" d="M 299.742188 19.722656 C 299.742188 16.445312 297.234375 13.9375 293.953125 13.9375 L 80.492188 13.9375 C 77.214844 13.9375 74.707031 16.445312 74.707031 19.722656 L 74.707031 168.847656 C 74.707031 172.128906 77.214844 174.636719 80.492188 174.636719 L 293.953125 174.636719 C 297.234375 174.636719 299.742188 172.128906 299.742188 168.847656 Z M 86.28125 25.511719 L 288.84375 25.511719 L 288.84375 163.734375 L 86.28125 163.734375 Z M 86.28125 25.511719 " fill-opacity="1" fill-rule="nonzero"/></g><path fill="#000000" d="M 277.941406 41.523438 C 277.941406 38.242188 275.433594 35.734375 272.15625 35.734375 L 102.097656 35.734375 C 98.820312 35.734375 96.3125 38.242188 96.3125 41.523438 L 96.3125 147.050781 C 96.3125 150.328125 98.820312 152.835938 102.097656 152.835938 L 272.15625 152.835938 C 275.433594 152.835938 277.941406 150.328125 277.941406 147.050781 Z M 267.234375 141.9375 L 107.886719 141.9375 L 107.886719 47.117188 L 267.042969 47.117188 L 267.042969 141.9375 Z M 267.234375 141.9375 " fill-opacity="1" fill-rule="nonzero"/></svg>