<svg xmlns="http://www.w3.org/2000/svg" xmlns:xlink="http://www.w3.org/1999/xlink" width="500" zoomAndPan="magnify" viewBox="0 0 375 374.999991" height="500" preserveAspectRatio="xMidYMid meet" version="1.0"><defs><clipPath id="c6deebe16b"><path d="M 1 31.875 L 365 31.875 L 365 343 L 1 343 Z M 1 31.875 " clip-rule="nonzero"/></clipPath></defs><g clip-path="url(#c6deebe16b)"><path fill="#000000" d="M 336.914062 59.03125 C 319.195312 41.316406 295.636719 31.550781 270.589844 31.550781 C 245.535156 31.550781 221.976562 41.3125 204.265625 59.03125 L 182.925781 80.355469 L 161.601562 59.023438 C 143.890625 41.3125 120.324219 31.550781 95.277344 31.550781 C 70.230469 31.550781 46.671875 41.3125 28.960938 59.023438 C 11.246094 76.734375 1.480469 100.292969 1.480469 125.347656 C 1.480469 150.402344 11.238281 173.953125 28.960938 191.671875 L 177.964844 340.679688 C 179.335938 342.050781 181.132812 342.738281 182.933594 342.738281 C 184.730469 342.738281 186.53125 342.050781 187.902344 340.679688 L 336.921875 191.671875 C 373.484375 155.101562 373.484375 95.601562 336.914062 59.03125 Z M 326.980469 181.738281 L 182.925781 325.777344 L 38.886719 181.738281 C 23.824219 166.675781 15.527344 146.652344 15.527344 125.347656 C 15.527344 104.046875 23.824219 84.023438 38.886719 68.957031 C 53.949219 53.894531 73.972656 45.605469 95.269531 45.605469 C 116.566406 45.605469 136.597656 53.902344 151.660156 68.957031 L 177.953125 95.257812 C 180.699219 98.003906 185.140625 98.003906 187.886719 95.257812 L 214.183594 68.957031 C 229.25 53.894531 249.273438 45.597656 270.574219 45.597656 C 291.871094 45.597656 311.902344 53.894531 326.964844 68.957031 C 358.070312 100.054688 358.070312 150.648438 326.980469 181.738281 Z M 326.980469 181.738281 " fill-opacity="1" fill-rule="nonzero"/></g></svg>