<svg xmlns="http://www.w3.org/2000/svg" xmlns:xlink="http://www.w3.org/1999/xlink" width="500" zoomAndPan="magnify" viewBox="0 0 375 374.999991" height="500" preserveAspectRatio="xMidYMid meet" version="1.0"><defs><clipPath id="a8d949ed51"><path d="M 0 53.203125 L 375 53.203125 L 375 321.703125 L 0 321.703125 Z M 0 53.203125 " clip-rule="nonzero"/></clipPath></defs><g clip-path="url(#a8d949ed51)"><path fill="#231f20" d="M 226.921875 321.707031 L 225.652344 321.707031 C 225.183594 321.707031 224.746094 321.589844 224.339844 321.359375 C 223.933594 321.132812 223.613281 320.816406 223.371094 320.417969 L 218.65625 312.539062 C 218.574219 312.402344 218.507812 312.257812 218.449219 312.109375 L 216.257812 306.269531 L 214.316406 303.621094 L 212.699219 304.425781 L 211.058594 306.683594 C 210.773438 307.078125 210.402344 307.371094 209.957031 307.5625 L 208.375 308.238281 C 208.167969 308.328125 207.957031 308.386719 207.734375 308.421875 C 207.511719 308.457031 207.289062 308.460938 207.066406 308.441406 C 206.84375 308.417969 206.625 308.367188 206.414062 308.292969 C 206.203125 308.214844 206.007812 308.113281 205.824219 307.984375 C 205.636719 307.859375 205.472656 307.710938 205.324219 307.539062 C 205.175781 307.371094 205.054688 307.1875 204.953125 306.984375 C 204.851562 306.785156 204.777344 306.574219 204.730469 306.355469 C 204.683594 306.136719 204.664062 305.914062 204.675781 305.691406 L 204.832031 301.738281 L 201.691406 298.078125 C 201.566406 297.933594 201.460938 297.773438 201.371094 297.605469 C 201.28125 297.4375 201.207031 297.261719 201.15625 297.078125 C 201.101562 296.894531 201.070312 296.707031 201.058594 296.515625 C 201.046875 296.324219 201.054688 296.132812 201.085938 295.945312 C 201.113281 295.757812 201.160156 295.574219 201.230469 295.394531 C 201.300781 295.214844 201.386719 295.046875 201.492188 294.886719 C 201.597656 294.726562 201.71875 294.578125 201.855469 294.445312 C 201.992188 294.3125 202.144531 294.195312 202.304688 294.09375 L 201.996094 293.816406 L 200.492188 293.941406 L 200.089844 294.945312 C 199.894531 295.425781 199.585938 295.816406 199.164062 296.121094 C 198.742188 296.421875 198.273438 296.585938 197.753906 296.613281 L 194.0625 296.796875 C 193.589844 296.820312 193.144531 296.722656 192.726562 296.511719 C 192.304688 296.296875 191.964844 295.992188 191.707031 295.601562 L 187.351562 288.953125 L 186.039062 287.902344 C 185.890625 287.785156 185.757812 287.652344 185.636719 287.503906 C 185.515625 287.355469 185.414062 287.195312 185.328125 287.023438 C 185.242188 286.855469 185.175781 286.675781 185.125 286.492188 C 185.078125 286.304688 185.050781 286.117188 185.042969 285.925781 C 185.039062 285.738281 185.050781 285.546875 185.085938 285.359375 C 185.117188 285.171875 185.171875 284.988281 185.246094 284.8125 C 185.316406 284.636719 185.410156 284.46875 185.519531 284.3125 C 185.628906 284.15625 185.75 284.011719 185.890625 283.882812 L 188.371094 281.582031 C 188.527344 281.433594 188.703125 281.308594 188.890625 281.207031 L 192.191406 279.371094 L 190.199219 274.660156 L 185.875 273.628906 L 180.457031 274.632812 L 180.28125 278.808594 C 180.261719 279.335938 180.09375 279.816406 179.785156 280.25 C 179.472656 280.679688 179.070312 280.988281 178.574219 281.179688 L 174.410156 282.765625 L 172.699219 285.617188 C 172.472656 285.996094 172.167969 286.300781 171.785156 286.53125 C 171.402344 286.757812 170.992188 286.882812 170.546875 286.902344 L 166.355469 287.101562 C 165.523438 287.140625 164.828125 286.855469 164.269531 286.242188 L 158.738281 280.214844 C 158.546875 280.007812 158.394531 279.773438 158.277344 279.515625 C 158.160156 279.257812 158.085938 278.988281 158.058594 278.707031 C 158.027344 278.421875 158.042969 278.144531 158.101562 277.867188 C 158.160156 277.589844 158.257812 277.328125 158.402344 277.085938 C 158.542969 276.839844 158.722656 276.625 158.933594 276.433594 C 159.144531 276.246094 159.378906 276.097656 159.640625 275.984375 C 159.902344 275.871094 160.171875 275.800781 160.453125 275.773438 C 160.734375 275.75 161.015625 275.765625 161.289062 275.832031 L 165.722656 276.84375 L 173.542969 268.105469 L 174.34375 263.898438 L 170.488281 259.828125 C 170.160156 259.480469 169.941406 259.074219 169.832031 258.609375 L 169.113281 255.554688 L 164.515625 254.847656 L 162.675781 258.34375 C 162.34375 258.976562 161.839844 259.402344 161.164062 259.625 L 154.015625 262.011719 L 146.230469 265.46875 C 146.082031 265.535156 146.011719 265.648438 146.023438 265.8125 C 146.035156 265.976562 146.121094 266.082031 146.28125 266.125 L 149.355469 266.980469 C 149.410156 266.996094 149.464844 266.996094 149.523438 266.984375 L 155.046875 265.832031 L 156.890625 264.984375 C 157.070312 264.902344 157.257812 264.839844 157.453125 264.796875 C 157.648438 264.753906 157.847656 264.738281 158.046875 264.738281 C 158.246094 264.742188 158.441406 264.769531 158.632812 264.816406 C 158.828125 264.863281 159.011719 264.929688 159.191406 265.019531 C 159.371094 265.109375 159.535156 265.214844 159.691406 265.34375 C 159.84375 265.46875 159.980469 265.613281 160.105469 265.769531 C 160.226562 265.925781 160.328125 266.09375 160.414062 266.277344 C 160.496094 266.457031 160.558594 266.644531 160.601562 266.839844 L 160.941406 268.433594 C 161.03125 268.832031 161.023438 269.230469 160.925781 269.625 C 160.828125 270.019531 160.648438 270.375 160.386719 270.6875 L 158.394531 273.078125 C 158.09375 273.441406 157.71875 273.703125 157.273438 273.867188 L 152.84375 275.5 C 152.644531 275.574219 152.441406 275.621094 152.230469 275.644531 L 146.382812 276.320312 C 146.300781 276.332031 146.230469 276.367188 146.171875 276.425781 L 139.394531 283.4375 C 139.027344 283.8125 138.582031 284.03125 138.058594 284.082031 L 131.644531 284.746094 L 124.792969 296.320312 C 124.421875 296.945312 123.871094 297.296875 123.148438 297.371094 L 119.046875 297.777344 L 113.832031 305.03125 C 113.574219 305.394531 113.238281 305.652344 112.820312 305.804688 C 112.402344 305.957031 111.980469 305.976562 111.550781 305.867188 L 109.1875 305.277344 C 108.636719 305.140625 108.207031 304.832031 107.898438 304.359375 L 105.230469 300.257812 L 98.367188 301.113281 C 97.984375 301.160156 97.613281 301.109375 97.257812 300.960938 C 96.902344 300.808594 96.609375 300.582031 96.375 300.273438 L 91.421875 293.746094 L 84.171875 293.519531 C 83.714844 293.507812 83.308594 293.363281 82.945312 293.09375 L 65.289062 279.917969 L 60.941406 279.324219 L 59.113281 281.886719 C 58.679688 282.488281 58.09375 282.789062 57.351562 282.792969 L 53.679688 282.792969 C 52.984375 282.792969 52.421875 282.523438 51.992188 281.980469 L 46.539062 275.164062 L 36.390625 275.625 L 34.066406 276.855469 L 35.253906 278.132812 C 35.550781 278.445312 35.734375 278.816406 35.804688 279.242188 C 35.878906 279.664062 35.828125 280.074219 35.65625 280.46875 C 35.484375 280.863281 35.21875 281.179688 34.859375 281.414062 C 34.5 281.652344 34.105469 281.769531 33.675781 281.769531 L 25.71875 281.769531 C 25.273438 281.769531 24.871094 281.648438 24.503906 281.398438 C 24.136719 281.152344 23.871094 280.820312 23.707031 280.410156 L 21.980469 276.09375 L 10.035156 266.589844 L 5.503906 265.507812 C 5.269531 265.453125 5.050781 265.363281 4.847656 265.234375 C 4.644531 265.105469 4.46875 264.949219 4.316406 264.761719 C 4.167969 264.574219 4.050781 264.371094 3.96875 264.144531 C 3.886719 263.917969 3.84375 263.6875 3.839844 263.445312 L 0.0234375 54.8125 C 0.015625 54.53125 0.0859375 54.269531 0.226562 54.03125 C 0.367188 53.789062 0.5625 53.601562 0.808594 53.46875 C 1.054688 53.339844 1.316406 53.28125 1.597656 53.296875 C 1.878906 53.3125 2.132812 53.402344 2.363281 53.5625 L 6.554688 56.472656 C 6.738281 56.601562 6.9375 56.664062 7.160156 56.664062 L 12.835938 56.664062 C 13.550781 56.664062 14.21875 56.84375 14.839844 57.195312 L 24.390625 62.652344 C 24.554688 62.746094 24.730469 62.792969 24.917969 62.792969 L 28.175781 62.792969 C 28.390625 62.792969 28.585938 62.734375 28.761719 62.617188 C 28.941406 62.5 29.070312 62.34375 29.15625 62.148438 L 29.871094 60.488281 C 30.027344 60.125 30.230469 59.792969 30.484375 59.488281 C 30.738281 59.1875 31.03125 58.925781 31.359375 58.707031 C 31.691406 58.492188 32.042969 58.324219 32.421875 58.210938 C 32.800781 58.097656 33.1875 58.042969 33.585938 58.042969 L 51.671875 58.042969 C 52.261719 58.042969 52.824219 58.164062 53.359375 58.410156 C 53.894531 58.65625 54.355469 59.003906 54.738281 59.449219 L 57.445312 62.589844 C 58.097656 63.351562 58.421875 64.226562 58.421875 65.226562 L 58.421875 70.410156 C 58.421875 70.550781 58.449219 70.683594 58.503906 70.816406 C 58.558594 70.945312 58.636719 71.0625 58.734375 71.160156 C 58.835938 71.261719 58.949219 71.335938 59.078125 71.390625 C 59.210938 71.445312 59.347656 71.472656 59.488281 71.472656 C 59.753906 71.472656 60.015625 71.5 60.273438 71.550781 C 60.535156 71.601562 60.789062 71.679688 61.035156 71.78125 C 61.277344 71.882812 61.511719 72.007812 61.730469 72.15625 C 61.953125 72.300781 62.15625 72.46875 62.34375 72.65625 C 62.53125 72.84375 62.699219 73.050781 62.847656 73.269531 C 62.996094 73.492188 63.121094 73.722656 63.222656 73.96875 C 63.324219 74.214844 63.398438 74.464844 63.453125 74.726562 C 63.503906 74.988281 63.53125 75.25 63.53125 75.515625 L 63.53125 77.019531 C 63.53125 77.167969 63.558594 77.3125 63.621094 77.449219 L 68.832031 89.285156 C 68.882812 89.40625 68.957031 89.515625 69.050781 89.609375 L 70.925781 91.480469 C 71.042969 91.597656 71.179688 91.683594 71.339844 91.738281 C 71.496094 91.789062 71.65625 91.804688 71.824219 91.78125 C 71.988281 91.757812 72.140625 91.699219 72.277344 91.605469 C 72.414062 91.511719 72.523438 91.394531 72.605469 91.25 L 76.226562 84.785156 C 76.390625 84.492188 76.585938 84.226562 76.816406 83.984375 C 77.042969 83.742188 77.300781 83.53125 77.582031 83.351562 C 77.863281 83.171875 78.160156 83.027344 78.476562 82.921875 C 78.792969 82.816406 79.117188 82.753906 79.449219 82.726562 C 79.785156 82.703125 80.113281 82.71875 80.441406 82.773438 C 80.773438 82.832031 81.089844 82.925781 81.394531 83.0625 C 81.699219 83.199219 81.984375 83.367188 82.246094 83.574219 C 82.507812 83.777344 82.742188 84.011719 82.945312 84.277344 L 83.765625 85.328125 C 83.875 85.46875 84.011719 85.574219 84.171875 85.648438 L 92.289062 89.253906 C 92.425781 89.3125 92.570312 89.34375 92.71875 89.34375 L 96.605469 89.34375 C 97.324219 89.34375 97.992188 89.523438 98.613281 89.878906 L 103.890625 92.890625 C 104.519531 93.25 105.015625 93.746094 105.378906 94.371094 C 105.742188 95 105.925781 95.675781 105.925781 96.402344 L 105.925781 111.460938 C 105.925781 111.691406 105.992188 111.898438 106.128906 112.082031 C 106.261719 112.269531 106.4375 112.398438 106.65625 112.472656 L 112.355469 114.371094 C 112.757812 114.503906 113.132812 114.695312 113.472656 114.949219 C 113.816406 115.199219 114.109375 115.496094 114.359375 115.839844 C 114.605469 116.1875 114.796875 116.558594 114.925781 116.964844 C 115.054688 117.367188 115.121094 117.78125 115.121094 118.207031 L 115.121094 123.003906 C 115.121094 123.144531 115.148438 123.28125 115.203125 123.410156 C 115.257812 123.542969 115.332031 123.65625 115.433594 123.753906 C 115.53125 123.855469 115.648438 123.933594 115.777344 123.988281 C 115.910156 124.039062 116.042969 124.066406 116.183594 124.066406 L 120.050781 124.066406 C 120.671875 124.066406 121.261719 124.199219 121.820312 124.472656 C 122.378906 124.742188 122.851562 125.125 123.230469 125.613281 L 127.679688 131.273438 C 127.792969 131.414062 127.933594 131.523438 128.097656 131.59375 L 133.992188 134.117188 C 134.6875 134.414062 135.253906 134.871094 135.691406 135.484375 L 140.515625 142.234375 C 140.65625 142.433594 140.84375 142.566406 141.074219 142.636719 L 147.902344 144.683594 C 148.273438 144.792969 148.558594 145.015625 148.753906 145.351562 L 154.6875 155.363281 C 154.722656 155.414062 154.761719 155.460938 154.8125 155.5 L 162.023438 160.992188 C 162.109375 161.054688 162.203125 161.089844 162.3125 161.089844 L 166.226562 161.089844 C 166.289062 161.089844 166.351562 161.074219 166.414062 161.050781 L 170.210938 159.421875 C 170.40625 159.339844 170.503906 159.191406 170.503906 158.980469 L 170.503906 151.65625 C 170.5 151.308594 170.550781 150.972656 170.652344 150.640625 C 170.753906 150.308594 170.898438 150 171.09375 149.714844 C 171.289062 149.429688 171.519531 149.175781 171.789062 148.960938 C 172.058594 148.746094 172.355469 148.574219 172.675781 148.445312 L 176.632812 146.863281 C 177.28125 146.601562 177.945312 146.546875 178.628906 146.691406 L 185.242188 148.082031 C 185.257812 148.085938 185.269531 148.085938 185.285156 148.089844 L 190.15625 148.699219 C 190.34375 148.722656 190.496094 148.652344 190.605469 148.496094 L 191.234375 147.597656 C 191.382812 147.390625 191.550781 147.199219 191.738281 147.027344 C 191.925781 146.855469 192.132812 146.707031 192.355469 146.578125 C 192.574219 146.453125 192.808594 146.351562 193.050781 146.277344 C 193.296875 146.203125 193.546875 146.15625 193.800781 146.132812 C 194.054688 146.113281 194.308594 146.125 194.5625 146.160156 C 194.816406 146.195312 195.058594 146.257812 195.300781 146.351562 C 195.539062 146.441406 195.761719 146.558594 195.976562 146.699219 C 196.1875 146.839844 196.382812 147 196.5625 147.183594 L 204.019531 154.9375 C 204.09375 155.015625 204.183594 155.0625 204.292969 155.078125 L 208.035156 155.65625 C 208.128906 155.667969 208.21875 155.65625 208.304688 155.617188 L 211.15625 154.320312 C 211.617188 154.113281 212.101562 154.007812 212.609375 154.011719 C 213.117188 154.015625 213.601562 154.125 214.058594 154.34375 L 219.539062 156.921875 C 219.574219 156.9375 219.609375 156.949219 219.644531 156.957031 L 226.339844 158.363281 L 231.234375 156.964844 L 236.152344 154.671875 C 236.605469 154.460938 237.082031 154.367188 237.585938 154.402344 C 238.085938 154.433594 238.546875 154.582031 238.972656 154.851562 L 245.425781 158.925781 L 252.054688 161.136719 L 259.035156 162.460938 L 260.804688 159.808594 C 261.011719 159.5 261.265625 159.242188 261.570312 159.03125 C 261.875 158.820312 262.203125 158.671875 262.5625 158.582031 C 262.921875 158.496094 263.285156 158.476562 263.652344 158.523438 C 264.019531 158.574219 264.367188 158.6875 264.691406 158.863281 L 266.632812 159.945312 L 270.648438 159.941406 L 272.203125 156.574219 C 272.421875 156.105469 272.738281 155.722656 273.15625 155.417969 C 273.574219 155.117188 274.042969 154.9375 274.554688 154.878906 L 276.082031 154.710938 C 276.402344 154.675781 276.71875 154.691406 277.035156 154.761719 C 277.347656 154.828125 277.644531 154.949219 277.921875 155.113281 C 278.195312 155.277344 278.441406 155.484375 278.648438 155.730469 C 278.859375 155.972656 279.023438 156.246094 279.144531 156.542969 L 279.941406 158.535156 L 283.875 159.058594 L 284.515625 158.03125 C 284.722656 157.703125 284.984375 157.425781 285.300781 157.203125 C 285.613281 156.976562 285.960938 156.820312 286.335938 156.730469 C 286.714844 156.640625 287.09375 156.625 287.476562 156.683594 C 287.859375 156.742188 288.214844 156.875 288.546875 157.074219 L 297.34375 162.410156 C 297.78125 162.679688 298.128906 163.039062 298.378906 163.484375 C 298.632812 163.933594 298.757812 164.414062 298.761719 164.929688 L 298.761719 180.039062 L 301.726562 181.523438 C 302.230469 181.769531 302.625 182.132812 302.921875 182.609375 C 303.214844 183.082031 303.359375 183.601562 303.359375 184.160156 L 303.359375 189.085938 L 305.011719 190.5 C 305.699219 191.089844 306.039062 191.832031 306.039062 192.738281 L 306.039062 194.679688 C 306.039062 195.289062 305.867188 195.84375 305.519531 196.347656 L 301.886719 201.636719 L 302.035156 202.832031 L 307.601562 202.832031 C 308.132812 202.832031 308.628906 202.964844 309.085938 203.234375 L 373.273438 240.527344 C 373.554688 240.691406 373.800781 240.894531 374.015625 241.136719 C 374.226562 241.382812 374.394531 241.65625 374.519531 241.953125 C 374.640625 242.253906 374.714844 242.566406 374.734375 242.890625 C 374.753906 243.210938 374.722656 243.53125 374.640625 243.84375 C 374.554688 244.15625 374.421875 244.449219 374.242188 244.71875 C 374.0625 244.984375 373.84375 245.21875 373.585938 245.417969 C 373.328125 245.613281 373.046875 245.765625 372.738281 245.867188 C 372.429688 245.972656 372.117188 246.023438 371.792969 246.023438 L 368.714844 246.023438 C 368.117188 246.023438 367.574219 245.859375 367.078125 245.53125 L 364.164062 243.585938 L 363.851562 243.664062 L 363.664062 249.386719 C 363.65625 249.699219 363.597656 250.003906 363.492188 250.300781 C 363.386719 250.59375 363.234375 250.863281 363.042969 251.113281 C 362.847656 251.359375 362.621094 251.570312 362.359375 251.742188 C 362.101562 251.917969 361.820312 252.046875 361.515625 252.128906 L 354.644531 254.0625 L 351.988281 256.105469 C 351.40625 256.554688 350.75 256.757812 350.015625 256.710938 L 333.492188 255.726562 L 300.105469 255.726562 L 286.5625 261.144531 L 248.839844 294.300781 C 248.636719 294.480469 248.410156 294.625 248.160156 294.734375 L 241.65625 297.625 C 241.3125 297.777344 240.953125 297.855469 240.578125 297.851562 L 232.515625 297.851562 L 229.785156 299.324219 C 229.394531 299.535156 228.972656 299.640625 228.527344 299.640625 L 227.242188 299.640625 C 226.738281 299.640625 226.273438 299.511719 225.84375 299.246094 C 225.417969 298.980469 225.089844 298.625 224.867188 298.171875 L 224.425781 297.292969 L 221.25 297.960938 L 219.867188 299.804688 L 221.886719 303.441406 C 221.984375 303.613281 222.058594 303.792969 222.113281 303.980469 L 222.773438 306.226562 L 224.953125 304.730469 L 225.699219 303.683594 C 226.011719 303.246094 226.421875 302.933594 226.925781 302.742188 C 227.429688 302.550781 227.945312 302.519531 228.46875 302.640625 C 228.996094 302.765625 229.441406 303.023438 229.808594 303.417969 C 230.175781 303.8125 230.402344 304.277344 230.484375 304.808594 L 231.007812 308.074219 C 231.085938 308.542969 231.035156 309.003906 230.863281 309.449219 L 229.792969 312.238281 L 229.578125 319.132812 C 229.570312 319.480469 229.496094 319.808594 229.355469 320.128906 C 229.21875 320.445312 229.023438 320.722656 228.777344 320.960938 C 228.527344 321.203125 228.242188 321.386719 227.921875 321.515625 C 227.601562 321.644531 227.269531 321.710938 226.921875 321.707031 Z M 225.832031 318.730469 L 226.609375 318.730469 L 226.8125 312.089844 C 226.824219 311.789062 226.882812 311.5 226.988281 311.21875 L 228.050781 308.460938 L 227.667969 306.054688 L 227.34375 306.507812 C 227.160156 306.761719 226.941406 306.976562 226.6875 307.152344 L 224.09375 308.933594 C 223.921875 309.054688 223.738281 309.152344 223.542969 309.226562 C 223.347656 309.300781 223.144531 309.351562 222.9375 309.378906 C 222.726562 309.40625 222.519531 309.410156 222.3125 309.386719 C 222.101562 309.367188 221.898438 309.320312 221.699219 309.25 C 221.503906 309.179688 221.316406 309.085938 221.140625 308.972656 C 220.964844 308.859375 220.804688 308.722656 220.660156 308.570312 C 220.515625 308.417969 220.390625 308.253906 220.285156 308.070312 C 220.183594 307.886719 220.101562 307.695312 220.039062 307.496094 L 219.265625 304.859375 L 217.160156 301.066406 C 216.90625 300.609375 216.796875 300.121094 216.832031 299.597656 C 216.867188 299.074219 217.042969 298.601562 217.355469 298.183594 L 218.9375 296.078125 C 219.335938 295.542969 219.863281 295.207031 220.515625 295.070312 L 224.058594 294.328125 C 224.34375 294.265625 224.632812 294.253906 224.925781 294.289062 C 225.21875 294.324219 225.496094 294.40625 225.761719 294.535156 C 226.023438 294.660156 226.261719 294.828125 226.46875 295.035156 C 226.679688 295.242188 226.851562 295.476562 226.980469 295.738281 L 227.445312 296.660156 L 228.445312 296.660156 L 231.175781 295.191406 C 231.570312 294.980469 231.988281 294.875 232.4375 294.875 L 240.507812 294.875 L 246.910156 292.03125 L 284.605469 258.902344 C 284.859375 258.675781 285.144531 258.503906 285.457031 258.378906 L 299.011719 252.957031 C 299.363281 252.816406 299.726562 252.746094 300.105469 252.746094 L 333.496094 252.746094 C 333.554688 252.746094 333.613281 252.75 333.671875 252.753906 L 350.183594 253.738281 L 352.839844 251.695312 C 353.140625 251.464844 353.472656 251.296875 353.839844 251.195312 L 360.691406 249.269531 L 360.875 243.546875 C 360.886719 243.226562 360.945312 242.914062 361.058594 242.613281 C 361.171875 242.316406 361.328125 242.039062 361.527344 241.789062 C 361.730469 241.542969 361.964844 241.332031 362.234375 241.15625 C 362.503906 240.984375 362.796875 240.859375 363.105469 240.78125 L 363.453125 240.691406 C 364.296875 240.484375 365.082031 240.617188 365.804688 241.101562 L 368.730469 243.050781 L 371.679688 243.046875 L 307.585938 205.808594 L 302.003906 205.8125 C 301.644531 205.8125 301.296875 205.746094 300.960938 205.621094 C 300.625 205.492188 300.324219 205.3125 300.054688 205.074219 C 299.785156 204.835938 299.566406 204.558594 299.398438 204.242188 C 299.230469 203.921875 299.125 203.585938 299.078125 203.230469 L 298.925781 201.996094 C 298.832031 201.253906 298.996094 200.574219 299.421875 199.960938 L 303.066406 194.660156 L 303.058594 192.753906 L 301.40625 191.335938 C 300.71875 190.75 300.378906 190.003906 300.378906 189.097656 L 300.378906 184.179688 L 297.410156 182.695312 C 296.910156 182.449219 296.511719 182.085938 296.21875 181.609375 C 295.925781 181.136719 295.78125 180.617188 295.78125 180.058594 L 295.78125 164.949219 L 287.027344 159.636719 L 286.390625 160.65625 C 286.082031 161.144531 285.667969 161.511719 285.144531 161.757812 C 284.621094 162.003906 284.074219 162.089844 283.5 162.015625 L 279.53125 161.484375 C 279.003906 161.414062 278.527344 161.214844 278.109375 160.890625 C 277.6875 160.5625 277.378906 160.152344 277.183594 159.660156 L 276.386719 157.671875 L 274.902344 157.839844 L 273.347656 161.207031 C 273.105469 161.726562 272.742188 162.144531 272.257812 162.453125 C 271.773438 162.761719 271.242188 162.917969 270.667969 162.917969 L 266.613281 162.917969 C 266.105469 162.917969 265.628906 162.792969 265.183594 162.546875 L 263.265625 161.484375 L 261.5 164.132812 C 261.171875 164.625 260.734375 164.984375 260.1875 165.214844 C 259.640625 165.445312 259.078125 165.503906 258.496094 165.390625 L 251.496094 164.058594 C 251.367188 164.035156 251.238281 164 251.113281 163.960938 L 244.480469 161.75 C 244.253906 161.675781 244.039062 161.574219 243.835938 161.445312 L 237.394531 157.378906 L 232.492188 159.667969 C 232.351562 159.734375 232.203125 159.785156 232.054688 159.828125 L 226.804688 161.328125 C 226.566406 161.398438 226.328125 161.40625 226.085938 161.355469 L 219.03125 159.871094 C 218.769531 159.816406 218.515625 159.730469 218.273438 159.617188 L 212.792969 157.039062 C 212.65625 156.972656 212.523438 156.972656 212.390625 157.035156 L 209.539062 158.332031 C 208.914062 158.613281 208.261719 158.703125 207.582031 158.601562 L 203.839844 158.023438 C 203.070312 157.902344 202.414062 157.5625 201.871094 157.003906 L 194.414062 149.25 C 194.308594 149.140625 194.183594 149.09375 194.03125 149.105469 C 193.882812 149.117188 193.765625 149.183594 193.679688 149.308594 L 193.046875 150.207031 C 192.683594 150.730469 192.207031 151.125 191.621094 151.382812 C 191.035156 151.644531 190.421875 151.734375 189.785156 151.652344 L 184.914062 151.046875 C 184.820312 151.035156 184.726562 151.019531 184.632812 150.996094 L 178.015625 149.605469 C 177.921875 149.585938 177.828125 149.59375 177.738281 149.628906 L 173.785156 151.210938 C 173.582031 151.292969 173.480469 151.4375 173.484375 151.65625 L 173.484375 158.984375 C 173.484375 159.675781 173.292969 160.308594 172.910156 160.886719 C 172.53125 161.464844 172.023438 161.886719 171.386719 162.160156 L 167.585938 163.789062 C 167.152344 163.976562 166.699219 164.070312 166.226562 164.066406 L 162.3125 164.066406 C 161.535156 164.066406 160.835938 163.832031 160.21875 163.359375 L 153.007812 157.867188 C 152.648438 157.597656 152.355469 157.265625 152.125 156.878906 L 146.488281 147.371094 L 140.21875 145.492188 C 139.339844 145.222656 138.628906 144.71875 138.09375 143.96875 L 133.269531 137.214844 C 133.152344 137.054688 133.003906 136.9375 132.820312 136.859375 L 126.925781 134.332031 C 126.292969 134.058594 125.765625 133.652344 125.339844 133.113281 L 120.890625 127.453125 C 120.675781 127.179688 120.398438 127.046875 120.054688 127.046875 L 116.1875 127.046875 C 115.921875 127.046875 115.65625 127.019531 115.398438 126.96875 C 115.136719 126.917969 114.882812 126.839844 114.640625 126.738281 C 114.394531 126.636719 114.160156 126.511719 113.941406 126.363281 C 113.71875 126.214844 113.515625 126.050781 113.328125 125.863281 C 113.140625 125.671875 112.972656 125.46875 112.824219 125.25 C 112.675781 125.027344 112.550781 124.796875 112.449219 124.550781 C 112.347656 124.304688 112.273438 124.050781 112.21875 123.792969 C 112.167969 123.53125 112.140625 123.269531 112.140625 123.003906 L 112.140625 118.207031 C 112.140625 117.976562 112.074219 117.769531 111.941406 117.582031 C 111.808594 117.398438 111.632812 117.269531 111.414062 117.195312 L 105.714844 115.296875 C 105.308594 115.164062 104.9375 114.96875 104.597656 114.71875 C 104.253906 114.46875 103.957031 114.171875 103.710938 113.824219 C 103.460938 113.480469 103.273438 113.109375 103.144531 112.703125 C 103.011719 112.300781 102.949219 111.886719 102.949219 111.460938 L 102.949219 96.402344 C 102.949219 95.988281 102.769531 95.679688 102.410156 95.476562 L 97.136719 92.464844 C 96.972656 92.371094 96.796875 92.324219 96.609375 92.324219 L 92.71875 92.324219 C 92.148438 92.324219 91.601562 92.207031 91.078125 91.976562 L 82.964844 88.371094 C 82.347656 88.09375 81.828125 87.691406 81.414062 87.160156 L 80.59375 86.105469 C 80.484375 85.964844 80.347656 85.859375 80.1875 85.785156 C 80.023438 85.714844 79.851562 85.683594 79.675781 85.699219 C 79.496094 85.710938 79.332031 85.765625 79.183594 85.863281 C 79.03125 85.957031 78.914062 86.085938 78.828125 86.238281 L 75.207031 92.703125 C 75.054688 92.976562 74.871094 93.230469 74.660156 93.460938 C 74.449219 93.6875 74.214844 93.894531 73.957031 94.070312 C 73.699219 94.246094 73.425781 94.390625 73.132812 94.5 C 72.839844 94.613281 72.539062 94.691406 72.230469 94.734375 C 71.921875 94.777344 71.613281 94.785156 71.300781 94.753906 C 70.988281 94.726562 70.6875 94.660156 70.390625 94.5625 C 70.09375 94.460938 69.8125 94.332031 69.546875 94.164062 C 69.28125 94 69.039062 93.808594 68.816406 93.589844 L 66.945312 91.714844 C 66.585938 91.359375 66.308594 90.949219 66.101562 90.484375 L 60.894531 78.648438 C 60.664062 78.132812 60.550781 77.589844 60.550781 77.019531 L 60.550781 75.515625 C 60.550781 75.375 60.523438 75.238281 60.46875 75.109375 C 60.414062 74.976562 60.339844 74.863281 60.238281 74.765625 C 60.140625 74.664062 60.023438 74.585938 59.894531 74.53125 C 59.761719 74.480469 59.628906 74.453125 59.488281 74.453125 C 59.222656 74.453125 58.957031 74.425781 58.699219 74.375 C 58.4375 74.320312 58.183594 74.246094 57.941406 74.144531 C 57.695312 74.042969 57.460938 73.917969 57.242188 73.769531 C 57.019531 73.621094 56.816406 73.453125 56.628906 73.265625 C 56.441406 73.078125 56.273438 72.875 56.125 72.652344 C 55.976562 72.433594 55.851562 72.199219 55.75 71.957031 C 55.648438 71.710938 55.574219 71.457031 55.519531 71.199219 C 55.46875 70.9375 55.441406 70.675781 55.441406 70.410156 L 55.441406 65.226562 C 55.441406 64.964844 55.355469 64.734375 55.183594 64.535156 L 52.480469 61.390625 C 52.269531 61.144531 52 61.023438 51.671875 61.023438 L 33.582031 61.023438 C 33.371094 61.023438 33.175781 61.078125 33 61.195312 C 32.820312 61.3125 32.691406 61.46875 32.605469 61.664062 L 31.890625 63.324219 C 31.734375 63.6875 31.53125 64.019531 31.277344 64.324219 C 31.023438 64.628906 30.730469 64.886719 30.402344 65.105469 C 30.070312 65.320312 29.71875 65.488281 29.339844 65.601562 C 28.960938 65.714844 28.574219 65.769531 28.175781 65.769531 L 24.917969 65.769531 C 24.203125 65.769531 23.535156 65.59375 22.914062 65.238281 L 13.363281 59.78125 C 13.199219 59.691406 13.023438 59.644531 12.835938 59.644531 L 7.160156 59.644531 C 6.316406 59.644531 5.546875 59.402344 4.855469 58.917969 L 3.054688 57.667969 L 6.808594 262.757812 L 10.902344 263.730469 C 11.214844 263.808594 11.496094 263.945312 11.746094 264.144531 L 24.007812 273.898438 C 24.304688 274.132812 24.527344 274.429688 24.667969 274.785156 L 26.269531 278.789062 L 31.792969 278.789062 L 31.160156 278.109375 C 31.046875 277.988281 30.945312 277.855469 30.863281 277.710938 C 30.78125 277.566406 30.714844 277.414062 30.667969 277.253906 C 30.621094 277.097656 30.589844 276.933594 30.582031 276.769531 C 30.570312 276.601562 30.578125 276.4375 30.605469 276.273438 C 30.632812 276.109375 30.679688 275.953125 30.746094 275.800781 C 30.808594 275.644531 30.890625 275.503906 30.984375 275.367188 C 31.082031 275.234375 31.195312 275.109375 31.320312 275.003906 C 31.445312 274.894531 31.582031 274.800781 31.726562 274.722656 L 35.160156 272.90625 C 35.445312 272.753906 35.75 272.671875 36.074219 272.65625 L 46.816406 272.167969 C 47.550781 272.136719 48.144531 272.40625 48.605469 272.976562 L 54.074219 279.8125 L 56.933594 279.8125 L 58.804688 277.191406 C 59.039062 276.863281 59.339844 276.621094 59.707031 276.460938 C 60.074219 276.300781 60.460938 276.25 60.855469 276.304688 L 65.902344 276.992188 C 66.269531 277.042969 66.601562 277.179688 66.902344 277.402344 L 84.523438 290.550781 L 91.90625 290.78125 C 92.59375 290.800781 93.144531 291.085938 93.5625 291.632812 L 98.464844 298.097656 L 105.367188 297.238281 C 105.78125 297.1875 106.171875 297.25 106.546875 297.421875 C 106.921875 297.597656 107.222656 297.859375 107.449219 298.203125 L 110.222656 302.464844 L 111.738281 302.84375 L 116.84375 295.742188 C 117.222656 295.214844 117.738281 294.917969 118.386719 294.851562 L 122.441406 294.445312 L 129.292969 282.875 C 129.664062 282.253906 130.207031 281.902344 130.929688 281.828125 L 137.460938 281.152344 L 144.03125 274.355469 C 144.582031 273.785156 145.253906 273.453125 146.042969 273.363281 L 151.851562 272.691406 L 156.164062 271.105469 L 158 268.902344 L 157.773438 267.859375 L 156.265625 268.554688 C 156.082031 268.636719 155.890625 268.703125 155.695312 268.742188 L 150.132812 269.902344 C 149.605469 270.011719 149.082031 269.992188 148.5625 269.847656 L 145.484375 268.996094 C 145.15625 268.902344 144.847656 268.765625 144.558594 268.578125 C 144.269531 268.390625 144.019531 268.164062 143.800781 267.898438 C 143.582031 267.632812 143.410156 267.339844 143.285156 267.023438 C 143.15625 266.703125 143.082031 266.375 143.054688 266.03125 C 143.03125 265.691406 143.058594 265.351562 143.136719 265.019531 C 143.214844 264.6875 143.34375 264.371094 143.519531 264.078125 C 143.695312 263.785156 143.910156 263.523438 144.167969 263.296875 C 144.425781 263.066406 144.710938 262.886719 145.023438 262.746094 L 152.820312 259.28125 C 152.898438 259.246094 152.976562 259.214844 153.058594 259.1875 L 160.101562 256.84375 L 161.988281 253.257812 C 162.25 252.757812 162.636719 252.378906 163.144531 252.121094 C 163.648438 251.867188 164.183594 251.785156 164.742188 251.871094 L 169.78125 252.644531 C 170.316406 252.726562 170.785156 252.949219 171.183594 253.320312 C 171.582031 253.6875 171.839844 254.132812 171.960938 254.664062 L 172.710938 257.84375 L 176.621094 261.96875 C 176.914062 262.28125 177.121094 262.640625 177.242188 263.050781 C 177.363281 263.460938 177.382812 263.875 177.304688 264.292969 L 176.453125 268.75 C 176.363281 269.234375 176.152344 269.660156 175.824219 270.023438 L 167.816406 278.972656 C 167.492188 279.332031 167.101562 279.585938 166.640625 279.730469 C 166.179688 279.878906 165.714844 279.898438 165.242188 279.789062 L 161.636719 278.964844 L 166.359375 284.121094 L 170.230469 283.9375 L 171.910156 281.136719 C 172.226562 280.609375 172.671875 280.238281 173.242188 280.019531 L 177.3125 278.472656 L 177.488281 274.253906 C 177.5 273.953125 177.5625 273.660156 177.671875 273.382812 C 177.78125 273.101562 177.9375 272.847656 178.132812 272.621094 C 178.332031 272.394531 178.558594 272.203125 178.820312 272.054688 C 179.082031 271.90625 179.363281 271.804688 179.660156 271.75 L 185.398438 270.6875 C 185.765625 270.621094 186.132812 270.628906 186.496094 270.714844 L 191.046875 271.800781 C 191.457031 271.898438 191.824219 272.082031 192.144531 272.355469 C 192.46875 272.628906 192.710938 272.960938 192.878906 273.347656 L 195.046875 278.476562 C 195.175781 278.78125 195.246094 279.09375 195.257812 279.421875 C 195.269531 279.75 195.222656 280.066406 195.113281 280.378906 C 195.007812 280.6875 194.847656 280.96875 194.636719 281.21875 C 194.425781 281.46875 194.179688 281.675781 193.890625 281.835938 L 190.367188 283.789062 L 188.191406 285.8125 L 189.25 286.660156 C 189.472656 286.835938 189.660156 287.039062 189.8125 287.277344 L 194.097656 293.8125 L 197.398438 293.648438 L 197.796875 292.648438 C 197.984375 292.179688 198.277344 291.796875 198.683594 291.5 C 199.085938 291.199219 199.542969 291.03125 200.042969 290.988281 L 201.886719 290.835938 C 202.648438 290.773438 203.316406 290.996094 203.886719 291.507812 L 204.648438 292.195312 C 204.804688 292.335938 204.941406 292.492188 205.058594 292.664062 C 205.175781 292.832031 205.273438 293.015625 205.347656 293.210938 C 205.425781 293.40625 205.476562 293.605469 205.503906 293.8125 C 205.53125 294.019531 205.535156 294.226562 205.515625 294.433594 C 205.496094 294.640625 205.449219 294.84375 205.382812 295.039062 C 205.3125 295.234375 205.222656 295.421875 205.113281 295.597656 C 205 295.773438 204.871094 295.933594 204.71875 296.078125 C 204.570312 296.222656 204.40625 296.347656 204.226562 296.457031 L 207.175781 299.898438 C 207.628906 300.425781 207.84375 301.035156 207.816406 301.730469 L 207.671875 305.296875 L 208.699219 304.859375 L 210.335938 302.609375 C 210.589844 302.261719 210.910156 301.992188 211.296875 301.796875 L 213.226562 300.832031 C 213.503906 300.691406 213.800781 300.601562 214.113281 300.566406 C 214.425781 300.53125 214.734375 300.550781 215.039062 300.625 C 215.34375 300.699219 215.625 300.820312 215.886719 300.996094 C 216.148438 301.171875 216.371094 301.382812 216.554688 301.636719 L 218.6875 304.546875 C 218.832031 304.742188 218.945312 304.953125 219.03125 305.179688 L 221.226562 311.035156 Z M 10.210938 266.628906 Z M 154.03125 262.003906 L 154.027344 262.003906 Z M 154.03125 262.003906 " fill-opacity="1" fill-rule="nonzero"/></g></svg>