<svg xmlns="http://www.w3.org/2000/svg" xmlns:xlink="http://www.w3.org/1999/xlink" width="500" zoomAndPan="magnify" viewBox="0 0 375 374.999991" height="500" preserveAspectRatio="xMidYMid meet" version="1.0"><defs><clipPath id="6dcf546e28"><path d="M 59.53125 0 L 315.28125 0 L 315.28125 375 L 59.53125 375 Z M 59.53125 0 " clip-rule="nonzero"/></clipPath></defs><g clip-path="url(#6dcf546e28)"><path fill="#231f20" d="M 147.828125 374.976562 L 126.800781 374.976562 C 126.179688 374.976562 125.605469 374.8125 125.078125 374.480469 L 112.207031 366.398438 L 107.019531 367.230469 C 106.683594 367.285156 106.347656 367.285156 106.011719 367.234375 C 105.679688 367.183594 105.359375 367.082031 105.054688 366.929688 C 104.753906 366.777344 104.480469 366.582031 104.238281 366.34375 C 103.996094 366.109375 103.792969 365.839844 103.636719 365.539062 L 99 356.75 C 98.75 356.273438 98.625 355.769531 98.625 355.230469 L 98.625 352.433594 C 98.625 351.589844 98.910156 350.855469 99.480469 350.234375 L 107.835938 341.132812 L 107.835938 324.507812 L 92.941406 290.96875 C 92.753906 290.550781 92.664062 290.109375 92.664062 289.648438 L 92.664062 282.511719 L 84.496094 265.65625 L 80.0625 263.214844 C 79.304688 262.800781 78.792969 262.179688 78.535156 261.351562 L 73.308594 244.878906 L 68.308594 235.351562 C 68.203125 235.144531 68.117188 234.933594 68.054688 234.707031 C 67.992188 234.484375 67.957031 234.257812 67.941406 234.027344 C 67.929688 233.796875 67.941406 233.566406 67.976562 233.335938 C 68.011719 233.109375 68.074219 232.886719 68.15625 232.667969 C 68.242188 232.453125 68.347656 232.25 68.472656 232.054688 C 68.601562 231.863281 68.746094 231.683594 68.910156 231.523438 C 69.078125 231.359375 69.257812 231.21875 69.453125 231.09375 C 69.648438 230.96875 69.855469 230.871094 70.074219 230.789062 L 70.664062 230.574219 L 71.050781 228.117188 C 71.089844 227.871094 71.15625 227.632812 71.25 227.402344 C 71.34375 227.171875 71.460938 226.953125 71.605469 226.75 C 71.75 226.546875 71.914062 226.363281 72.101562 226.195312 C 72.285156 226.03125 72.488281 225.890625 72.707031 225.769531 C 72.925781 225.652344 73.15625 225.558594 73.394531 225.492188 C 73.636719 225.425781 73.878906 225.386719 74.128906 225.378906 C 74.375 225.367188 74.621094 225.386719 74.867188 225.433594 C 75.113281 225.480469 75.347656 225.554688 75.574219 225.65625 L 75.835938 225.773438 L 75.386719 220.496094 L 65.5 208.578125 C 65.003906 207.976562 64.753906 207.285156 64.753906 206.503906 L 64.753906 202.433594 L 60.875 198.960938 C 60.382812 198.523438 60.054688 197.984375 59.894531 197.34375 C 59.730469 196.703125 59.761719 196.074219 59.984375 195.453125 L 65.21875 180.730469 L 61.621094 163.230469 C 61.476562 162.542969 61.550781 161.878906 61.839844 161.242188 L 65.367188 153.386719 C 65.644531 152.777344 66.066406 152.300781 66.636719 151.949219 C 67.207031 151.601562 67.824219 151.445312 68.492188 151.480469 C 69.160156 151.511719 69.757812 151.730469 70.292969 152.136719 C 70.824219 152.539062 71.195312 153.058594 71.40625 153.695312 L 73.203125 159.09375 L 74.714844 155.640625 L 74.351562 153.097656 C 74.269531 152.515625 74.339844 151.953125 74.5625 151.410156 C 74.78125 150.867188 75.128906 150.414062 75.59375 150.058594 L 110.417969 123.390625 C 111.207031 122.789062 112.085938 122.589844 113.054688 122.792969 L 123.269531 124.933594 L 131.742188 118.632812 C 132.214844 118.28125 132.746094 118.074219 133.328125 118.011719 L 141.976562 117.074219 L 144.4375 112.769531 C 144.929688 111.90625 145.664062 111.378906 146.636719 111.191406 L 170.875 106.496094 L 177.90625 101.46875 L 183.21875 95.648438 L 188.894531 83 C 189.175781 82.371094 189.613281 81.878906 190.207031 81.53125 L 197.386719 77.304688 C 196.003906 74.359375 193.867188 68.523438 195.644531 63.421875 C 196.613281 60.648438 198.554688 58.5 201.425781 57.027344 L 201.226562 55.34375 C 201.199219 55.105469 201.199219 54.863281 201.222656 54.625 C 201.25 54.382812 201.300781 54.148438 201.378906 53.921875 C 201.457031 53.691406 201.558594 53.472656 201.683594 53.269531 C 201.8125 53.0625 201.957031 52.871094 202.125 52.699219 C 202.296875 52.527344 202.480469 52.375 202.683594 52.242188 C 202.886719 52.109375 203.101562 52.003906 203.328125 51.917969 C 203.554688 51.835938 203.785156 51.777344 204.023438 51.746094 C 204.265625 51.714844 204.503906 51.707031 204.746094 51.730469 L 205.195312 51.773438 L 208.390625 47.726562 C 208.753906 47.269531 209.207031 46.933594 209.75 46.722656 C 210.292969 46.507812 210.851562 46.445312 211.429688 46.535156 C 212.007812 46.625 212.523438 46.851562 212.976562 47.21875 C 213.429688 47.585938 213.761719 48.042969 213.96875 48.589844 L 215.375 52.28125 L 219.160156 59.292969 C 219.222656 58.957031 219.332031 58.640625 219.496094 58.339844 C 219.65625 58.039062 219.859375 57.769531 220.105469 57.535156 C 220.351562 57.296875 220.628906 57.105469 220.933594 56.957031 C 221.242188 56.804688 221.5625 56.707031 221.902344 56.660156 L 220.554688 55.144531 C 220.03125 54.554688 219.757812 53.867188 219.734375 53.078125 L 219.523438 45.6875 C 219.519531 45.421875 219.542969 45.160156 219.597656 44.902344 C 219.65625 44.640625 219.742188 44.390625 219.863281 44.152344 C 219.980469 43.917969 220.125 43.695312 220.296875 43.492188 C 220.46875 43.289062 220.664062 43.113281 220.878906 42.957031 C 221.09375 42.800781 221.324219 42.675781 221.570312 42.578125 C 221.820312 42.480469 222.074219 42.414062 222.335938 42.378906 C 222.601562 42.34375 222.863281 42.339844 223.128906 42.367188 C 223.390625 42.398438 223.648438 42.460938 223.898438 42.550781 L 233.605469 46.15625 C 233.4375 45.660156 233.386719 45.152344 233.464844 44.632812 C 233.539062 44.113281 233.726562 43.640625 234.03125 43.210938 L 236.765625 39.382812 C 236.519531 39.425781 236.273438 39.445312 236.027344 39.433594 C 235.777344 39.421875 235.535156 39.382812 235.296875 39.316406 C 235.058594 39.25 234.828125 39.15625 234.613281 39.035156 C 234.394531 38.917969 234.195312 38.773438 234.007812 38.609375 C 233.824219 38.441406 233.660156 38.257812 233.515625 38.054688 C 233.375 37.851562 233.257812 37.636719 233.164062 37.40625 C 233.070312 37.175781 233.003906 36.9375 232.964844 36.695312 C 232.925781 36.449219 232.914062 36.203125 232.929688 35.953125 L 233.449219 28.679688 C 233.46875 28.410156 233.519531 28.152344 233.605469 27.898438 C 233.6875 27.644531 233.800781 27.40625 233.941406 27.179688 C 234.085938 26.953125 234.25 26.75 234.445312 26.5625 C 234.636719 26.378906 234.847656 26.222656 235.082031 26.089844 C 235.3125 25.957031 235.558594 25.855469 235.8125 25.78125 C 236.070312 25.710938 236.332031 25.671875 236.597656 25.664062 C 236.867188 25.65625 237.128906 25.683594 237.390625 25.738281 C 237.648438 25.796875 237.898438 25.886719 238.136719 26.003906 L 242.074219 27.976562 C 241.886719 27.519531 241.808594 27.046875 241.835938 26.554688 C 241.863281 25.976562 242.03125 25.445312 242.347656 24.957031 C 242.660156 24.472656 243.078125 24.097656 243.59375 23.835938 L 243.59375 23.640625 C 243.59375 23.417969 243.617188 23.195312 243.660156 22.980469 C 243.707031 22.761719 243.773438 22.550781 243.863281 22.34375 C 243.953125 22.140625 244.0625 21.945312 244.191406 21.765625 C 244.320312 21.582031 244.464844 21.414062 244.628906 21.261719 C 244.792969 21.109375 244.96875 20.976562 245.160156 20.863281 C 245.351562 20.746094 245.550781 20.652344 245.761719 20.578125 C 245.972656 20.503906 246.1875 20.453125 246.40625 20.421875 C 246.628906 20.390625 246.851562 20.382812 247.074219 20.402344 L 247.003906 20.3125 C 246.839844 20.101562 246.703125 19.871094 246.59375 19.621094 C 246.484375 19.375 246.410156 19.117188 246.367188 18.851562 C 246.320312 18.585938 246.3125 18.316406 246.332031 18.046875 C 246.355469 17.777344 246.410156 17.515625 246.5 17.261719 C 246.589844 17.003906 246.707031 16.765625 246.855469 16.539062 C 247.003906 16.3125 247.175781 16.109375 247.375 15.925781 C 247.574219 15.742188 247.792969 15.585938 248.03125 15.460938 C 248.269531 15.332031 248.519531 15.234375 248.78125 15.167969 L 259.773438 12.417969 L 260.355469 7.765625 C 260.457031 6.964844 260.804688 6.292969 261.40625 5.753906 L 263.144531 4.1875 C 263.410156 3.949219 263.710938 3.757812 264.042969 3.613281 C 264.375 3.472656 264.71875 3.390625 265.078125 3.363281 C 265.4375 3.335938 265.792969 3.371094 266.140625 3.460938 C 266.488281 3.554688 266.8125 3.699219 267.113281 3.902344 L 270.390625 6.085938 L 272.261719 7.179688 L 275.21875 4.535156 C 275.105469 4.210938 275.046875 3.878906 275.042969 3.539062 C 275.035156 3.195312 275.082031 2.863281 275.183594 2.535156 C 275.28125 2.207031 275.429688 1.90625 275.625 1.625 C 275.820312 1.34375 276.054688 1.101562 276.324219 0.894531 C 276.597656 0.6875 276.894531 0.527344 277.214844 0.414062 C 277.539062 0.300781 277.871094 0.242188 278.210938 0.234375 C 278.554688 0.226562 278.886719 0.269531 279.214844 0.367188 C 279.542969 0.464844 279.847656 0.613281 280.128906 0.804688 L 300.878906 15.109375 C 301.179688 15.324219 301.441406 15.578125 301.65625 15.878906 C 301.875 16.175781 302.035156 16.503906 302.140625 16.859375 C 302.246094 17.214844 302.292969 17.578125 302.273438 17.945312 C 302.257812 18.316406 302.179688 18.671875 302.039062 19.015625 L 299.902344 24.246094 L 303.980469 18.636719 C 304.363281 18.109375 304.859375 17.730469 305.46875 17.503906 C 306.078125 17.273438 306.699219 17.234375 307.332031 17.382812 L 312.734375 18.628906 C 313.101562 18.714844 313.441406 18.859375 313.757812 19.0625 C 314.074219 19.265625 314.347656 19.515625 314.574219 19.816406 C 314.804688 20.113281 314.976562 20.441406 315.09375 20.800781 C 315.207031 21.15625 315.257812 21.523438 315.246094 21.902344 L 305.550781 310.859375 C 305.539062 311.191406 305.476562 311.515625 305.367188 311.832031 C 305.253906 312.144531 305.097656 312.433594 304.898438 312.699219 C 304.699219 312.96875 304.464844 313.199219 304.195312 313.390625 C 303.921875 313.585938 303.628906 313.734375 303.3125 313.839844 L 279.3125 321.667969 C 278.988281 321.777344 278.652344 321.828125 278.308594 321.828125 L 261.589844 321.828125 L 235.625 333.261719 L 228.679688 348.15625 C 228.410156 348.726562 228.011719 349.183594 227.480469 349.519531 C 226.949219 349.859375 226.367188 350.03125 225.738281 350.03125 L 222.3125 350.03125 L 221.117188 351.492188 C 220.875 351.789062 220.589844 352.039062 220.257812 352.234375 C 219.925781 352.429688 219.570312 352.5625 219.191406 352.632812 C 218.8125 352.703125 218.433594 352.703125 218.054688 352.636719 C 217.675781 352.570312 217.320312 352.441406 216.984375 352.25 L 211.851562 349.285156 L 206.410156 352.550781 C 205.894531 352.859375 205.339844 353.015625 204.742188 353.015625 L 200.71875 353.015625 C 200.207031 353.011719 199.722656 352.898438 199.265625 352.671875 L 195.707031 350.890625 L 172.933594 352.960938 L 168.761719 355.425781 L 169.574219 358.402344 C 169.640625 358.644531 169.675781 358.890625 169.6875 359.136719 C 169.695312 359.386719 169.675781 359.636719 169.628906 359.878906 C 169.578125 360.125 169.503906 360.363281 169.402344 360.589844 C 169.300781 360.816406 169.171875 361.03125 169.023438 361.226562 C 168.871094 361.425781 168.699219 361.605469 168.507812 361.765625 C 168.3125 361.921875 168.105469 362.058594 167.882812 362.167969 C 167.65625 362.277344 167.425781 362.363281 167.183594 362.417969 C 166.9375 362.476562 166.691406 362.503906 166.445312 362.503906 L 159.132812 362.503906 L 154.59375 365.808594 L 154.59375 367.933594 C 154.59375 368.367188 154.511719 368.78125 154.347656 369.175781 C 154.183594 369.574219 153.949219 369.925781 153.644531 370.230469 C 153.339844 370.535156 152.988281 370.769531 152.589844 370.933594 C 152.191406 371.101562 151.777344 371.183594 151.347656 371.183594 L 151.070312 371.183594 L 151.070312 371.730469 C 151.070312 372.160156 150.988281 372.574219 150.824219 372.972656 C 150.660156 373.371094 150.425781 373.722656 150.121094 374.027344 C 149.816406 374.332031 149.464844 374.566406 149.070312 374.730469 C 148.671875 374.894531 148.257812 374.976562 147.828125 374.976562 Z M 127.082031 370.761719 L 146.855469 370.761719 L 146.855469 370.210938 C 146.859375 369.78125 146.941406 369.367188 147.105469 368.96875 C 147.269531 368.570312 147.503906 368.21875 147.808594 367.914062 C 148.113281 367.609375 148.464844 367.375 148.859375 367.210938 C 149.257812 367.046875 149.671875 366.964844 150.101562 366.964844 L 150.378906 366.964844 L 150.378906 365.3125 C 150.382812 364.792969 150.5 364.304688 150.734375 363.839844 C 150.96875 363.378906 151.296875 362.992188 151.714844 362.6875 L 156.910156 358.90625 C 157.480469 358.492188 158.113281 358.285156 158.820312 358.285156 L 165.175781 358.285156 L 164.503906 355.824219 C 164.410156 355.480469 164.375 355.128906 164.394531 354.773438 C 164.417969 354.417969 164.496094 354.078125 164.628906 353.746094 C 164.761719 353.417969 164.945312 353.117188 165.175781 352.847656 C 165.40625 352.578125 165.675781 352.355469 165.980469 352.171875 L 170.976562 349.21875 C 171.394531 348.972656 171.847656 348.824219 172.335938 348.78125 L 195.601562 346.664062 C 196.214844 346.609375 196.796875 346.71875 197.347656 346.996094 L 200.945312 348.796875 L 204.472656 348.796875 L 210.171875 345.375 C 210.679688 345.070312 211.226562 344.914062 211.8125 344.910156 C 212.402344 344.90625 212.953125 345.050781 213.464844 345.34375 L 218.378906 348.183594 L 219.34375 347.003906 C 219.648438 346.625 220.023438 346.332031 220.464844 346.125 C 220.902344 345.914062 221.367188 345.8125 221.855469 345.8125 L 225.121094 345.8125 L 231.960938 331.148438 C 232.304688 330.410156 232.847656 329.875 233.59375 329.546875 L 260.078125 317.886719 C 260.496094 317.703125 260.929688 317.609375 261.386719 317.613281 L 278.152344 317.613281 L 301.359375 310.039062 L 311.007812 22.558594 L 307.011719 21.636719 L 301.566406 29.128906 C 301.113281 29.75 300.519531 30.160156 299.777344 30.359375 L 298.316406 30.746094 C 297.71875 30.90625 297.128906 30.894531 296.539062 30.71875 C 295.949219 30.539062 295.449219 30.21875 295.042969 29.753906 C 294.636719 29.292969 294.382812 28.757812 294.28125 28.148438 C 294.179688 27.539062 294.242188 26.949219 294.476562 26.378906 L 297.84375 18.140625 L 279.523438 5.511719 C 279.375 6.199219 279.039062 6.777344 278.511719 7.246094 L 274.546875 10.792969 C 274.292969 11.023438 274.007812 11.207031 273.695312 11.347656 C 273.382812 11.484375 273.054688 11.574219 272.710938 11.609375 C 272.371094 11.640625 272.03125 11.621094 271.695312 11.550781 C 271.363281 11.476562 271.046875 11.351562 270.75 11.179688 L 268.242188 9.714844 C 268.183594 9.683594 268.128906 9.648438 268.074219 9.609375 L 265.402344 7.828125 L 264.496094 8.644531 L 263.875 13.601562 C 263.789062 14.265625 263.523438 14.847656 263.082031 15.347656 C 262.636719 15.851562 262.089844 16.183594 261.441406 16.347656 L 251.246094 18.898438 L 253.933594 22.351562 C 254.09375 22.5625 254.226562 22.785156 254.335938 23.027344 C 254.441406 23.269531 254.519531 23.519531 254.566406 23.777344 C 254.613281 24.039062 254.625 24.300781 254.609375 24.5625 C 254.589844 24.824219 254.542969 25.082031 254.460938 25.335938 C 254.382812 25.585938 254.273438 25.824219 254.132812 26.046875 C 253.996094 26.273438 253.832031 26.476562 253.644531 26.664062 C 253.457031 26.847656 253.25 27.007812 253.023438 27.140625 C 252.796875 27.277344 252.554688 27.382812 252.304688 27.457031 L 251.835938 27.597656 C 251.261719 27.769531 250.6875 27.785156 250.109375 27.636719 C 249.53125 27.492188 249.03125 27.207031 248.609375 26.785156 L 247.554688 25.730469 C 247.414062 26.070312 247.21875 26.378906 246.96875 26.652344 L 248.492188 27.484375 C 248.851562 27.679688 249.160156 27.9375 249.421875 28.25 C 249.683594 28.566406 249.882812 28.917969 250.011719 29.304688 C 250.140625 29.695312 250.195312 30.09375 250.175781 30.503906 C 250.152344 30.910156 250.058594 31.304688 249.890625 31.675781 L 249.460938 32.621094 C 249.28125 33.023438 249.027344 33.371094 248.703125 33.671875 C 248.375 33.96875 248.007812 34.191406 247.589844 34.339844 C 247.175781 34.484375 246.75 34.546875 246.308594 34.519531 C 245.867188 34.492188 245.453125 34.378906 245.058594 34.183594 L 237.554688 30.425781 L 237.277344 34.296875 C 237.882812 34.042969 238.511719 33.976562 239.160156 34.105469 C 239.804688 34.230469 240.363281 34.527344 240.828125 34.996094 L 241.363281 35.53125 C 241.632812 35.804688 241.851562 36.113281 242.011719 36.460938 C 242.175781 36.808594 242.273438 37.175781 242.304688 37.558594 C 242.335938 37.941406 242.300781 38.320312 242.199219 38.691406 C 242.09375 39.0625 241.933594 39.402344 241.707031 39.714844 L 237.984375 44.929688 L 239.324219 46.046875 C 239.617188 46.292969 239.859375 46.582031 240.050781 46.914062 C 240.246094 47.246094 240.375 47.597656 240.441406 47.976562 C 240.507812 48.351562 240.507812 48.730469 240.441406 49.105469 C 240.375 49.484375 240.242188 49.835938 240.050781 50.167969 C 239.859375 50.5 239.617188 50.789062 239.324219 51.035156 C 239.03125 51.277344 238.703125 51.464844 238.34375 51.597656 C 237.984375 51.726562 237.613281 51.789062 237.230469 51.789062 C 236.847656 51.789062 236.476562 51.71875 236.117188 51.585938 L 223.78125 47.007812 L 223.941406 52.605469 L 227.039062 56.097656 C 227.277344 56.363281 227.46875 56.664062 227.605469 56.996094 C 227.746094 57.328125 227.828125 57.671875 227.851562 58.03125 C 227.875 58.386719 227.84375 58.742188 227.75 59.085938 C 227.65625 59.433594 227.511719 59.757812 227.3125 60.054688 C 227.113281 60.355469 226.871094 60.613281 226.585938 60.832031 C 226.300781 61.050781 225.988281 61.214844 225.648438 61.332031 C 225.308594 61.445312 224.960938 61.5 224.601562 61.5 C 224.242188 61.5 223.894531 61.441406 223.554688 61.324219 L 223.238281 61.214844 L 223.128906 62.902344 C 223.105469 63.253906 223.027344 63.59375 222.894531 63.917969 C 222.761719 64.246094 222.582031 64.542969 222.351562 64.808594 C 222.121094 65.078125 221.855469 65.300781 221.554688 65.480469 C 221.25 65.660156 220.929688 65.789062 220.582031 65.863281 C 220.238281 65.941406 219.894531 65.957031 219.542969 65.921875 C 219.191406 65.882812 218.859375 65.789062 218.539062 65.644531 C 218.21875 65.496094 217.929688 65.304688 217.671875 65.0625 C 217.414062 64.820312 217.203125 64.546875 217.035156 64.238281 L 211.636719 54.230469 C 211.570312 54.105469 211.507812 53.976562 211.460938 53.84375 L 210.636719 51.6875 L 208.171875 54.800781 C 207.855469 55.203125 207.46875 55.511719 207.007812 55.726562 C 206.546875 55.945312 206.0625 56.046875 205.554688 56.03125 L 205.691406 57.210938 C 205.734375 57.550781 205.722656 57.890625 205.65625 58.230469 C 205.589844 58.566406 205.472656 58.886719 205.304688 59.1875 C 205.136719 59.488281 204.925781 59.753906 204.671875 59.988281 C 204.417969 60.21875 204.136719 60.40625 203.824219 60.550781 C 201.652344 61.542969 200.277344 62.933594 199.625 64.8125 C 198.160156 69.019531 200.722656 74.597656 201.542969 76.207031 C 201.730469 76.578125 201.84375 76.96875 201.882812 77.378906 C 201.921875 77.792969 201.882812 78.195312 201.765625 78.59375 C 201.652344 78.992188 201.464844 79.351562 201.214844 79.679688 C 200.960938 80.007812 200.65625 80.277344 200.296875 80.484375 L 192.613281 85.007812 L 187 97.515625 C 186.859375 97.832031 186.671875 98.121094 186.4375 98.375 L 180.949219 104.386719 C 180.796875 104.558594 180.625 104.707031 180.441406 104.84375 L 173.152344 110.050781 C 172.769531 110.324219 172.347656 110.507812 171.882812 110.597656 L 147.875 115.246094 L 145.390625 119.597656 C 145.132812 120.050781 144.785156 120.417969 144.351562 120.703125 C 143.917969 120.988281 143.441406 121.160156 142.925781 121.214844 L 134.046875 122.175781 L 125.433594 128.578125 C 124.652344 129.160156 123.785156 129.347656 122.832031 129.148438 L 112.625 127.011719 L 78.605469 153.0625 L 78.925781 155.316406 C 79.015625 155.925781 78.933594 156.511719 78.6875 157.078125 L 76.113281 162.964844 C 75.855469 163.558594 75.457031 164.03125 74.917969 164.382812 C 74.378906 164.738281 73.785156 164.914062 73.140625 164.910156 L 73.089844 164.910156 C 72.433594 164.902344 71.839844 164.710938 71.300781 164.339844 C 70.761719 163.96875 70.371094 163.480469 70.128906 162.871094 L 69.523438 161.359375 C 69.496094 161.292969 69.476562 161.234375 69.457031 161.171875 L 68.195312 157.386719 L 65.8125 162.6875 L 69.402344 180.144531 C 69.527344 180.738281 69.484375 181.320312 69.28125 181.886719 L 64.171875 196.253906 L 67.886719 199.582031 C 68.609375 200.226562 68.96875 201.03125 68.96875 202 L 68.96875 206.152344 L 78.824219 218.039062 C 79.257812 218.558594 79.503906 219.160156 79.558594 219.835938 L 80.179688 227.050781 C 80.203125 227.332031 80.1875 227.613281 80.140625 227.890625 C 80.089844 228.167969 80.007812 228.433594 79.890625 228.691406 C 79.769531 228.945312 79.621094 229.183594 79.441406 229.402344 C 79.261719 229.617188 79.058594 229.808594 78.828125 229.972656 C 78.597656 230.136719 78.351562 230.269531 78.085938 230.367188 C 77.824219 230.464844 77.550781 230.53125 77.269531 230.558594 C 76.988281 230.585938 76.710938 230.578125 76.429688 230.535156 C 76.152344 230.488281 75.882812 230.410156 75.625 230.296875 L 75.019531 230.023438 L 74.738281 231.800781 C 74.644531 232.382812 74.414062 232.902344 74.035156 233.359375 C 73.660156 233.816406 73.195312 234.144531 72.640625 234.34375 L 72.558594 234.375 L 77.082031 242.996094 C 77.167969 243.164062 77.242188 243.335938 77.300781 243.515625 L 82.433594 259.707031 L 86.796875 262.109375 C 87.402344 262.441406 87.855469 262.917969 88.15625 263.535156 L 96.554688 280.875 C 96.769531 281.320312 96.878906 281.792969 96.878906 282.289062 L 96.878906 289.445312 L 111.773438 322.980469 C 111.960938 323.402344 112.054688 323.839844 112.050781 324.300781 L 112.050781 341.511719 C 112.054688 342.355469 111.769531 343.089844 111.199219 343.710938 L 102.839844 352.8125 L 102.839844 354.992188 L 107.039062 362.957031 L 111.898438 362.179688 C 112.703125 362.050781 113.449219 362.199219 114.136719 362.632812 Z M 311.035156 21.757812 Z M 270.414062 6.101562 Z M 270.414062 6.101562 " fill-opacity="1" fill-rule="nonzero"/></g></svg>