<svg xmlns="http://www.w3.org/2000/svg" xmlns:xlink="http://www.w3.org/1999/xlink" width="500" zoomAndPan="magnify" viewBox="0 0 375 374.999991" height="500" preserveAspectRatio="xMidYMid meet" version="1.0"><defs><clipPath id="2055c5d856"><path d="M 257 74 L 368.964844 74 L 368.964844 226 L 257 226 Z M 257 74 " clip-rule="nonzero"/></clipPath><clipPath id="5bd64638b3"><path d="M 308 191 L 356 191 L 356 355.28125 L 308 355.28125 Z M 308 191 " clip-rule="nonzero"/></clipPath><clipPath id="5f5eebf0b7"><path d="M 270 191 L 319 191 L 319 355.28125 L 270 355.28125 Z M 270 191 " clip-rule="nonzero"/></clipPath><clipPath id="f41731b75f"><path d="M 5.964844 340 L 246 340 L 246 351 L 5.964844 351 Z M 5.964844 340 " clip-rule="nonzero"/></clipPath><clipPath id="5b934ab71e"><path d="M 43 20.03125 L 203 20.03125 L 203 329 L 43 329 Z M 43 20.03125 " clip-rule="nonzero"/></clipPath></defs><g clip-path="url(#2055c5d856)"><path fill="#000000" d="M 353.851562 225.476562 L 272.804688 225.476562 C 264.476562 225.476562 257.695312 218.6875 257.695312 210.347656 L 257.695312 89.753906 C 257.695312 81.417969 264.476562 74.628906 272.804688 74.628906 L 353.851562 74.628906 C 362.179688 74.628906 368.964844 81.417969 368.964844 89.753906 L 368.964844 210.261719 C 368.964844 218.6875 362.179688 225.476562 353.851562 225.476562 Z M 272.804688 84.941406 C 270.144531 84.941406 267.996094 87.089844 267.996094 89.753906 L 267.996094 210.261719 C 267.996094 212.925781 270.144531 215.078125 272.804688 215.078125 L 353.851562 215.078125 C 356.515625 215.078125 358.660156 212.925781 358.660156 210.261719 L 358.660156 89.753906 C 358.660156 87.089844 356.515625 84.941406 353.851562 84.941406 Z M 272.804688 84.941406 " fill-opacity="1" fill-rule="nonzero"/></g><g clip-path="url(#5bd64638b3)"><path fill="#000000" d="M 350.847656 355.265625 C 348.015625 355.265625 345.695312 352.945312 345.695312 350.109375 L 345.695312 344.78125 C 345.695312 343.921875 345.007812 343.234375 344.152344 343.234375 L 313.328125 343.234375 C 310.496094 343.234375 308.175781 340.914062 308.175781 338.078125 L 308.175781 197.113281 C 308.175781 194.277344 310.496094 191.953125 313.328125 191.953125 C 316.160156 191.953125 318.480469 194.277344 318.480469 197.113281 L 318.480469 332.917969 L 344.152344 332.917969 C 350.675781 332.917969 356 338.25 356 344.78125 L 356 350.109375 C 356 352.945312 353.679688 355.265625 350.847656 355.265625 Z M 350.847656 355.265625 " fill-opacity="1" fill-rule="nonzero"/></g><g clip-path="url(#5f5eebf0b7)"><path fill="#000000" d="M 275.808594 355.265625 C 272.976562 355.265625 270.65625 352.945312 270.65625 350.109375 L 270.65625 344.78125 C 270.65625 338.25 275.980469 332.917969 282.507812 332.917969 L 308.175781 332.917969 L 308.175781 197.113281 C 308.175781 194.277344 310.496094 191.953125 313.328125 191.953125 C 316.160156 191.953125 318.480469 194.277344 318.480469 197.113281 L 318.480469 338.078125 C 318.480469 340.914062 316.160156 343.234375 313.328125 343.234375 L 282.507812 343.234375 C 281.648438 343.234375 280.960938 343.921875 280.960938 344.78125 L 280.960938 350.109375 C 280.960938 352.945312 278.640625 355.265625 275.808594 355.265625 Z M 275.808594 355.265625 " fill-opacity="1" fill-rule="nonzero"/></g><path fill="#000000" d="M 333.589844 199.605469 L 313.328125 199.605469 C 310.496094 199.605469 308.175781 197.285156 308.175781 194.449219 C 308.175781 191.609375 310.496094 189.289062 313.328125 189.289062 L 327.410156 189.289062 L 325.347656 177.601562 C 325.089844 176.140625 325.519531 174.59375 326.464844 173.390625 C 327.410156 172.183594 328.867188 171.582031 330.414062 171.582031 L 333.847656 171.582031 L 324.832031 141.671875 C 323.886719 138.664062 321.226562 136.6875 318.050781 136.6875 L 313.328125 136.6875 C 310.496094 136.6875 308.175781 134.367188 308.175781 131.527344 C 308.175781 128.691406 310.496094 126.371094 313.328125 126.371094 L 318.050781 126.371094 C 325.777344 126.371094 332.472656 131.355469 334.707031 138.664062 L 345.867188 175.195312 C 346.382812 176.742188 346.039062 178.460938 345.09375 179.75 C 344.152344 181.039062 342.605469 181.8125 340.972656 181.8125 L 336.679688 181.8125 L 338.742188 193.503906 C 339 194.964844 338.570312 196.511719 337.625 197.714844 C 336.507812 198.917969 335.050781 199.605469 333.589844 199.605469 Z M 333.589844 199.605469 " fill-opacity="1" fill-rule="nonzero"/><path fill="#000000" d="M 313.328125 131.789062 C 303.195312 131.789062 294.953125 123.535156 294.953125 113.394531 C 294.953125 103.25 303.195312 95 313.328125 95 C 323.460938 95 331.703125 103.25 331.703125 113.394531 C 331.617188 123.535156 323.460938 131.789062 313.328125 131.789062 Z M 313.328125 105.398438 C 308.863281 105.398438 305.257812 109.007812 305.257812 113.480469 C 305.257812 117.949219 308.863281 121.558594 313.328125 121.558594 C 317.792969 121.558594 321.398438 117.949219 321.398438 113.480469 C 321.3125 109.007812 317.707031 105.398438 313.328125 105.398438 Z M 313.328125 105.398438 " fill-opacity="1" fill-rule="nonzero"/><path fill="#000000" d="M 313.328125 199.605469 L 293.066406 199.605469 C 291.519531 199.605469 290.0625 198.917969 289.117188 197.800781 C 288.171875 196.597656 287.742188 195.050781 288 193.589844 L 290.0625 181.898438 L 285.769531 181.898438 C 284.136719 181.898438 282.589844 181.125 281.648438 179.835938 C 280.703125 178.546875 280.359375 176.828125 280.875 175.28125 L 292.035156 138.75 C 294.269531 131.355469 300.964844 126.457031 308.691406 126.457031 L 313.414062 126.457031 C 316.246094 126.457031 318.566406 128.777344 318.566406 131.613281 C 318.566406 134.453125 316.246094 136.773438 313.414062 136.773438 L 308.691406 136.773438 C 305.515625 136.773438 302.855469 138.75 301.910156 141.757812 L 292.808594 171.582031 L 296.242188 171.582031 C 297.789062 171.582031 299.246094 172.269531 300.191406 173.390625 C 301.136719 174.59375 301.566406 176.140625 301.308594 177.601562 L 299.246094 189.289062 L 313.328125 189.289062 C 316.160156 189.289062 318.480469 191.609375 318.480469 194.449219 C 318.480469 197.285156 316.160156 199.605469 313.328125 199.605469 Z M 313.328125 199.605469 " fill-opacity="1" fill-rule="nonzero"/><path fill="#000000" d="M 313.328125 131.789062 C 303.195312 131.789062 294.953125 123.535156 294.953125 113.394531 C 294.953125 103.25 303.195312 95 313.328125 95 C 323.460938 95 331.703125 103.25 331.703125 113.394531 C 331.617188 123.535156 323.460938 131.789062 313.328125 131.789062 Z M 313.328125 105.398438 C 308.863281 105.398438 305.257812 109.007812 305.257812 113.480469 C 305.257812 117.949219 308.863281 121.558594 313.328125 121.558594 C 317.792969 121.558594 321.398438 117.949219 321.398438 113.480469 C 321.3125 109.007812 317.707031 105.398438 313.328125 105.398438 Z M 313.328125 105.398438 " fill-opacity="1" fill-rule="nonzero"/><path fill="#000000" d="M 228.074219 350.796875 L 23.90625 350.796875 C 21.074219 350.796875 18.753906 348.476562 18.753906 345.640625 L 18.753906 35.863281 C 18.753906 33.027344 21.074219 30.707031 23.90625 30.707031 L 228.074219 30.707031 C 230.90625 30.707031 233.222656 33.027344 233.222656 35.863281 L 233.222656 345.640625 C 233.222656 348.5625 230.90625 350.796875 228.074219 350.796875 Z M 29.058594 340.484375 L 222.921875 340.484375 L 222.921875 41.019531 L 29.058594 41.019531 Z M 29.058594 340.484375 " fill-opacity="1" fill-rule="nonzero"/><g clip-path="url(#f41731b75f)"><path fill="#000000" d="M 240.867188 350.796875 L 11.113281 350.796875 C 8.28125 350.796875 5.964844 348.476562 5.964844 345.640625 C 5.964844 342.804688 8.28125 340.484375 11.113281 340.484375 L 240.78125 340.484375 C 243.613281 340.484375 245.929688 342.804688 245.929688 345.640625 C 245.929688 348.476562 243.699219 350.796875 240.867188 350.796875 Z M 240.867188 350.796875 " fill-opacity="1" fill-rule="nonzero"/></g><g clip-path="url(#5b934ab71e)"><path fill="#000000" d="M 80.144531 328.449219 C 75.421875 328.449219 71.300781 326.472656 67.78125 324.496094 C 67.265625 324.238281 66.835938 323.980469 66.320312 323.722656 C 63.917969 322.347656 61.597656 321.058594 59.367188 320.542969 C 56.273438 319.855469 53.699219 320.199219 53.097656 320.628906 C 51.722656 322.261719 49.492188 322.863281 47.429688 322.175781 C 45.371094 321.402344 43.996094 319.511719 43.996094 317.277344 L 43.996094 25.203125 C 43.996094 22.367188 46.316406 20.046875 49.148438 20.046875 C 51.980469 20.046875 54.300781 22.367188 54.300781 25.203125 L 54.300781 309.882812 C 56.789062 309.710938 59.367188 309.96875 61.597656 310.484375 C 65.289062 311.34375 68.550781 313.148438 71.300781 314.78125 C 71.730469 315.039062 72.242188 315.296875 72.671875 315.558594 C 75.164062 316.933594 77.824219 318.222656 80.144531 318.136719 C 82.289062 318.050781 84.605469 316.933594 87.269531 315.644531 C 89.84375 314.351562 92.679688 312.976562 95.941406 312.375 C 102.550781 311.085938 108.648438 313.40625 113.96875 315.386719 C 118.261719 317.019531 122.296875 318.480469 125.988281 318.050781 C 128.136719 317.792969 130.453125 316.847656 132.859375 315.816406 C 135.261719 314.78125 137.753906 313.75 140.5 313.148438 C 146.253906 311.859375 152.003906 312.890625 157.070312 313.75 C 158.015625 313.921875 158.957031 314.09375 159.902344 314.265625 C 171.835938 316.160156 182.742188 316.160156 192.269531 314.09375 L 192.097656 274.558594 C 192.097656 271.71875 194.417969 269.398438 197.25 269.398438 C 200.082031 269.398438 202.402344 271.71875 202.402344 274.558594 L 202.660156 318.136719 C 202.660156 320.457031 201.113281 322.519531 198.882812 323.121094 C 187.035156 326.386719 173.382812 326.902344 158.359375 324.496094 C 157.328125 324.324219 156.382812 324.152344 155.351562 323.980469 C 150.800781 323.207031 146.59375 322.433594 142.816406 323.292969 C 141.015625 323.722656 139.039062 324.496094 136.980469 325.355469 C 134.144531 326.558594 130.96875 327.933594 127.363281 328.363281 C 121.183594 329.136719 115.515625 326.988281 110.535156 325.097656 C 106.070312 323.378906 101.777344 321.832031 98 322.519531 C 96.113281 322.863281 94.136719 323.894531 91.992188 324.925781 C 88.726562 326.558594 85.035156 328.363281 80.570312 328.449219 C 80.402344 328.449219 80.230469 328.449219 80.144531 328.449219 Z M 80.144531 328.449219 " fill-opacity="1" fill-rule="nonzero"/></g><path fill="#000000" d="M 88.042969 302.835938 C 85.207031 302.835938 82.890625 300.515625 82.890625 297.679688 L 82.890625 88.035156 C 82.890625 85.199219 85.207031 82.878906 88.042969 82.878906 C 90.875 82.878906 93.191406 85.199219 93.191406 88.035156 L 93.191406 297.679688 C 93.191406 300.515625 90.875 302.835938 88.042969 302.835938 Z M 88.042969 302.835938 " fill-opacity="1" fill-rule="nonzero"/><path fill="#000000" d="M 75.507812 67.835938 C 62.371094 67.835938 52.496094 62.507812 47.773438 59.328125 C 45.457031 57.695312 44.769531 54.515625 46.402344 52.195312 C 48.03125 49.871094 51.210938 49.183594 53.527344 50.820312 C 57.304688 53.3125 65.117188 57.609375 75.507812 57.609375 C 84.179688 57.609375 91.046875 54.6875 95.253906 52.28125 L 95.253906 27.867188 C 95.253906 25.03125 97.570312 22.710938 100.40625 22.710938 C 103.238281 22.710938 105.554688 25.03125 105.554688 27.867188 L 105.554688 55.03125 C 105.554688 56.75 104.699219 58.382812 103.324219 59.328125 C 98.601562 62.507812 88.644531 67.835938 75.507812 67.835938 Z M 75.507812 67.835938 " fill-opacity="1" fill-rule="nonzero"/><path fill="#000000" d="M 124.101562 67.835938 C 110.964844 67.835938 101.089844 62.507812 96.371094 59.328125 C 94.050781 57.695312 93.363281 54.515625 94.996094 52.195312 C 96.628906 49.871094 99.804688 49.183594 102.121094 50.820312 C 105.898438 53.3125 113.710938 57.609375 124.101562 57.609375 C 132.773438 57.609375 139.640625 54.6875 143.847656 52.28125 L 143.847656 27.867188 C 143.847656 25.03125 146.167969 22.710938 149 22.710938 C 151.832031 22.710938 154.152344 25.03125 154.152344 27.867188 L 154.152344 55.03125 C 154.152344 56.75 153.292969 58.382812 151.917969 59.328125 C 147.109375 62.507812 137.238281 67.835938 124.101562 67.835938 Z M 124.101562 67.835938 " fill-opacity="1" fill-rule="nonzero"/><path fill="#000000" d="M 172.695312 67.835938 C 159.558594 67.835938 149.6875 62.507812 144.964844 59.328125 C 142.644531 57.695312 141.960938 54.515625 143.589844 52.195312 C 145.222656 49.871094 148.398438 49.183594 150.714844 50.820312 C 154.496094 53.3125 162.308594 57.609375 172.695312 57.609375 C 181.367188 57.609375 188.234375 54.6875 192.441406 52.28125 L 192.441406 27.867188 C 192.441406 25.03125 194.761719 22.710938 197.59375 22.710938 C 200.425781 22.710938 202.746094 25.03125 202.746094 27.867188 L 202.746094 55.03125 C 202.746094 56.75 201.886719 58.382812 200.511719 59.328125 C 195.707031 62.507812 185.832031 67.835938 172.695312 67.835938 Z M 172.695312 67.835938 " fill-opacity="1" fill-rule="nonzero"/><path fill="#000000" d="M 197.507812 153.191406 C 194.675781 153.191406 192.355469 150.867188 192.355469 148.03125 L 192.355469 45.316406 C 192.355469 42.480469 194.675781 40.160156 197.507812 40.160156 C 200.339844 40.160156 202.660156 42.480469 202.660156 45.316406 L 202.660156 148.03125 C 202.660156 150.867188 200.339844 153.191406 197.507812 153.191406 Z M 197.507812 153.191406 " fill-opacity="1" fill-rule="nonzero"/><path fill="#000000" d="M 196.820312 198.058594 L 182.742188 198.058594 C 179.90625 198.058594 177.589844 195.738281 177.589844 192.898438 C 177.589844 190.0625 179.90625 187.742188 182.742188 187.742188 L 196.820312 187.742188 C 200.425781 187.742188 201.457031 184.820312 201.628906 183.960938 C 201.886719 183.101562 202.316406 180.007812 199.140625 178.375 L 155.09375 154.652344 C 153.464844 153.792969 152.347656 151.984375 152.347656 150.09375 L 152.347656 136.601562 C 152.347656 133.765625 154.667969 131.441406 157.5 131.441406 C 160.246094 131.441406 162.910156 130.238281 164.796875 128.175781 C 166.6875 126.113281 167.542969 123.363281 167.199219 120.527344 C 166.6875 116.058594 163.078125 112.449219 158.617188 111.933594 C 155.78125 111.589844 153.035156 112.449219 150.972656 114.339844 C 148.914062 116.230469 147.710938 118.894531 147.710938 121.644531 C 147.710938 124.480469 145.394531 126.800781 142.558594 126.800781 C 139.726562 126.800781 137.410156 124.480469 137.410156 121.644531 C 137.410156 115.972656 139.8125 110.46875 144.105469 106.6875 C 148.3125 102.90625 154.066406 101.015625 159.730469 101.703125 C 169.003906 102.734375 176.386719 110.210938 177.417969 119.410156 C 178.019531 125.082031 176.214844 130.839844 172.4375 135.054688 C 169.777344 137.976562 166.34375 140.039062 162.652344 141.070312 L 162.652344 147 L 203.949219 169.261719 C 210.214844 172.617188 213.304688 179.578125 211.503906 186.453125 C 209.957031 193.417969 203.949219 198.058594 196.820312 198.058594 Z M 196.820312 198.058594 " fill-opacity="1" fill-rule="nonzero"/><path fill="#000000" d="M 132.429688 198.058594 L 118.347656 198.058594 C 111.222656 198.058594 105.210938 193.417969 103.496094 186.453125 C 101.777344 179.492188 104.785156 172.617188 111.050781 169.261719 L 152.347656 147 L 152.347656 136.601562 C 152.347656 133.765625 154.667969 131.441406 157.5 131.441406 C 160.332031 131.441406 162.652344 133.765625 162.652344 136.601562 L 162.652344 150.09375 C 162.652344 151.984375 161.621094 153.707031 159.902344 154.652344 L 115.859375 178.375 C 112.683594 180.09375 113.199219 183.101562 113.371094 183.960938 C 113.625 184.820312 114.570312 187.742188 118.175781 187.742188 L 132.257812 187.742188 C 135.089844 187.742188 137.410156 190.0625 137.410156 192.898438 C 137.410156 195.738281 135.261719 198.058594 132.429688 198.058594 Z M 132.429688 198.058594 " fill-opacity="1" fill-rule="nonzero"/><path fill="#000000" d="M 172.523438 126.800781 C 169.691406 126.800781 167.371094 124.480469 167.371094 121.644531 C 167.371094 118.894531 166.171875 116.230469 164.109375 114.339844 C 162.050781 112.449219 159.300781 111.589844 156.46875 111.933594 C 152.003906 112.449219 148.398438 116.058594 147.882812 120.527344 C 147.539062 123.363281 145.050781 125.425781 142.21875 125.082031 C 139.382812 124.738281 137.324219 122.246094 137.667969 119.410156 C 138.695312 110.125 146.167969 102.734375 155.351562 101.703125 C 161.019531 101.101562 166.773438 102.90625 170.980469 106.6875 C 175.273438 110.46875 177.675781 115.972656 177.675781 121.644531 C 177.675781 124.480469 175.355469 126.800781 172.523438 126.800781 Z M 172.523438 126.800781 " fill-opacity="1" fill-rule="nonzero"/><path fill="#000000" d="M 196.5625 257.882812 L 118.691406 257.882812 C 117.148438 257.882812 115.601562 257.195312 114.65625 255.90625 C 113.710938 254.703125 113.285156 253.066406 113.710938 251.519531 L 129.855469 182.929688 C 130.367188 180.609375 132.515625 178.976562 134.832031 178.976562 L 180.507812 178.976562 C 182.914062 178.976562 184.972656 180.609375 185.488281 182.929688 L 201.628906 251.519531 C 201.972656 253.066406 201.628906 254.703125 200.683594 255.90625 C 199.65625 257.109375 198.109375 257.882812 196.5625 257.882812 Z M 125.21875 247.566406 L 190.039062 247.566406 L 176.386719 189.289062 L 138.867188 189.289062 Z M 125.21875 247.566406 " fill-opacity="1" fill-rule="nonzero"/></svg>