<svg xmlns="http://www.w3.org/2000/svg" xmlns:xlink="http://www.w3.org/1999/xlink" width="500" zoomAndPan="magnify" viewBox="0 0 375 374.999991" height="500" preserveAspectRatio="xMidYMid meet" version="1.0"><defs><clipPath id="05268e9e86"><path d="M 8.378906 7.289062 L 120.878906 7.289062 L 120.878906 37.5 L 8.378906 37.5 Z M 8.378906 7.289062 " clip-rule="nonzero"/></clipPath><clipPath id="44f9939492"><path d="M 0.378906 0.289062 L 112.878906 0.289062 L 112.878906 30.5 L 0.378906 30.5 Z M 0.378906 0.289062 " clip-rule="nonzero"/></clipPath><clipPath id="184ac668c7"><rect x="0" width="113" y="0" height="31"/></clipPath><clipPath id="d3cbf147c5"><path d="M 7.296875 7.285156 L 37.503906 7.285156 L 37.503906 119.785156 L 7.296875 119.785156 Z M 7.296875 7.285156 " clip-rule="nonzero"/></clipPath><clipPath id="7cbed99faa"><path d="M 0.296875 0.285156 L 30.503906 0.285156 L 30.503906 112.785156 L 0.296875 112.785156 Z M 0.296875 0.285156 " clip-rule="nonzero"/></clipPath><clipPath id="16301fc767"><rect x="0" width="31" y="0" height="113"/></clipPath><clipPath id="52be9bffda"><path d="M 335.835938 8.386719 L 366.046875 8.386719 L 366.046875 120.886719 L 335.835938 120.886719 Z M 335.835938 8.386719 " clip-rule="nonzero"/></clipPath><clipPath id="2007bc4976"><path d="M 0.835938 0.386719 L 31.046875 0.386719 L 31.046875 112.886719 L 0.835938 112.886719 Z M 0.835938 0.386719 " clip-rule="nonzero"/></clipPath><clipPath id="9c5c10ea97"><rect x="0" width="32" y="0" height="113"/></clipPath><clipPath id="c5d14fec42"><path d="M 253.550781 7.300781 L 366.050781 7.300781 L 366.050781 37.511719 L 253.550781 37.511719 Z M 253.550781 7.300781 " clip-rule="nonzero"/></clipPath><clipPath id="1b915700be"><path d="M 0.550781 0.300781 L 113.050781 0.300781 L 113.050781 30.511719 L 0.550781 30.511719 Z M 0.550781 0.300781 " clip-rule="nonzero"/></clipPath><clipPath id="62fc22c68e"><rect x="0" width="114" y="0" height="31"/></clipPath><clipPath id="0783c5933d"><path d="M 252.449219 336.96875 L 364.949219 336.96875 L 364.949219 367.179688 L 252.449219 367.179688 Z M 252.449219 336.96875 " clip-rule="nonzero"/></clipPath><clipPath id="03030a45f7"><path d="M 0.449219 0.96875 L 112.949219 0.96875 L 112.949219 31.179688 L 0.449219 31.179688 Z M 0.449219 0.96875 " clip-rule="nonzero"/></clipPath><clipPath id="c6bd9dcb3c"><rect x="0" width="113" y="0" height="32"/></clipPath><clipPath id="5c18c8b179"><path d="M 335.824219 254.683594 L 366.035156 254.683594 L 366.035156 367.183594 L 335.824219 367.183594 Z M 335.824219 254.683594 " clip-rule="nonzero"/></clipPath><clipPath id="003cbbf415"><path d="M 0.824219 0.683594 L 31.035156 0.683594 L 31.035156 113.183594 L 0.824219 113.183594 Z M 0.824219 0.683594 " clip-rule="nonzero"/></clipPath><clipPath id="3ab50eeb6e"><rect x="0" width="32" y="0" height="114"/></clipPath><clipPath id="35de69fca4"><path d="M 7.285156 253.582031 L 37.496094 253.582031 L 37.496094 366.082031 L 7.285156 366.082031 Z M 7.285156 253.582031 " clip-rule="nonzero"/></clipPath><clipPath id="0f71e783bd"><path d="M 0.285156 0.582031 L 30.496094 0.582031 L 30.496094 113.082031 L 0.285156 113.082031 Z M 0.285156 0.582031 " clip-rule="nonzero"/></clipPath><clipPath id="4dc782452f"><rect x="0" width="31" y="0" height="114"/></clipPath><clipPath id="6246dbfc8f"><path d="M 7.277344 336.957031 L 119.777344 336.957031 L 119.777344 367.167969 L 7.277344 367.167969 Z M 7.277344 336.957031 " clip-rule="nonzero"/></clipPath><clipPath id="811d971241"><path d="M 0.277344 0.957031 L 112.777344 0.957031 L 112.777344 31.167969 L 0.277344 31.167969 Z M 0.277344 0.957031 " clip-rule="nonzero"/></clipPath><clipPath id="200a9eaa0f"><rect x="0" width="113" y="0" height="32"/></clipPath><clipPath id="32a06ded4a"><path d="M 42.984375 44.488281 L 258 44.488281 L 258 259 L 42.984375 259 Z M 42.984375 44.488281 " clip-rule="nonzero"/></clipPath></defs><g clip-path="url(#05268e9e86)"><g transform="matrix(1, 0, 0, 1, 8, 7)"><g clip-path="url(#184ac668c7)"><g clip-path="url(#44f9939492)"><path fill="#212121" d="M 0.378906 0.289062 L 112.84375 0.289062 L 112.84375 30.5 L 0.378906 30.5 Z M 0.378906 0.289062 " fill-opacity="1" fill-rule="nonzero"/></g></g></g></g><g clip-path="url(#d3cbf147c5)"><g transform="matrix(1, 0, 0, 1, 7, 7)"><g clip-path="url(#16301fc767)"><g clip-path="url(#7cbed99faa)"><path fill="#212121" d="M 0.296875 112.785156 L 0.296875 0.320312 L 30.503906 0.320312 L 30.503906 112.785156 Z M 0.296875 112.785156 " fill-opacity="1" fill-rule="nonzero"/></g></g></g></g><g clip-path="url(#52be9bffda)"><g transform="matrix(1, 0, 0, 1, 335, 8)"><g clip-path="url(#9c5c10ea97)"><g clip-path="url(#2007bc4976)"><path fill="#212121" d="M 31.046875 0.386719 L 31.046875 112.847656 L 0.835938 112.847656 L 0.835938 0.386719 Z M 31.046875 0.386719 " fill-opacity="1" fill-rule="nonzero"/></g></g></g></g><g clip-path="url(#c5d14fec42)"><g transform="matrix(1, 0, 0, 1, 253, 7)"><g clip-path="url(#62fc22c68e)"><g clip-path="url(#1b915700be)"><path fill="#212121" d="M 0.550781 0.300781 L 113.015625 0.300781 L 113.015625 30.511719 L 0.550781 30.511719 Z M 0.550781 0.300781 " fill-opacity="1" fill-rule="nonzero"/></g></g></g></g><g clip-path="url(#0783c5933d)"><g transform="matrix(1, 0, 0, 1, 252, 336)"><g clip-path="url(#c6bd9dcb3c)"><g clip-path="url(#03030a45f7)"><path fill="#212121" d="M 112.949219 31.179688 L 0.488281 31.179688 L 0.488281 0.96875 L 112.949219 0.96875 Z M 112.949219 31.179688 " fill-opacity="1" fill-rule="nonzero"/></g></g></g></g><g clip-path="url(#5c18c8b179)"><g transform="matrix(1, 0, 0, 1, 335, 254)"><g clip-path="url(#3ab50eeb6e)"><g clip-path="url(#003cbbf415)"><path fill="#212121" d="M 31.035156 0.683594 L 31.035156 113.148438 L 0.824219 113.148438 L 0.824219 0.683594 Z M 31.035156 0.683594 " fill-opacity="1" fill-rule="nonzero"/></g></g></g></g><g clip-path="url(#35de69fca4)"><g transform="matrix(1, 0, 0, 1, 7, 253)"><g clip-path="url(#4dc782452f)"><g clip-path="url(#0f71e783bd)"><path fill="#212121" d="M 0.285156 113.082031 L 0.285156 0.621094 L 30.496094 0.621094 L 30.496094 113.082031 Z M 0.285156 113.082031 " fill-opacity="1" fill-rule="nonzero"/></g></g></g></g><g clip-path="url(#6246dbfc8f)"><g transform="matrix(1, 0, 0, 1, 7, 336)"><g clip-path="url(#200a9eaa0f)"><g clip-path="url(#811d971241)"><path fill="#212121" d="M 112.777344 31.167969 L 0.316406 31.167969 L 0.316406 0.957031 L 112.777344 0.957031 Z M 112.777344 31.167969 " fill-opacity="1" fill-rule="nonzero"/></g></g></g></g><path fill="#000000" d="M 320.507812 284.246094 L 258.023438 214.519531 C 248.269531 229.679688 228.316406 248.742188 213.15625 258.496094 L 282.714844 321.980469 C 293.195312 332.460938 310.140625 332.460938 320.5625 321.980469 C 330.984375 311.613281 330.984375 294.671875 320.507812 284.246094 Z M 320.507812 284.246094 " fill-opacity="1" fill-rule="nonzero"/><g clip-path="url(#32a06ded4a)"><path fill="#000000" d="M 257.019531 151.535156 C 257.019531 92.453125 209.085938 44.515625 150.003906 44.515625 C 90.921875 44.515625 42.984375 92.453125 42.984375 151.535156 C 42.984375 210.617188 90.921875 258.550781 150.003906 258.550781 C 209.085938 258.550781 257.019531 210.617188 257.019531 151.535156 Z M 150.003906 231.796875 C 105.746094 231.796875 69.742188 195.789062 69.742188 151.535156 C 69.742188 107.277344 105.746094 71.269531 150.003906 71.269531 C 194.261719 71.269531 230.265625 107.277344 230.265625 151.535156 C 230.265625 195.789062 194.261719 231.796875 150.003906 231.796875 Z M 150.003906 231.796875 " fill-opacity="1" fill-rule="nonzero"/></g></svg>